%TF.GenerationSoftware,KiCad,Pcbnew,(5.1.9)-1*%
%TF.CreationDate,2021-05-14T01:46:21+02:00*%
%TF.ProjectId,Netzteil,4e65747a-7465-4696-9c2e-6b696361645f,rev?*%
%TF.SameCoordinates,Original*%
%TF.FileFunction,Copper,L1,Top*%
%TF.FilePolarity,Positive*%
%FSLAX46Y46*%
G04 Gerber Fmt 4.6, Leading zero omitted, Abs format (unit mm)*
G04 Created by KiCad (PCBNEW (5.1.9)-1) date 2021-05-14 01:46:21*
%MOMM*%
%LPD*%
G01*
G04 APERTURE LIST*
%TA.AperFunction,ComponentPad*%
%ADD10C,2.500000*%
%TD*%
%TA.AperFunction,ComponentPad*%
%ADD11R,2.500000X2.500000*%
%TD*%
%TA.AperFunction,SMDPad,CuDef*%
%ADD12R,1.500000X2.000000*%
%TD*%
%TA.AperFunction,SMDPad,CuDef*%
%ADD13R,3.800000X2.000000*%
%TD*%
%TA.AperFunction,ComponentPad*%
%ADD14C,1.600000*%
%TD*%
%TA.AperFunction,ComponentPad*%
%ADD15O,1.400000X1.400000*%
%TD*%
%TA.AperFunction,ComponentPad*%
%ADD16C,1.400000*%
%TD*%
%TA.AperFunction,SMDPad,CuDef*%
%ADD17R,3.150000X1.000000*%
%TD*%
%TA.AperFunction,ViaPad*%
%ADD18C,0.800000*%
%TD*%
%TA.AperFunction,Conductor*%
%ADD19C,0.250000*%
%TD*%
G04 APERTURE END LIST*
D10*
%TO.P,J1,2*%
%TO.N,Net-(J1-Pad2)*%
X117070000Y-109250000D03*
D11*
%TO.P,J1,1*%
%TO.N,Net-(J1-Pad1)*%
X122150000Y-109250000D03*
%TD*%
%TO.P,C1,2*%
%TO.N,GND*%
%TA.AperFunction,SMDPad,CuDef*%
G36*
G01*
X109574999Y-89625000D02*
X111425001Y-89625000D01*
G75*
G02*
X111675000Y-89874999I0J-249999D01*
G01*
X111675000Y-91625001D01*
G75*
G02*
X111425001Y-91875000I-249999J0D01*
G01*
X109574999Y-91875000D01*
G75*
G02*
X109325000Y-91625001I0J249999D01*
G01*
X109325000Y-89874999D01*
G75*
G02*
X109574999Y-89625000I249999J0D01*
G01*
G37*
%TD.AperFunction*%
%TO.P,C1,1*%
%TO.N,+5V*%
%TA.AperFunction,SMDPad,CuDef*%
G36*
G01*
X109574999Y-84525000D02*
X111425001Y-84525000D01*
G75*
G02*
X111675000Y-84774999I0J-249999D01*
G01*
X111675000Y-86525001D01*
G75*
G02*
X111425001Y-86775000I-249999J0D01*
G01*
X109574999Y-86775000D01*
G75*
G02*
X109325000Y-86525001I0J249999D01*
G01*
X109325000Y-84774999D01*
G75*
G02*
X109574999Y-84525000I249999J0D01*
G01*
G37*
%TD.AperFunction*%
%TD*%
%TO.P,C2,2*%
%TO.N,GND*%
%TA.AperFunction,SMDPad,CuDef*%
G36*
G01*
X128574999Y-89625000D02*
X130425001Y-89625000D01*
G75*
G02*
X130675000Y-89874999I0J-249999D01*
G01*
X130675000Y-91625001D01*
G75*
G02*
X130425001Y-91875000I-249999J0D01*
G01*
X128574999Y-91875000D01*
G75*
G02*
X128325000Y-91625001I0J249999D01*
G01*
X128325000Y-89874999D01*
G75*
G02*
X128574999Y-89625000I249999J0D01*
G01*
G37*
%TD.AperFunction*%
%TO.P,C2,1*%
%TO.N,+3V3*%
%TA.AperFunction,SMDPad,CuDef*%
G36*
G01*
X128574999Y-84525000D02*
X130425001Y-84525000D01*
G75*
G02*
X130675000Y-84774999I0J-249999D01*
G01*
X130675000Y-86525001D01*
G75*
G02*
X130425001Y-86775000I-249999J0D01*
G01*
X128574999Y-86775000D01*
G75*
G02*
X128325000Y-86525001I0J249999D01*
G01*
X128325000Y-84774999D01*
G75*
G02*
X128574999Y-84525000I249999J0D01*
G01*
G37*
%TD.AperFunction*%
%TD*%
D12*
%TO.P,U2,1*%
%TO.N,GND*%
X122300000Y-73500000D03*
%TO.P,U2,3*%
%TO.N,+5V*%
X117700000Y-73500000D03*
%TO.P,U2,2*%
%TO.N,+3V3*%
X120000000Y-73500000D03*
D13*
%TO.P,U2,4*%
%TO.N,N/C*%
X120000000Y-79800000D03*
%TD*%
D14*
%TO.P,RV1,2*%
%TO.N,Net-(J1-Pad1)*%
X133250000Y-106400000D03*
%TO.P,RV1,1*%
%TO.N,Net-(J1-Pad2)*%
X128250000Y-107700000D03*
%TD*%
D15*
%TO.P,R1,2*%
%TO.N,Net-(J1-Pad2)*%
X109290000Y-107200000D03*
D16*
%TO.P,R1,1*%
%TO.N,Net-(PS1-Pad1)*%
X106750000Y-107200000D03*
%TD*%
D17*
%TO.P,J2,8*%
%TO.N,GND*%
X122275000Y-93260000D03*
%TO.P,J2,7*%
X117225000Y-93260000D03*
%TO.P,J2,6*%
X122275000Y-90720000D03*
%TO.P,J2,5*%
X117225000Y-90720000D03*
%TO.P,J2,4*%
%TO.N,+3V3*%
X122275000Y-88180000D03*
%TO.P,J2,3*%
X117225000Y-88180000D03*
%TO.P,J2,2*%
%TO.N,+5V*%
X122275000Y-85640000D03*
%TO.P,J2,1*%
X117225000Y-85640000D03*
%TD*%
D18*
%TO.N,GND*%
X130400000Y-73500000D03*
%TO.N,+5V*%
X109800000Y-73450000D03*
%TD*%
D19*
%TO.N,GND*%
X117195000Y-90750000D02*
X117225000Y-90720000D01*
X110500000Y-90750000D02*
X117195000Y-90750000D01*
X122305000Y-90750000D02*
X122275000Y-90720000D01*
X129500000Y-90750000D02*
X122305000Y-90750000D01*
X117225000Y-90720000D02*
X117225000Y-93260000D01*
X117225000Y-90720000D02*
X122275000Y-90720000D01*
X122275000Y-90720000D02*
X122275000Y-93260000D01*
X122275000Y-93260000D02*
X117225000Y-93260000D01*
X131000010Y-89249990D02*
X129500000Y-90750000D01*
X131000010Y-74100010D02*
X131000010Y-89249990D01*
X130400000Y-73500000D02*
X131000010Y-74100010D01*
X122300000Y-73500000D02*
X130400000Y-73500000D01*
%TO.N,+3V3*%
X129490000Y-85640000D02*
X129500000Y-85650000D01*
X120000000Y-76150000D02*
X129500000Y-85650000D01*
X120000000Y-73500000D02*
X120000000Y-76150000D01*
X117225000Y-88180000D02*
X122275000Y-88180000D01*
X126970000Y-88180000D02*
X129500000Y-85650000D01*
X122275000Y-88180000D02*
X126970000Y-88180000D01*
%TO.N,+5V*%
X117215000Y-85650000D02*
X117225000Y-85640000D01*
X110500000Y-85650000D02*
X117215000Y-85650000D01*
X117650000Y-73450000D02*
X117700000Y-73500000D01*
X109800000Y-73450000D02*
X117650000Y-73450000D01*
X109800000Y-84950000D02*
X110500000Y-85650000D01*
X109800000Y-73450000D02*
X109800000Y-84950000D01*
X117225000Y-85640000D02*
X122275000Y-85640000D01*
%TD*%
M02*
