%TF.GenerationSoftware,KiCad,Pcbnew,(5.1.9)-1*%
%TF.CreationDate,2021-05-14T01:46:21+02:00*%
%TF.ProjectId,Netzteil,4e65747a-7465-4696-9c2e-6b696361645f,rev?*%
%TF.SameCoordinates,Original*%
%TF.FileFunction,Paste,Top*%
%TF.FilePolarity,Positive*%
%FSLAX46Y46*%
G04 Gerber Fmt 4.6, Leading zero omitted, Abs format (unit mm)*
G04 Created by KiCad (PCBNEW (5.1.9)-1) date 2021-05-14 01:46:21*
%MOMM*%
%LPD*%
G01*
G04 APERTURE LIST*
%ADD10R,1.500000X2.000000*%
%ADD11R,3.800000X2.000000*%
%ADD12R,3.150000X1.000000*%
G04 APERTURE END LIST*
%TO.C,C1*%
G36*
G01*
X109574999Y-89625000D02*
X111425001Y-89625000D01*
G75*
G02*
X111675000Y-89874999I0J-249999D01*
G01*
X111675000Y-91625001D01*
G75*
G02*
X111425001Y-91875000I-249999J0D01*
G01*
X109574999Y-91875000D01*
G75*
G02*
X109325000Y-91625001I0J249999D01*
G01*
X109325000Y-89874999D01*
G75*
G02*
X109574999Y-89625000I249999J0D01*
G01*
G37*
G36*
G01*
X109574999Y-84525000D02*
X111425001Y-84525000D01*
G75*
G02*
X111675000Y-84774999I0J-249999D01*
G01*
X111675000Y-86525001D01*
G75*
G02*
X111425001Y-86775000I-249999J0D01*
G01*
X109574999Y-86775000D01*
G75*
G02*
X109325000Y-86525001I0J249999D01*
G01*
X109325000Y-84774999D01*
G75*
G02*
X109574999Y-84525000I249999J0D01*
G01*
G37*
%TD*%
%TO.C,C2*%
G36*
G01*
X128574999Y-89625000D02*
X130425001Y-89625000D01*
G75*
G02*
X130675000Y-89874999I0J-249999D01*
G01*
X130675000Y-91625001D01*
G75*
G02*
X130425001Y-91875000I-249999J0D01*
G01*
X128574999Y-91875000D01*
G75*
G02*
X128325000Y-91625001I0J249999D01*
G01*
X128325000Y-89874999D01*
G75*
G02*
X128574999Y-89625000I249999J0D01*
G01*
G37*
G36*
G01*
X128574999Y-84525000D02*
X130425001Y-84525000D01*
G75*
G02*
X130675000Y-84774999I0J-249999D01*
G01*
X130675000Y-86525001D01*
G75*
G02*
X130425001Y-86775000I-249999J0D01*
G01*
X128574999Y-86775000D01*
G75*
G02*
X128325000Y-86525001I0J249999D01*
G01*
X128325000Y-84774999D01*
G75*
G02*
X128574999Y-84525000I249999J0D01*
G01*
G37*
%TD*%
D10*
%TO.C,U2*%
X122300000Y-73500000D03*
X117700000Y-73500000D03*
X120000000Y-73500000D03*
D11*
X120000000Y-79800000D03*
%TD*%
D12*
%TO.C,J2*%
X122275000Y-93260000D03*
X117225000Y-93260000D03*
X122275000Y-90720000D03*
X117225000Y-90720000D03*
X122275000Y-88180000D03*
X117225000Y-88180000D03*
X122275000Y-85640000D03*
X117225000Y-85640000D03*
%TD*%
M02*
