%TF.GenerationSoftware,KiCad,Pcbnew,(5.1.9)-1*%
%TF.CreationDate,2021-05-14T01:46:21+02:00*%
%TF.ProjectId,Netzteil,4e65747a-7465-4696-9c2e-6b696361645f,rev?*%
%TF.SameCoordinates,Original*%
%TF.FileFunction,Legend,Top*%
%TF.FilePolarity,Positive*%
%FSLAX46Y46*%
G04 Gerber Fmt 4.6, Leading zero omitted, Abs format (unit mm)*
G04 Created by KiCad (PCBNEW (5.1.9)-1) date 2021-05-14 01:46:21*
%MOMM*%
%LPD*%
G01*
G04 APERTURE LIST*
%ADD10C,0.120000*%
%ADD11C,0.150000*%
G04 APERTURE END LIST*
D10*
%TO.C,J1*%
X118750000Y-109250000D02*
G75*
G03*
X118750000Y-109250000I-1680000J0D01*
G01*
X124750000Y-107250000D02*
X114470000Y-107250000D01*
X124750000Y-111250000D02*
X114470000Y-111250000D01*
X124750000Y-113310000D02*
X114470000Y-113310000D01*
X124750000Y-105190000D02*
X114470000Y-105190000D01*
X124750000Y-113310000D02*
X124750000Y-105190000D01*
X114470000Y-113310000D02*
X114470000Y-105190000D01*
X115795000Y-110319000D02*
X115889000Y-110226000D01*
X118080000Y-108034000D02*
X118139000Y-107976000D01*
X116000000Y-110525000D02*
X116059000Y-110466000D01*
X118250000Y-108274000D02*
X118344000Y-108181000D01*
X124990000Y-107190000D02*
X124990000Y-104950000D01*
X124990000Y-104950000D02*
X122990000Y-104950000D01*
X122120617Y-107569550D02*
G75*
G02*
X122939000Y-107766000I29383J-1680450D01*
G01*
X123633953Y-108460912D02*
G75*
G02*
X123634000Y-110039000I-1483953J-789088D01*
G01*
X122939088Y-110733953D02*
G75*
G02*
X121361000Y-110734000I-789088J1483953D01*
G01*
X120666047Y-110039088D02*
G75*
G02*
X120666000Y-108461000I1483953J789088D01*
G01*
X121361288Y-107766648D02*
G75*
G02*
X122150000Y-107570000I788712J-1483352D01*
G01*
%TO.C,C1*%
X108790000Y-84265000D02*
X108790000Y-91200000D01*
X112210000Y-84265000D02*
X108790000Y-84265000D01*
X112210000Y-91200000D02*
X112210000Y-84265000D01*
%TO.C,C2*%
X127790000Y-84265000D02*
X127790000Y-91200000D01*
X131210000Y-84265000D02*
X127790000Y-84265000D01*
X131210000Y-91200000D02*
X131210000Y-84265000D01*
%TO.C,U2*%
X123410000Y-72550000D02*
X123410000Y-78560000D01*
X116590000Y-74800000D02*
X116590000Y-78560000D01*
X123410000Y-78560000D02*
X122150000Y-78560000D01*
X116590000Y-78560000D02*
X117850000Y-78560000D01*
%TO.C,J2*%
X122350000Y-91480000D02*
X122350000Y-92500000D01*
X117150000Y-91480000D02*
X117150000Y-92500000D01*
X122350000Y-88940000D02*
X122350000Y-89960000D01*
X117150000Y-88940000D02*
X117150000Y-89960000D01*
X122350000Y-86400000D02*
X122350000Y-87420000D01*
X117150000Y-86400000D02*
X117150000Y-87420000D01*
X122350000Y-94020000D02*
X122350000Y-94590000D01*
X117150000Y-94020000D02*
X117150000Y-94590000D01*
X122350000Y-84310000D02*
X122350000Y-84880000D01*
X117150000Y-84310000D02*
X117150000Y-84880000D01*
X115710000Y-84880000D02*
X117150000Y-84880000D01*
X117150000Y-94590000D02*
X122350000Y-94590000D01*
X117150000Y-84310000D02*
X122350000Y-84310000D01*
%TO.C,J1*%
D11*
X119316666Y-113762380D02*
X119316666Y-114476666D01*
X119269047Y-114619523D01*
X119173809Y-114714761D01*
X119030952Y-114762380D01*
X118935714Y-114762380D01*
X120316666Y-114762380D02*
X119745238Y-114762380D01*
X120030952Y-114762380D02*
X120030952Y-113762380D01*
X119935714Y-113905238D01*
X119840476Y-114000476D01*
X119745238Y-114048095D01*
%TO.C,C1*%
X113407142Y-88366666D02*
X113454761Y-88414285D01*
X113502380Y-88557142D01*
X113502380Y-88652380D01*
X113454761Y-88795238D01*
X113359523Y-88890476D01*
X113264285Y-88938095D01*
X113073809Y-88985714D01*
X112930952Y-88985714D01*
X112740476Y-88938095D01*
X112645238Y-88890476D01*
X112550000Y-88795238D01*
X112502380Y-88652380D01*
X112502380Y-88557142D01*
X112550000Y-88414285D01*
X112597619Y-88366666D01*
X113502380Y-87414285D02*
X113502380Y-87985714D01*
X113502380Y-87700000D02*
X112502380Y-87700000D01*
X112645238Y-87795238D01*
X112740476Y-87890476D01*
X112788095Y-87985714D01*
%TO.C,C2*%
X132407142Y-88366666D02*
X132454761Y-88414285D01*
X132502380Y-88557142D01*
X132502380Y-88652380D01*
X132454761Y-88795238D01*
X132359523Y-88890476D01*
X132264285Y-88938095D01*
X132073809Y-88985714D01*
X131930952Y-88985714D01*
X131740476Y-88938095D01*
X131645238Y-88890476D01*
X131550000Y-88795238D01*
X131502380Y-88652380D01*
X131502380Y-88557142D01*
X131550000Y-88414285D01*
X131597619Y-88366666D01*
X131597619Y-87985714D02*
X131550000Y-87938095D01*
X131502380Y-87842857D01*
X131502380Y-87604761D01*
X131550000Y-87509523D01*
X131597619Y-87461904D01*
X131692857Y-87414285D01*
X131788095Y-87414285D01*
X131930952Y-87461904D01*
X132502380Y-88033333D01*
X132502380Y-87414285D01*
%TO.C,U2*%
X114952380Y-77411904D02*
X115761904Y-77411904D01*
X115857142Y-77364285D01*
X115904761Y-77316666D01*
X115952380Y-77221428D01*
X115952380Y-77030952D01*
X115904761Y-76935714D01*
X115857142Y-76888095D01*
X115761904Y-76840476D01*
X114952380Y-76840476D01*
X115047619Y-76411904D02*
X115000000Y-76364285D01*
X114952380Y-76269047D01*
X114952380Y-76030952D01*
X115000000Y-75935714D01*
X115047619Y-75888095D01*
X115142857Y-75840476D01*
X115238095Y-75840476D01*
X115380952Y-75888095D01*
X115952380Y-76459523D01*
X115952380Y-75840476D01*
%TO.C,J2*%
X119416666Y-82762380D02*
X119416666Y-83476666D01*
X119369047Y-83619523D01*
X119273809Y-83714761D01*
X119130952Y-83762380D01*
X119035714Y-83762380D01*
X119845238Y-82857619D02*
X119892857Y-82810000D01*
X119988095Y-82762380D01*
X120226190Y-82762380D01*
X120321428Y-82810000D01*
X120369047Y-82857619D01*
X120416666Y-82952857D01*
X120416666Y-83048095D01*
X120369047Y-83190952D01*
X119797619Y-83762380D01*
X120416666Y-83762380D01*
%TD*%
M02*
