%TF.GenerationSoftware,KiCad,Pcbnew,(5.1.9)-1*%
%TF.CreationDate,2021-05-14T01:46:21+02:00*%
%TF.ProjectId,Netzteil,4e65747a-7465-4696-9c2e-6b696361645f,rev?*%
%TF.SameCoordinates,Original*%
%TF.FileFunction,Legend,Bot*%
%TF.FilePolarity,Positive*%
%FSLAX46Y46*%
G04 Gerber Fmt 4.6, Leading zero omitted, Abs format (unit mm)*
G04 Created by KiCad (PCBNEW (5.1.9)-1) date 2021-05-14 01:46:21*
%MOMM*%
%LPD*%
G01*
G04 APERTURE LIST*
%ADD10C,0.150000*%
%ADD11C,0.120000*%
G04 APERTURE END LIST*
D10*
%TO.C,RV1*%
X127250000Y-108750000D02*
X127250000Y-105350000D01*
X134250000Y-108750000D02*
X134250000Y-105350000D01*
X127250000Y-108750000D02*
X134250000Y-108750000D01*
X127250000Y-105350000D02*
X134250000Y-105350000D01*
D11*
%TO.C,R1*%
X107670000Y-107200000D02*
X108290000Y-107200000D01*
X107670000Y-107200000D02*
G75*
G03*
X107670000Y-107200000I-920000J0D01*
G01*
%TO.C,PS1*%
X108780000Y-104420000D02*
X131220000Y-104420000D01*
X108780000Y-70480000D02*
X108780000Y-104420000D01*
X131220000Y-70480000D02*
X108780000Y-70480000D01*
X131220000Y-104420000D02*
X131220000Y-70480000D01*
%TO.C,RV1*%
D10*
X131345238Y-104802380D02*
X131678571Y-104326190D01*
X131916666Y-104802380D02*
X131916666Y-103802380D01*
X131535714Y-103802380D01*
X131440476Y-103850000D01*
X131392857Y-103897619D01*
X131345238Y-103992857D01*
X131345238Y-104135714D01*
X131392857Y-104230952D01*
X131440476Y-104278571D01*
X131535714Y-104326190D01*
X131916666Y-104326190D01*
X131059523Y-103802380D02*
X130726190Y-104802380D01*
X130392857Y-103802380D01*
X129535714Y-104802380D02*
X130107142Y-104802380D01*
X129821428Y-104802380D02*
X129821428Y-103802380D01*
X129916666Y-103945238D01*
X130011904Y-104040476D01*
X130107142Y-104088095D01*
%TO.C,R1*%
X108186666Y-109572380D02*
X108520000Y-109096190D01*
X108758095Y-109572380D02*
X108758095Y-108572380D01*
X108377142Y-108572380D01*
X108281904Y-108620000D01*
X108234285Y-108667619D01*
X108186666Y-108762857D01*
X108186666Y-108905714D01*
X108234285Y-109000952D01*
X108281904Y-109048571D01*
X108377142Y-109096190D01*
X108758095Y-109096190D01*
X107234285Y-109572380D02*
X107805714Y-109572380D01*
X107520000Y-109572380D02*
X107520000Y-108572380D01*
X107615238Y-108715238D01*
X107710476Y-108810476D01*
X107805714Y-108858095D01*
%TO.C,PS1*%
X112034285Y-105702380D02*
X112034285Y-104702380D01*
X111653333Y-104702380D01*
X111558095Y-104750000D01*
X111510476Y-104797619D01*
X111462857Y-104892857D01*
X111462857Y-105035714D01*
X111510476Y-105130952D01*
X111558095Y-105178571D01*
X111653333Y-105226190D01*
X112034285Y-105226190D01*
X111081904Y-105654761D02*
X110939047Y-105702380D01*
X110700952Y-105702380D01*
X110605714Y-105654761D01*
X110558095Y-105607142D01*
X110510476Y-105511904D01*
X110510476Y-105416666D01*
X110558095Y-105321428D01*
X110605714Y-105273809D01*
X110700952Y-105226190D01*
X110891428Y-105178571D01*
X110986666Y-105130952D01*
X111034285Y-105083333D01*
X111081904Y-104988095D01*
X111081904Y-104892857D01*
X111034285Y-104797619D01*
X110986666Y-104750000D01*
X110891428Y-104702380D01*
X110653333Y-104702380D01*
X110510476Y-104750000D01*
X109558095Y-105702380D02*
X110129523Y-105702380D01*
X109843809Y-105702380D02*
X109843809Y-104702380D01*
X109939047Y-104845238D01*
X110034285Y-104940476D01*
X110129523Y-104988095D01*
%TD*%
M02*
