%TF.GenerationSoftware,KiCad,Pcbnew,(5.1.10)-1*%
%TF.CreationDate,2021-05-22T10:44:24+02:00*%
%TF.ProjectId,HB-RC-6-PBU-LED,48422d52-432d-4362-9d50-42552d4c4544,rev?*%
%TF.SameCoordinates,Original*%
%TF.FileFunction,Copper,L2,Bot*%
%TF.FilePolarity,Positive*%
%FSLAX46Y46*%
G04 Gerber Fmt 4.6, Leading zero omitted, Abs format (unit mm)*
G04 Created by KiCad (PCBNEW (5.1.10)-1) date 2021-05-22 10:44:24*
%MOMM*%
%LPD*%
G01*
G04 APERTURE LIST*
%TA.AperFunction,SMDPad,CuDef*%
%ADD10R,3.150000X1.000000*%
%TD*%
%TA.AperFunction,ComponentPad*%
%ADD11O,1.270000X1.270000*%
%TD*%
%TA.AperFunction,ComponentPad*%
%ADD12C,1.270000*%
%TD*%
%TA.AperFunction,WasherPad*%
%ADD13C,3.300000*%
%TD*%
%TA.AperFunction,ComponentPad*%
%ADD14O,1.700000X1.700000*%
%TD*%
%TA.AperFunction,ComponentPad*%
%ADD15R,1.700000X1.700000*%
%TD*%
%TA.AperFunction,ViaPad*%
%ADD16C,0.600000*%
%TD*%
%TA.AperFunction,Conductor*%
%ADD17C,0.250000*%
%TD*%
%TA.AperFunction,Conductor*%
%ADD18C,0.254000*%
%TD*%
%TA.AperFunction,Conductor*%
%ADD19C,0.100000*%
%TD*%
G04 APERTURE END LIST*
D10*
%TO.P,J1,8*%
%TO.N,GND*%
X192200000Y-78580000D03*
%TO.P,J1,7*%
X197250000Y-78580000D03*
%TO.P,J1,6*%
X192200000Y-76040000D03*
%TO.P,J1,5*%
X197250000Y-76040000D03*
%TO.P,J1,4*%
%TO.N,+3V3*%
X192200000Y-73500000D03*
%TO.P,J1,3*%
X197250000Y-73500000D03*
%TO.P,J1,2*%
%TO.N,+5V*%
X192200000Y-70960000D03*
%TO.P,J1,1*%
X197250000Y-70960000D03*
%TD*%
D11*
%TO.P,U2,1*%
%TO.N,+3V3*%
X202000000Y-82000000D03*
%TO.P,U2,2*%
%TO.N,GND*%
X200000000Y-82000000D03*
D12*
%TO.P,U2,3*%
%TO.N,/MOSI*%
X198000000Y-82000000D03*
%TO.P,U2,4*%
%TO.N,/SCK*%
X196000000Y-82000000D03*
%TO.P,U2,5*%
%TO.N,/MISO*%
X194000000Y-82000000D03*
%TO.P,U2,6*%
%TO.N,Net-(U2-Pad6)*%
X192000000Y-82000000D03*
%TO.P,U2,7*%
%TO.N,/GDO0*%
X190000000Y-82000000D03*
%TO.P,U2,8*%
%TO.N,/CC_CSN*%
X188000000Y-82000000D03*
D13*
%TO.P,U2,*%
%TO.N,*%
X193984000Y-99526000D03*
%TD*%
D14*
%TO.P,J2,6*%
%TO.N,/RESET*%
X206000000Y-85480000D03*
%TO.P,J2,5*%
%TO.N,/MISO*%
X206000000Y-88020000D03*
%TO.P,J2,4*%
%TO.N,/SCK*%
X206000000Y-90560000D03*
%TO.P,J2,3*%
%TO.N,/MOSI*%
X206000000Y-93100000D03*
%TO.P,J2,2*%
%TO.N,GND*%
X206000000Y-95640000D03*
D15*
%TO.P,J2,1*%
%TO.N,+3V3*%
X206000000Y-98180000D03*
%TD*%
D14*
%TO.P,J3,6*%
%TO.N,GND*%
X184000000Y-98200000D03*
%TO.P,J3,5*%
X184000000Y-95660000D03*
D15*
%TO.P,J3,4*%
%TO.N,+3V3*%
X184000000Y-93120000D03*
D14*
%TO.P,J3,3*%
%TO.N,/TX*%
X184000000Y-90580000D03*
%TO.P,J3,2*%
%TO.N,/RX*%
X184000000Y-88040000D03*
%TO.P,J3,1*%
%TO.N,/DTR*%
X184000000Y-85500000D03*
%TD*%
D16*
%TO.N,GND*%
X194750000Y-63750000D03*
X179000000Y-78500000D03*
X190750000Y-68000000D03*
X195250000Y-72250000D03*
X199750000Y-79000000D03*
X203750000Y-67250000D03*
X181000000Y-54500000D03*
X192500000Y-52500000D03*
X192500000Y-56000000D03*
X212875000Y-60875000D03*
X179000000Y-60250000D03*
X183000000Y-60250000D03*
X181000000Y-62000000D03*
X183000000Y-62000000D03*
X181000000Y-68750000D03*
X183500000Y-68750000D03*
X181000000Y-70750000D03*
X213750000Y-62500000D03*
X213750000Y-66000000D03*
X213750000Y-79250000D03*
X213750000Y-85250000D03*
X214000000Y-94750000D03*
X210750000Y-97750000D03*
X217000000Y-82000000D03*
X214750000Y-52750000D03*
X214000000Y-97750000D03*
X194750000Y-56000000D03*
X197000000Y-56000000D03*
X199250000Y-56000000D03*
X183500000Y-66750000D03*
X186000000Y-66750000D03*
X181000000Y-60250000D03*
X181000000Y-58250000D03*
X181000000Y-56350000D03*
X188600000Y-52550000D03*
X184800000Y-52550000D03*
%TO.N,+3V3*%
X196000000Y-64000000D03*
X195000000Y-69500000D03*
X194250000Y-72000000D03*
X199750000Y-75000000D03*
X189000000Y-61750000D03*
%TO.N,/RESET*%
X193250000Y-72000000D03*
X187000000Y-73750000D03*
%TO.N,+5V*%
X187000000Y-54500000D03*
%TO.N,/RX*%
X198250000Y-72000000D03*
%TO.N,/TX*%
X197250000Y-72000000D03*
%TO.N,/WS2812B_LED_3V3_Lvl*%
X184850000Y-54400000D03*
X192250000Y-68500000D03*
%TO.N,/BTN1*%
X173000000Y-63750000D03*
X179250000Y-63750000D03*
%TO.N,/BTN2*%
X173000000Y-68000000D03*
X179250000Y-68000000D03*
%TO.N,/BTN3*%
X173000000Y-86000000D03*
X180250000Y-79750000D03*
%TO.N,/BTN4*%
X217000000Y-63750000D03*
X209000000Y-63750000D03*
X202500000Y-64000000D03*
X191000000Y-64750000D03*
%TO.N,/BTN5*%
X217000000Y-68250000D03*
X202750000Y-65750000D03*
X192000000Y-65750000D03*
X209500000Y-68000000D03*
%TO.N,/BTN6*%
X193250000Y-66500000D03*
X217000000Y-86250000D03*
%TD*%
D17*
%TO.N,GND*%
X192200000Y-76040000D02*
X197250000Y-76040000D01*
X197250000Y-76040000D02*
X197250000Y-78580000D01*
X197250000Y-78580000D02*
X192200000Y-78580000D01*
X192200000Y-78580000D02*
X192200000Y-76040000D01*
X199330000Y-78580000D02*
X199750000Y-79000000D01*
X197250000Y-78580000D02*
X199330000Y-78580000D01*
X197129998Y-76040000D02*
X197250000Y-76040000D01*
X195250000Y-74160002D02*
X197129998Y-76040000D01*
X195250000Y-72250000D02*
X195250000Y-74160002D01*
%TO.N,+3V3*%
X207625011Y-96554989D02*
X206000000Y-98180000D01*
X207625011Y-85366009D02*
X207625011Y-96554989D01*
X204259002Y-82000000D02*
X207625011Y-85366009D01*
X202000000Y-82000000D02*
X204259002Y-82000000D01*
X200940000Y-93120000D02*
X206000000Y-98180000D01*
X184000000Y-93120000D02*
X200940000Y-93120000D01*
X194250000Y-70250000D02*
X195000000Y-69500000D01*
X194250000Y-72000000D02*
X194250000Y-70250000D01*
X192750000Y-73500000D02*
X194250000Y-72000000D01*
X192200000Y-73500000D02*
X192750000Y-73500000D01*
X198250000Y-73500000D02*
X199750000Y-75000000D01*
X197250000Y-73500000D02*
X198250000Y-73500000D01*
X195925002Y-64000000D02*
X196000000Y-64000000D01*
X193675002Y-61750000D02*
X195925002Y-64000000D01*
X189000000Y-61750000D02*
X193675002Y-61750000D01*
%TO.N,/RESET*%
X188750000Y-72000000D02*
X187000000Y-73750000D01*
X193250000Y-72000000D02*
X188750000Y-72000000D01*
%TO.N,+5V*%
X192875001Y-70284999D02*
X192200000Y-70960000D01*
X192875001Y-67550003D02*
X192875001Y-70284999D01*
X187000000Y-61675002D02*
X192875001Y-67550003D01*
X187000000Y-54500000D02*
X187000000Y-61675002D01*
X194590003Y-67550003D02*
X192875001Y-67550003D01*
X197250000Y-70210000D02*
X194590003Y-67550003D01*
X197250000Y-70960000D02*
X197250000Y-70210000D01*
%TO.N,/MOSI*%
X205250000Y-89250000D02*
X198000000Y-82000000D01*
X206429002Y-89250000D02*
X205250000Y-89250000D01*
X207175001Y-89995999D02*
X206429002Y-89250000D01*
X207175001Y-91924999D02*
X207175001Y-89995999D01*
X206000000Y-93100000D02*
X207175001Y-91924999D01*
%TO.N,/SCK*%
X204560000Y-90560000D02*
X196000000Y-82000000D01*
X206000000Y-90560000D02*
X204560000Y-90560000D01*
%TO.N,/MISO*%
X200460801Y-81039999D02*
X194960001Y-81039999D01*
X200960001Y-81539199D02*
X200460801Y-81039999D01*
X194960001Y-81039999D02*
X194000000Y-82000000D01*
X200960001Y-82980001D02*
X200960001Y-81539199D01*
X206000000Y-88020000D02*
X200960001Y-82980001D01*
%TO.N,/RX*%
X200000000Y-72000000D02*
X198250000Y-72000000D01*
X201750000Y-73750000D02*
X200000000Y-72000000D01*
X200410011Y-80589989D02*
X201750000Y-79250000D01*
X187046421Y-80589989D02*
X200410011Y-80589989D01*
X201750000Y-79250000D02*
X201750000Y-73750000D01*
X185175001Y-82461409D02*
X187046421Y-80589989D01*
X185175001Y-86864999D02*
X185175001Y-82461409D01*
X184000000Y-88040000D02*
X185175001Y-86864999D01*
%TO.N,/TX*%
X197875001Y-72625001D02*
X197250000Y-72000000D01*
X199988591Y-72625001D02*
X197875001Y-72625001D01*
X201299990Y-73936400D02*
X199988591Y-72625001D01*
X201299990Y-78950010D02*
X201299990Y-73936400D01*
X186875000Y-80125000D02*
X200125000Y-80125000D01*
X200125000Y-80125000D02*
X201299990Y-78950010D01*
X182824999Y-84175001D02*
X186875000Y-80125000D01*
X182824999Y-89404999D02*
X182824999Y-84175001D01*
X184000000Y-90580000D02*
X182824999Y-89404999D01*
%TO.N,/WS2812B_LED_3V3_Lvl*%
X192175002Y-68500000D02*
X192250000Y-68500000D01*
X184850000Y-61174998D02*
X192175002Y-68500000D01*
X184850000Y-54400000D02*
X184850000Y-61174998D01*
%TO.N,/BTN1*%
X173000000Y-63750000D02*
X179250000Y-63750000D01*
%TO.N,/BTN2*%
X173000000Y-68000000D02*
X179250000Y-68000000D01*
%TO.N,/BTN3*%
X174000000Y-86000000D02*
X180250000Y-79750000D01*
X173000000Y-86000000D02*
X174000000Y-86000000D01*
%TO.N,/BTN4*%
X209000000Y-63750000D02*
X217000000Y-63750000D01*
X201750000Y-64750000D02*
X202500000Y-64000000D01*
X191000000Y-64750000D02*
X201750000Y-64750000D01*
%TO.N,/BTN5*%
X192000000Y-65750000D02*
X202750000Y-65750000D01*
X216750000Y-68000000D02*
X217000000Y-68250000D01*
X209500000Y-68000000D02*
X216750000Y-68000000D01*
%TO.N,/BTN6*%
X216750000Y-86250000D02*
X217000000Y-86250000D01*
X193250000Y-66500000D02*
X195500000Y-66500000D01*
X197000000Y-66500000D02*
X209350000Y-78850000D01*
X195500000Y-66500000D02*
X197000000Y-66500000D01*
X209350000Y-78850000D02*
X216750000Y-86250000D01*
X208750000Y-78250000D02*
X209350000Y-78850000D01*
%TD*%
D18*
%TO.N,GND*%
X219340001Y-99340000D02*
X207404320Y-99340000D01*
X207439502Y-99274180D01*
X207475812Y-99154482D01*
X207488072Y-99030000D01*
X207488072Y-97766730D01*
X208136014Y-97118788D01*
X208165012Y-97094990D01*
X208259985Y-96979265D01*
X208330557Y-96847236D01*
X208374014Y-96703975D01*
X208385011Y-96592322D01*
X208388688Y-96554989D01*
X208385011Y-96517656D01*
X208385011Y-85403342D01*
X208388688Y-85366009D01*
X208374014Y-85217023D01*
X208330557Y-85073762D01*
X208259985Y-84941733D01*
X208188810Y-84855006D01*
X208165012Y-84826008D01*
X208136015Y-84802211D01*
X204822806Y-81489003D01*
X204799003Y-81459999D01*
X204683278Y-81365026D01*
X204551249Y-81294454D01*
X204407988Y-81250997D01*
X204296335Y-81240000D01*
X204296324Y-81240000D01*
X204259002Y-81236324D01*
X204221680Y-81240000D01*
X203019600Y-81240000D01*
X202986473Y-81190422D01*
X202809578Y-81013527D01*
X202601571Y-80874541D01*
X202370445Y-80778805D01*
X202125084Y-80730000D01*
X201874916Y-80730000D01*
X201629555Y-80778805D01*
X201398429Y-80874541D01*
X201381474Y-80885870D01*
X201285202Y-80789599D01*
X202261004Y-79813798D01*
X202290001Y-79790001D01*
X202384974Y-79674276D01*
X202455546Y-79542247D01*
X202499003Y-79398986D01*
X202510000Y-79287333D01*
X202510000Y-79287332D01*
X202513677Y-79250000D01*
X202510000Y-79212667D01*
X202510000Y-73787325D01*
X202513676Y-73750000D01*
X202510000Y-73712675D01*
X202510000Y-73712667D01*
X202499003Y-73601014D01*
X202455546Y-73457753D01*
X202384974Y-73325724D01*
X202290001Y-73209999D01*
X202261003Y-73186201D01*
X200563804Y-71489003D01*
X200540001Y-71459999D01*
X200424276Y-71365026D01*
X200292247Y-71294454D01*
X200148986Y-71250997D01*
X200037333Y-71240000D01*
X200037322Y-71240000D01*
X200000000Y-71236324D01*
X199962678Y-71240000D01*
X199463072Y-71240000D01*
X199463072Y-70460000D01*
X199450812Y-70335518D01*
X199414502Y-70215820D01*
X199355537Y-70105506D01*
X199276185Y-70008815D01*
X199179494Y-69929463D01*
X199069180Y-69870498D01*
X198949482Y-69834188D01*
X198825000Y-69821928D01*
X197904326Y-69821928D01*
X197884974Y-69785724D01*
X197790001Y-69669999D01*
X197761003Y-69646201D01*
X195374801Y-67260000D01*
X196685199Y-67260000D01*
X208838996Y-79413799D01*
X208839007Y-79413808D01*
X216186201Y-86761003D01*
X216209999Y-86790001D01*
X216268238Y-86837796D01*
X216273738Y-86846028D01*
X216403972Y-86976262D01*
X216557111Y-87078586D01*
X216727271Y-87149068D01*
X216907911Y-87185000D01*
X217092089Y-87185000D01*
X217272729Y-87149068D01*
X217442889Y-87078586D01*
X217596028Y-86976262D01*
X217726262Y-86846028D01*
X217828586Y-86692889D01*
X217899068Y-86522729D01*
X217935000Y-86342089D01*
X217935000Y-86157911D01*
X217899068Y-85977271D01*
X217828586Y-85807111D01*
X217726262Y-85653972D01*
X217596028Y-85523738D01*
X217442889Y-85421414D01*
X217272729Y-85350932D01*
X217092089Y-85315000D01*
X216907911Y-85315000D01*
X216892806Y-85318005D01*
X209913808Y-78339007D01*
X209913799Y-78338996D01*
X199482713Y-67907911D01*
X208565000Y-67907911D01*
X208565000Y-68092089D01*
X208600932Y-68272729D01*
X208671414Y-68442889D01*
X208773738Y-68596028D01*
X208903972Y-68726262D01*
X209057111Y-68828586D01*
X209227271Y-68899068D01*
X209407911Y-68935000D01*
X209592089Y-68935000D01*
X209772729Y-68899068D01*
X209942889Y-68828586D01*
X210045535Y-68760000D01*
X216216256Y-68760000D01*
X216273738Y-68846028D01*
X216403972Y-68976262D01*
X216557111Y-69078586D01*
X216727271Y-69149068D01*
X216907911Y-69185000D01*
X217092089Y-69185000D01*
X217272729Y-69149068D01*
X217442889Y-69078586D01*
X217596028Y-68976262D01*
X217726262Y-68846028D01*
X217828586Y-68692889D01*
X217899068Y-68522729D01*
X217935000Y-68342089D01*
X217935000Y-68157911D01*
X217899068Y-67977271D01*
X217828586Y-67807111D01*
X217726262Y-67653972D01*
X217596028Y-67523738D01*
X217442889Y-67421414D01*
X217272729Y-67350932D01*
X217092089Y-67315000D01*
X217080685Y-67315000D01*
X217042247Y-67294454D01*
X216898986Y-67250997D01*
X216787333Y-67240000D01*
X216787322Y-67240000D01*
X216750000Y-67236324D01*
X216712678Y-67240000D01*
X210045535Y-67240000D01*
X209942889Y-67171414D01*
X209772729Y-67100932D01*
X209592089Y-67065000D01*
X209407911Y-67065000D01*
X209227271Y-67100932D01*
X209057111Y-67171414D01*
X208903972Y-67273738D01*
X208773738Y-67403972D01*
X208671414Y-67557111D01*
X208600932Y-67727271D01*
X208565000Y-67907911D01*
X199482713Y-67907911D01*
X198084801Y-66510000D01*
X202204465Y-66510000D01*
X202307111Y-66578586D01*
X202477271Y-66649068D01*
X202657911Y-66685000D01*
X202842089Y-66685000D01*
X203022729Y-66649068D01*
X203192889Y-66578586D01*
X203346028Y-66476262D01*
X203476262Y-66346028D01*
X203578586Y-66192889D01*
X203649068Y-66022729D01*
X203685000Y-65842089D01*
X203685000Y-65657911D01*
X203649068Y-65477271D01*
X203578586Y-65307111D01*
X203476262Y-65153972D01*
X203346028Y-65023738D01*
X203192889Y-64921414D01*
X203022729Y-64850932D01*
X202932345Y-64832953D01*
X202942889Y-64828586D01*
X203096028Y-64726262D01*
X203226262Y-64596028D01*
X203328586Y-64442889D01*
X203399068Y-64272729D01*
X203435000Y-64092089D01*
X203435000Y-63907911D01*
X203399068Y-63727271D01*
X203370339Y-63657911D01*
X208065000Y-63657911D01*
X208065000Y-63842089D01*
X208100932Y-64022729D01*
X208171414Y-64192889D01*
X208273738Y-64346028D01*
X208403972Y-64476262D01*
X208557111Y-64578586D01*
X208727271Y-64649068D01*
X208907911Y-64685000D01*
X209092089Y-64685000D01*
X209272729Y-64649068D01*
X209442889Y-64578586D01*
X209545535Y-64510000D01*
X216454465Y-64510000D01*
X216557111Y-64578586D01*
X216727271Y-64649068D01*
X216907911Y-64685000D01*
X217092089Y-64685000D01*
X217272729Y-64649068D01*
X217442889Y-64578586D01*
X217596028Y-64476262D01*
X217726262Y-64346028D01*
X217828586Y-64192889D01*
X217899068Y-64022729D01*
X217935000Y-63842089D01*
X217935000Y-63657911D01*
X217899068Y-63477271D01*
X217828586Y-63307111D01*
X217726262Y-63153972D01*
X217596028Y-63023738D01*
X217442889Y-62921414D01*
X217272729Y-62850932D01*
X217092089Y-62815000D01*
X216907911Y-62815000D01*
X216727271Y-62850932D01*
X216557111Y-62921414D01*
X216454465Y-62990000D01*
X209545535Y-62990000D01*
X209442889Y-62921414D01*
X209272729Y-62850932D01*
X209092089Y-62815000D01*
X208907911Y-62815000D01*
X208727271Y-62850932D01*
X208557111Y-62921414D01*
X208403972Y-63023738D01*
X208273738Y-63153972D01*
X208171414Y-63307111D01*
X208100932Y-63477271D01*
X208065000Y-63657911D01*
X203370339Y-63657911D01*
X203328586Y-63557111D01*
X203226262Y-63403972D01*
X203096028Y-63273738D01*
X202942889Y-63171414D01*
X202772729Y-63100932D01*
X202592089Y-63065000D01*
X202407911Y-63065000D01*
X202227271Y-63100932D01*
X202057111Y-63171414D01*
X201903972Y-63273738D01*
X201773738Y-63403972D01*
X201671414Y-63557111D01*
X201600932Y-63727271D01*
X201576847Y-63848351D01*
X201435199Y-63990000D01*
X196935000Y-63990000D01*
X196935000Y-63907911D01*
X196899068Y-63727271D01*
X196828586Y-63557111D01*
X196726262Y-63403972D01*
X196596028Y-63273738D01*
X196442889Y-63171414D01*
X196272729Y-63100932D01*
X196092089Y-63065000D01*
X196064804Y-63065000D01*
X194238806Y-61239003D01*
X194215003Y-61209999D01*
X194099278Y-61115026D01*
X193967249Y-61044454D01*
X193823988Y-61000997D01*
X193712335Y-60990000D01*
X193712324Y-60990000D01*
X193675002Y-60986324D01*
X193637680Y-60990000D01*
X189545535Y-60990000D01*
X189442889Y-60921414D01*
X189272729Y-60850932D01*
X189092089Y-60815000D01*
X188907911Y-60815000D01*
X188727271Y-60850932D01*
X188557111Y-60921414D01*
X188403972Y-61023738D01*
X188273738Y-61153972D01*
X188171414Y-61307111D01*
X188100932Y-61477271D01*
X188065000Y-61657911D01*
X188065000Y-61665201D01*
X187760000Y-61360201D01*
X187760000Y-55045535D01*
X187828586Y-54942889D01*
X187899068Y-54772729D01*
X187935000Y-54592089D01*
X187935000Y-54407911D01*
X187899068Y-54227271D01*
X187828586Y-54057111D01*
X187726262Y-53903972D01*
X187596028Y-53773738D01*
X187442889Y-53671414D01*
X187272729Y-53600932D01*
X187092089Y-53565000D01*
X186907911Y-53565000D01*
X186727271Y-53600932D01*
X186557111Y-53671414D01*
X186403972Y-53773738D01*
X186273738Y-53903972D01*
X186171414Y-54057111D01*
X186100932Y-54227271D01*
X186065000Y-54407911D01*
X186065000Y-54592089D01*
X186100932Y-54772729D01*
X186171414Y-54942889D01*
X186240000Y-55045536D01*
X186240001Y-61490198D01*
X185610000Y-60860197D01*
X185610000Y-54945535D01*
X185678586Y-54842889D01*
X185749068Y-54672729D01*
X185785000Y-54492089D01*
X185785000Y-54307911D01*
X185749068Y-54127271D01*
X185678586Y-53957111D01*
X185576262Y-53803972D01*
X185446028Y-53673738D01*
X185292889Y-53571414D01*
X185122729Y-53500932D01*
X184942089Y-53465000D01*
X184757911Y-53465000D01*
X184577271Y-53500932D01*
X184407111Y-53571414D01*
X184253972Y-53673738D01*
X184123738Y-53803972D01*
X184021414Y-53957111D01*
X183950932Y-54127271D01*
X183915000Y-54307911D01*
X183915000Y-54492089D01*
X183950932Y-54672729D01*
X184021414Y-54842889D01*
X184090000Y-54945536D01*
X184090001Y-61137666D01*
X184086324Y-61174998D01*
X184100998Y-61323983D01*
X184144454Y-61467244D01*
X184215026Y-61599274D01*
X184263149Y-61657911D01*
X184310000Y-61714999D01*
X184338998Y-61738797D01*
X191345470Y-68745270D01*
X191350932Y-68772729D01*
X191421414Y-68942889D01*
X191523738Y-69096028D01*
X191653972Y-69226262D01*
X191807111Y-69328586D01*
X191977271Y-69399068D01*
X192115002Y-69426465D01*
X192115002Y-69821928D01*
X190625000Y-69821928D01*
X190500518Y-69834188D01*
X190380820Y-69870498D01*
X190270506Y-69929463D01*
X190173815Y-70008815D01*
X190094463Y-70105506D01*
X190035498Y-70215820D01*
X189999188Y-70335518D01*
X189986928Y-70460000D01*
X189986928Y-71240000D01*
X188787325Y-71240000D01*
X188750000Y-71236324D01*
X188712675Y-71240000D01*
X188712667Y-71240000D01*
X188601014Y-71250997D01*
X188457753Y-71294454D01*
X188325724Y-71365026D01*
X188209999Y-71459999D01*
X188186201Y-71488997D01*
X186848351Y-72826847D01*
X186727271Y-72850932D01*
X186557111Y-72921414D01*
X186403972Y-73023738D01*
X186273738Y-73153972D01*
X186171414Y-73307111D01*
X186100932Y-73477271D01*
X186065000Y-73657911D01*
X186065000Y-73842089D01*
X186100932Y-74022729D01*
X186171414Y-74192889D01*
X186273738Y-74346028D01*
X186403972Y-74476262D01*
X186557111Y-74578586D01*
X186727271Y-74649068D01*
X186907911Y-74685000D01*
X187092089Y-74685000D01*
X187272729Y-74649068D01*
X187442889Y-74578586D01*
X187596028Y-74476262D01*
X187726262Y-74346028D01*
X187828586Y-74192889D01*
X187899068Y-74022729D01*
X187923153Y-73901649D01*
X189064802Y-72760000D01*
X190034230Y-72760000D01*
X189999188Y-72875518D01*
X189986928Y-73000000D01*
X189986928Y-74000000D01*
X189999188Y-74124482D01*
X190035498Y-74244180D01*
X190094463Y-74354494D01*
X190173815Y-74451185D01*
X190270506Y-74530537D01*
X190380820Y-74589502D01*
X190500518Y-74625812D01*
X190625000Y-74638072D01*
X193775000Y-74638072D01*
X193899482Y-74625812D01*
X194019180Y-74589502D01*
X194129494Y-74530537D01*
X194226185Y-74451185D01*
X194305537Y-74354494D01*
X194364502Y-74244180D01*
X194400812Y-74124482D01*
X194413072Y-74000000D01*
X194413072Y-73000000D01*
X194405429Y-72922401D01*
X194522729Y-72899068D01*
X194692889Y-72828586D01*
X194846028Y-72726262D01*
X194976262Y-72596028D01*
X195078586Y-72442889D01*
X195149068Y-72272729D01*
X195185000Y-72092089D01*
X195185000Y-71907911D01*
X195173442Y-71849805D01*
X195223815Y-71911185D01*
X195320506Y-71990537D01*
X195430820Y-72049502D01*
X195550518Y-72085812D01*
X195675000Y-72098072D01*
X196316190Y-72098072D01*
X196350932Y-72272729D01*
X196387879Y-72361928D01*
X195675000Y-72361928D01*
X195550518Y-72374188D01*
X195430820Y-72410498D01*
X195320506Y-72469463D01*
X195223815Y-72548815D01*
X195144463Y-72645506D01*
X195085498Y-72755820D01*
X195049188Y-72875518D01*
X195036928Y-73000000D01*
X195036928Y-74000000D01*
X195049188Y-74124482D01*
X195085498Y-74244180D01*
X195144463Y-74354494D01*
X195223815Y-74451185D01*
X195320506Y-74530537D01*
X195430820Y-74589502D01*
X195550518Y-74625812D01*
X195675000Y-74638072D01*
X198313271Y-74638072D01*
X198577716Y-74902517D01*
X197535750Y-74905000D01*
X197377000Y-75063750D01*
X197377000Y-75913000D01*
X199301250Y-75913000D01*
X199362656Y-75851594D01*
X199477271Y-75899068D01*
X199657911Y-75935000D01*
X199842089Y-75935000D01*
X200022729Y-75899068D01*
X200192889Y-75828586D01*
X200346028Y-75726262D01*
X200476262Y-75596028D01*
X200539991Y-75500651D01*
X200539990Y-78635208D01*
X199810199Y-79365000D01*
X199392683Y-79365000D01*
X199414502Y-79324180D01*
X199450812Y-79204482D01*
X199463072Y-79080000D01*
X199460000Y-78865750D01*
X199301250Y-78707000D01*
X197377000Y-78707000D01*
X197377000Y-78727000D01*
X197123000Y-78727000D01*
X197123000Y-78707000D01*
X195198750Y-78707000D01*
X195040000Y-78865750D01*
X195036928Y-79080000D01*
X195049188Y-79204482D01*
X195085498Y-79324180D01*
X195107317Y-79365000D01*
X194342683Y-79365000D01*
X194364502Y-79324180D01*
X194400812Y-79204482D01*
X194413072Y-79080000D01*
X194410000Y-78865750D01*
X194251250Y-78707000D01*
X192327000Y-78707000D01*
X192327000Y-78727000D01*
X192073000Y-78727000D01*
X192073000Y-78707000D01*
X190148750Y-78707000D01*
X189990000Y-78865750D01*
X189986928Y-79080000D01*
X189999188Y-79204482D01*
X190035498Y-79324180D01*
X190057317Y-79365000D01*
X186912322Y-79365000D01*
X186874999Y-79361324D01*
X186837676Y-79365000D01*
X186837667Y-79365000D01*
X186726014Y-79375997D01*
X186582753Y-79419454D01*
X186450724Y-79490026D01*
X186334999Y-79584999D01*
X186311201Y-79613997D01*
X182313997Y-83611202D01*
X182284999Y-83635000D01*
X182261201Y-83663998D01*
X182261200Y-83663999D01*
X182190025Y-83750725D01*
X182119453Y-83882755D01*
X182089179Y-83982559D01*
X182079339Y-84015000D01*
X182075997Y-84026016D01*
X182061323Y-84175001D01*
X182065000Y-84212333D01*
X182064999Y-89367676D01*
X182061323Y-89404999D01*
X182064999Y-89442321D01*
X182064999Y-89442331D01*
X182075996Y-89553984D01*
X182112485Y-89674275D01*
X182119453Y-89697245D01*
X182190025Y-89829275D01*
X182228855Y-89876589D01*
X182284998Y-89945000D01*
X182314002Y-89968803D01*
X182558791Y-90213592D01*
X182515000Y-90433740D01*
X182515000Y-90726260D01*
X182572068Y-91013158D01*
X182684010Y-91283411D01*
X182846525Y-91526632D01*
X182978380Y-91658487D01*
X182905820Y-91680498D01*
X182795506Y-91739463D01*
X182698815Y-91818815D01*
X182619463Y-91915506D01*
X182560498Y-92025820D01*
X182524188Y-92145518D01*
X182511928Y-92270000D01*
X182511928Y-93970000D01*
X182524188Y-94094482D01*
X182560498Y-94214180D01*
X182619463Y-94324494D01*
X182698815Y-94421185D01*
X182795506Y-94500537D01*
X182905820Y-94559502D01*
X182986466Y-94583966D01*
X182902412Y-94659731D01*
X182728359Y-94893080D01*
X182603175Y-95155901D01*
X182558524Y-95303110D01*
X182679845Y-95533000D01*
X183873000Y-95533000D01*
X183873000Y-95513000D01*
X184127000Y-95513000D01*
X184127000Y-95533000D01*
X185320155Y-95533000D01*
X185441476Y-95303110D01*
X185396825Y-95155901D01*
X185271641Y-94893080D01*
X185097588Y-94659731D01*
X185013534Y-94583966D01*
X185094180Y-94559502D01*
X185204494Y-94500537D01*
X185301185Y-94421185D01*
X185380537Y-94324494D01*
X185439502Y-94214180D01*
X185475812Y-94094482D01*
X185488072Y-93970000D01*
X185488072Y-93880000D01*
X200625199Y-93880000D01*
X204511928Y-97766730D01*
X204511928Y-99030000D01*
X204524188Y-99154482D01*
X204560498Y-99274180D01*
X204595680Y-99340000D01*
X196269000Y-99340000D01*
X196269000Y-99300947D01*
X196181189Y-98859490D01*
X196008941Y-98443647D01*
X195758875Y-98069397D01*
X195440603Y-97751125D01*
X195066353Y-97501059D01*
X194650510Y-97328811D01*
X194209053Y-97241000D01*
X193758947Y-97241000D01*
X193317490Y-97328811D01*
X192901647Y-97501059D01*
X192527397Y-97751125D01*
X192209125Y-98069397D01*
X191959059Y-98443647D01*
X191786811Y-98859490D01*
X191699000Y-99300947D01*
X191699000Y-99340000D01*
X184942570Y-99340000D01*
X185097588Y-99200269D01*
X185271641Y-98966920D01*
X185396825Y-98704099D01*
X185441476Y-98556890D01*
X185320155Y-98327000D01*
X184127000Y-98327000D01*
X184127000Y-98347000D01*
X183873000Y-98347000D01*
X183873000Y-98327000D01*
X182679845Y-98327000D01*
X182558524Y-98556890D01*
X182603175Y-98704099D01*
X182728359Y-98966920D01*
X182902412Y-99200269D01*
X183057430Y-99340000D01*
X170660000Y-99340000D01*
X170660000Y-96016890D01*
X182558524Y-96016890D01*
X182603175Y-96164099D01*
X182728359Y-96426920D01*
X182902412Y-96660269D01*
X183118645Y-96855178D01*
X183244255Y-96930000D01*
X183118645Y-97004822D01*
X182902412Y-97199731D01*
X182728359Y-97433080D01*
X182603175Y-97695901D01*
X182558524Y-97843110D01*
X182679845Y-98073000D01*
X183873000Y-98073000D01*
X183873000Y-95787000D01*
X184127000Y-95787000D01*
X184127000Y-98073000D01*
X185320155Y-98073000D01*
X185441476Y-97843110D01*
X185396825Y-97695901D01*
X185271641Y-97433080D01*
X185097588Y-97199731D01*
X184881355Y-97004822D01*
X184755745Y-96930000D01*
X184881355Y-96855178D01*
X185097588Y-96660269D01*
X185271641Y-96426920D01*
X185396825Y-96164099D01*
X185441476Y-96016890D01*
X185320155Y-95787000D01*
X184127000Y-95787000D01*
X183873000Y-95787000D01*
X182679845Y-95787000D01*
X182558524Y-96016890D01*
X170660000Y-96016890D01*
X170660000Y-85907911D01*
X172065000Y-85907911D01*
X172065000Y-86092089D01*
X172100932Y-86272729D01*
X172171414Y-86442889D01*
X172273738Y-86596028D01*
X172403972Y-86726262D01*
X172557111Y-86828586D01*
X172727271Y-86899068D01*
X172907911Y-86935000D01*
X173092089Y-86935000D01*
X173272729Y-86899068D01*
X173442889Y-86828586D01*
X173545535Y-86760000D01*
X173962678Y-86760000D01*
X174000000Y-86763676D01*
X174037322Y-86760000D01*
X174037333Y-86760000D01*
X174148986Y-86749003D01*
X174292247Y-86705546D01*
X174424276Y-86634974D01*
X174540001Y-86540001D01*
X174563804Y-86510997D01*
X180401649Y-80673153D01*
X180522729Y-80649068D01*
X180692889Y-80578586D01*
X180846028Y-80476262D01*
X180976262Y-80346028D01*
X181078586Y-80192889D01*
X181149068Y-80022729D01*
X181185000Y-79842089D01*
X181185000Y-79657911D01*
X181149068Y-79477271D01*
X181078586Y-79307111D01*
X180976262Y-79153972D01*
X180846028Y-79023738D01*
X180692889Y-78921414D01*
X180522729Y-78850932D01*
X180342089Y-78815000D01*
X180157911Y-78815000D01*
X179977271Y-78850932D01*
X179807111Y-78921414D01*
X179653972Y-79023738D01*
X179523738Y-79153972D01*
X179421414Y-79307111D01*
X179350932Y-79477271D01*
X179326847Y-79598351D01*
X173685199Y-85240000D01*
X173545535Y-85240000D01*
X173442889Y-85171414D01*
X173272729Y-85100932D01*
X173092089Y-85065000D01*
X172907911Y-85065000D01*
X172727271Y-85100932D01*
X172557111Y-85171414D01*
X172403972Y-85273738D01*
X172273738Y-85403972D01*
X172171414Y-85557111D01*
X172100932Y-85727271D01*
X172065000Y-85907911D01*
X170660000Y-85907911D01*
X170660000Y-78080000D01*
X189986928Y-78080000D01*
X189990000Y-78294250D01*
X190148750Y-78453000D01*
X192073000Y-78453000D01*
X192073000Y-77603750D01*
X192327000Y-77603750D01*
X192327000Y-78453000D01*
X194251250Y-78453000D01*
X194410000Y-78294250D01*
X194413072Y-78080000D01*
X195036928Y-78080000D01*
X195040000Y-78294250D01*
X195198750Y-78453000D01*
X197123000Y-78453000D01*
X197123000Y-77603750D01*
X197377000Y-77603750D01*
X197377000Y-78453000D01*
X199301250Y-78453000D01*
X199460000Y-78294250D01*
X199463072Y-78080000D01*
X199450812Y-77955518D01*
X199414502Y-77835820D01*
X199355537Y-77725506D01*
X199276185Y-77628815D01*
X199179494Y-77549463D01*
X199069180Y-77490498D01*
X198949482Y-77454188D01*
X198825000Y-77441928D01*
X197535750Y-77445000D01*
X197377000Y-77603750D01*
X197123000Y-77603750D01*
X196964250Y-77445000D01*
X195675000Y-77441928D01*
X195550518Y-77454188D01*
X195430820Y-77490498D01*
X195320506Y-77549463D01*
X195223815Y-77628815D01*
X195144463Y-77725506D01*
X195085498Y-77835820D01*
X195049188Y-77955518D01*
X195036928Y-78080000D01*
X194413072Y-78080000D01*
X194400812Y-77955518D01*
X194364502Y-77835820D01*
X194305537Y-77725506D01*
X194226185Y-77628815D01*
X194129494Y-77549463D01*
X194019180Y-77490498D01*
X193899482Y-77454188D01*
X193775000Y-77441928D01*
X192485750Y-77445000D01*
X192327000Y-77603750D01*
X192073000Y-77603750D01*
X191914250Y-77445000D01*
X190625000Y-77441928D01*
X190500518Y-77454188D01*
X190380820Y-77490498D01*
X190270506Y-77549463D01*
X190173815Y-77628815D01*
X190094463Y-77725506D01*
X190035498Y-77835820D01*
X189999188Y-77955518D01*
X189986928Y-78080000D01*
X170660000Y-78080000D01*
X170660000Y-76540000D01*
X189986928Y-76540000D01*
X189999188Y-76664482D01*
X190035498Y-76784180D01*
X190094463Y-76894494D01*
X190173815Y-76991185D01*
X190270506Y-77070537D01*
X190380820Y-77129502D01*
X190500518Y-77165812D01*
X190625000Y-77178072D01*
X191914250Y-77175000D01*
X192073000Y-77016250D01*
X192073000Y-76167000D01*
X192327000Y-76167000D01*
X192327000Y-77016250D01*
X192485750Y-77175000D01*
X193775000Y-77178072D01*
X193899482Y-77165812D01*
X194019180Y-77129502D01*
X194129494Y-77070537D01*
X194226185Y-76991185D01*
X194305537Y-76894494D01*
X194364502Y-76784180D01*
X194400812Y-76664482D01*
X194413072Y-76540000D01*
X195036928Y-76540000D01*
X195049188Y-76664482D01*
X195085498Y-76784180D01*
X195144463Y-76894494D01*
X195223815Y-76991185D01*
X195320506Y-77070537D01*
X195430820Y-77129502D01*
X195550518Y-77165812D01*
X195675000Y-77178072D01*
X196964250Y-77175000D01*
X197123000Y-77016250D01*
X197123000Y-76167000D01*
X197377000Y-76167000D01*
X197377000Y-77016250D01*
X197535750Y-77175000D01*
X198825000Y-77178072D01*
X198949482Y-77165812D01*
X199069180Y-77129502D01*
X199179494Y-77070537D01*
X199276185Y-76991185D01*
X199355537Y-76894494D01*
X199414502Y-76784180D01*
X199450812Y-76664482D01*
X199463072Y-76540000D01*
X199460000Y-76325750D01*
X199301250Y-76167000D01*
X197377000Y-76167000D01*
X197123000Y-76167000D01*
X195198750Y-76167000D01*
X195040000Y-76325750D01*
X195036928Y-76540000D01*
X194413072Y-76540000D01*
X194410000Y-76325750D01*
X194251250Y-76167000D01*
X192327000Y-76167000D01*
X192073000Y-76167000D01*
X190148750Y-76167000D01*
X189990000Y-76325750D01*
X189986928Y-76540000D01*
X170660000Y-76540000D01*
X170660000Y-75540000D01*
X189986928Y-75540000D01*
X189990000Y-75754250D01*
X190148750Y-75913000D01*
X192073000Y-75913000D01*
X192073000Y-75063750D01*
X192327000Y-75063750D01*
X192327000Y-75913000D01*
X194251250Y-75913000D01*
X194410000Y-75754250D01*
X194413072Y-75540000D01*
X195036928Y-75540000D01*
X195040000Y-75754250D01*
X195198750Y-75913000D01*
X197123000Y-75913000D01*
X197123000Y-75063750D01*
X196964250Y-74905000D01*
X195675000Y-74901928D01*
X195550518Y-74914188D01*
X195430820Y-74950498D01*
X195320506Y-75009463D01*
X195223815Y-75088815D01*
X195144463Y-75185506D01*
X195085498Y-75295820D01*
X195049188Y-75415518D01*
X195036928Y-75540000D01*
X194413072Y-75540000D01*
X194400812Y-75415518D01*
X194364502Y-75295820D01*
X194305537Y-75185506D01*
X194226185Y-75088815D01*
X194129494Y-75009463D01*
X194019180Y-74950498D01*
X193899482Y-74914188D01*
X193775000Y-74901928D01*
X192485750Y-74905000D01*
X192327000Y-75063750D01*
X192073000Y-75063750D01*
X191914250Y-74905000D01*
X190625000Y-74901928D01*
X190500518Y-74914188D01*
X190380820Y-74950498D01*
X190270506Y-75009463D01*
X190173815Y-75088815D01*
X190094463Y-75185506D01*
X190035498Y-75295820D01*
X189999188Y-75415518D01*
X189986928Y-75540000D01*
X170660000Y-75540000D01*
X170660000Y-67907911D01*
X172065000Y-67907911D01*
X172065000Y-68092089D01*
X172100932Y-68272729D01*
X172171414Y-68442889D01*
X172273738Y-68596028D01*
X172403972Y-68726262D01*
X172557111Y-68828586D01*
X172727271Y-68899068D01*
X172907911Y-68935000D01*
X173092089Y-68935000D01*
X173272729Y-68899068D01*
X173442889Y-68828586D01*
X173545535Y-68760000D01*
X178704465Y-68760000D01*
X178807111Y-68828586D01*
X178977271Y-68899068D01*
X179157911Y-68935000D01*
X179342089Y-68935000D01*
X179522729Y-68899068D01*
X179692889Y-68828586D01*
X179846028Y-68726262D01*
X179976262Y-68596028D01*
X180078586Y-68442889D01*
X180149068Y-68272729D01*
X180185000Y-68092089D01*
X180185000Y-67907911D01*
X180149068Y-67727271D01*
X180078586Y-67557111D01*
X179976262Y-67403972D01*
X179846028Y-67273738D01*
X179692889Y-67171414D01*
X179522729Y-67100932D01*
X179342089Y-67065000D01*
X179157911Y-67065000D01*
X178977271Y-67100932D01*
X178807111Y-67171414D01*
X178704465Y-67240000D01*
X173545535Y-67240000D01*
X173442889Y-67171414D01*
X173272729Y-67100932D01*
X173092089Y-67065000D01*
X172907911Y-67065000D01*
X172727271Y-67100932D01*
X172557111Y-67171414D01*
X172403972Y-67273738D01*
X172273738Y-67403972D01*
X172171414Y-67557111D01*
X172100932Y-67727271D01*
X172065000Y-67907911D01*
X170660000Y-67907911D01*
X170660000Y-63657911D01*
X172065000Y-63657911D01*
X172065000Y-63842089D01*
X172100932Y-64022729D01*
X172171414Y-64192889D01*
X172273738Y-64346028D01*
X172403972Y-64476262D01*
X172557111Y-64578586D01*
X172727271Y-64649068D01*
X172907911Y-64685000D01*
X173092089Y-64685000D01*
X173272729Y-64649068D01*
X173442889Y-64578586D01*
X173545535Y-64510000D01*
X178704465Y-64510000D01*
X178807111Y-64578586D01*
X178977271Y-64649068D01*
X179157911Y-64685000D01*
X179342089Y-64685000D01*
X179522729Y-64649068D01*
X179692889Y-64578586D01*
X179846028Y-64476262D01*
X179976262Y-64346028D01*
X180078586Y-64192889D01*
X180149068Y-64022729D01*
X180185000Y-63842089D01*
X180185000Y-63657911D01*
X180149068Y-63477271D01*
X180078586Y-63307111D01*
X179976262Y-63153972D01*
X179846028Y-63023738D01*
X179692889Y-62921414D01*
X179522729Y-62850932D01*
X179342089Y-62815000D01*
X179157911Y-62815000D01*
X178977271Y-62850932D01*
X178807111Y-62921414D01*
X178704465Y-62990000D01*
X173545535Y-62990000D01*
X173442889Y-62921414D01*
X173272729Y-62850932D01*
X173092089Y-62815000D01*
X172907911Y-62815000D01*
X172727271Y-62850932D01*
X172557111Y-62921414D01*
X172403972Y-63023738D01*
X172273738Y-63153972D01*
X172171414Y-63307111D01*
X172100932Y-63477271D01*
X172065000Y-63657911D01*
X170660000Y-63657911D01*
X170660000Y-50660000D01*
X219340000Y-50660000D01*
X219340001Y-99340000D01*
%TA.AperFunction,Conductor*%
D19*
G36*
X219340001Y-99340000D02*
G01*
X207404320Y-99340000D01*
X207439502Y-99274180D01*
X207475812Y-99154482D01*
X207488072Y-99030000D01*
X207488072Y-97766730D01*
X208136014Y-97118788D01*
X208165012Y-97094990D01*
X208259985Y-96979265D01*
X208330557Y-96847236D01*
X208374014Y-96703975D01*
X208385011Y-96592322D01*
X208388688Y-96554989D01*
X208385011Y-96517656D01*
X208385011Y-85403342D01*
X208388688Y-85366009D01*
X208374014Y-85217023D01*
X208330557Y-85073762D01*
X208259985Y-84941733D01*
X208188810Y-84855006D01*
X208165012Y-84826008D01*
X208136015Y-84802211D01*
X204822806Y-81489003D01*
X204799003Y-81459999D01*
X204683278Y-81365026D01*
X204551249Y-81294454D01*
X204407988Y-81250997D01*
X204296335Y-81240000D01*
X204296324Y-81240000D01*
X204259002Y-81236324D01*
X204221680Y-81240000D01*
X203019600Y-81240000D01*
X202986473Y-81190422D01*
X202809578Y-81013527D01*
X202601571Y-80874541D01*
X202370445Y-80778805D01*
X202125084Y-80730000D01*
X201874916Y-80730000D01*
X201629555Y-80778805D01*
X201398429Y-80874541D01*
X201381474Y-80885870D01*
X201285202Y-80789599D01*
X202261004Y-79813798D01*
X202290001Y-79790001D01*
X202384974Y-79674276D01*
X202455546Y-79542247D01*
X202499003Y-79398986D01*
X202510000Y-79287333D01*
X202510000Y-79287332D01*
X202513677Y-79250000D01*
X202510000Y-79212667D01*
X202510000Y-73787325D01*
X202513676Y-73750000D01*
X202510000Y-73712675D01*
X202510000Y-73712667D01*
X202499003Y-73601014D01*
X202455546Y-73457753D01*
X202384974Y-73325724D01*
X202290001Y-73209999D01*
X202261003Y-73186201D01*
X200563804Y-71489003D01*
X200540001Y-71459999D01*
X200424276Y-71365026D01*
X200292247Y-71294454D01*
X200148986Y-71250997D01*
X200037333Y-71240000D01*
X200037322Y-71240000D01*
X200000000Y-71236324D01*
X199962678Y-71240000D01*
X199463072Y-71240000D01*
X199463072Y-70460000D01*
X199450812Y-70335518D01*
X199414502Y-70215820D01*
X199355537Y-70105506D01*
X199276185Y-70008815D01*
X199179494Y-69929463D01*
X199069180Y-69870498D01*
X198949482Y-69834188D01*
X198825000Y-69821928D01*
X197904326Y-69821928D01*
X197884974Y-69785724D01*
X197790001Y-69669999D01*
X197761003Y-69646201D01*
X195374801Y-67260000D01*
X196685199Y-67260000D01*
X208838996Y-79413799D01*
X208839007Y-79413808D01*
X216186201Y-86761003D01*
X216209999Y-86790001D01*
X216268238Y-86837796D01*
X216273738Y-86846028D01*
X216403972Y-86976262D01*
X216557111Y-87078586D01*
X216727271Y-87149068D01*
X216907911Y-87185000D01*
X217092089Y-87185000D01*
X217272729Y-87149068D01*
X217442889Y-87078586D01*
X217596028Y-86976262D01*
X217726262Y-86846028D01*
X217828586Y-86692889D01*
X217899068Y-86522729D01*
X217935000Y-86342089D01*
X217935000Y-86157911D01*
X217899068Y-85977271D01*
X217828586Y-85807111D01*
X217726262Y-85653972D01*
X217596028Y-85523738D01*
X217442889Y-85421414D01*
X217272729Y-85350932D01*
X217092089Y-85315000D01*
X216907911Y-85315000D01*
X216892806Y-85318005D01*
X209913808Y-78339007D01*
X209913799Y-78338996D01*
X199482713Y-67907911D01*
X208565000Y-67907911D01*
X208565000Y-68092089D01*
X208600932Y-68272729D01*
X208671414Y-68442889D01*
X208773738Y-68596028D01*
X208903972Y-68726262D01*
X209057111Y-68828586D01*
X209227271Y-68899068D01*
X209407911Y-68935000D01*
X209592089Y-68935000D01*
X209772729Y-68899068D01*
X209942889Y-68828586D01*
X210045535Y-68760000D01*
X216216256Y-68760000D01*
X216273738Y-68846028D01*
X216403972Y-68976262D01*
X216557111Y-69078586D01*
X216727271Y-69149068D01*
X216907911Y-69185000D01*
X217092089Y-69185000D01*
X217272729Y-69149068D01*
X217442889Y-69078586D01*
X217596028Y-68976262D01*
X217726262Y-68846028D01*
X217828586Y-68692889D01*
X217899068Y-68522729D01*
X217935000Y-68342089D01*
X217935000Y-68157911D01*
X217899068Y-67977271D01*
X217828586Y-67807111D01*
X217726262Y-67653972D01*
X217596028Y-67523738D01*
X217442889Y-67421414D01*
X217272729Y-67350932D01*
X217092089Y-67315000D01*
X217080685Y-67315000D01*
X217042247Y-67294454D01*
X216898986Y-67250997D01*
X216787333Y-67240000D01*
X216787322Y-67240000D01*
X216750000Y-67236324D01*
X216712678Y-67240000D01*
X210045535Y-67240000D01*
X209942889Y-67171414D01*
X209772729Y-67100932D01*
X209592089Y-67065000D01*
X209407911Y-67065000D01*
X209227271Y-67100932D01*
X209057111Y-67171414D01*
X208903972Y-67273738D01*
X208773738Y-67403972D01*
X208671414Y-67557111D01*
X208600932Y-67727271D01*
X208565000Y-67907911D01*
X199482713Y-67907911D01*
X198084801Y-66510000D01*
X202204465Y-66510000D01*
X202307111Y-66578586D01*
X202477271Y-66649068D01*
X202657911Y-66685000D01*
X202842089Y-66685000D01*
X203022729Y-66649068D01*
X203192889Y-66578586D01*
X203346028Y-66476262D01*
X203476262Y-66346028D01*
X203578586Y-66192889D01*
X203649068Y-66022729D01*
X203685000Y-65842089D01*
X203685000Y-65657911D01*
X203649068Y-65477271D01*
X203578586Y-65307111D01*
X203476262Y-65153972D01*
X203346028Y-65023738D01*
X203192889Y-64921414D01*
X203022729Y-64850932D01*
X202932345Y-64832953D01*
X202942889Y-64828586D01*
X203096028Y-64726262D01*
X203226262Y-64596028D01*
X203328586Y-64442889D01*
X203399068Y-64272729D01*
X203435000Y-64092089D01*
X203435000Y-63907911D01*
X203399068Y-63727271D01*
X203370339Y-63657911D01*
X208065000Y-63657911D01*
X208065000Y-63842089D01*
X208100932Y-64022729D01*
X208171414Y-64192889D01*
X208273738Y-64346028D01*
X208403972Y-64476262D01*
X208557111Y-64578586D01*
X208727271Y-64649068D01*
X208907911Y-64685000D01*
X209092089Y-64685000D01*
X209272729Y-64649068D01*
X209442889Y-64578586D01*
X209545535Y-64510000D01*
X216454465Y-64510000D01*
X216557111Y-64578586D01*
X216727271Y-64649068D01*
X216907911Y-64685000D01*
X217092089Y-64685000D01*
X217272729Y-64649068D01*
X217442889Y-64578586D01*
X217596028Y-64476262D01*
X217726262Y-64346028D01*
X217828586Y-64192889D01*
X217899068Y-64022729D01*
X217935000Y-63842089D01*
X217935000Y-63657911D01*
X217899068Y-63477271D01*
X217828586Y-63307111D01*
X217726262Y-63153972D01*
X217596028Y-63023738D01*
X217442889Y-62921414D01*
X217272729Y-62850932D01*
X217092089Y-62815000D01*
X216907911Y-62815000D01*
X216727271Y-62850932D01*
X216557111Y-62921414D01*
X216454465Y-62990000D01*
X209545535Y-62990000D01*
X209442889Y-62921414D01*
X209272729Y-62850932D01*
X209092089Y-62815000D01*
X208907911Y-62815000D01*
X208727271Y-62850932D01*
X208557111Y-62921414D01*
X208403972Y-63023738D01*
X208273738Y-63153972D01*
X208171414Y-63307111D01*
X208100932Y-63477271D01*
X208065000Y-63657911D01*
X203370339Y-63657911D01*
X203328586Y-63557111D01*
X203226262Y-63403972D01*
X203096028Y-63273738D01*
X202942889Y-63171414D01*
X202772729Y-63100932D01*
X202592089Y-63065000D01*
X202407911Y-63065000D01*
X202227271Y-63100932D01*
X202057111Y-63171414D01*
X201903972Y-63273738D01*
X201773738Y-63403972D01*
X201671414Y-63557111D01*
X201600932Y-63727271D01*
X201576847Y-63848351D01*
X201435199Y-63990000D01*
X196935000Y-63990000D01*
X196935000Y-63907911D01*
X196899068Y-63727271D01*
X196828586Y-63557111D01*
X196726262Y-63403972D01*
X196596028Y-63273738D01*
X196442889Y-63171414D01*
X196272729Y-63100932D01*
X196092089Y-63065000D01*
X196064804Y-63065000D01*
X194238806Y-61239003D01*
X194215003Y-61209999D01*
X194099278Y-61115026D01*
X193967249Y-61044454D01*
X193823988Y-61000997D01*
X193712335Y-60990000D01*
X193712324Y-60990000D01*
X193675002Y-60986324D01*
X193637680Y-60990000D01*
X189545535Y-60990000D01*
X189442889Y-60921414D01*
X189272729Y-60850932D01*
X189092089Y-60815000D01*
X188907911Y-60815000D01*
X188727271Y-60850932D01*
X188557111Y-60921414D01*
X188403972Y-61023738D01*
X188273738Y-61153972D01*
X188171414Y-61307111D01*
X188100932Y-61477271D01*
X188065000Y-61657911D01*
X188065000Y-61665201D01*
X187760000Y-61360201D01*
X187760000Y-55045535D01*
X187828586Y-54942889D01*
X187899068Y-54772729D01*
X187935000Y-54592089D01*
X187935000Y-54407911D01*
X187899068Y-54227271D01*
X187828586Y-54057111D01*
X187726262Y-53903972D01*
X187596028Y-53773738D01*
X187442889Y-53671414D01*
X187272729Y-53600932D01*
X187092089Y-53565000D01*
X186907911Y-53565000D01*
X186727271Y-53600932D01*
X186557111Y-53671414D01*
X186403972Y-53773738D01*
X186273738Y-53903972D01*
X186171414Y-54057111D01*
X186100932Y-54227271D01*
X186065000Y-54407911D01*
X186065000Y-54592089D01*
X186100932Y-54772729D01*
X186171414Y-54942889D01*
X186240000Y-55045536D01*
X186240001Y-61490198D01*
X185610000Y-60860197D01*
X185610000Y-54945535D01*
X185678586Y-54842889D01*
X185749068Y-54672729D01*
X185785000Y-54492089D01*
X185785000Y-54307911D01*
X185749068Y-54127271D01*
X185678586Y-53957111D01*
X185576262Y-53803972D01*
X185446028Y-53673738D01*
X185292889Y-53571414D01*
X185122729Y-53500932D01*
X184942089Y-53465000D01*
X184757911Y-53465000D01*
X184577271Y-53500932D01*
X184407111Y-53571414D01*
X184253972Y-53673738D01*
X184123738Y-53803972D01*
X184021414Y-53957111D01*
X183950932Y-54127271D01*
X183915000Y-54307911D01*
X183915000Y-54492089D01*
X183950932Y-54672729D01*
X184021414Y-54842889D01*
X184090000Y-54945536D01*
X184090001Y-61137666D01*
X184086324Y-61174998D01*
X184100998Y-61323983D01*
X184144454Y-61467244D01*
X184215026Y-61599274D01*
X184263149Y-61657911D01*
X184310000Y-61714999D01*
X184338998Y-61738797D01*
X191345470Y-68745270D01*
X191350932Y-68772729D01*
X191421414Y-68942889D01*
X191523738Y-69096028D01*
X191653972Y-69226262D01*
X191807111Y-69328586D01*
X191977271Y-69399068D01*
X192115002Y-69426465D01*
X192115002Y-69821928D01*
X190625000Y-69821928D01*
X190500518Y-69834188D01*
X190380820Y-69870498D01*
X190270506Y-69929463D01*
X190173815Y-70008815D01*
X190094463Y-70105506D01*
X190035498Y-70215820D01*
X189999188Y-70335518D01*
X189986928Y-70460000D01*
X189986928Y-71240000D01*
X188787325Y-71240000D01*
X188750000Y-71236324D01*
X188712675Y-71240000D01*
X188712667Y-71240000D01*
X188601014Y-71250997D01*
X188457753Y-71294454D01*
X188325724Y-71365026D01*
X188209999Y-71459999D01*
X188186201Y-71488997D01*
X186848351Y-72826847D01*
X186727271Y-72850932D01*
X186557111Y-72921414D01*
X186403972Y-73023738D01*
X186273738Y-73153972D01*
X186171414Y-73307111D01*
X186100932Y-73477271D01*
X186065000Y-73657911D01*
X186065000Y-73842089D01*
X186100932Y-74022729D01*
X186171414Y-74192889D01*
X186273738Y-74346028D01*
X186403972Y-74476262D01*
X186557111Y-74578586D01*
X186727271Y-74649068D01*
X186907911Y-74685000D01*
X187092089Y-74685000D01*
X187272729Y-74649068D01*
X187442889Y-74578586D01*
X187596028Y-74476262D01*
X187726262Y-74346028D01*
X187828586Y-74192889D01*
X187899068Y-74022729D01*
X187923153Y-73901649D01*
X189064802Y-72760000D01*
X190034230Y-72760000D01*
X189999188Y-72875518D01*
X189986928Y-73000000D01*
X189986928Y-74000000D01*
X189999188Y-74124482D01*
X190035498Y-74244180D01*
X190094463Y-74354494D01*
X190173815Y-74451185D01*
X190270506Y-74530537D01*
X190380820Y-74589502D01*
X190500518Y-74625812D01*
X190625000Y-74638072D01*
X193775000Y-74638072D01*
X193899482Y-74625812D01*
X194019180Y-74589502D01*
X194129494Y-74530537D01*
X194226185Y-74451185D01*
X194305537Y-74354494D01*
X194364502Y-74244180D01*
X194400812Y-74124482D01*
X194413072Y-74000000D01*
X194413072Y-73000000D01*
X194405429Y-72922401D01*
X194522729Y-72899068D01*
X194692889Y-72828586D01*
X194846028Y-72726262D01*
X194976262Y-72596028D01*
X195078586Y-72442889D01*
X195149068Y-72272729D01*
X195185000Y-72092089D01*
X195185000Y-71907911D01*
X195173442Y-71849805D01*
X195223815Y-71911185D01*
X195320506Y-71990537D01*
X195430820Y-72049502D01*
X195550518Y-72085812D01*
X195675000Y-72098072D01*
X196316190Y-72098072D01*
X196350932Y-72272729D01*
X196387879Y-72361928D01*
X195675000Y-72361928D01*
X195550518Y-72374188D01*
X195430820Y-72410498D01*
X195320506Y-72469463D01*
X195223815Y-72548815D01*
X195144463Y-72645506D01*
X195085498Y-72755820D01*
X195049188Y-72875518D01*
X195036928Y-73000000D01*
X195036928Y-74000000D01*
X195049188Y-74124482D01*
X195085498Y-74244180D01*
X195144463Y-74354494D01*
X195223815Y-74451185D01*
X195320506Y-74530537D01*
X195430820Y-74589502D01*
X195550518Y-74625812D01*
X195675000Y-74638072D01*
X198313271Y-74638072D01*
X198577716Y-74902517D01*
X197535750Y-74905000D01*
X197377000Y-75063750D01*
X197377000Y-75913000D01*
X199301250Y-75913000D01*
X199362656Y-75851594D01*
X199477271Y-75899068D01*
X199657911Y-75935000D01*
X199842089Y-75935000D01*
X200022729Y-75899068D01*
X200192889Y-75828586D01*
X200346028Y-75726262D01*
X200476262Y-75596028D01*
X200539991Y-75500651D01*
X200539990Y-78635208D01*
X199810199Y-79365000D01*
X199392683Y-79365000D01*
X199414502Y-79324180D01*
X199450812Y-79204482D01*
X199463072Y-79080000D01*
X199460000Y-78865750D01*
X199301250Y-78707000D01*
X197377000Y-78707000D01*
X197377000Y-78727000D01*
X197123000Y-78727000D01*
X197123000Y-78707000D01*
X195198750Y-78707000D01*
X195040000Y-78865750D01*
X195036928Y-79080000D01*
X195049188Y-79204482D01*
X195085498Y-79324180D01*
X195107317Y-79365000D01*
X194342683Y-79365000D01*
X194364502Y-79324180D01*
X194400812Y-79204482D01*
X194413072Y-79080000D01*
X194410000Y-78865750D01*
X194251250Y-78707000D01*
X192327000Y-78707000D01*
X192327000Y-78727000D01*
X192073000Y-78727000D01*
X192073000Y-78707000D01*
X190148750Y-78707000D01*
X189990000Y-78865750D01*
X189986928Y-79080000D01*
X189999188Y-79204482D01*
X190035498Y-79324180D01*
X190057317Y-79365000D01*
X186912322Y-79365000D01*
X186874999Y-79361324D01*
X186837676Y-79365000D01*
X186837667Y-79365000D01*
X186726014Y-79375997D01*
X186582753Y-79419454D01*
X186450724Y-79490026D01*
X186334999Y-79584999D01*
X186311201Y-79613997D01*
X182313997Y-83611202D01*
X182284999Y-83635000D01*
X182261201Y-83663998D01*
X182261200Y-83663999D01*
X182190025Y-83750725D01*
X182119453Y-83882755D01*
X182089179Y-83982559D01*
X182079339Y-84015000D01*
X182075997Y-84026016D01*
X182061323Y-84175001D01*
X182065000Y-84212333D01*
X182064999Y-89367676D01*
X182061323Y-89404999D01*
X182064999Y-89442321D01*
X182064999Y-89442331D01*
X182075996Y-89553984D01*
X182112485Y-89674275D01*
X182119453Y-89697245D01*
X182190025Y-89829275D01*
X182228855Y-89876589D01*
X182284998Y-89945000D01*
X182314002Y-89968803D01*
X182558791Y-90213592D01*
X182515000Y-90433740D01*
X182515000Y-90726260D01*
X182572068Y-91013158D01*
X182684010Y-91283411D01*
X182846525Y-91526632D01*
X182978380Y-91658487D01*
X182905820Y-91680498D01*
X182795506Y-91739463D01*
X182698815Y-91818815D01*
X182619463Y-91915506D01*
X182560498Y-92025820D01*
X182524188Y-92145518D01*
X182511928Y-92270000D01*
X182511928Y-93970000D01*
X182524188Y-94094482D01*
X182560498Y-94214180D01*
X182619463Y-94324494D01*
X182698815Y-94421185D01*
X182795506Y-94500537D01*
X182905820Y-94559502D01*
X182986466Y-94583966D01*
X182902412Y-94659731D01*
X182728359Y-94893080D01*
X182603175Y-95155901D01*
X182558524Y-95303110D01*
X182679845Y-95533000D01*
X183873000Y-95533000D01*
X183873000Y-95513000D01*
X184127000Y-95513000D01*
X184127000Y-95533000D01*
X185320155Y-95533000D01*
X185441476Y-95303110D01*
X185396825Y-95155901D01*
X185271641Y-94893080D01*
X185097588Y-94659731D01*
X185013534Y-94583966D01*
X185094180Y-94559502D01*
X185204494Y-94500537D01*
X185301185Y-94421185D01*
X185380537Y-94324494D01*
X185439502Y-94214180D01*
X185475812Y-94094482D01*
X185488072Y-93970000D01*
X185488072Y-93880000D01*
X200625199Y-93880000D01*
X204511928Y-97766730D01*
X204511928Y-99030000D01*
X204524188Y-99154482D01*
X204560498Y-99274180D01*
X204595680Y-99340000D01*
X196269000Y-99340000D01*
X196269000Y-99300947D01*
X196181189Y-98859490D01*
X196008941Y-98443647D01*
X195758875Y-98069397D01*
X195440603Y-97751125D01*
X195066353Y-97501059D01*
X194650510Y-97328811D01*
X194209053Y-97241000D01*
X193758947Y-97241000D01*
X193317490Y-97328811D01*
X192901647Y-97501059D01*
X192527397Y-97751125D01*
X192209125Y-98069397D01*
X191959059Y-98443647D01*
X191786811Y-98859490D01*
X191699000Y-99300947D01*
X191699000Y-99340000D01*
X184942570Y-99340000D01*
X185097588Y-99200269D01*
X185271641Y-98966920D01*
X185396825Y-98704099D01*
X185441476Y-98556890D01*
X185320155Y-98327000D01*
X184127000Y-98327000D01*
X184127000Y-98347000D01*
X183873000Y-98347000D01*
X183873000Y-98327000D01*
X182679845Y-98327000D01*
X182558524Y-98556890D01*
X182603175Y-98704099D01*
X182728359Y-98966920D01*
X182902412Y-99200269D01*
X183057430Y-99340000D01*
X170660000Y-99340000D01*
X170660000Y-96016890D01*
X182558524Y-96016890D01*
X182603175Y-96164099D01*
X182728359Y-96426920D01*
X182902412Y-96660269D01*
X183118645Y-96855178D01*
X183244255Y-96930000D01*
X183118645Y-97004822D01*
X182902412Y-97199731D01*
X182728359Y-97433080D01*
X182603175Y-97695901D01*
X182558524Y-97843110D01*
X182679845Y-98073000D01*
X183873000Y-98073000D01*
X183873000Y-95787000D01*
X184127000Y-95787000D01*
X184127000Y-98073000D01*
X185320155Y-98073000D01*
X185441476Y-97843110D01*
X185396825Y-97695901D01*
X185271641Y-97433080D01*
X185097588Y-97199731D01*
X184881355Y-97004822D01*
X184755745Y-96930000D01*
X184881355Y-96855178D01*
X185097588Y-96660269D01*
X185271641Y-96426920D01*
X185396825Y-96164099D01*
X185441476Y-96016890D01*
X185320155Y-95787000D01*
X184127000Y-95787000D01*
X183873000Y-95787000D01*
X182679845Y-95787000D01*
X182558524Y-96016890D01*
X170660000Y-96016890D01*
X170660000Y-85907911D01*
X172065000Y-85907911D01*
X172065000Y-86092089D01*
X172100932Y-86272729D01*
X172171414Y-86442889D01*
X172273738Y-86596028D01*
X172403972Y-86726262D01*
X172557111Y-86828586D01*
X172727271Y-86899068D01*
X172907911Y-86935000D01*
X173092089Y-86935000D01*
X173272729Y-86899068D01*
X173442889Y-86828586D01*
X173545535Y-86760000D01*
X173962678Y-86760000D01*
X174000000Y-86763676D01*
X174037322Y-86760000D01*
X174037333Y-86760000D01*
X174148986Y-86749003D01*
X174292247Y-86705546D01*
X174424276Y-86634974D01*
X174540001Y-86540001D01*
X174563804Y-86510997D01*
X180401649Y-80673153D01*
X180522729Y-80649068D01*
X180692889Y-80578586D01*
X180846028Y-80476262D01*
X180976262Y-80346028D01*
X181078586Y-80192889D01*
X181149068Y-80022729D01*
X181185000Y-79842089D01*
X181185000Y-79657911D01*
X181149068Y-79477271D01*
X181078586Y-79307111D01*
X180976262Y-79153972D01*
X180846028Y-79023738D01*
X180692889Y-78921414D01*
X180522729Y-78850932D01*
X180342089Y-78815000D01*
X180157911Y-78815000D01*
X179977271Y-78850932D01*
X179807111Y-78921414D01*
X179653972Y-79023738D01*
X179523738Y-79153972D01*
X179421414Y-79307111D01*
X179350932Y-79477271D01*
X179326847Y-79598351D01*
X173685199Y-85240000D01*
X173545535Y-85240000D01*
X173442889Y-85171414D01*
X173272729Y-85100932D01*
X173092089Y-85065000D01*
X172907911Y-85065000D01*
X172727271Y-85100932D01*
X172557111Y-85171414D01*
X172403972Y-85273738D01*
X172273738Y-85403972D01*
X172171414Y-85557111D01*
X172100932Y-85727271D01*
X172065000Y-85907911D01*
X170660000Y-85907911D01*
X170660000Y-78080000D01*
X189986928Y-78080000D01*
X189990000Y-78294250D01*
X190148750Y-78453000D01*
X192073000Y-78453000D01*
X192073000Y-77603750D01*
X192327000Y-77603750D01*
X192327000Y-78453000D01*
X194251250Y-78453000D01*
X194410000Y-78294250D01*
X194413072Y-78080000D01*
X195036928Y-78080000D01*
X195040000Y-78294250D01*
X195198750Y-78453000D01*
X197123000Y-78453000D01*
X197123000Y-77603750D01*
X197377000Y-77603750D01*
X197377000Y-78453000D01*
X199301250Y-78453000D01*
X199460000Y-78294250D01*
X199463072Y-78080000D01*
X199450812Y-77955518D01*
X199414502Y-77835820D01*
X199355537Y-77725506D01*
X199276185Y-77628815D01*
X199179494Y-77549463D01*
X199069180Y-77490498D01*
X198949482Y-77454188D01*
X198825000Y-77441928D01*
X197535750Y-77445000D01*
X197377000Y-77603750D01*
X197123000Y-77603750D01*
X196964250Y-77445000D01*
X195675000Y-77441928D01*
X195550518Y-77454188D01*
X195430820Y-77490498D01*
X195320506Y-77549463D01*
X195223815Y-77628815D01*
X195144463Y-77725506D01*
X195085498Y-77835820D01*
X195049188Y-77955518D01*
X195036928Y-78080000D01*
X194413072Y-78080000D01*
X194400812Y-77955518D01*
X194364502Y-77835820D01*
X194305537Y-77725506D01*
X194226185Y-77628815D01*
X194129494Y-77549463D01*
X194019180Y-77490498D01*
X193899482Y-77454188D01*
X193775000Y-77441928D01*
X192485750Y-77445000D01*
X192327000Y-77603750D01*
X192073000Y-77603750D01*
X191914250Y-77445000D01*
X190625000Y-77441928D01*
X190500518Y-77454188D01*
X190380820Y-77490498D01*
X190270506Y-77549463D01*
X190173815Y-77628815D01*
X190094463Y-77725506D01*
X190035498Y-77835820D01*
X189999188Y-77955518D01*
X189986928Y-78080000D01*
X170660000Y-78080000D01*
X170660000Y-76540000D01*
X189986928Y-76540000D01*
X189999188Y-76664482D01*
X190035498Y-76784180D01*
X190094463Y-76894494D01*
X190173815Y-76991185D01*
X190270506Y-77070537D01*
X190380820Y-77129502D01*
X190500518Y-77165812D01*
X190625000Y-77178072D01*
X191914250Y-77175000D01*
X192073000Y-77016250D01*
X192073000Y-76167000D01*
X192327000Y-76167000D01*
X192327000Y-77016250D01*
X192485750Y-77175000D01*
X193775000Y-77178072D01*
X193899482Y-77165812D01*
X194019180Y-77129502D01*
X194129494Y-77070537D01*
X194226185Y-76991185D01*
X194305537Y-76894494D01*
X194364502Y-76784180D01*
X194400812Y-76664482D01*
X194413072Y-76540000D01*
X195036928Y-76540000D01*
X195049188Y-76664482D01*
X195085498Y-76784180D01*
X195144463Y-76894494D01*
X195223815Y-76991185D01*
X195320506Y-77070537D01*
X195430820Y-77129502D01*
X195550518Y-77165812D01*
X195675000Y-77178072D01*
X196964250Y-77175000D01*
X197123000Y-77016250D01*
X197123000Y-76167000D01*
X197377000Y-76167000D01*
X197377000Y-77016250D01*
X197535750Y-77175000D01*
X198825000Y-77178072D01*
X198949482Y-77165812D01*
X199069180Y-77129502D01*
X199179494Y-77070537D01*
X199276185Y-76991185D01*
X199355537Y-76894494D01*
X199414502Y-76784180D01*
X199450812Y-76664482D01*
X199463072Y-76540000D01*
X199460000Y-76325750D01*
X199301250Y-76167000D01*
X197377000Y-76167000D01*
X197123000Y-76167000D01*
X195198750Y-76167000D01*
X195040000Y-76325750D01*
X195036928Y-76540000D01*
X194413072Y-76540000D01*
X194410000Y-76325750D01*
X194251250Y-76167000D01*
X192327000Y-76167000D01*
X192073000Y-76167000D01*
X190148750Y-76167000D01*
X189990000Y-76325750D01*
X189986928Y-76540000D01*
X170660000Y-76540000D01*
X170660000Y-75540000D01*
X189986928Y-75540000D01*
X189990000Y-75754250D01*
X190148750Y-75913000D01*
X192073000Y-75913000D01*
X192073000Y-75063750D01*
X192327000Y-75063750D01*
X192327000Y-75913000D01*
X194251250Y-75913000D01*
X194410000Y-75754250D01*
X194413072Y-75540000D01*
X195036928Y-75540000D01*
X195040000Y-75754250D01*
X195198750Y-75913000D01*
X197123000Y-75913000D01*
X197123000Y-75063750D01*
X196964250Y-74905000D01*
X195675000Y-74901928D01*
X195550518Y-74914188D01*
X195430820Y-74950498D01*
X195320506Y-75009463D01*
X195223815Y-75088815D01*
X195144463Y-75185506D01*
X195085498Y-75295820D01*
X195049188Y-75415518D01*
X195036928Y-75540000D01*
X194413072Y-75540000D01*
X194400812Y-75415518D01*
X194364502Y-75295820D01*
X194305537Y-75185506D01*
X194226185Y-75088815D01*
X194129494Y-75009463D01*
X194019180Y-74950498D01*
X193899482Y-74914188D01*
X193775000Y-74901928D01*
X192485750Y-74905000D01*
X192327000Y-75063750D01*
X192073000Y-75063750D01*
X191914250Y-74905000D01*
X190625000Y-74901928D01*
X190500518Y-74914188D01*
X190380820Y-74950498D01*
X190270506Y-75009463D01*
X190173815Y-75088815D01*
X190094463Y-75185506D01*
X190035498Y-75295820D01*
X189999188Y-75415518D01*
X189986928Y-75540000D01*
X170660000Y-75540000D01*
X170660000Y-67907911D01*
X172065000Y-67907911D01*
X172065000Y-68092089D01*
X172100932Y-68272729D01*
X172171414Y-68442889D01*
X172273738Y-68596028D01*
X172403972Y-68726262D01*
X172557111Y-68828586D01*
X172727271Y-68899068D01*
X172907911Y-68935000D01*
X173092089Y-68935000D01*
X173272729Y-68899068D01*
X173442889Y-68828586D01*
X173545535Y-68760000D01*
X178704465Y-68760000D01*
X178807111Y-68828586D01*
X178977271Y-68899068D01*
X179157911Y-68935000D01*
X179342089Y-68935000D01*
X179522729Y-68899068D01*
X179692889Y-68828586D01*
X179846028Y-68726262D01*
X179976262Y-68596028D01*
X180078586Y-68442889D01*
X180149068Y-68272729D01*
X180185000Y-68092089D01*
X180185000Y-67907911D01*
X180149068Y-67727271D01*
X180078586Y-67557111D01*
X179976262Y-67403972D01*
X179846028Y-67273738D01*
X179692889Y-67171414D01*
X179522729Y-67100932D01*
X179342089Y-67065000D01*
X179157911Y-67065000D01*
X178977271Y-67100932D01*
X178807111Y-67171414D01*
X178704465Y-67240000D01*
X173545535Y-67240000D01*
X173442889Y-67171414D01*
X173272729Y-67100932D01*
X173092089Y-67065000D01*
X172907911Y-67065000D01*
X172727271Y-67100932D01*
X172557111Y-67171414D01*
X172403972Y-67273738D01*
X172273738Y-67403972D01*
X172171414Y-67557111D01*
X172100932Y-67727271D01*
X172065000Y-67907911D01*
X170660000Y-67907911D01*
X170660000Y-63657911D01*
X172065000Y-63657911D01*
X172065000Y-63842089D01*
X172100932Y-64022729D01*
X172171414Y-64192889D01*
X172273738Y-64346028D01*
X172403972Y-64476262D01*
X172557111Y-64578586D01*
X172727271Y-64649068D01*
X172907911Y-64685000D01*
X173092089Y-64685000D01*
X173272729Y-64649068D01*
X173442889Y-64578586D01*
X173545535Y-64510000D01*
X178704465Y-64510000D01*
X178807111Y-64578586D01*
X178977271Y-64649068D01*
X179157911Y-64685000D01*
X179342089Y-64685000D01*
X179522729Y-64649068D01*
X179692889Y-64578586D01*
X179846028Y-64476262D01*
X179976262Y-64346028D01*
X180078586Y-64192889D01*
X180149068Y-64022729D01*
X180185000Y-63842089D01*
X180185000Y-63657911D01*
X180149068Y-63477271D01*
X180078586Y-63307111D01*
X179976262Y-63153972D01*
X179846028Y-63023738D01*
X179692889Y-62921414D01*
X179522729Y-62850932D01*
X179342089Y-62815000D01*
X179157911Y-62815000D01*
X178977271Y-62850932D01*
X178807111Y-62921414D01*
X178704465Y-62990000D01*
X173545535Y-62990000D01*
X173442889Y-62921414D01*
X173272729Y-62850932D01*
X173092089Y-62815000D01*
X172907911Y-62815000D01*
X172727271Y-62850932D01*
X172557111Y-62921414D01*
X172403972Y-63023738D01*
X172273738Y-63153972D01*
X172171414Y-63307111D01*
X172100932Y-63477271D01*
X172065000Y-63657911D01*
X170660000Y-63657911D01*
X170660000Y-50660000D01*
X219340000Y-50660000D01*
X219340001Y-99340000D01*
G37*
%TD.AperFunction*%
D18*
X206127000Y-95513000D02*
X206147000Y-95513000D01*
X206147000Y-95767000D01*
X206127000Y-95767000D01*
X206127000Y-95787000D01*
X205873000Y-95787000D01*
X205873000Y-95767000D01*
X205853000Y-95767000D01*
X205853000Y-95513000D01*
X205873000Y-95513000D01*
X205873000Y-95493000D01*
X206127000Y-95493000D01*
X206127000Y-95513000D01*
%TA.AperFunction,Conductor*%
D19*
G36*
X206127000Y-95513000D02*
G01*
X206147000Y-95513000D01*
X206147000Y-95767000D01*
X206127000Y-95767000D01*
X206127000Y-95787000D01*
X205873000Y-95787000D01*
X205873000Y-95767000D01*
X205853000Y-95767000D01*
X205853000Y-95513000D01*
X205873000Y-95513000D01*
X205873000Y-95493000D01*
X206127000Y-95493000D01*
X206127000Y-95513000D01*
G37*
%TD.AperFunction*%
D18*
X200127000Y-81873000D02*
X200147000Y-81873000D01*
X200147000Y-82127000D01*
X200127000Y-82127000D01*
X200127000Y-82147000D01*
X199873000Y-82147000D01*
X199873000Y-82127000D01*
X199853000Y-82127000D01*
X199853000Y-81873000D01*
X199873000Y-81873000D01*
X199873000Y-81853000D01*
X200127000Y-81853000D01*
X200127000Y-81873000D01*
%TA.AperFunction,Conductor*%
D19*
G36*
X200127000Y-81873000D02*
G01*
X200147000Y-81873000D01*
X200147000Y-82127000D01*
X200127000Y-82127000D01*
X200127000Y-82147000D01*
X199873000Y-82147000D01*
X199873000Y-82127000D01*
X199853000Y-82127000D01*
X199853000Y-81873000D01*
X199873000Y-81873000D01*
X199873000Y-81853000D01*
X200127000Y-81853000D01*
X200127000Y-81873000D01*
G37*
%TD.AperFunction*%
D18*
X194840200Y-63990000D02*
X191545535Y-63990000D01*
X191442889Y-63921414D01*
X191272729Y-63850932D01*
X191092089Y-63815000D01*
X190907911Y-63815000D01*
X190727271Y-63850932D01*
X190557111Y-63921414D01*
X190415701Y-64015901D01*
X189084799Y-62685000D01*
X189092089Y-62685000D01*
X189272729Y-62649068D01*
X189442889Y-62578586D01*
X189545535Y-62510000D01*
X193360201Y-62510000D01*
X194840200Y-63990000D01*
%TA.AperFunction,Conductor*%
D19*
G36*
X194840200Y-63990000D02*
G01*
X191545535Y-63990000D01*
X191442889Y-63921414D01*
X191272729Y-63850932D01*
X191092089Y-63815000D01*
X190907911Y-63815000D01*
X190727271Y-63850932D01*
X190557111Y-63921414D01*
X190415701Y-64015901D01*
X189084799Y-62685000D01*
X189092089Y-62685000D01*
X189272729Y-62649068D01*
X189442889Y-62578586D01*
X189545535Y-62510000D01*
X193360201Y-62510000D01*
X194840200Y-63990000D01*
G37*
%TD.AperFunction*%
%TD*%
M02*
