%TF.GenerationSoftware,KiCad,Pcbnew,(5.1.9)-1*%
%TF.CreationDate,2021-04-07T03:10:53+02:00*%
%TF.ProjectId,HB-RC-6-PBU-LED,48422d52-432d-4362-9d50-42552d4c4544,rev?*%
%TF.SameCoordinates,Original*%
%TF.FileFunction,Copper,L2,Bot*%
%TF.FilePolarity,Positive*%
%FSLAX46Y46*%
G04 Gerber Fmt 4.6, Leading zero omitted, Abs format (unit mm)*
G04 Created by KiCad (PCBNEW (5.1.9)-1) date 2021-04-07 03:10:53*
%MOMM*%
%LPD*%
G01*
G04 APERTURE LIST*
%TA.AperFunction,ComponentPad*%
%ADD10O,1.270000X1.270000*%
%TD*%
%TA.AperFunction,ComponentPad*%
%ADD11C,1.270000*%
%TD*%
%TA.AperFunction,WasherPad*%
%ADD12C,3.300000*%
%TD*%
%TA.AperFunction,ComponentPad*%
%ADD13O,1.700000X1.700000*%
%TD*%
%TA.AperFunction,ComponentPad*%
%ADD14R,1.700000X1.700000*%
%TD*%
%TA.AperFunction,ViaPad*%
%ADD15C,0.600000*%
%TD*%
%TA.AperFunction,Conductor*%
%ADD16C,0.250000*%
%TD*%
%TA.AperFunction,Conductor*%
%ADD17C,0.254000*%
%TD*%
%TA.AperFunction,Conductor*%
%ADD18C,0.100000*%
%TD*%
G04 APERTURE END LIST*
D10*
%TO.P,IC1,1*%
%TO.N,+3V3*%
X202000000Y-82000000D03*
%TO.P,IC1,2*%
%TO.N,GND*%
X200000000Y-82000000D03*
D11*
%TO.P,IC1,3*%
%TO.N,/MOSI*%
X198000000Y-82000000D03*
%TO.P,IC1,4*%
%TO.N,/SCK*%
X196000000Y-82000000D03*
%TO.P,IC1,5*%
%TO.N,/MISO*%
X194000000Y-82000000D03*
%TO.P,IC1,6*%
%TO.N,Net-(IC1-Pad6)*%
X192000000Y-82000000D03*
%TO.P,IC1,7*%
%TO.N,/GDO0*%
X190000000Y-82000000D03*
%TO.P,IC1,8*%
%TO.N,/CC_CSN*%
X188000000Y-82000000D03*
D12*
%TO.P,IC1,*%
%TO.N,*%
X193984000Y-99526000D03*
%TD*%
D13*
%TO.P,J2,6*%
%TO.N,/RESET*%
X206000000Y-85480000D03*
%TO.P,J2,5*%
%TO.N,/MISO*%
X206000000Y-88020000D03*
%TO.P,J2,4*%
%TO.N,/SCK*%
X206000000Y-90560000D03*
%TO.P,J2,3*%
%TO.N,/MOSI*%
X206000000Y-93100000D03*
%TO.P,J2,2*%
%TO.N,GND*%
X206000000Y-95640000D03*
D14*
%TO.P,J2,1*%
%TO.N,+3V3*%
X206000000Y-98180000D03*
%TD*%
D13*
%TO.P,J3,6*%
%TO.N,GND*%
X184000000Y-98200000D03*
%TO.P,J3,5*%
X184000000Y-95660000D03*
D14*
%TO.P,J3,4*%
%TO.N,+3V3*%
X184000000Y-93120000D03*
D13*
%TO.P,J3,3*%
%TO.N,/RX*%
X184000000Y-90580000D03*
%TO.P,J3,2*%
%TO.N,/TX*%
X184000000Y-88040000D03*
%TO.P,J3,1*%
%TO.N,/DTR*%
X184000000Y-85500000D03*
%TD*%
D15*
%TO.N,GND*%
X194750000Y-63750000D03*
X179000000Y-78500000D03*
X190750000Y-68000000D03*
X195000000Y-72250000D03*
X199750000Y-79000000D03*
X203750000Y-67250000D03*
X194750000Y-56250000D03*
X181000000Y-54500000D03*
%TO.N,+3V3*%
X195000000Y-69500000D03*
X194250000Y-72000000D03*
%TO.N,/RESET*%
X193250000Y-72000000D03*
X187000000Y-73750000D03*
%TO.N,/RX*%
X198250000Y-72000000D03*
%TO.N,/TX*%
X197250000Y-72000000D03*
%TO.N,/WS2812B_LED_3V3_Lvl*%
X184750000Y-64000000D03*
X192250000Y-68500000D03*
%TO.N,/BTN1*%
X173000000Y-63750000D03*
X179250000Y-63750000D03*
%TO.N,/BTN2*%
X173000000Y-68000000D03*
X179250000Y-68000000D03*
%TO.N,/BTN3*%
X173000000Y-86000000D03*
X180250000Y-79750000D03*
%TO.N,/BTN4*%
X217000000Y-63750000D03*
X209000000Y-63750000D03*
X202500000Y-64000000D03*
X191000000Y-64750000D03*
%TO.N,/BTN5*%
X217000000Y-68250000D03*
X202750000Y-65750000D03*
X192000000Y-65750000D03*
X209500000Y-68000000D03*
%TO.N,/BTN6*%
X217000000Y-86250000D03*
X208750000Y-78250000D03*
X193250000Y-66500000D03*
X202250000Y-73250000D03*
%TD*%
D16*
%TO.N,+3V3*%
X207625011Y-96554989D02*
X206000000Y-98180000D01*
X207625011Y-85366009D02*
X207625011Y-96554989D01*
X204259002Y-82000000D02*
X207625011Y-85366009D01*
X202000000Y-82000000D02*
X204259002Y-82000000D01*
X200940000Y-93120000D02*
X206000000Y-98180000D01*
X184000000Y-93120000D02*
X200940000Y-93120000D01*
X194250000Y-70250000D02*
X195000000Y-69500000D01*
X194250000Y-72000000D02*
X194250000Y-70250000D01*
%TO.N,/RESET*%
X191500000Y-73750000D02*
X193250000Y-72000000D01*
X187000000Y-73750000D02*
X191500000Y-73750000D01*
%TO.N,/MOSI*%
X205250000Y-89250000D02*
X198000000Y-82000000D01*
X206429002Y-89250000D02*
X205250000Y-89250000D01*
X207175001Y-89995999D02*
X206429002Y-89250000D01*
X207175001Y-91924999D02*
X207175001Y-89995999D01*
X206000000Y-93100000D02*
X207175001Y-91924999D01*
%TO.N,/SCK*%
X204560000Y-90560000D02*
X196000000Y-82000000D01*
X206000000Y-90560000D02*
X204560000Y-90560000D01*
%TO.N,/MISO*%
X200460801Y-81039999D02*
X194960001Y-81039999D01*
X200960001Y-81539199D02*
X200460801Y-81039999D01*
X194960001Y-81039999D02*
X194000000Y-82000000D01*
X200960001Y-82980001D02*
X200960001Y-81539199D01*
X206000000Y-88020000D02*
X200960001Y-82980001D01*
%TO.N,/RX*%
X198250000Y-72000000D02*
X191500000Y-78750000D01*
X191500000Y-78750000D02*
X188886410Y-78750000D01*
X185625011Y-88954989D02*
X184000000Y-90580000D01*
X185625011Y-82011399D02*
X185625011Y-88954989D01*
X188886410Y-78750000D02*
X185625011Y-82011399D01*
%TO.N,/TX*%
X191000000Y-78250000D02*
X197250000Y-72000000D01*
X188750000Y-78250000D02*
X191000000Y-78250000D01*
X185175001Y-81824999D02*
X188750000Y-78250000D01*
X185175001Y-86864999D02*
X185175001Y-81824999D01*
X184000000Y-88040000D02*
X185175001Y-86864999D01*
%TO.N,/WS2812B_LED_3V3_Lvl*%
X187750000Y-64000000D02*
X192250000Y-68500000D01*
X184750000Y-64000000D02*
X187750000Y-64000000D01*
%TO.N,/BTN1*%
X173000000Y-63750000D02*
X179250000Y-63750000D01*
%TO.N,/BTN2*%
X173000000Y-68000000D02*
X179250000Y-68000000D01*
%TO.N,/BTN3*%
X174000000Y-86000000D02*
X180250000Y-79750000D01*
X173000000Y-86000000D02*
X174000000Y-86000000D01*
%TO.N,/BTN4*%
X209000000Y-63750000D02*
X217000000Y-63750000D01*
X201750000Y-64750000D02*
X202500000Y-64000000D01*
X191000000Y-64750000D02*
X201750000Y-64750000D01*
%TO.N,/BTN5*%
X192000000Y-65750000D02*
X202750000Y-65750000D01*
X216750000Y-68000000D02*
X217000000Y-68250000D01*
X209500000Y-68000000D02*
X216750000Y-68000000D01*
%TO.N,/BTN6*%
X195500000Y-66500000D02*
X202250000Y-73250000D01*
X193250000Y-66500000D02*
X195500000Y-66500000D01*
X216750000Y-86250000D02*
X217000000Y-86250000D01*
X208750000Y-78250000D02*
X216750000Y-86250000D01*
%TD*%
D17*
%TO.N,GND*%
X219340001Y-99340000D02*
X207404320Y-99340000D01*
X207439502Y-99274180D01*
X207475812Y-99154482D01*
X207488072Y-99030000D01*
X207488072Y-97766730D01*
X208136014Y-97118788D01*
X208165012Y-97094990D01*
X208259985Y-96979265D01*
X208330557Y-96847236D01*
X208374014Y-96703975D01*
X208385011Y-96592322D01*
X208388688Y-96554989D01*
X208385011Y-96517656D01*
X208385011Y-85403342D01*
X208388688Y-85366009D01*
X208374014Y-85217023D01*
X208330557Y-85073762D01*
X208259985Y-84941733D01*
X208188810Y-84855006D01*
X208165012Y-84826008D01*
X208136015Y-84802211D01*
X204822806Y-81489003D01*
X204799003Y-81459999D01*
X204683278Y-81365026D01*
X204551249Y-81294454D01*
X204407988Y-81250997D01*
X204296335Y-81240000D01*
X204296324Y-81240000D01*
X204259002Y-81236324D01*
X204221680Y-81240000D01*
X203019600Y-81240000D01*
X202986473Y-81190422D01*
X202809578Y-81013527D01*
X202601571Y-80874541D01*
X202370445Y-80778805D01*
X202125084Y-80730000D01*
X201874916Y-80730000D01*
X201629555Y-80778805D01*
X201398429Y-80874541D01*
X201381474Y-80885870D01*
X201024604Y-80529001D01*
X201000802Y-80499998D01*
X200885077Y-80405025D01*
X200753048Y-80334453D01*
X200609787Y-80290996D01*
X200498134Y-80279999D01*
X200498123Y-80279999D01*
X200460801Y-80276323D01*
X200423479Y-80279999D01*
X194997323Y-80279999D01*
X194960000Y-80276323D01*
X194922677Y-80279999D01*
X194922668Y-80279999D01*
X194811015Y-80290996D01*
X194667754Y-80334453D01*
X194535725Y-80405025D01*
X194535723Y-80405026D01*
X194535724Y-80405026D01*
X194448997Y-80476200D01*
X194448993Y-80476204D01*
X194420000Y-80499998D01*
X194396206Y-80528991D01*
X194183565Y-80741633D01*
X194125084Y-80730000D01*
X193874916Y-80730000D01*
X193629555Y-80778805D01*
X193398429Y-80874541D01*
X193190422Y-81013527D01*
X193013527Y-81190422D01*
X193000000Y-81210667D01*
X192986473Y-81190422D01*
X192809578Y-81013527D01*
X192601571Y-80874541D01*
X192370445Y-80778805D01*
X192125084Y-80730000D01*
X191874916Y-80730000D01*
X191629555Y-80778805D01*
X191398429Y-80874541D01*
X191190422Y-81013527D01*
X191013527Y-81190422D01*
X191000000Y-81210667D01*
X190986473Y-81190422D01*
X190809578Y-81013527D01*
X190601571Y-80874541D01*
X190370445Y-80778805D01*
X190125084Y-80730000D01*
X189874916Y-80730000D01*
X189629555Y-80778805D01*
X189398429Y-80874541D01*
X189190422Y-81013527D01*
X189013527Y-81190422D01*
X189000000Y-81210667D01*
X188986473Y-81190422D01*
X188809578Y-81013527D01*
X188601571Y-80874541D01*
X188370445Y-80778805D01*
X188125084Y-80730000D01*
X187981212Y-80730000D01*
X189201212Y-79510000D01*
X191462678Y-79510000D01*
X191500000Y-79513676D01*
X191537322Y-79510000D01*
X191537333Y-79510000D01*
X191648986Y-79499003D01*
X191792247Y-79455546D01*
X191924276Y-79384974D01*
X192040001Y-79290001D01*
X192063804Y-79260997D01*
X193166890Y-78157911D01*
X207815000Y-78157911D01*
X207815000Y-78342089D01*
X207850932Y-78522729D01*
X207921414Y-78692889D01*
X208023738Y-78846028D01*
X208153972Y-78976262D01*
X208307111Y-79078586D01*
X208477271Y-79149068D01*
X208598352Y-79173153D01*
X216186205Y-86761008D01*
X216209999Y-86790001D01*
X216238992Y-86813795D01*
X216238996Y-86813799D01*
X216268238Y-86837797D01*
X216273738Y-86846028D01*
X216403972Y-86976262D01*
X216557111Y-87078586D01*
X216727271Y-87149068D01*
X216907911Y-87185000D01*
X217092089Y-87185000D01*
X217272729Y-87149068D01*
X217442889Y-87078586D01*
X217596028Y-86976262D01*
X217726262Y-86846028D01*
X217828586Y-86692889D01*
X217899068Y-86522729D01*
X217935000Y-86342089D01*
X217935000Y-86157911D01*
X217899068Y-85977271D01*
X217828586Y-85807111D01*
X217726262Y-85653972D01*
X217596028Y-85523738D01*
X217442889Y-85421414D01*
X217272729Y-85350932D01*
X217092089Y-85315000D01*
X216907911Y-85315000D01*
X216892807Y-85318004D01*
X209673153Y-78098352D01*
X209649068Y-77977271D01*
X209578586Y-77807111D01*
X209476262Y-77653972D01*
X209346028Y-77523738D01*
X209192889Y-77421414D01*
X209022729Y-77350932D01*
X208842089Y-77315000D01*
X208657911Y-77315000D01*
X208477271Y-77350932D01*
X208307111Y-77421414D01*
X208153972Y-77523738D01*
X208023738Y-77653972D01*
X207921414Y-77807111D01*
X207850932Y-77977271D01*
X207815000Y-78157911D01*
X193166890Y-78157911D01*
X198401649Y-72923153D01*
X198522729Y-72899068D01*
X198692889Y-72828586D01*
X198846028Y-72726262D01*
X198976262Y-72596028D01*
X199078586Y-72442889D01*
X199149068Y-72272729D01*
X199185000Y-72092089D01*
X199185000Y-71907911D01*
X199149068Y-71727271D01*
X199078586Y-71557111D01*
X198976262Y-71403972D01*
X198846028Y-71273738D01*
X198692889Y-71171414D01*
X198522729Y-71100932D01*
X198342089Y-71065000D01*
X198157911Y-71065000D01*
X197977271Y-71100932D01*
X197807111Y-71171414D01*
X197750000Y-71209574D01*
X197692889Y-71171414D01*
X197522729Y-71100932D01*
X197342089Y-71065000D01*
X197157911Y-71065000D01*
X196977271Y-71100932D01*
X196807111Y-71171414D01*
X196653972Y-71273738D01*
X196523738Y-71403972D01*
X196421414Y-71557111D01*
X196350932Y-71727271D01*
X196326847Y-71848351D01*
X190685199Y-77490000D01*
X188787322Y-77490000D01*
X188749999Y-77486324D01*
X188712676Y-77490000D01*
X188712667Y-77490000D01*
X188601014Y-77500997D01*
X188457753Y-77544454D01*
X188325723Y-77615026D01*
X188278268Y-77653972D01*
X188209999Y-77709999D01*
X188186201Y-77738997D01*
X184663999Y-81261200D01*
X184635001Y-81284998D01*
X184611203Y-81313996D01*
X184611202Y-81313997D01*
X184540027Y-81400723D01*
X184469455Y-81532753D01*
X184440092Y-81629555D01*
X184426315Y-81674973D01*
X184425999Y-81676014D01*
X184411325Y-81824999D01*
X184415002Y-81862331D01*
X184415002Y-84068456D01*
X184146260Y-84015000D01*
X183853740Y-84015000D01*
X183566842Y-84072068D01*
X183296589Y-84184010D01*
X183053368Y-84346525D01*
X182846525Y-84553368D01*
X182684010Y-84796589D01*
X182572068Y-85066842D01*
X182515000Y-85353740D01*
X182515000Y-85646260D01*
X182572068Y-85933158D01*
X182684010Y-86203411D01*
X182846525Y-86446632D01*
X183053368Y-86653475D01*
X183227760Y-86770000D01*
X183053368Y-86886525D01*
X182846525Y-87093368D01*
X182684010Y-87336589D01*
X182572068Y-87606842D01*
X182515000Y-87893740D01*
X182515000Y-88186260D01*
X182572068Y-88473158D01*
X182684010Y-88743411D01*
X182846525Y-88986632D01*
X183053368Y-89193475D01*
X183227760Y-89310000D01*
X183053368Y-89426525D01*
X182846525Y-89633368D01*
X182684010Y-89876589D01*
X182572068Y-90146842D01*
X182515000Y-90433740D01*
X182515000Y-90726260D01*
X182572068Y-91013158D01*
X182684010Y-91283411D01*
X182846525Y-91526632D01*
X182978380Y-91658487D01*
X182905820Y-91680498D01*
X182795506Y-91739463D01*
X182698815Y-91818815D01*
X182619463Y-91915506D01*
X182560498Y-92025820D01*
X182524188Y-92145518D01*
X182511928Y-92270000D01*
X182511928Y-93970000D01*
X182524188Y-94094482D01*
X182560498Y-94214180D01*
X182619463Y-94324494D01*
X182698815Y-94421185D01*
X182795506Y-94500537D01*
X182905820Y-94559502D01*
X182986466Y-94583966D01*
X182902412Y-94659731D01*
X182728359Y-94893080D01*
X182603175Y-95155901D01*
X182558524Y-95303110D01*
X182679845Y-95533000D01*
X183873000Y-95533000D01*
X183873000Y-95513000D01*
X184127000Y-95513000D01*
X184127000Y-95533000D01*
X185320155Y-95533000D01*
X185441476Y-95303110D01*
X185396825Y-95155901D01*
X185271641Y-94893080D01*
X185097588Y-94659731D01*
X185013534Y-94583966D01*
X185094180Y-94559502D01*
X185204494Y-94500537D01*
X185301185Y-94421185D01*
X185380537Y-94324494D01*
X185439502Y-94214180D01*
X185475812Y-94094482D01*
X185488072Y-93970000D01*
X185488072Y-93880000D01*
X200625199Y-93880000D01*
X204511928Y-97766730D01*
X204511928Y-99030000D01*
X204524188Y-99154482D01*
X204560498Y-99274180D01*
X204595680Y-99340000D01*
X196269000Y-99340000D01*
X196269000Y-99300947D01*
X196181189Y-98859490D01*
X196008941Y-98443647D01*
X195758875Y-98069397D01*
X195440603Y-97751125D01*
X195066353Y-97501059D01*
X194650510Y-97328811D01*
X194209053Y-97241000D01*
X193758947Y-97241000D01*
X193317490Y-97328811D01*
X192901647Y-97501059D01*
X192527397Y-97751125D01*
X192209125Y-98069397D01*
X191959059Y-98443647D01*
X191786811Y-98859490D01*
X191699000Y-99300947D01*
X191699000Y-99340000D01*
X184942570Y-99340000D01*
X185097588Y-99200269D01*
X185271641Y-98966920D01*
X185396825Y-98704099D01*
X185441476Y-98556890D01*
X185320155Y-98327000D01*
X184127000Y-98327000D01*
X184127000Y-98347000D01*
X183873000Y-98347000D01*
X183873000Y-98327000D01*
X182679845Y-98327000D01*
X182558524Y-98556890D01*
X182603175Y-98704099D01*
X182728359Y-98966920D01*
X182902412Y-99200269D01*
X183057430Y-99340000D01*
X170660000Y-99340000D01*
X170660000Y-96016890D01*
X182558524Y-96016890D01*
X182603175Y-96164099D01*
X182728359Y-96426920D01*
X182902412Y-96660269D01*
X183118645Y-96855178D01*
X183244255Y-96930000D01*
X183118645Y-97004822D01*
X182902412Y-97199731D01*
X182728359Y-97433080D01*
X182603175Y-97695901D01*
X182558524Y-97843110D01*
X182679845Y-98073000D01*
X183873000Y-98073000D01*
X183873000Y-95787000D01*
X184127000Y-95787000D01*
X184127000Y-98073000D01*
X185320155Y-98073000D01*
X185441476Y-97843110D01*
X185396825Y-97695901D01*
X185271641Y-97433080D01*
X185097588Y-97199731D01*
X184881355Y-97004822D01*
X184755745Y-96930000D01*
X184881355Y-96855178D01*
X185097588Y-96660269D01*
X185271641Y-96426920D01*
X185396825Y-96164099D01*
X185441476Y-96016890D01*
X185320155Y-95787000D01*
X184127000Y-95787000D01*
X183873000Y-95787000D01*
X182679845Y-95787000D01*
X182558524Y-96016890D01*
X170660000Y-96016890D01*
X170660000Y-85907911D01*
X172065000Y-85907911D01*
X172065000Y-86092089D01*
X172100932Y-86272729D01*
X172171414Y-86442889D01*
X172273738Y-86596028D01*
X172403972Y-86726262D01*
X172557111Y-86828586D01*
X172727271Y-86899068D01*
X172907911Y-86935000D01*
X173092089Y-86935000D01*
X173272729Y-86899068D01*
X173442889Y-86828586D01*
X173545535Y-86760000D01*
X173962678Y-86760000D01*
X174000000Y-86763676D01*
X174037322Y-86760000D01*
X174037333Y-86760000D01*
X174148986Y-86749003D01*
X174292247Y-86705546D01*
X174424276Y-86634974D01*
X174540001Y-86540001D01*
X174563804Y-86510997D01*
X180401649Y-80673153D01*
X180522729Y-80649068D01*
X180692889Y-80578586D01*
X180846028Y-80476262D01*
X180976262Y-80346028D01*
X181078586Y-80192889D01*
X181149068Y-80022729D01*
X181185000Y-79842089D01*
X181185000Y-79657911D01*
X181149068Y-79477271D01*
X181078586Y-79307111D01*
X180976262Y-79153972D01*
X180846028Y-79023738D01*
X180692889Y-78921414D01*
X180522729Y-78850932D01*
X180342089Y-78815000D01*
X180157911Y-78815000D01*
X179977271Y-78850932D01*
X179807111Y-78921414D01*
X179653972Y-79023738D01*
X179523738Y-79153972D01*
X179421414Y-79307111D01*
X179350932Y-79477271D01*
X179326847Y-79598351D01*
X173685199Y-85240000D01*
X173545535Y-85240000D01*
X173442889Y-85171414D01*
X173272729Y-85100932D01*
X173092089Y-85065000D01*
X172907911Y-85065000D01*
X172727271Y-85100932D01*
X172557111Y-85171414D01*
X172403972Y-85273738D01*
X172273738Y-85403972D01*
X172171414Y-85557111D01*
X172100932Y-85727271D01*
X172065000Y-85907911D01*
X170660000Y-85907911D01*
X170660000Y-73657911D01*
X186065000Y-73657911D01*
X186065000Y-73842089D01*
X186100932Y-74022729D01*
X186171414Y-74192889D01*
X186273738Y-74346028D01*
X186403972Y-74476262D01*
X186557111Y-74578586D01*
X186727271Y-74649068D01*
X186907911Y-74685000D01*
X187092089Y-74685000D01*
X187272729Y-74649068D01*
X187442889Y-74578586D01*
X187545535Y-74510000D01*
X191462678Y-74510000D01*
X191500000Y-74513676D01*
X191537322Y-74510000D01*
X191537333Y-74510000D01*
X191648986Y-74499003D01*
X191792247Y-74455546D01*
X191924276Y-74384974D01*
X192040001Y-74290001D01*
X192063804Y-74260997D01*
X193401649Y-72923153D01*
X193522729Y-72899068D01*
X193692889Y-72828586D01*
X193750000Y-72790426D01*
X193807111Y-72828586D01*
X193977271Y-72899068D01*
X194157911Y-72935000D01*
X194342089Y-72935000D01*
X194522729Y-72899068D01*
X194692889Y-72828586D01*
X194846028Y-72726262D01*
X194976262Y-72596028D01*
X195078586Y-72442889D01*
X195149068Y-72272729D01*
X195185000Y-72092089D01*
X195185000Y-71907911D01*
X195149068Y-71727271D01*
X195078586Y-71557111D01*
X195010000Y-71454465D01*
X195010000Y-70564801D01*
X195151649Y-70423153D01*
X195272729Y-70399068D01*
X195442889Y-70328586D01*
X195596028Y-70226262D01*
X195726262Y-70096028D01*
X195828586Y-69942889D01*
X195899068Y-69772729D01*
X195935000Y-69592089D01*
X195935000Y-69407911D01*
X195899068Y-69227271D01*
X195828586Y-69057111D01*
X195726262Y-68903972D01*
X195596028Y-68773738D01*
X195442889Y-68671414D01*
X195272729Y-68600932D01*
X195092089Y-68565000D01*
X194907911Y-68565000D01*
X194727271Y-68600932D01*
X194557111Y-68671414D01*
X194403972Y-68773738D01*
X194273738Y-68903972D01*
X194171414Y-69057111D01*
X194100932Y-69227271D01*
X194076847Y-69348351D01*
X193738998Y-69686201D01*
X193710000Y-69709999D01*
X193686202Y-69738997D01*
X193686201Y-69738998D01*
X193615026Y-69825724D01*
X193544454Y-69957754D01*
X193528302Y-70011003D01*
X193502511Y-70096028D01*
X193500998Y-70101015D01*
X193486324Y-70250000D01*
X193490001Y-70287332D01*
X193490001Y-71094422D01*
X193342089Y-71065000D01*
X193157911Y-71065000D01*
X192977271Y-71100932D01*
X192807111Y-71171414D01*
X192653972Y-71273738D01*
X192523738Y-71403972D01*
X192421414Y-71557111D01*
X192350932Y-71727271D01*
X192326847Y-71848351D01*
X191185199Y-72990000D01*
X187545535Y-72990000D01*
X187442889Y-72921414D01*
X187272729Y-72850932D01*
X187092089Y-72815000D01*
X186907911Y-72815000D01*
X186727271Y-72850932D01*
X186557111Y-72921414D01*
X186403972Y-73023738D01*
X186273738Y-73153972D01*
X186171414Y-73307111D01*
X186100932Y-73477271D01*
X186065000Y-73657911D01*
X170660000Y-73657911D01*
X170660000Y-67907911D01*
X172065000Y-67907911D01*
X172065000Y-68092089D01*
X172100932Y-68272729D01*
X172171414Y-68442889D01*
X172273738Y-68596028D01*
X172403972Y-68726262D01*
X172557111Y-68828586D01*
X172727271Y-68899068D01*
X172907911Y-68935000D01*
X173092089Y-68935000D01*
X173272729Y-68899068D01*
X173442889Y-68828586D01*
X173545535Y-68760000D01*
X178704465Y-68760000D01*
X178807111Y-68828586D01*
X178977271Y-68899068D01*
X179157911Y-68935000D01*
X179342089Y-68935000D01*
X179522729Y-68899068D01*
X179692889Y-68828586D01*
X179846028Y-68726262D01*
X179976262Y-68596028D01*
X180078586Y-68442889D01*
X180149068Y-68272729D01*
X180185000Y-68092089D01*
X180185000Y-67907911D01*
X180149068Y-67727271D01*
X180078586Y-67557111D01*
X179976262Y-67403972D01*
X179846028Y-67273738D01*
X179692889Y-67171414D01*
X179522729Y-67100932D01*
X179342089Y-67065000D01*
X179157911Y-67065000D01*
X178977271Y-67100932D01*
X178807111Y-67171414D01*
X178704465Y-67240000D01*
X173545535Y-67240000D01*
X173442889Y-67171414D01*
X173272729Y-67100932D01*
X173092089Y-67065000D01*
X172907911Y-67065000D01*
X172727271Y-67100932D01*
X172557111Y-67171414D01*
X172403972Y-67273738D01*
X172273738Y-67403972D01*
X172171414Y-67557111D01*
X172100932Y-67727271D01*
X172065000Y-67907911D01*
X170660000Y-67907911D01*
X170660000Y-63657911D01*
X172065000Y-63657911D01*
X172065000Y-63842089D01*
X172100932Y-64022729D01*
X172171414Y-64192889D01*
X172273738Y-64346028D01*
X172403972Y-64476262D01*
X172557111Y-64578586D01*
X172727271Y-64649068D01*
X172907911Y-64685000D01*
X173092089Y-64685000D01*
X173272729Y-64649068D01*
X173442889Y-64578586D01*
X173545535Y-64510000D01*
X178704465Y-64510000D01*
X178807111Y-64578586D01*
X178977271Y-64649068D01*
X179157911Y-64685000D01*
X179342089Y-64685000D01*
X179522729Y-64649068D01*
X179692889Y-64578586D01*
X179846028Y-64476262D01*
X179976262Y-64346028D01*
X180078586Y-64192889D01*
X180149068Y-64022729D01*
X180171907Y-63907911D01*
X183815000Y-63907911D01*
X183815000Y-64092089D01*
X183850932Y-64272729D01*
X183921414Y-64442889D01*
X184023738Y-64596028D01*
X184153972Y-64726262D01*
X184307111Y-64828586D01*
X184477271Y-64899068D01*
X184657911Y-64935000D01*
X184842089Y-64935000D01*
X185022729Y-64899068D01*
X185192889Y-64828586D01*
X185295535Y-64760000D01*
X187435199Y-64760000D01*
X191326847Y-68651649D01*
X191350932Y-68772729D01*
X191421414Y-68942889D01*
X191523738Y-69096028D01*
X191653972Y-69226262D01*
X191807111Y-69328586D01*
X191977271Y-69399068D01*
X192157911Y-69435000D01*
X192342089Y-69435000D01*
X192522729Y-69399068D01*
X192692889Y-69328586D01*
X192846028Y-69226262D01*
X192976262Y-69096028D01*
X193078586Y-68942889D01*
X193149068Y-68772729D01*
X193185000Y-68592089D01*
X193185000Y-68407911D01*
X193149068Y-68227271D01*
X193078586Y-68057111D01*
X192976262Y-67903972D01*
X192846028Y-67773738D01*
X192692889Y-67671414D01*
X192522729Y-67600932D01*
X192401649Y-67576847D01*
X189482713Y-64657911D01*
X190065000Y-64657911D01*
X190065000Y-64842089D01*
X190100932Y-65022729D01*
X190171414Y-65192889D01*
X190273738Y-65346028D01*
X190403972Y-65476262D01*
X190557111Y-65578586D01*
X190727271Y-65649068D01*
X190907911Y-65685000D01*
X191065000Y-65685000D01*
X191065000Y-65842089D01*
X191100932Y-66022729D01*
X191171414Y-66192889D01*
X191273738Y-66346028D01*
X191403972Y-66476262D01*
X191557111Y-66578586D01*
X191727271Y-66649068D01*
X191907911Y-66685000D01*
X192092089Y-66685000D01*
X192272729Y-66649068D01*
X192322254Y-66628554D01*
X192350932Y-66772729D01*
X192421414Y-66942889D01*
X192523738Y-67096028D01*
X192653972Y-67226262D01*
X192807111Y-67328586D01*
X192977271Y-67399068D01*
X193157911Y-67435000D01*
X193342089Y-67435000D01*
X193522729Y-67399068D01*
X193692889Y-67328586D01*
X193795535Y-67260000D01*
X195185199Y-67260000D01*
X201326847Y-73401649D01*
X201350932Y-73522729D01*
X201421414Y-73692889D01*
X201523738Y-73846028D01*
X201653972Y-73976262D01*
X201807111Y-74078586D01*
X201977271Y-74149068D01*
X202157911Y-74185000D01*
X202342089Y-74185000D01*
X202522729Y-74149068D01*
X202692889Y-74078586D01*
X202846028Y-73976262D01*
X202976262Y-73846028D01*
X203078586Y-73692889D01*
X203149068Y-73522729D01*
X203185000Y-73342089D01*
X203185000Y-73157911D01*
X203149068Y-72977271D01*
X203078586Y-72807111D01*
X202976262Y-72653972D01*
X202846028Y-72523738D01*
X202692889Y-72421414D01*
X202522729Y-72350932D01*
X202401649Y-72326847D01*
X197982713Y-67907911D01*
X208565000Y-67907911D01*
X208565000Y-68092089D01*
X208600932Y-68272729D01*
X208671414Y-68442889D01*
X208773738Y-68596028D01*
X208903972Y-68726262D01*
X209057111Y-68828586D01*
X209227271Y-68899068D01*
X209407911Y-68935000D01*
X209592089Y-68935000D01*
X209772729Y-68899068D01*
X209942889Y-68828586D01*
X210045535Y-68760000D01*
X216216256Y-68760000D01*
X216273738Y-68846028D01*
X216403972Y-68976262D01*
X216557111Y-69078586D01*
X216727271Y-69149068D01*
X216907911Y-69185000D01*
X217092089Y-69185000D01*
X217272729Y-69149068D01*
X217442889Y-69078586D01*
X217596028Y-68976262D01*
X217726262Y-68846028D01*
X217828586Y-68692889D01*
X217899068Y-68522729D01*
X217935000Y-68342089D01*
X217935000Y-68157911D01*
X217899068Y-67977271D01*
X217828586Y-67807111D01*
X217726262Y-67653972D01*
X217596028Y-67523738D01*
X217442889Y-67421414D01*
X217272729Y-67350932D01*
X217092089Y-67315000D01*
X217080685Y-67315000D01*
X217042247Y-67294454D01*
X216898986Y-67250997D01*
X216787333Y-67240000D01*
X216787322Y-67240000D01*
X216750000Y-67236324D01*
X216712678Y-67240000D01*
X210045535Y-67240000D01*
X209942889Y-67171414D01*
X209772729Y-67100932D01*
X209592089Y-67065000D01*
X209407911Y-67065000D01*
X209227271Y-67100932D01*
X209057111Y-67171414D01*
X208903972Y-67273738D01*
X208773738Y-67403972D01*
X208671414Y-67557111D01*
X208600932Y-67727271D01*
X208565000Y-67907911D01*
X197982713Y-67907911D01*
X196584801Y-66510000D01*
X202204465Y-66510000D01*
X202307111Y-66578586D01*
X202477271Y-66649068D01*
X202657911Y-66685000D01*
X202842089Y-66685000D01*
X203022729Y-66649068D01*
X203192889Y-66578586D01*
X203346028Y-66476262D01*
X203476262Y-66346028D01*
X203578586Y-66192889D01*
X203649068Y-66022729D01*
X203685000Y-65842089D01*
X203685000Y-65657911D01*
X203649068Y-65477271D01*
X203578586Y-65307111D01*
X203476262Y-65153972D01*
X203346028Y-65023738D01*
X203192889Y-64921414D01*
X203022729Y-64850932D01*
X202932345Y-64832953D01*
X202942889Y-64828586D01*
X203096028Y-64726262D01*
X203226262Y-64596028D01*
X203328586Y-64442889D01*
X203399068Y-64272729D01*
X203435000Y-64092089D01*
X203435000Y-63907911D01*
X203399068Y-63727271D01*
X203370339Y-63657911D01*
X208065000Y-63657911D01*
X208065000Y-63842089D01*
X208100932Y-64022729D01*
X208171414Y-64192889D01*
X208273738Y-64346028D01*
X208403972Y-64476262D01*
X208557111Y-64578586D01*
X208727271Y-64649068D01*
X208907911Y-64685000D01*
X209092089Y-64685000D01*
X209272729Y-64649068D01*
X209442889Y-64578586D01*
X209545535Y-64510000D01*
X216454465Y-64510000D01*
X216557111Y-64578586D01*
X216727271Y-64649068D01*
X216907911Y-64685000D01*
X217092089Y-64685000D01*
X217272729Y-64649068D01*
X217442889Y-64578586D01*
X217596028Y-64476262D01*
X217726262Y-64346028D01*
X217828586Y-64192889D01*
X217899068Y-64022729D01*
X217935000Y-63842089D01*
X217935000Y-63657911D01*
X217899068Y-63477271D01*
X217828586Y-63307111D01*
X217726262Y-63153972D01*
X217596028Y-63023738D01*
X217442889Y-62921414D01*
X217272729Y-62850932D01*
X217092089Y-62815000D01*
X216907911Y-62815000D01*
X216727271Y-62850932D01*
X216557111Y-62921414D01*
X216454465Y-62990000D01*
X209545535Y-62990000D01*
X209442889Y-62921414D01*
X209272729Y-62850932D01*
X209092089Y-62815000D01*
X208907911Y-62815000D01*
X208727271Y-62850932D01*
X208557111Y-62921414D01*
X208403972Y-63023738D01*
X208273738Y-63153972D01*
X208171414Y-63307111D01*
X208100932Y-63477271D01*
X208065000Y-63657911D01*
X203370339Y-63657911D01*
X203328586Y-63557111D01*
X203226262Y-63403972D01*
X203096028Y-63273738D01*
X202942889Y-63171414D01*
X202772729Y-63100932D01*
X202592089Y-63065000D01*
X202407911Y-63065000D01*
X202227271Y-63100932D01*
X202057111Y-63171414D01*
X201903972Y-63273738D01*
X201773738Y-63403972D01*
X201671414Y-63557111D01*
X201600932Y-63727271D01*
X201576847Y-63848351D01*
X201435199Y-63990000D01*
X191545535Y-63990000D01*
X191442889Y-63921414D01*
X191272729Y-63850932D01*
X191092089Y-63815000D01*
X190907911Y-63815000D01*
X190727271Y-63850932D01*
X190557111Y-63921414D01*
X190403972Y-64023738D01*
X190273738Y-64153972D01*
X190171414Y-64307111D01*
X190100932Y-64477271D01*
X190065000Y-64657911D01*
X189482713Y-64657911D01*
X188313804Y-63489003D01*
X188290001Y-63459999D01*
X188174276Y-63365026D01*
X188042247Y-63294454D01*
X187898986Y-63250997D01*
X187787333Y-63240000D01*
X187787322Y-63240000D01*
X187750000Y-63236324D01*
X187712678Y-63240000D01*
X185295535Y-63240000D01*
X185192889Y-63171414D01*
X185022729Y-63100932D01*
X184842089Y-63065000D01*
X184657911Y-63065000D01*
X184477271Y-63100932D01*
X184307111Y-63171414D01*
X184153972Y-63273738D01*
X184023738Y-63403972D01*
X183921414Y-63557111D01*
X183850932Y-63727271D01*
X183815000Y-63907911D01*
X180171907Y-63907911D01*
X180185000Y-63842089D01*
X180185000Y-63657911D01*
X180149068Y-63477271D01*
X180078586Y-63307111D01*
X179976262Y-63153972D01*
X179846028Y-63023738D01*
X179692889Y-62921414D01*
X179522729Y-62850932D01*
X179342089Y-62815000D01*
X179157911Y-62815000D01*
X178977271Y-62850932D01*
X178807111Y-62921414D01*
X178704465Y-62990000D01*
X173545535Y-62990000D01*
X173442889Y-62921414D01*
X173272729Y-62850932D01*
X173092089Y-62815000D01*
X172907911Y-62815000D01*
X172727271Y-62850932D01*
X172557111Y-62921414D01*
X172403972Y-63023738D01*
X172273738Y-63153972D01*
X172171414Y-63307111D01*
X172100932Y-63477271D01*
X172065000Y-63657911D01*
X170660000Y-63657911D01*
X170660000Y-50660000D01*
X219340000Y-50660000D01*
X219340001Y-99340000D01*
%TA.AperFunction,Conductor*%
D18*
G36*
X219340001Y-99340000D02*
G01*
X207404320Y-99340000D01*
X207439502Y-99274180D01*
X207475812Y-99154482D01*
X207488072Y-99030000D01*
X207488072Y-97766730D01*
X208136014Y-97118788D01*
X208165012Y-97094990D01*
X208259985Y-96979265D01*
X208330557Y-96847236D01*
X208374014Y-96703975D01*
X208385011Y-96592322D01*
X208388688Y-96554989D01*
X208385011Y-96517656D01*
X208385011Y-85403342D01*
X208388688Y-85366009D01*
X208374014Y-85217023D01*
X208330557Y-85073762D01*
X208259985Y-84941733D01*
X208188810Y-84855006D01*
X208165012Y-84826008D01*
X208136015Y-84802211D01*
X204822806Y-81489003D01*
X204799003Y-81459999D01*
X204683278Y-81365026D01*
X204551249Y-81294454D01*
X204407988Y-81250997D01*
X204296335Y-81240000D01*
X204296324Y-81240000D01*
X204259002Y-81236324D01*
X204221680Y-81240000D01*
X203019600Y-81240000D01*
X202986473Y-81190422D01*
X202809578Y-81013527D01*
X202601571Y-80874541D01*
X202370445Y-80778805D01*
X202125084Y-80730000D01*
X201874916Y-80730000D01*
X201629555Y-80778805D01*
X201398429Y-80874541D01*
X201381474Y-80885870D01*
X201024604Y-80529001D01*
X201000802Y-80499998D01*
X200885077Y-80405025D01*
X200753048Y-80334453D01*
X200609787Y-80290996D01*
X200498134Y-80279999D01*
X200498123Y-80279999D01*
X200460801Y-80276323D01*
X200423479Y-80279999D01*
X194997323Y-80279999D01*
X194960000Y-80276323D01*
X194922677Y-80279999D01*
X194922668Y-80279999D01*
X194811015Y-80290996D01*
X194667754Y-80334453D01*
X194535725Y-80405025D01*
X194535723Y-80405026D01*
X194535724Y-80405026D01*
X194448997Y-80476200D01*
X194448993Y-80476204D01*
X194420000Y-80499998D01*
X194396206Y-80528991D01*
X194183565Y-80741633D01*
X194125084Y-80730000D01*
X193874916Y-80730000D01*
X193629555Y-80778805D01*
X193398429Y-80874541D01*
X193190422Y-81013527D01*
X193013527Y-81190422D01*
X193000000Y-81210667D01*
X192986473Y-81190422D01*
X192809578Y-81013527D01*
X192601571Y-80874541D01*
X192370445Y-80778805D01*
X192125084Y-80730000D01*
X191874916Y-80730000D01*
X191629555Y-80778805D01*
X191398429Y-80874541D01*
X191190422Y-81013527D01*
X191013527Y-81190422D01*
X191000000Y-81210667D01*
X190986473Y-81190422D01*
X190809578Y-81013527D01*
X190601571Y-80874541D01*
X190370445Y-80778805D01*
X190125084Y-80730000D01*
X189874916Y-80730000D01*
X189629555Y-80778805D01*
X189398429Y-80874541D01*
X189190422Y-81013527D01*
X189013527Y-81190422D01*
X189000000Y-81210667D01*
X188986473Y-81190422D01*
X188809578Y-81013527D01*
X188601571Y-80874541D01*
X188370445Y-80778805D01*
X188125084Y-80730000D01*
X187981212Y-80730000D01*
X189201212Y-79510000D01*
X191462678Y-79510000D01*
X191500000Y-79513676D01*
X191537322Y-79510000D01*
X191537333Y-79510000D01*
X191648986Y-79499003D01*
X191792247Y-79455546D01*
X191924276Y-79384974D01*
X192040001Y-79290001D01*
X192063804Y-79260997D01*
X193166890Y-78157911D01*
X207815000Y-78157911D01*
X207815000Y-78342089D01*
X207850932Y-78522729D01*
X207921414Y-78692889D01*
X208023738Y-78846028D01*
X208153972Y-78976262D01*
X208307111Y-79078586D01*
X208477271Y-79149068D01*
X208598352Y-79173153D01*
X216186205Y-86761008D01*
X216209999Y-86790001D01*
X216238992Y-86813795D01*
X216238996Y-86813799D01*
X216268238Y-86837797D01*
X216273738Y-86846028D01*
X216403972Y-86976262D01*
X216557111Y-87078586D01*
X216727271Y-87149068D01*
X216907911Y-87185000D01*
X217092089Y-87185000D01*
X217272729Y-87149068D01*
X217442889Y-87078586D01*
X217596028Y-86976262D01*
X217726262Y-86846028D01*
X217828586Y-86692889D01*
X217899068Y-86522729D01*
X217935000Y-86342089D01*
X217935000Y-86157911D01*
X217899068Y-85977271D01*
X217828586Y-85807111D01*
X217726262Y-85653972D01*
X217596028Y-85523738D01*
X217442889Y-85421414D01*
X217272729Y-85350932D01*
X217092089Y-85315000D01*
X216907911Y-85315000D01*
X216892807Y-85318004D01*
X209673153Y-78098352D01*
X209649068Y-77977271D01*
X209578586Y-77807111D01*
X209476262Y-77653972D01*
X209346028Y-77523738D01*
X209192889Y-77421414D01*
X209022729Y-77350932D01*
X208842089Y-77315000D01*
X208657911Y-77315000D01*
X208477271Y-77350932D01*
X208307111Y-77421414D01*
X208153972Y-77523738D01*
X208023738Y-77653972D01*
X207921414Y-77807111D01*
X207850932Y-77977271D01*
X207815000Y-78157911D01*
X193166890Y-78157911D01*
X198401649Y-72923153D01*
X198522729Y-72899068D01*
X198692889Y-72828586D01*
X198846028Y-72726262D01*
X198976262Y-72596028D01*
X199078586Y-72442889D01*
X199149068Y-72272729D01*
X199185000Y-72092089D01*
X199185000Y-71907911D01*
X199149068Y-71727271D01*
X199078586Y-71557111D01*
X198976262Y-71403972D01*
X198846028Y-71273738D01*
X198692889Y-71171414D01*
X198522729Y-71100932D01*
X198342089Y-71065000D01*
X198157911Y-71065000D01*
X197977271Y-71100932D01*
X197807111Y-71171414D01*
X197750000Y-71209574D01*
X197692889Y-71171414D01*
X197522729Y-71100932D01*
X197342089Y-71065000D01*
X197157911Y-71065000D01*
X196977271Y-71100932D01*
X196807111Y-71171414D01*
X196653972Y-71273738D01*
X196523738Y-71403972D01*
X196421414Y-71557111D01*
X196350932Y-71727271D01*
X196326847Y-71848351D01*
X190685199Y-77490000D01*
X188787322Y-77490000D01*
X188749999Y-77486324D01*
X188712676Y-77490000D01*
X188712667Y-77490000D01*
X188601014Y-77500997D01*
X188457753Y-77544454D01*
X188325723Y-77615026D01*
X188278268Y-77653972D01*
X188209999Y-77709999D01*
X188186201Y-77738997D01*
X184663999Y-81261200D01*
X184635001Y-81284998D01*
X184611203Y-81313996D01*
X184611202Y-81313997D01*
X184540027Y-81400723D01*
X184469455Y-81532753D01*
X184440092Y-81629555D01*
X184426315Y-81674973D01*
X184425999Y-81676014D01*
X184411325Y-81824999D01*
X184415002Y-81862331D01*
X184415002Y-84068456D01*
X184146260Y-84015000D01*
X183853740Y-84015000D01*
X183566842Y-84072068D01*
X183296589Y-84184010D01*
X183053368Y-84346525D01*
X182846525Y-84553368D01*
X182684010Y-84796589D01*
X182572068Y-85066842D01*
X182515000Y-85353740D01*
X182515000Y-85646260D01*
X182572068Y-85933158D01*
X182684010Y-86203411D01*
X182846525Y-86446632D01*
X183053368Y-86653475D01*
X183227760Y-86770000D01*
X183053368Y-86886525D01*
X182846525Y-87093368D01*
X182684010Y-87336589D01*
X182572068Y-87606842D01*
X182515000Y-87893740D01*
X182515000Y-88186260D01*
X182572068Y-88473158D01*
X182684010Y-88743411D01*
X182846525Y-88986632D01*
X183053368Y-89193475D01*
X183227760Y-89310000D01*
X183053368Y-89426525D01*
X182846525Y-89633368D01*
X182684010Y-89876589D01*
X182572068Y-90146842D01*
X182515000Y-90433740D01*
X182515000Y-90726260D01*
X182572068Y-91013158D01*
X182684010Y-91283411D01*
X182846525Y-91526632D01*
X182978380Y-91658487D01*
X182905820Y-91680498D01*
X182795506Y-91739463D01*
X182698815Y-91818815D01*
X182619463Y-91915506D01*
X182560498Y-92025820D01*
X182524188Y-92145518D01*
X182511928Y-92270000D01*
X182511928Y-93970000D01*
X182524188Y-94094482D01*
X182560498Y-94214180D01*
X182619463Y-94324494D01*
X182698815Y-94421185D01*
X182795506Y-94500537D01*
X182905820Y-94559502D01*
X182986466Y-94583966D01*
X182902412Y-94659731D01*
X182728359Y-94893080D01*
X182603175Y-95155901D01*
X182558524Y-95303110D01*
X182679845Y-95533000D01*
X183873000Y-95533000D01*
X183873000Y-95513000D01*
X184127000Y-95513000D01*
X184127000Y-95533000D01*
X185320155Y-95533000D01*
X185441476Y-95303110D01*
X185396825Y-95155901D01*
X185271641Y-94893080D01*
X185097588Y-94659731D01*
X185013534Y-94583966D01*
X185094180Y-94559502D01*
X185204494Y-94500537D01*
X185301185Y-94421185D01*
X185380537Y-94324494D01*
X185439502Y-94214180D01*
X185475812Y-94094482D01*
X185488072Y-93970000D01*
X185488072Y-93880000D01*
X200625199Y-93880000D01*
X204511928Y-97766730D01*
X204511928Y-99030000D01*
X204524188Y-99154482D01*
X204560498Y-99274180D01*
X204595680Y-99340000D01*
X196269000Y-99340000D01*
X196269000Y-99300947D01*
X196181189Y-98859490D01*
X196008941Y-98443647D01*
X195758875Y-98069397D01*
X195440603Y-97751125D01*
X195066353Y-97501059D01*
X194650510Y-97328811D01*
X194209053Y-97241000D01*
X193758947Y-97241000D01*
X193317490Y-97328811D01*
X192901647Y-97501059D01*
X192527397Y-97751125D01*
X192209125Y-98069397D01*
X191959059Y-98443647D01*
X191786811Y-98859490D01*
X191699000Y-99300947D01*
X191699000Y-99340000D01*
X184942570Y-99340000D01*
X185097588Y-99200269D01*
X185271641Y-98966920D01*
X185396825Y-98704099D01*
X185441476Y-98556890D01*
X185320155Y-98327000D01*
X184127000Y-98327000D01*
X184127000Y-98347000D01*
X183873000Y-98347000D01*
X183873000Y-98327000D01*
X182679845Y-98327000D01*
X182558524Y-98556890D01*
X182603175Y-98704099D01*
X182728359Y-98966920D01*
X182902412Y-99200269D01*
X183057430Y-99340000D01*
X170660000Y-99340000D01*
X170660000Y-96016890D01*
X182558524Y-96016890D01*
X182603175Y-96164099D01*
X182728359Y-96426920D01*
X182902412Y-96660269D01*
X183118645Y-96855178D01*
X183244255Y-96930000D01*
X183118645Y-97004822D01*
X182902412Y-97199731D01*
X182728359Y-97433080D01*
X182603175Y-97695901D01*
X182558524Y-97843110D01*
X182679845Y-98073000D01*
X183873000Y-98073000D01*
X183873000Y-95787000D01*
X184127000Y-95787000D01*
X184127000Y-98073000D01*
X185320155Y-98073000D01*
X185441476Y-97843110D01*
X185396825Y-97695901D01*
X185271641Y-97433080D01*
X185097588Y-97199731D01*
X184881355Y-97004822D01*
X184755745Y-96930000D01*
X184881355Y-96855178D01*
X185097588Y-96660269D01*
X185271641Y-96426920D01*
X185396825Y-96164099D01*
X185441476Y-96016890D01*
X185320155Y-95787000D01*
X184127000Y-95787000D01*
X183873000Y-95787000D01*
X182679845Y-95787000D01*
X182558524Y-96016890D01*
X170660000Y-96016890D01*
X170660000Y-85907911D01*
X172065000Y-85907911D01*
X172065000Y-86092089D01*
X172100932Y-86272729D01*
X172171414Y-86442889D01*
X172273738Y-86596028D01*
X172403972Y-86726262D01*
X172557111Y-86828586D01*
X172727271Y-86899068D01*
X172907911Y-86935000D01*
X173092089Y-86935000D01*
X173272729Y-86899068D01*
X173442889Y-86828586D01*
X173545535Y-86760000D01*
X173962678Y-86760000D01*
X174000000Y-86763676D01*
X174037322Y-86760000D01*
X174037333Y-86760000D01*
X174148986Y-86749003D01*
X174292247Y-86705546D01*
X174424276Y-86634974D01*
X174540001Y-86540001D01*
X174563804Y-86510997D01*
X180401649Y-80673153D01*
X180522729Y-80649068D01*
X180692889Y-80578586D01*
X180846028Y-80476262D01*
X180976262Y-80346028D01*
X181078586Y-80192889D01*
X181149068Y-80022729D01*
X181185000Y-79842089D01*
X181185000Y-79657911D01*
X181149068Y-79477271D01*
X181078586Y-79307111D01*
X180976262Y-79153972D01*
X180846028Y-79023738D01*
X180692889Y-78921414D01*
X180522729Y-78850932D01*
X180342089Y-78815000D01*
X180157911Y-78815000D01*
X179977271Y-78850932D01*
X179807111Y-78921414D01*
X179653972Y-79023738D01*
X179523738Y-79153972D01*
X179421414Y-79307111D01*
X179350932Y-79477271D01*
X179326847Y-79598351D01*
X173685199Y-85240000D01*
X173545535Y-85240000D01*
X173442889Y-85171414D01*
X173272729Y-85100932D01*
X173092089Y-85065000D01*
X172907911Y-85065000D01*
X172727271Y-85100932D01*
X172557111Y-85171414D01*
X172403972Y-85273738D01*
X172273738Y-85403972D01*
X172171414Y-85557111D01*
X172100932Y-85727271D01*
X172065000Y-85907911D01*
X170660000Y-85907911D01*
X170660000Y-73657911D01*
X186065000Y-73657911D01*
X186065000Y-73842089D01*
X186100932Y-74022729D01*
X186171414Y-74192889D01*
X186273738Y-74346028D01*
X186403972Y-74476262D01*
X186557111Y-74578586D01*
X186727271Y-74649068D01*
X186907911Y-74685000D01*
X187092089Y-74685000D01*
X187272729Y-74649068D01*
X187442889Y-74578586D01*
X187545535Y-74510000D01*
X191462678Y-74510000D01*
X191500000Y-74513676D01*
X191537322Y-74510000D01*
X191537333Y-74510000D01*
X191648986Y-74499003D01*
X191792247Y-74455546D01*
X191924276Y-74384974D01*
X192040001Y-74290001D01*
X192063804Y-74260997D01*
X193401649Y-72923153D01*
X193522729Y-72899068D01*
X193692889Y-72828586D01*
X193750000Y-72790426D01*
X193807111Y-72828586D01*
X193977271Y-72899068D01*
X194157911Y-72935000D01*
X194342089Y-72935000D01*
X194522729Y-72899068D01*
X194692889Y-72828586D01*
X194846028Y-72726262D01*
X194976262Y-72596028D01*
X195078586Y-72442889D01*
X195149068Y-72272729D01*
X195185000Y-72092089D01*
X195185000Y-71907911D01*
X195149068Y-71727271D01*
X195078586Y-71557111D01*
X195010000Y-71454465D01*
X195010000Y-70564801D01*
X195151649Y-70423153D01*
X195272729Y-70399068D01*
X195442889Y-70328586D01*
X195596028Y-70226262D01*
X195726262Y-70096028D01*
X195828586Y-69942889D01*
X195899068Y-69772729D01*
X195935000Y-69592089D01*
X195935000Y-69407911D01*
X195899068Y-69227271D01*
X195828586Y-69057111D01*
X195726262Y-68903972D01*
X195596028Y-68773738D01*
X195442889Y-68671414D01*
X195272729Y-68600932D01*
X195092089Y-68565000D01*
X194907911Y-68565000D01*
X194727271Y-68600932D01*
X194557111Y-68671414D01*
X194403972Y-68773738D01*
X194273738Y-68903972D01*
X194171414Y-69057111D01*
X194100932Y-69227271D01*
X194076847Y-69348351D01*
X193738998Y-69686201D01*
X193710000Y-69709999D01*
X193686202Y-69738997D01*
X193686201Y-69738998D01*
X193615026Y-69825724D01*
X193544454Y-69957754D01*
X193528302Y-70011003D01*
X193502511Y-70096028D01*
X193500998Y-70101015D01*
X193486324Y-70250000D01*
X193490001Y-70287332D01*
X193490001Y-71094422D01*
X193342089Y-71065000D01*
X193157911Y-71065000D01*
X192977271Y-71100932D01*
X192807111Y-71171414D01*
X192653972Y-71273738D01*
X192523738Y-71403972D01*
X192421414Y-71557111D01*
X192350932Y-71727271D01*
X192326847Y-71848351D01*
X191185199Y-72990000D01*
X187545535Y-72990000D01*
X187442889Y-72921414D01*
X187272729Y-72850932D01*
X187092089Y-72815000D01*
X186907911Y-72815000D01*
X186727271Y-72850932D01*
X186557111Y-72921414D01*
X186403972Y-73023738D01*
X186273738Y-73153972D01*
X186171414Y-73307111D01*
X186100932Y-73477271D01*
X186065000Y-73657911D01*
X170660000Y-73657911D01*
X170660000Y-67907911D01*
X172065000Y-67907911D01*
X172065000Y-68092089D01*
X172100932Y-68272729D01*
X172171414Y-68442889D01*
X172273738Y-68596028D01*
X172403972Y-68726262D01*
X172557111Y-68828586D01*
X172727271Y-68899068D01*
X172907911Y-68935000D01*
X173092089Y-68935000D01*
X173272729Y-68899068D01*
X173442889Y-68828586D01*
X173545535Y-68760000D01*
X178704465Y-68760000D01*
X178807111Y-68828586D01*
X178977271Y-68899068D01*
X179157911Y-68935000D01*
X179342089Y-68935000D01*
X179522729Y-68899068D01*
X179692889Y-68828586D01*
X179846028Y-68726262D01*
X179976262Y-68596028D01*
X180078586Y-68442889D01*
X180149068Y-68272729D01*
X180185000Y-68092089D01*
X180185000Y-67907911D01*
X180149068Y-67727271D01*
X180078586Y-67557111D01*
X179976262Y-67403972D01*
X179846028Y-67273738D01*
X179692889Y-67171414D01*
X179522729Y-67100932D01*
X179342089Y-67065000D01*
X179157911Y-67065000D01*
X178977271Y-67100932D01*
X178807111Y-67171414D01*
X178704465Y-67240000D01*
X173545535Y-67240000D01*
X173442889Y-67171414D01*
X173272729Y-67100932D01*
X173092089Y-67065000D01*
X172907911Y-67065000D01*
X172727271Y-67100932D01*
X172557111Y-67171414D01*
X172403972Y-67273738D01*
X172273738Y-67403972D01*
X172171414Y-67557111D01*
X172100932Y-67727271D01*
X172065000Y-67907911D01*
X170660000Y-67907911D01*
X170660000Y-63657911D01*
X172065000Y-63657911D01*
X172065000Y-63842089D01*
X172100932Y-64022729D01*
X172171414Y-64192889D01*
X172273738Y-64346028D01*
X172403972Y-64476262D01*
X172557111Y-64578586D01*
X172727271Y-64649068D01*
X172907911Y-64685000D01*
X173092089Y-64685000D01*
X173272729Y-64649068D01*
X173442889Y-64578586D01*
X173545535Y-64510000D01*
X178704465Y-64510000D01*
X178807111Y-64578586D01*
X178977271Y-64649068D01*
X179157911Y-64685000D01*
X179342089Y-64685000D01*
X179522729Y-64649068D01*
X179692889Y-64578586D01*
X179846028Y-64476262D01*
X179976262Y-64346028D01*
X180078586Y-64192889D01*
X180149068Y-64022729D01*
X180171907Y-63907911D01*
X183815000Y-63907911D01*
X183815000Y-64092089D01*
X183850932Y-64272729D01*
X183921414Y-64442889D01*
X184023738Y-64596028D01*
X184153972Y-64726262D01*
X184307111Y-64828586D01*
X184477271Y-64899068D01*
X184657911Y-64935000D01*
X184842089Y-64935000D01*
X185022729Y-64899068D01*
X185192889Y-64828586D01*
X185295535Y-64760000D01*
X187435199Y-64760000D01*
X191326847Y-68651649D01*
X191350932Y-68772729D01*
X191421414Y-68942889D01*
X191523738Y-69096028D01*
X191653972Y-69226262D01*
X191807111Y-69328586D01*
X191977271Y-69399068D01*
X192157911Y-69435000D01*
X192342089Y-69435000D01*
X192522729Y-69399068D01*
X192692889Y-69328586D01*
X192846028Y-69226262D01*
X192976262Y-69096028D01*
X193078586Y-68942889D01*
X193149068Y-68772729D01*
X193185000Y-68592089D01*
X193185000Y-68407911D01*
X193149068Y-68227271D01*
X193078586Y-68057111D01*
X192976262Y-67903972D01*
X192846028Y-67773738D01*
X192692889Y-67671414D01*
X192522729Y-67600932D01*
X192401649Y-67576847D01*
X189482713Y-64657911D01*
X190065000Y-64657911D01*
X190065000Y-64842089D01*
X190100932Y-65022729D01*
X190171414Y-65192889D01*
X190273738Y-65346028D01*
X190403972Y-65476262D01*
X190557111Y-65578586D01*
X190727271Y-65649068D01*
X190907911Y-65685000D01*
X191065000Y-65685000D01*
X191065000Y-65842089D01*
X191100932Y-66022729D01*
X191171414Y-66192889D01*
X191273738Y-66346028D01*
X191403972Y-66476262D01*
X191557111Y-66578586D01*
X191727271Y-66649068D01*
X191907911Y-66685000D01*
X192092089Y-66685000D01*
X192272729Y-66649068D01*
X192322254Y-66628554D01*
X192350932Y-66772729D01*
X192421414Y-66942889D01*
X192523738Y-67096028D01*
X192653972Y-67226262D01*
X192807111Y-67328586D01*
X192977271Y-67399068D01*
X193157911Y-67435000D01*
X193342089Y-67435000D01*
X193522729Y-67399068D01*
X193692889Y-67328586D01*
X193795535Y-67260000D01*
X195185199Y-67260000D01*
X201326847Y-73401649D01*
X201350932Y-73522729D01*
X201421414Y-73692889D01*
X201523738Y-73846028D01*
X201653972Y-73976262D01*
X201807111Y-74078586D01*
X201977271Y-74149068D01*
X202157911Y-74185000D01*
X202342089Y-74185000D01*
X202522729Y-74149068D01*
X202692889Y-74078586D01*
X202846028Y-73976262D01*
X202976262Y-73846028D01*
X203078586Y-73692889D01*
X203149068Y-73522729D01*
X203185000Y-73342089D01*
X203185000Y-73157911D01*
X203149068Y-72977271D01*
X203078586Y-72807111D01*
X202976262Y-72653972D01*
X202846028Y-72523738D01*
X202692889Y-72421414D01*
X202522729Y-72350932D01*
X202401649Y-72326847D01*
X197982713Y-67907911D01*
X208565000Y-67907911D01*
X208565000Y-68092089D01*
X208600932Y-68272729D01*
X208671414Y-68442889D01*
X208773738Y-68596028D01*
X208903972Y-68726262D01*
X209057111Y-68828586D01*
X209227271Y-68899068D01*
X209407911Y-68935000D01*
X209592089Y-68935000D01*
X209772729Y-68899068D01*
X209942889Y-68828586D01*
X210045535Y-68760000D01*
X216216256Y-68760000D01*
X216273738Y-68846028D01*
X216403972Y-68976262D01*
X216557111Y-69078586D01*
X216727271Y-69149068D01*
X216907911Y-69185000D01*
X217092089Y-69185000D01*
X217272729Y-69149068D01*
X217442889Y-69078586D01*
X217596028Y-68976262D01*
X217726262Y-68846028D01*
X217828586Y-68692889D01*
X217899068Y-68522729D01*
X217935000Y-68342089D01*
X217935000Y-68157911D01*
X217899068Y-67977271D01*
X217828586Y-67807111D01*
X217726262Y-67653972D01*
X217596028Y-67523738D01*
X217442889Y-67421414D01*
X217272729Y-67350932D01*
X217092089Y-67315000D01*
X217080685Y-67315000D01*
X217042247Y-67294454D01*
X216898986Y-67250997D01*
X216787333Y-67240000D01*
X216787322Y-67240000D01*
X216750000Y-67236324D01*
X216712678Y-67240000D01*
X210045535Y-67240000D01*
X209942889Y-67171414D01*
X209772729Y-67100932D01*
X209592089Y-67065000D01*
X209407911Y-67065000D01*
X209227271Y-67100932D01*
X209057111Y-67171414D01*
X208903972Y-67273738D01*
X208773738Y-67403972D01*
X208671414Y-67557111D01*
X208600932Y-67727271D01*
X208565000Y-67907911D01*
X197982713Y-67907911D01*
X196584801Y-66510000D01*
X202204465Y-66510000D01*
X202307111Y-66578586D01*
X202477271Y-66649068D01*
X202657911Y-66685000D01*
X202842089Y-66685000D01*
X203022729Y-66649068D01*
X203192889Y-66578586D01*
X203346028Y-66476262D01*
X203476262Y-66346028D01*
X203578586Y-66192889D01*
X203649068Y-66022729D01*
X203685000Y-65842089D01*
X203685000Y-65657911D01*
X203649068Y-65477271D01*
X203578586Y-65307111D01*
X203476262Y-65153972D01*
X203346028Y-65023738D01*
X203192889Y-64921414D01*
X203022729Y-64850932D01*
X202932345Y-64832953D01*
X202942889Y-64828586D01*
X203096028Y-64726262D01*
X203226262Y-64596028D01*
X203328586Y-64442889D01*
X203399068Y-64272729D01*
X203435000Y-64092089D01*
X203435000Y-63907911D01*
X203399068Y-63727271D01*
X203370339Y-63657911D01*
X208065000Y-63657911D01*
X208065000Y-63842089D01*
X208100932Y-64022729D01*
X208171414Y-64192889D01*
X208273738Y-64346028D01*
X208403972Y-64476262D01*
X208557111Y-64578586D01*
X208727271Y-64649068D01*
X208907911Y-64685000D01*
X209092089Y-64685000D01*
X209272729Y-64649068D01*
X209442889Y-64578586D01*
X209545535Y-64510000D01*
X216454465Y-64510000D01*
X216557111Y-64578586D01*
X216727271Y-64649068D01*
X216907911Y-64685000D01*
X217092089Y-64685000D01*
X217272729Y-64649068D01*
X217442889Y-64578586D01*
X217596028Y-64476262D01*
X217726262Y-64346028D01*
X217828586Y-64192889D01*
X217899068Y-64022729D01*
X217935000Y-63842089D01*
X217935000Y-63657911D01*
X217899068Y-63477271D01*
X217828586Y-63307111D01*
X217726262Y-63153972D01*
X217596028Y-63023738D01*
X217442889Y-62921414D01*
X217272729Y-62850932D01*
X217092089Y-62815000D01*
X216907911Y-62815000D01*
X216727271Y-62850932D01*
X216557111Y-62921414D01*
X216454465Y-62990000D01*
X209545535Y-62990000D01*
X209442889Y-62921414D01*
X209272729Y-62850932D01*
X209092089Y-62815000D01*
X208907911Y-62815000D01*
X208727271Y-62850932D01*
X208557111Y-62921414D01*
X208403972Y-63023738D01*
X208273738Y-63153972D01*
X208171414Y-63307111D01*
X208100932Y-63477271D01*
X208065000Y-63657911D01*
X203370339Y-63657911D01*
X203328586Y-63557111D01*
X203226262Y-63403972D01*
X203096028Y-63273738D01*
X202942889Y-63171414D01*
X202772729Y-63100932D01*
X202592089Y-63065000D01*
X202407911Y-63065000D01*
X202227271Y-63100932D01*
X202057111Y-63171414D01*
X201903972Y-63273738D01*
X201773738Y-63403972D01*
X201671414Y-63557111D01*
X201600932Y-63727271D01*
X201576847Y-63848351D01*
X201435199Y-63990000D01*
X191545535Y-63990000D01*
X191442889Y-63921414D01*
X191272729Y-63850932D01*
X191092089Y-63815000D01*
X190907911Y-63815000D01*
X190727271Y-63850932D01*
X190557111Y-63921414D01*
X190403972Y-64023738D01*
X190273738Y-64153972D01*
X190171414Y-64307111D01*
X190100932Y-64477271D01*
X190065000Y-64657911D01*
X189482713Y-64657911D01*
X188313804Y-63489003D01*
X188290001Y-63459999D01*
X188174276Y-63365026D01*
X188042247Y-63294454D01*
X187898986Y-63250997D01*
X187787333Y-63240000D01*
X187787322Y-63240000D01*
X187750000Y-63236324D01*
X187712678Y-63240000D01*
X185295535Y-63240000D01*
X185192889Y-63171414D01*
X185022729Y-63100932D01*
X184842089Y-63065000D01*
X184657911Y-63065000D01*
X184477271Y-63100932D01*
X184307111Y-63171414D01*
X184153972Y-63273738D01*
X184023738Y-63403972D01*
X183921414Y-63557111D01*
X183850932Y-63727271D01*
X183815000Y-63907911D01*
X180171907Y-63907911D01*
X180185000Y-63842089D01*
X180185000Y-63657911D01*
X180149068Y-63477271D01*
X180078586Y-63307111D01*
X179976262Y-63153972D01*
X179846028Y-63023738D01*
X179692889Y-62921414D01*
X179522729Y-62850932D01*
X179342089Y-62815000D01*
X179157911Y-62815000D01*
X178977271Y-62850932D01*
X178807111Y-62921414D01*
X178704465Y-62990000D01*
X173545535Y-62990000D01*
X173442889Y-62921414D01*
X173272729Y-62850932D01*
X173092089Y-62815000D01*
X172907911Y-62815000D01*
X172727271Y-62850932D01*
X172557111Y-62921414D01*
X172403972Y-63023738D01*
X172273738Y-63153972D01*
X172171414Y-63307111D01*
X172100932Y-63477271D01*
X172065000Y-63657911D01*
X170660000Y-63657911D01*
X170660000Y-50660000D01*
X219340000Y-50660000D01*
X219340001Y-99340000D01*
G37*
%TD.AperFunction*%
D17*
X206127000Y-95513000D02*
X206147000Y-95513000D01*
X206147000Y-95767000D01*
X206127000Y-95767000D01*
X206127000Y-95787000D01*
X205873000Y-95787000D01*
X205873000Y-95767000D01*
X205853000Y-95767000D01*
X205853000Y-95513000D01*
X205873000Y-95513000D01*
X205873000Y-95493000D01*
X206127000Y-95493000D01*
X206127000Y-95513000D01*
%TA.AperFunction,Conductor*%
D18*
G36*
X206127000Y-95513000D02*
G01*
X206147000Y-95513000D01*
X206147000Y-95767000D01*
X206127000Y-95767000D01*
X206127000Y-95787000D01*
X205873000Y-95787000D01*
X205873000Y-95767000D01*
X205853000Y-95767000D01*
X205853000Y-95513000D01*
X205873000Y-95513000D01*
X205873000Y-95493000D01*
X206127000Y-95493000D01*
X206127000Y-95513000D01*
G37*
%TD.AperFunction*%
D17*
X200127000Y-81873000D02*
X200147000Y-81873000D01*
X200147000Y-82127000D01*
X200127000Y-82127000D01*
X200127000Y-82147000D01*
X199873000Y-82147000D01*
X199873000Y-82127000D01*
X199853000Y-82127000D01*
X199853000Y-81873000D01*
X199873000Y-81873000D01*
X199873000Y-81853000D01*
X200127000Y-81853000D01*
X200127000Y-81873000D01*
%TA.AperFunction,Conductor*%
D18*
G36*
X200127000Y-81873000D02*
G01*
X200147000Y-81873000D01*
X200147000Y-82127000D01*
X200127000Y-82127000D01*
X200127000Y-82147000D01*
X199873000Y-82147000D01*
X199873000Y-82127000D01*
X199853000Y-82127000D01*
X199853000Y-81873000D01*
X199873000Y-81873000D01*
X199873000Y-81853000D01*
X200127000Y-81853000D01*
X200127000Y-81873000D01*
G37*
%TD.AperFunction*%
%TD*%
M02*
