%TF.GenerationSoftware,KiCad,Pcbnew,(5.1.5)-3*%
%TF.CreationDate,2021-06-07T17:55:49+02:00*%
%TF.ProjectId,HB-RC-6-PBU-LED,48422d52-432d-4362-9d50-42552d4c4544,rev?*%
%TF.SameCoordinates,Original*%
%TF.FileFunction,Legend,Bot*%
%TF.FilePolarity,Positive*%
%FSLAX46Y46*%
G04 Gerber Fmt 4.6, Leading zero omitted, Abs format (unit mm)*
G04 Created by KiCad (PCBNEW (5.1.5)-3) date 2021-06-07 17:55:49*
%MOMM*%
%LPD*%
G04 APERTURE LIST*
%ADD10C,0.125000*%
%ADD11C,0.150000*%
%ADD12C,0.120000*%
G04 APERTURE END LIST*
D10*
X204361904Y-84338095D02*
X203980952Y-84071428D01*
X204361904Y-83880952D02*
X203561904Y-83880952D01*
X203561904Y-84185714D01*
X203600000Y-84261904D01*
X203638095Y-84300000D01*
X203714285Y-84338095D01*
X203828571Y-84338095D01*
X203904761Y-84300000D01*
X203942857Y-84261904D01*
X203980952Y-84185714D01*
X203980952Y-83880952D01*
X203942857Y-84680952D02*
X203942857Y-84947619D01*
X204361904Y-85061904D02*
X204361904Y-84680952D01*
X203561904Y-84680952D01*
X203561904Y-85061904D01*
X204323809Y-85366666D02*
X204361904Y-85480952D01*
X204361904Y-85671428D01*
X204323809Y-85747619D01*
X204285714Y-85785714D01*
X204209523Y-85823809D01*
X204133333Y-85823809D01*
X204057142Y-85785714D01*
X204019047Y-85747619D01*
X203980952Y-85671428D01*
X203942857Y-85519047D01*
X203904761Y-85442857D01*
X203866666Y-85404761D01*
X203790476Y-85366666D01*
X203714285Y-85366666D01*
X203638095Y-85404761D01*
X203600000Y-85442857D01*
X203561904Y-85519047D01*
X203561904Y-85709523D01*
X203600000Y-85823809D01*
X203942857Y-86166666D02*
X203942857Y-86433333D01*
X204361904Y-86547619D02*
X204361904Y-86166666D01*
X203561904Y-86166666D01*
X203561904Y-86547619D01*
X203561904Y-86776190D02*
X203561904Y-87233333D01*
X204361904Y-87004761D02*
X203561904Y-87004761D01*
X208111904Y-86742857D02*
X207311904Y-86742857D01*
X207883333Y-87009523D01*
X207311904Y-87276190D01*
X208111904Y-87276190D01*
X208111904Y-87657142D02*
X207311904Y-87657142D01*
X208073809Y-88000000D02*
X208111904Y-88114285D01*
X208111904Y-88304761D01*
X208073809Y-88380952D01*
X208035714Y-88419047D01*
X207959523Y-88457142D01*
X207883333Y-88457142D01*
X207807142Y-88419047D01*
X207769047Y-88380952D01*
X207730952Y-88304761D01*
X207692857Y-88152380D01*
X207654761Y-88076190D01*
X207616666Y-88038095D01*
X207540476Y-88000000D01*
X207464285Y-88000000D01*
X207388095Y-88038095D01*
X207350000Y-88076190D01*
X207311904Y-88152380D01*
X207311904Y-88342857D01*
X207350000Y-88457142D01*
X207311904Y-88952380D02*
X207311904Y-89104761D01*
X207350000Y-89180952D01*
X207426190Y-89257142D01*
X207578571Y-89295238D01*
X207845238Y-89295238D01*
X207997619Y-89257142D01*
X208073809Y-89180952D01*
X208111904Y-89104761D01*
X208111904Y-88952380D01*
X208073809Y-88876190D01*
X207997619Y-88800000D01*
X207845238Y-88761904D01*
X207578571Y-88761904D01*
X207426190Y-88800000D01*
X207350000Y-88876190D01*
X207311904Y-88952380D01*
X204323809Y-89471428D02*
X204361904Y-89585714D01*
X204361904Y-89776190D01*
X204323809Y-89852380D01*
X204285714Y-89890476D01*
X204209523Y-89928571D01*
X204133333Y-89928571D01*
X204057142Y-89890476D01*
X204019047Y-89852380D01*
X203980952Y-89776190D01*
X203942857Y-89623809D01*
X203904761Y-89547619D01*
X203866666Y-89509523D01*
X203790476Y-89471428D01*
X203714285Y-89471428D01*
X203638095Y-89509523D01*
X203600000Y-89547619D01*
X203561904Y-89623809D01*
X203561904Y-89814285D01*
X203600000Y-89928571D01*
X204285714Y-90728571D02*
X204323809Y-90690476D01*
X204361904Y-90576190D01*
X204361904Y-90500000D01*
X204323809Y-90385714D01*
X204247619Y-90309523D01*
X204171428Y-90271428D01*
X204019047Y-90233333D01*
X203904761Y-90233333D01*
X203752380Y-90271428D01*
X203676190Y-90309523D01*
X203600000Y-90385714D01*
X203561904Y-90500000D01*
X203561904Y-90576190D01*
X203600000Y-90690476D01*
X203638095Y-90728571D01*
X204361904Y-91071428D02*
X203561904Y-91071428D01*
X204361904Y-91528571D02*
X203904761Y-91185714D01*
X203561904Y-91528571D02*
X204019047Y-91071428D01*
X208111904Y-91992857D02*
X207311904Y-91992857D01*
X207883333Y-92259523D01*
X207311904Y-92526190D01*
X208111904Y-92526190D01*
X207311904Y-93059523D02*
X207311904Y-93211904D01*
X207350000Y-93288095D01*
X207426190Y-93364285D01*
X207578571Y-93402380D01*
X207845238Y-93402380D01*
X207997619Y-93364285D01*
X208073809Y-93288095D01*
X208111904Y-93211904D01*
X208111904Y-93059523D01*
X208073809Y-92983333D01*
X207997619Y-92907142D01*
X207845238Y-92869047D01*
X207578571Y-92869047D01*
X207426190Y-92907142D01*
X207350000Y-92983333D01*
X207311904Y-93059523D01*
X208073809Y-93707142D02*
X208111904Y-93821428D01*
X208111904Y-94011904D01*
X208073809Y-94088095D01*
X208035714Y-94126190D01*
X207959523Y-94164285D01*
X207883333Y-94164285D01*
X207807142Y-94126190D01*
X207769047Y-94088095D01*
X207730952Y-94011904D01*
X207692857Y-93859523D01*
X207654761Y-93783333D01*
X207616666Y-93745238D01*
X207540476Y-93707142D01*
X207464285Y-93707142D01*
X207388095Y-93745238D01*
X207350000Y-93783333D01*
X207311904Y-93859523D01*
X207311904Y-94050000D01*
X207350000Y-94164285D01*
X208111904Y-94507142D02*
X207311904Y-94507142D01*
X203600000Y-95140476D02*
X203561904Y-95064285D01*
X203561904Y-94950000D01*
X203600000Y-94835714D01*
X203676190Y-94759523D01*
X203752380Y-94721428D01*
X203904761Y-94683333D01*
X204019047Y-94683333D01*
X204171428Y-94721428D01*
X204247619Y-94759523D01*
X204323809Y-94835714D01*
X204361904Y-94950000D01*
X204361904Y-95026190D01*
X204323809Y-95140476D01*
X204285714Y-95178571D01*
X204019047Y-95178571D01*
X204019047Y-95026190D01*
X204361904Y-95521428D02*
X203561904Y-95521428D01*
X204361904Y-95978571D01*
X203561904Y-95978571D01*
X204361904Y-96359523D02*
X203561904Y-96359523D01*
X203561904Y-96550000D01*
X203600000Y-96664285D01*
X203676190Y-96740476D01*
X203752380Y-96778571D01*
X203904761Y-96816666D01*
X204019047Y-96816666D01*
X204171428Y-96778571D01*
X204247619Y-96740476D01*
X204323809Y-96664285D01*
X204361904Y-96550000D01*
X204361904Y-96359523D01*
X207561904Y-97259523D02*
X207561904Y-97754761D01*
X207866666Y-97488095D01*
X207866666Y-97602380D01*
X207904761Y-97678571D01*
X207942857Y-97716666D01*
X208019047Y-97754761D01*
X208209523Y-97754761D01*
X208285714Y-97716666D01*
X208323809Y-97678571D01*
X208361904Y-97602380D01*
X208361904Y-97373809D01*
X208323809Y-97297619D01*
X208285714Y-97259523D01*
X207561904Y-97983333D02*
X208361904Y-98250000D01*
X207561904Y-98516666D01*
X207561904Y-98707142D02*
X207561904Y-99202380D01*
X207866666Y-98935714D01*
X207866666Y-99050000D01*
X207904761Y-99126190D01*
X207942857Y-99164285D01*
X208019047Y-99202380D01*
X208209523Y-99202380D01*
X208285714Y-99164285D01*
X208323809Y-99126190D01*
X208361904Y-99050000D01*
X208361904Y-98821428D01*
X208323809Y-98745238D01*
X208285714Y-98707142D01*
D11*
X181000000Y-96238095D02*
X180952380Y-96142857D01*
X180952380Y-96000000D01*
X181000000Y-95857142D01*
X181095238Y-95761904D01*
X181190476Y-95714285D01*
X181380952Y-95666666D01*
X181523809Y-95666666D01*
X181714285Y-95714285D01*
X181809523Y-95761904D01*
X181904761Y-95857142D01*
X181952380Y-96000000D01*
X181952380Y-96095238D01*
X181904761Y-96238095D01*
X181857142Y-96285714D01*
X181523809Y-96285714D01*
X181523809Y-96095238D01*
X181952380Y-96714285D02*
X180952380Y-96714285D01*
X181952380Y-97285714D01*
X180952380Y-97285714D01*
X181952380Y-97761904D02*
X180952380Y-97761904D01*
X180952380Y-98000000D01*
X181000000Y-98142857D01*
X181095238Y-98238095D01*
X181190476Y-98285714D01*
X181380952Y-98333333D01*
X181523809Y-98333333D01*
X181714285Y-98285714D01*
X181809523Y-98238095D01*
X181904761Y-98142857D01*
X181952380Y-98000000D01*
X181952380Y-97761904D01*
X180952380Y-91761904D02*
X180952380Y-92380952D01*
X181333333Y-92047619D01*
X181333333Y-92190476D01*
X181380952Y-92285714D01*
X181428571Y-92333333D01*
X181523809Y-92380952D01*
X181761904Y-92380952D01*
X181857142Y-92333333D01*
X181904761Y-92285714D01*
X181952380Y-92190476D01*
X181952380Y-91904761D01*
X181904761Y-91809523D01*
X181857142Y-91761904D01*
X180952380Y-92666666D02*
X181952380Y-93000000D01*
X180952380Y-93333333D01*
X180952380Y-93571428D02*
X180952380Y-94190476D01*
X181333333Y-93857142D01*
X181333333Y-94000000D01*
X181380952Y-94095238D01*
X181428571Y-94142857D01*
X181523809Y-94190476D01*
X181761904Y-94190476D01*
X181857142Y-94142857D01*
X181904761Y-94095238D01*
X181952380Y-94000000D01*
X181952380Y-93714285D01*
X181904761Y-93619047D01*
X181857142Y-93571428D01*
X181952380Y-87883333D02*
X181476190Y-87550000D01*
X181952380Y-87311904D02*
X180952380Y-87311904D01*
X180952380Y-87692857D01*
X181000000Y-87788095D01*
X181047619Y-87835714D01*
X181142857Y-87883333D01*
X181285714Y-87883333D01*
X181380952Y-87835714D01*
X181428571Y-87788095D01*
X181476190Y-87692857D01*
X181476190Y-87311904D01*
X180952380Y-88216666D02*
X181952380Y-88883333D01*
X180952380Y-88883333D02*
X181952380Y-88216666D01*
X180952380Y-89738095D02*
X180952380Y-90309523D01*
X181952380Y-90023809D02*
X180952380Y-90023809D01*
X180952380Y-90547619D02*
X181952380Y-91214285D01*
X180952380Y-91214285D02*
X181952380Y-90547619D01*
X181952380Y-84357142D02*
X180952380Y-84357142D01*
X180952380Y-84595238D01*
X181000000Y-84738095D01*
X181095238Y-84833333D01*
X181190476Y-84880952D01*
X181380952Y-84928571D01*
X181523809Y-84928571D01*
X181714285Y-84880952D01*
X181809523Y-84833333D01*
X181904761Y-84738095D01*
X181952380Y-84595238D01*
X181952380Y-84357142D01*
X180952380Y-85214285D02*
X180952380Y-85785714D01*
X181952380Y-85500000D02*
X180952380Y-85500000D01*
X181952380Y-86690476D02*
X181476190Y-86357142D01*
X181952380Y-86119047D02*
X180952380Y-86119047D01*
X180952380Y-86500000D01*
X181000000Y-86595238D01*
X181047619Y-86642857D01*
X181142857Y-86690476D01*
X181285714Y-86690476D01*
X181380952Y-86642857D01*
X181428571Y-86595238D01*
X181476190Y-86500000D01*
X181476190Y-86119047D01*
D12*
%TO.C,J1*%
X197325000Y-69630000D02*
X192125000Y-69630000D01*
X197325000Y-79910000D02*
X192125000Y-79910000D01*
X198765000Y-70200000D02*
X197325000Y-70200000D01*
X197325000Y-69630000D02*
X197325000Y-70200000D01*
X192125000Y-69630000D02*
X192125000Y-70200000D01*
X197325000Y-79340000D02*
X197325000Y-79910000D01*
X192125000Y-79340000D02*
X192125000Y-79910000D01*
X197325000Y-71720000D02*
X197325000Y-72740000D01*
X192125000Y-71720000D02*
X192125000Y-72740000D01*
X197325000Y-74260000D02*
X197325000Y-75280000D01*
X192125000Y-74260000D02*
X192125000Y-75280000D01*
X197325000Y-76800000D02*
X197325000Y-77820000D01*
X192125000Y-76800000D02*
X192125000Y-77820000D01*
D11*
X195058333Y-68082380D02*
X195058333Y-68796666D01*
X195105952Y-68939523D01*
X195201190Y-69034761D01*
X195344047Y-69082380D01*
X195439285Y-69082380D01*
X194058333Y-69082380D02*
X194629761Y-69082380D01*
X194344047Y-69082380D02*
X194344047Y-68082380D01*
X194439285Y-68225238D01*
X194534523Y-68320476D01*
X194629761Y-68368095D01*
%TD*%
M02*
