M48
; DRILL file {KiCad (5.1.5)-3} date 07.06.2021 17:55:51
; FORMAT={-:-/ absolute / inch / decimal}
; #@! TF.CreationDate,2021-06-07T17:55:51+02:00
; #@! TF.GenerationSoftware,Kicad,Pcbnew,(5.1.5)-3
; #@! TF.FileFunction,Plated,1,2,PTH
FMAT,2
INCH
T1C0.0118
T2C0.0300
T3C0.0394
%
G90
G05
T1
X6.811Y-2.5098
X6.811Y-2.6772
X6.811Y-3.3858
X7.0472Y-2.372
X7.0472Y-3.0906
X7.0571Y-2.5098
X7.0571Y-2.6772
X7.0965Y-3.1398
X7.126Y-2.0689
X7.126Y-2.1457
X7.126Y-2.2185
X7.126Y-2.2933
X7.126Y-2.372
X7.126Y-2.4409
X7.126Y-2.7067
X7.126Y-2.7854
X7.1909Y-2.1476
X7.2047Y-2.372
X7.2047Y-2.4409
X7.2244Y-2.628
X7.2244Y-2.7067
X7.2756Y-2.0689
X7.3228Y-2.628
X7.3622Y-2.1457
X7.3622Y-2.9035
X7.4252Y-2.0689
X7.4409Y-2.4311
X7.5098Y-2.6772
X7.5197Y-2.5492
X7.5591Y-2.5886
X7.5689Y-2.6969
X7.5787Y-2.0669
X7.5787Y-2.2047
X7.6083Y-2.6181
X7.6083Y-2.8346
X7.6476Y-2.8346
X7.6673Y-2.2047
X7.6673Y-2.5098
X7.6772Y-2.7362
X7.687Y-2.8445
X7.7165Y-2.5197
X7.7559Y-2.2047
X7.7657Y-2.8346
X7.8051Y-2.8346
X7.8445Y-2.2047
X7.8642Y-2.9528
X7.8642Y-3.1102
X7.9724Y-2.5197
X7.9823Y-2.5886
X8.0217Y-2.6476
X8.2283Y-2.5098
X8.248Y-2.6772
X8.2972Y-3.8484
X8.3809Y-2.3967
X8.4154Y-2.4606
X8.4154Y-2.5984
X8.4154Y-3.1201
X8.4154Y-3.3563
X8.4252Y-3.7303
X8.4252Y-3.8484
X8.4547Y-2.0768
X8.5433Y-2.5098
X8.5433Y-2.687
X8.5433Y-3.2283
X8.5433Y-3.3957
T2
X7.4016Y-3.2283
X7.4803Y-3.2283
X7.5591Y-3.2283
X7.6378Y-3.2283
X7.7165Y-3.2283
X7.7953Y-3.2283
X7.874Y-3.2283
X7.9528Y-3.2283
T3
X7.2441Y-3.3661
X7.2441Y-3.4661
X7.2441Y-3.5661
X7.2441Y-3.6661
X7.2441Y-3.7661
X7.2441Y-3.8661
X8.1102Y-3.3654
X8.1102Y-3.4654
X8.1102Y-3.5654
X8.1102Y-3.6654
X8.1102Y-3.7654
X8.1102Y-3.8654
T0
M30
