%TF.GenerationSoftware,KiCad,Pcbnew,(5.1.5)-3*%
%TF.CreationDate,2021-06-07T17:55:49+02:00*%
%TF.ProjectId,HB-RC-6-PBU-LED,48422d52-432d-4362-9d50-42552d4c4544,rev?*%
%TF.SameCoordinates,Original*%
%TF.FileFunction,Legend,Top*%
%TF.FilePolarity,Positive*%
%FSLAX46Y46*%
G04 Gerber Fmt 4.6, Leading zero omitted, Abs format (unit mm)*
G04 Created by KiCad (PCBNEW (5.1.5)-3) date 2021-06-07 17:55:49*
%MOMM*%
%LPD*%
G04 APERTURE LIST*
%ADD10C,0.250000*%
%ADD11C,0.300000*%
%ADD12C,0.127000*%
%ADD13C,0.200000*%
%ADD14C,0.120000*%
%ADD15C,0.150000*%
%ADD16C,0.015000*%
G04 APERTURE END LIST*
D10*
X185875000Y-58652380D02*
X185779761Y-58700000D01*
X185732142Y-58795238D01*
X185779761Y-58890476D01*
X185875000Y-58938095D01*
X185970238Y-58890476D01*
X186017857Y-58795238D01*
X185970238Y-58700000D01*
X185875000Y-58652380D01*
D11*
X189300000Y-73478571D02*
X189157142Y-73550000D01*
X189085714Y-73692857D01*
X189157142Y-73835714D01*
X189300000Y-73907142D01*
X189442857Y-73835714D01*
X189514285Y-73692857D01*
X189442857Y-73550000D01*
X189300000Y-73478571D01*
D12*
%TO.C,D14*%
X211000000Y-93250000D02*
X211000000Y-92650000D01*
X213000000Y-93250000D02*
X213000000Y-92650000D01*
D13*
X211472956Y-94720000D02*
G75*
G03X211472956Y-94720000I-102956J0D01*
G01*
D12*
%TO.C,D13*%
X211000000Y-75300000D02*
X211000000Y-74700000D01*
X213000000Y-75300000D02*
X213000000Y-74700000D01*
D13*
X211472956Y-76770000D02*
G75*
G03X211472956Y-76770000I-102956J0D01*
G01*
D12*
%TO.C,D12*%
X211000000Y-57250000D02*
X211000000Y-56650000D01*
X213000000Y-57250000D02*
X213000000Y-56650000D01*
D13*
X211472956Y-58720000D02*
G75*
G03X211472956Y-58720000I-102956J0D01*
G01*
D12*
%TO.C,D11*%
X177000000Y-93250000D02*
X177000000Y-92650000D01*
X179000000Y-93250000D02*
X179000000Y-92650000D01*
D13*
X177472956Y-94720000D02*
G75*
G03X177472956Y-94720000I-102956J0D01*
G01*
D12*
%TO.C,D10*%
X177000000Y-75300000D02*
X177000000Y-74700000D01*
X179000000Y-75300000D02*
X179000000Y-74700000D01*
D13*
X177472956Y-76770000D02*
G75*
G03X177472956Y-76770000I-102956J0D01*
G01*
D12*
%TO.C,D9*%
X176985000Y-57300000D02*
X176985000Y-56700000D01*
X178985000Y-57300000D02*
X178985000Y-56700000D01*
D13*
X177457956Y-58770000D02*
G75*
G03X177457956Y-58770000I-102956J0D01*
G01*
D14*
%TO.C,C10*%
X203751248Y-67715000D02*
X204273752Y-67715000D01*
X203751248Y-69185000D02*
X204273752Y-69185000D01*
%TO.C,C9*%
X195015000Y-59298752D02*
X195015000Y-58776248D01*
X196485000Y-59298752D02*
X196485000Y-58776248D01*
%TO.C,Q1*%
X189580000Y-55990000D02*
X188650000Y-55990000D01*
X186420000Y-55990000D02*
X187350000Y-55990000D01*
X186420000Y-55990000D02*
X186420000Y-58150000D01*
X189580000Y-55990000D02*
X189580000Y-57450000D01*
%TO.C,U3*%
X182850000Y-58360000D02*
X185300000Y-58360000D01*
X184650000Y-55140000D02*
X182850000Y-55140000D01*
%TO.C,R6*%
X187772936Y-59015000D02*
X188227064Y-59015000D01*
X187772936Y-60485000D02*
X188227064Y-60485000D01*
%TO.C,R5*%
X199735000Y-58772936D02*
X199735000Y-59227064D01*
X198265000Y-58772936D02*
X198265000Y-59227064D01*
D15*
%TO.C,U1*%
X190400000Y-73185000D02*
X190400000Y-74460000D01*
X189825000Y-62835000D02*
X189825000Y-63510000D01*
X200175000Y-62835000D02*
X200175000Y-63510000D01*
X200175000Y-73185000D02*
X200175000Y-72510000D01*
X189825000Y-73185000D02*
X189825000Y-72510000D01*
X200175000Y-73185000D02*
X199500000Y-73185000D01*
X200175000Y-62835000D02*
X199500000Y-62835000D01*
X189825000Y-62835000D02*
X190500000Y-62835000D01*
X189825000Y-73185000D02*
X190400000Y-73185000D01*
D14*
%TO.C,SW1*%
X198060000Y-75440000D02*
X198060000Y-79060000D01*
X191940000Y-75440000D02*
X198060000Y-75440000D01*
X191940000Y-79060000D02*
X191940000Y-75440000D01*
X198060000Y-79060000D02*
X191940000Y-79060000D01*
%TO.C,D2*%
X196025000Y-50540000D02*
X193165000Y-50540000D01*
X193165000Y-50540000D02*
X193165000Y-52460000D01*
X193165000Y-52460000D02*
X196025000Y-52460000D01*
%TO.C,D1*%
X196025000Y-52540000D02*
X193165000Y-52540000D01*
X193165000Y-52540000D02*
X193165000Y-54460000D01*
X193165000Y-54460000D02*
X196025000Y-54460000D01*
D15*
%TO.C,U2*%
X204000000Y-81000000D02*
X204000000Y-82000000D01*
X186000000Y-81000000D02*
X204000000Y-81000000D01*
X186000000Y-100000000D02*
X186000000Y-81000000D01*
X204000000Y-100000000D02*
X186000000Y-100000000D01*
X204000000Y-82000000D02*
X204000000Y-100000000D01*
D14*
%TO.C,J2*%
X207330000Y-99510000D02*
X206000000Y-99510000D01*
X207330000Y-98180000D02*
X207330000Y-99510000D01*
X207330000Y-96910000D02*
X204670000Y-96910000D01*
X204670000Y-96910000D02*
X204670000Y-84150000D01*
X207330000Y-96910000D02*
X207330000Y-84150000D01*
X207330000Y-84150000D02*
X204670000Y-84150000D01*
%TO.C,J3*%
X182670000Y-99530000D02*
X185330000Y-99530000D01*
X182670000Y-86770000D02*
X182670000Y-99530000D01*
X185330000Y-86770000D02*
X185330000Y-99530000D01*
X182670000Y-86770000D02*
X185330000Y-86770000D01*
X182670000Y-85500000D02*
X182670000Y-84170000D01*
X182670000Y-84170000D02*
X184000000Y-84170000D01*
%TO.C,C8*%
X178261252Y-53485000D02*
X177738748Y-53485000D01*
X178261252Y-52015000D02*
X177738748Y-52015000D01*
%TO.C,C7*%
X212261252Y-89485000D02*
X211738748Y-89485000D01*
X212261252Y-88015000D02*
X211738748Y-88015000D01*
%TO.C,C6*%
X212261252Y-71485000D02*
X211738748Y-71485000D01*
X212261252Y-70015000D02*
X211738748Y-70015000D01*
%TO.C,C5*%
X212361252Y-53465000D02*
X211838748Y-53465000D01*
X212361252Y-51995000D02*
X211838748Y-51995000D01*
%TO.C,C4*%
X178261252Y-89485000D02*
X177738748Y-89485000D01*
X178261252Y-88015000D02*
X177738748Y-88015000D01*
%TO.C,C3*%
X178261252Y-71485000D02*
X177738748Y-71485000D01*
X178261252Y-70015000D02*
X177738748Y-70015000D01*
%TO.C,SW7*%
X218810000Y-96060000D02*
X215190000Y-96060000D01*
X218810000Y-89940000D02*
X218810000Y-96060000D01*
X215190000Y-89940000D02*
X218810000Y-89940000D01*
X215190000Y-96060000D02*
X215190000Y-89940000D01*
%TO.C,SW6*%
X218810000Y-78060000D02*
X215190000Y-78060000D01*
X218810000Y-71940000D02*
X218810000Y-78060000D01*
X215190000Y-71940000D02*
X218810000Y-71940000D01*
X215190000Y-78060000D02*
X215190000Y-71940000D01*
%TO.C,SW5*%
X215190000Y-53940000D02*
X218810000Y-53940000D01*
X215190000Y-60060000D02*
X215190000Y-53940000D01*
X218810000Y-60060000D02*
X215190000Y-60060000D01*
X218810000Y-53940000D02*
X218810000Y-60060000D01*
%TO.C,SW4*%
X174810000Y-96060000D02*
X171190000Y-96060000D01*
X174810000Y-89940000D02*
X174810000Y-96060000D01*
X171190000Y-89940000D02*
X174810000Y-89940000D01*
X171190000Y-96060000D02*
X171190000Y-89940000D01*
%TO.C,SW3*%
X174810000Y-78060000D02*
X171190000Y-78060000D01*
X174810000Y-71940000D02*
X174810000Y-78060000D01*
X171190000Y-71940000D02*
X174810000Y-71940000D01*
X171190000Y-78060000D02*
X171190000Y-71940000D01*
%TO.C,SW2*%
X171190000Y-53940000D02*
X174810000Y-53940000D01*
X171190000Y-60060000D02*
X171190000Y-53940000D01*
X174810000Y-60060000D02*
X171190000Y-60060000D01*
X174810000Y-53940000D02*
X174810000Y-60060000D01*
%TO.C,R4*%
X186772936Y-77235000D02*
X187227064Y-77235000D01*
X186772936Y-75765000D02*
X187227064Y-75765000D01*
%TO.C,R3*%
X183265000Y-77272936D02*
X183265000Y-77727064D01*
X184735000Y-77272936D02*
X184735000Y-77727064D01*
%TO.C,R2*%
X199727064Y-50765000D02*
X199272936Y-50765000D01*
X199727064Y-52235000D02*
X199272936Y-52235000D01*
%TO.C,R1*%
X199727064Y-52765000D02*
X199272936Y-52765000D01*
X199727064Y-54235000D02*
X199272936Y-54235000D01*
%TO.C,D8*%
X213950000Y-90050000D02*
X212875000Y-90050000D01*
X213950000Y-95950000D02*
X213950000Y-90050000D01*
X210050000Y-95950000D02*
X210050000Y-90050000D01*
%TO.C,D5*%
X179950000Y-90050000D02*
X178875000Y-90050000D01*
X179950000Y-95950000D02*
X179950000Y-90050000D01*
X176050000Y-95950000D02*
X176050000Y-90050000D01*
%TO.C,D7*%
X213950000Y-72050000D02*
X212875000Y-72050000D01*
X213950000Y-77950000D02*
X213950000Y-72050000D01*
X210050000Y-77950000D02*
X210050000Y-72050000D01*
%TO.C,D4*%
X179950000Y-72050000D02*
X178875000Y-72050000D01*
X179950000Y-77950000D02*
X179950000Y-72050000D01*
X176050000Y-77950000D02*
X176050000Y-72050000D01*
%TO.C,D6*%
X213950000Y-54050000D02*
X212875000Y-54050000D01*
X213950000Y-59950000D02*
X213950000Y-54050000D01*
X210050000Y-59950000D02*
X210050000Y-54050000D01*
%TO.C,D3*%
X179950000Y-54050000D02*
X178875000Y-54050000D01*
X179950000Y-59950000D02*
X179950000Y-54050000D01*
X176050000Y-59950000D02*
X176050000Y-54050000D01*
%TO.C,C2*%
X194445000Y-59303752D02*
X194445000Y-58781248D01*
X192975000Y-59303752D02*
X192975000Y-58781248D01*
%TO.C,C1*%
X184735000Y-81973752D02*
X184735000Y-81451248D01*
X183265000Y-81973752D02*
X183265000Y-81451248D01*
%TO.C,D14*%
D16*
X210835580Y-93452430D02*
X210835580Y-92452320D01*
X211073702Y-92452320D01*
X211216575Y-92499945D01*
X211311823Y-92595193D01*
X211359447Y-92690442D01*
X211407072Y-92880939D01*
X211407072Y-93023812D01*
X211359447Y-93214309D01*
X211311823Y-93309557D01*
X211216575Y-93404806D01*
X211073702Y-93452430D01*
X210835580Y-93452430D01*
X212359557Y-93452430D02*
X211788066Y-93452430D01*
X212073812Y-93452430D02*
X212073812Y-92452320D01*
X211978563Y-92595193D01*
X211883315Y-92690442D01*
X211788066Y-92738066D01*
X213216795Y-92785690D02*
X213216795Y-93452430D01*
X212978673Y-92404696D02*
X212740552Y-93119060D01*
X213359667Y-93119060D01*
%TO.C,D13*%
X210785580Y-75502430D02*
X210785580Y-74502320D01*
X211023702Y-74502320D01*
X211166575Y-74549945D01*
X211261823Y-74645193D01*
X211309447Y-74740442D01*
X211357072Y-74930939D01*
X211357072Y-75073812D01*
X211309447Y-75264309D01*
X211261823Y-75359557D01*
X211166575Y-75454806D01*
X211023702Y-75502430D01*
X210785580Y-75502430D01*
X212309557Y-75502430D02*
X211738066Y-75502430D01*
X212023812Y-75502430D02*
X212023812Y-74502320D01*
X211928563Y-74645193D01*
X211833315Y-74740442D01*
X211738066Y-74788066D01*
X212642927Y-74502320D02*
X213262043Y-74502320D01*
X212928673Y-74883315D01*
X213071546Y-74883315D01*
X213166795Y-74930939D01*
X213214419Y-74978563D01*
X213262043Y-75073812D01*
X213262043Y-75311933D01*
X213214419Y-75407182D01*
X213166795Y-75454806D01*
X213071546Y-75502430D01*
X212785800Y-75502430D01*
X212690552Y-75454806D01*
X212642927Y-75407182D01*
%TO.C,D12*%
X210785580Y-57452430D02*
X210785580Y-56452320D01*
X211023702Y-56452320D01*
X211166575Y-56499945D01*
X211261823Y-56595193D01*
X211309447Y-56690442D01*
X211357072Y-56880939D01*
X211357072Y-57023812D01*
X211309447Y-57214309D01*
X211261823Y-57309557D01*
X211166575Y-57404806D01*
X211023702Y-57452430D01*
X210785580Y-57452430D01*
X212309557Y-57452430D02*
X211738066Y-57452430D01*
X212023812Y-57452430D02*
X212023812Y-56452320D01*
X211928563Y-56595193D01*
X211833315Y-56690442D01*
X211738066Y-56738066D01*
X212690552Y-56547569D02*
X212738176Y-56499945D01*
X212833425Y-56452320D01*
X213071546Y-56452320D01*
X213166795Y-56499945D01*
X213214419Y-56547569D01*
X213262043Y-56642817D01*
X213262043Y-56738066D01*
X213214419Y-56880939D01*
X212642927Y-57452430D01*
X213262043Y-57452430D01*
%TO.C,D11*%
X176835580Y-93452430D02*
X176835580Y-92452320D01*
X177073702Y-92452320D01*
X177216575Y-92499945D01*
X177311823Y-92595193D01*
X177359447Y-92690442D01*
X177407072Y-92880939D01*
X177407072Y-93023812D01*
X177359447Y-93214309D01*
X177311823Y-93309557D01*
X177216575Y-93404806D01*
X177073702Y-93452430D01*
X176835580Y-93452430D01*
X178359557Y-93452430D02*
X177788066Y-93452430D01*
X178073812Y-93452430D02*
X178073812Y-92452320D01*
X177978563Y-92595193D01*
X177883315Y-92690442D01*
X177788066Y-92738066D01*
X179312043Y-93452430D02*
X178740552Y-93452430D01*
X179026297Y-93452430D02*
X179026297Y-92452320D01*
X178931049Y-92595193D01*
X178835800Y-92690442D01*
X178740552Y-92738066D01*
%TO.C,D10*%
X176785580Y-75502430D02*
X176785580Y-74502320D01*
X177023702Y-74502320D01*
X177166575Y-74549945D01*
X177261823Y-74645193D01*
X177309447Y-74740442D01*
X177357072Y-74930939D01*
X177357072Y-75073812D01*
X177309447Y-75264309D01*
X177261823Y-75359557D01*
X177166575Y-75454806D01*
X177023702Y-75502430D01*
X176785580Y-75502430D01*
X178309557Y-75502430D02*
X177738066Y-75502430D01*
X178023812Y-75502430D02*
X178023812Y-74502320D01*
X177928563Y-74645193D01*
X177833315Y-74740442D01*
X177738066Y-74788066D01*
X178928673Y-74502320D02*
X179023922Y-74502320D01*
X179119170Y-74549945D01*
X179166795Y-74597569D01*
X179214419Y-74692817D01*
X179262043Y-74883315D01*
X179262043Y-75121436D01*
X179214419Y-75311933D01*
X179166795Y-75407182D01*
X179119170Y-75454806D01*
X179023922Y-75502430D01*
X178928673Y-75502430D01*
X178833425Y-75454806D01*
X178785800Y-75407182D01*
X178738176Y-75311933D01*
X178690552Y-75121436D01*
X178690552Y-74883315D01*
X178738176Y-74692817D01*
X178785800Y-74597569D01*
X178833425Y-74549945D01*
X178928673Y-74502320D01*
%TO.C,D9*%
X177261823Y-57502430D02*
X177261823Y-56502320D01*
X177499945Y-56502320D01*
X177642817Y-56549945D01*
X177738066Y-56645193D01*
X177785690Y-56740442D01*
X177833315Y-56930939D01*
X177833315Y-57073812D01*
X177785690Y-57264309D01*
X177738066Y-57359557D01*
X177642817Y-57454806D01*
X177499945Y-57502430D01*
X177261823Y-57502430D01*
X178309557Y-57502430D02*
X178500055Y-57502430D01*
X178595303Y-57454806D01*
X178642927Y-57407182D01*
X178738176Y-57264309D01*
X178785800Y-57073812D01*
X178785800Y-56692817D01*
X178738176Y-56597569D01*
X178690552Y-56549945D01*
X178595303Y-56502320D01*
X178404806Y-56502320D01*
X178309557Y-56549945D01*
X178261933Y-56597569D01*
X178214309Y-56692817D01*
X178214309Y-56930939D01*
X178261933Y-57026187D01*
X178309557Y-57073812D01*
X178404806Y-57121436D01*
X178595303Y-57121436D01*
X178690552Y-57073812D01*
X178738176Y-57026187D01*
X178785800Y-56930939D01*
%TO.C,C10*%
D15*
X203369642Y-70607142D02*
X203322023Y-70654761D01*
X203179166Y-70702380D01*
X203083928Y-70702380D01*
X202941071Y-70654761D01*
X202845833Y-70559523D01*
X202798214Y-70464285D01*
X202750595Y-70273809D01*
X202750595Y-70130952D01*
X202798214Y-69940476D01*
X202845833Y-69845238D01*
X202941071Y-69750000D01*
X203083928Y-69702380D01*
X203179166Y-69702380D01*
X203322023Y-69750000D01*
X203369642Y-69797619D01*
X204322023Y-70702380D02*
X203750595Y-70702380D01*
X204036309Y-70702380D02*
X204036309Y-69702380D01*
X203941071Y-69845238D01*
X203845833Y-69940476D01*
X203750595Y-69988095D01*
X204941071Y-69702380D02*
X205036309Y-69702380D01*
X205131547Y-69750000D01*
X205179166Y-69797619D01*
X205226785Y-69892857D01*
X205274404Y-70083333D01*
X205274404Y-70321428D01*
X205226785Y-70511904D01*
X205179166Y-70607142D01*
X205131547Y-70654761D01*
X205036309Y-70702380D01*
X204941071Y-70702380D01*
X204845833Y-70654761D01*
X204798214Y-70607142D01*
X204750595Y-70511904D01*
X204702976Y-70321428D01*
X204702976Y-70083333D01*
X204750595Y-69892857D01*
X204798214Y-69797619D01*
X204845833Y-69750000D01*
X204941071Y-69702380D01*
%TO.C,C9*%
X196107142Y-56366666D02*
X196154761Y-56414285D01*
X196202380Y-56557142D01*
X196202380Y-56652380D01*
X196154761Y-56795238D01*
X196059523Y-56890476D01*
X195964285Y-56938095D01*
X195773809Y-56985714D01*
X195630952Y-56985714D01*
X195440476Y-56938095D01*
X195345238Y-56890476D01*
X195250000Y-56795238D01*
X195202380Y-56652380D01*
X195202380Y-56557142D01*
X195250000Y-56414285D01*
X195297619Y-56366666D01*
X196202380Y-55890476D02*
X196202380Y-55700000D01*
X196154761Y-55604761D01*
X196107142Y-55557142D01*
X195964285Y-55461904D01*
X195773809Y-55414285D01*
X195392857Y-55414285D01*
X195297619Y-55461904D01*
X195250000Y-55509523D01*
X195202380Y-55604761D01*
X195202380Y-55795238D01*
X195250000Y-55890476D01*
X195297619Y-55938095D01*
X195392857Y-55985714D01*
X195630952Y-55985714D01*
X195726190Y-55938095D01*
X195773809Y-55890476D01*
X195821428Y-55795238D01*
X195821428Y-55604761D01*
X195773809Y-55509523D01*
X195726190Y-55461904D01*
X195630952Y-55414285D01*
%TO.C,Q1*%
X187904761Y-54797619D02*
X187809523Y-54750000D01*
X187714285Y-54654761D01*
X187571428Y-54511904D01*
X187476190Y-54464285D01*
X187380952Y-54464285D01*
X187428571Y-54702380D02*
X187333333Y-54654761D01*
X187238095Y-54559523D01*
X187190476Y-54369047D01*
X187190476Y-54035714D01*
X187238095Y-53845238D01*
X187333333Y-53750000D01*
X187428571Y-53702380D01*
X187619047Y-53702380D01*
X187714285Y-53750000D01*
X187809523Y-53845238D01*
X187857142Y-54035714D01*
X187857142Y-54369047D01*
X187809523Y-54559523D01*
X187714285Y-54654761D01*
X187619047Y-54702380D01*
X187428571Y-54702380D01*
X188809523Y-54702380D02*
X188238095Y-54702380D01*
X188523809Y-54702380D02*
X188523809Y-53702380D01*
X188428571Y-53845238D01*
X188333333Y-53940476D01*
X188238095Y-53988095D01*
%TO.C,U3*%
X182978095Y-53602380D02*
X182978095Y-54411904D01*
X183025714Y-54507142D01*
X183073333Y-54554761D01*
X183168571Y-54602380D01*
X183359047Y-54602380D01*
X183454285Y-54554761D01*
X183501904Y-54507142D01*
X183549523Y-54411904D01*
X183549523Y-53602380D01*
X183930476Y-53602380D02*
X184549523Y-53602380D01*
X184216190Y-53983333D01*
X184359047Y-53983333D01*
X184454285Y-54030952D01*
X184501904Y-54078571D01*
X184549523Y-54173809D01*
X184549523Y-54411904D01*
X184501904Y-54507142D01*
X184454285Y-54554761D01*
X184359047Y-54602380D01*
X184073333Y-54602380D01*
X183978095Y-54554761D01*
X183930476Y-54507142D01*
%TO.C,R6*%
X190683333Y-60202380D02*
X190350000Y-59726190D01*
X190111904Y-60202380D02*
X190111904Y-59202380D01*
X190492857Y-59202380D01*
X190588095Y-59250000D01*
X190635714Y-59297619D01*
X190683333Y-59392857D01*
X190683333Y-59535714D01*
X190635714Y-59630952D01*
X190588095Y-59678571D01*
X190492857Y-59726190D01*
X190111904Y-59726190D01*
X191540476Y-59202380D02*
X191350000Y-59202380D01*
X191254761Y-59250000D01*
X191207142Y-59297619D01*
X191111904Y-59440476D01*
X191064285Y-59630952D01*
X191064285Y-60011904D01*
X191111904Y-60107142D01*
X191159523Y-60154761D01*
X191254761Y-60202380D01*
X191445238Y-60202380D01*
X191540476Y-60154761D01*
X191588095Y-60107142D01*
X191635714Y-60011904D01*
X191635714Y-59773809D01*
X191588095Y-59678571D01*
X191540476Y-59630952D01*
X191445238Y-59583333D01*
X191254761Y-59583333D01*
X191159523Y-59630952D01*
X191111904Y-59678571D01*
X191064285Y-59773809D01*
%TO.C,R5*%
X199452380Y-56416666D02*
X198976190Y-56750000D01*
X199452380Y-56988095D02*
X198452380Y-56988095D01*
X198452380Y-56607142D01*
X198500000Y-56511904D01*
X198547619Y-56464285D01*
X198642857Y-56416666D01*
X198785714Y-56416666D01*
X198880952Y-56464285D01*
X198928571Y-56511904D01*
X198976190Y-56607142D01*
X198976190Y-56988095D01*
X198452380Y-55511904D02*
X198452380Y-55988095D01*
X198928571Y-56035714D01*
X198880952Y-55988095D01*
X198833333Y-55892857D01*
X198833333Y-55654761D01*
X198880952Y-55559523D01*
X198928571Y-55511904D01*
X199023809Y-55464285D01*
X199261904Y-55464285D01*
X199357142Y-55511904D01*
X199404761Y-55559523D01*
X199452380Y-55654761D01*
X199452380Y-55892857D01*
X199404761Y-55988095D01*
X199357142Y-56035714D01*
%TO.C,U1*%
X194288095Y-67532380D02*
X194288095Y-68341904D01*
X194335714Y-68437142D01*
X194383333Y-68484761D01*
X194478571Y-68532380D01*
X194669047Y-68532380D01*
X194764285Y-68484761D01*
X194811904Y-68437142D01*
X194859523Y-68341904D01*
X194859523Y-67532380D01*
X195859523Y-68532380D02*
X195288095Y-68532380D01*
X195573809Y-68532380D02*
X195573809Y-67532380D01*
X195478571Y-67675238D01*
X195383333Y-67770476D01*
X195288095Y-67818095D01*
%TO.C,SW1*%
X193666666Y-77654761D02*
X193809523Y-77702380D01*
X194047619Y-77702380D01*
X194142857Y-77654761D01*
X194190476Y-77607142D01*
X194238095Y-77511904D01*
X194238095Y-77416666D01*
X194190476Y-77321428D01*
X194142857Y-77273809D01*
X194047619Y-77226190D01*
X193857142Y-77178571D01*
X193761904Y-77130952D01*
X193714285Y-77083333D01*
X193666666Y-76988095D01*
X193666666Y-76892857D01*
X193714285Y-76797619D01*
X193761904Y-76750000D01*
X193857142Y-76702380D01*
X194095238Y-76702380D01*
X194238095Y-76750000D01*
X194571428Y-76702380D02*
X194809523Y-77702380D01*
X195000000Y-76988095D01*
X195190476Y-77702380D01*
X195428571Y-76702380D01*
X196333333Y-77702380D02*
X195761904Y-77702380D01*
X196047619Y-77702380D02*
X196047619Y-76702380D01*
X195952380Y-76845238D01*
X195857142Y-76940476D01*
X195761904Y-76988095D01*
%TO.C,D2*%
X191261904Y-51952380D02*
X191261904Y-50952380D01*
X191500000Y-50952380D01*
X191642857Y-51000000D01*
X191738095Y-51095238D01*
X191785714Y-51190476D01*
X191833333Y-51380952D01*
X191833333Y-51523809D01*
X191785714Y-51714285D01*
X191738095Y-51809523D01*
X191642857Y-51904761D01*
X191500000Y-51952380D01*
X191261904Y-51952380D01*
X192214285Y-51047619D02*
X192261904Y-51000000D01*
X192357142Y-50952380D01*
X192595238Y-50952380D01*
X192690476Y-51000000D01*
X192738095Y-51047619D01*
X192785714Y-51142857D01*
X192785714Y-51238095D01*
X192738095Y-51380952D01*
X192166666Y-51952380D01*
X192785714Y-51952380D01*
%TO.C,D1*%
X191261904Y-53952380D02*
X191261904Y-52952380D01*
X191500000Y-52952380D01*
X191642857Y-53000000D01*
X191738095Y-53095238D01*
X191785714Y-53190476D01*
X191833333Y-53380952D01*
X191833333Y-53523809D01*
X191785714Y-53714285D01*
X191738095Y-53809523D01*
X191642857Y-53904761D01*
X191500000Y-53952380D01*
X191261904Y-53952380D01*
X192785714Y-53952380D02*
X192214285Y-53952380D01*
X192500000Y-53952380D02*
X192500000Y-52952380D01*
X192404761Y-53095238D01*
X192309523Y-53190476D01*
X192214285Y-53238095D01*
%TO.C,U2*%
X192904761Y-90607142D02*
X192857142Y-90654761D01*
X192714285Y-90702380D01*
X192619047Y-90702380D01*
X192476190Y-90654761D01*
X192380952Y-90559523D01*
X192333333Y-90464285D01*
X192285714Y-90273809D01*
X192285714Y-90130952D01*
X192333333Y-89940476D01*
X192380952Y-89845238D01*
X192476190Y-89750000D01*
X192619047Y-89702380D01*
X192714285Y-89702380D01*
X192857142Y-89750000D01*
X192904761Y-89797619D01*
X193904761Y-90607142D02*
X193857142Y-90654761D01*
X193714285Y-90702380D01*
X193619047Y-90702380D01*
X193476190Y-90654761D01*
X193380952Y-90559523D01*
X193333333Y-90464285D01*
X193285714Y-90273809D01*
X193285714Y-90130952D01*
X193333333Y-89940476D01*
X193380952Y-89845238D01*
X193476190Y-89750000D01*
X193619047Y-89702380D01*
X193714285Y-89702380D01*
X193857142Y-89750000D01*
X193904761Y-89797619D01*
X194857142Y-90702380D02*
X194285714Y-90702380D01*
X194571428Y-90702380D02*
X194571428Y-89702380D01*
X194476190Y-89845238D01*
X194380952Y-89940476D01*
X194285714Y-89988095D01*
X195809523Y-90702380D02*
X195238095Y-90702380D01*
X195523809Y-90702380D02*
X195523809Y-89702380D01*
X195428571Y-89845238D01*
X195333333Y-89940476D01*
X195238095Y-89988095D01*
X196428571Y-89702380D02*
X196523809Y-89702380D01*
X196619047Y-89750000D01*
X196666666Y-89797619D01*
X196714285Y-89892857D01*
X196761904Y-90083333D01*
X196761904Y-90321428D01*
X196714285Y-90511904D01*
X196666666Y-90607142D01*
X196619047Y-90654761D01*
X196523809Y-90702380D01*
X196428571Y-90702380D01*
X196333333Y-90654761D01*
X196285714Y-90607142D01*
X196238095Y-90511904D01*
X196190476Y-90321428D01*
X196190476Y-90083333D01*
X196238095Y-89892857D01*
X196285714Y-89797619D01*
X196333333Y-89750000D01*
X196428571Y-89702380D01*
X197714285Y-90702380D02*
X197142857Y-90702380D01*
X197428571Y-90702380D02*
X197428571Y-89702380D01*
X197333333Y-89845238D01*
X197238095Y-89940476D01*
X197142857Y-89988095D01*
%TO.C,J2*%
X205666666Y-81952380D02*
X205666666Y-82666666D01*
X205619047Y-82809523D01*
X205523809Y-82904761D01*
X205380952Y-82952380D01*
X205285714Y-82952380D01*
X206095238Y-82047619D02*
X206142857Y-82000000D01*
X206238095Y-81952380D01*
X206476190Y-81952380D01*
X206571428Y-82000000D01*
X206619047Y-82047619D01*
X206666666Y-82142857D01*
X206666666Y-82238095D01*
X206619047Y-82380952D01*
X206047619Y-82952380D01*
X206666666Y-82952380D01*
%TO.C,J3*%
X180916666Y-86202380D02*
X180916666Y-86916666D01*
X180869047Y-87059523D01*
X180773809Y-87154761D01*
X180630952Y-87202380D01*
X180535714Y-87202380D01*
X181297619Y-86202380D02*
X181916666Y-86202380D01*
X181583333Y-86583333D01*
X181726190Y-86583333D01*
X181821428Y-86630952D01*
X181869047Y-86678571D01*
X181916666Y-86773809D01*
X181916666Y-87011904D01*
X181869047Y-87107142D01*
X181821428Y-87154761D01*
X181726190Y-87202380D01*
X181440476Y-87202380D01*
X181345238Y-87154761D01*
X181297619Y-87107142D01*
%TO.C,C8*%
X181333333Y-53107142D02*
X181285714Y-53154761D01*
X181142857Y-53202380D01*
X181047619Y-53202380D01*
X180904761Y-53154761D01*
X180809523Y-53059523D01*
X180761904Y-52964285D01*
X180714285Y-52773809D01*
X180714285Y-52630952D01*
X180761904Y-52440476D01*
X180809523Y-52345238D01*
X180904761Y-52250000D01*
X181047619Y-52202380D01*
X181142857Y-52202380D01*
X181285714Y-52250000D01*
X181333333Y-52297619D01*
X181904761Y-52630952D02*
X181809523Y-52583333D01*
X181761904Y-52535714D01*
X181714285Y-52440476D01*
X181714285Y-52392857D01*
X181761904Y-52297619D01*
X181809523Y-52250000D01*
X181904761Y-52202380D01*
X182095238Y-52202380D01*
X182190476Y-52250000D01*
X182238095Y-52297619D01*
X182285714Y-52392857D01*
X182285714Y-52440476D01*
X182238095Y-52535714D01*
X182190476Y-52583333D01*
X182095238Y-52630952D01*
X181904761Y-52630952D01*
X181809523Y-52678571D01*
X181761904Y-52726190D01*
X181714285Y-52821428D01*
X181714285Y-53011904D01*
X181761904Y-53107142D01*
X181809523Y-53154761D01*
X181904761Y-53202380D01*
X182095238Y-53202380D01*
X182190476Y-53154761D01*
X182238095Y-53107142D01*
X182285714Y-53011904D01*
X182285714Y-52821428D01*
X182238095Y-52726190D01*
X182190476Y-52678571D01*
X182095238Y-52630952D01*
%TO.C,C7*%
X211833333Y-87357142D02*
X211785714Y-87404761D01*
X211642857Y-87452380D01*
X211547619Y-87452380D01*
X211404761Y-87404761D01*
X211309523Y-87309523D01*
X211261904Y-87214285D01*
X211214285Y-87023809D01*
X211214285Y-86880952D01*
X211261904Y-86690476D01*
X211309523Y-86595238D01*
X211404761Y-86500000D01*
X211547619Y-86452380D01*
X211642857Y-86452380D01*
X211785714Y-86500000D01*
X211833333Y-86547619D01*
X212166666Y-86452380D02*
X212833333Y-86452380D01*
X212404761Y-87452380D01*
%TO.C,C6*%
X211833333Y-69357142D02*
X211785714Y-69404761D01*
X211642857Y-69452380D01*
X211547619Y-69452380D01*
X211404761Y-69404761D01*
X211309523Y-69309523D01*
X211261904Y-69214285D01*
X211214285Y-69023809D01*
X211214285Y-68880952D01*
X211261904Y-68690476D01*
X211309523Y-68595238D01*
X211404761Y-68500000D01*
X211547619Y-68452380D01*
X211642857Y-68452380D01*
X211785714Y-68500000D01*
X211833333Y-68547619D01*
X212690476Y-68452380D02*
X212500000Y-68452380D01*
X212404761Y-68500000D01*
X212357142Y-68547619D01*
X212261904Y-68690476D01*
X212214285Y-68880952D01*
X212214285Y-69261904D01*
X212261904Y-69357142D01*
X212309523Y-69404761D01*
X212404761Y-69452380D01*
X212595238Y-69452380D01*
X212690476Y-69404761D01*
X212738095Y-69357142D01*
X212785714Y-69261904D01*
X212785714Y-69023809D01*
X212738095Y-68928571D01*
X212690476Y-68880952D01*
X212595238Y-68833333D01*
X212404761Y-68833333D01*
X212309523Y-68880952D01*
X212261904Y-68928571D01*
X212214285Y-69023809D01*
%TO.C,C5*%
X209567142Y-53216666D02*
X209614761Y-53264285D01*
X209662380Y-53407142D01*
X209662380Y-53502380D01*
X209614761Y-53645238D01*
X209519523Y-53740476D01*
X209424285Y-53788095D01*
X209233809Y-53835714D01*
X209090952Y-53835714D01*
X208900476Y-53788095D01*
X208805238Y-53740476D01*
X208710000Y-53645238D01*
X208662380Y-53502380D01*
X208662380Y-53407142D01*
X208710000Y-53264285D01*
X208757619Y-53216666D01*
X208662380Y-52311904D02*
X208662380Y-52788095D01*
X209138571Y-52835714D01*
X209090952Y-52788095D01*
X209043333Y-52692857D01*
X209043333Y-52454761D01*
X209090952Y-52359523D01*
X209138571Y-52311904D01*
X209233809Y-52264285D01*
X209471904Y-52264285D01*
X209567142Y-52311904D01*
X209614761Y-52359523D01*
X209662380Y-52454761D01*
X209662380Y-52692857D01*
X209614761Y-52788095D01*
X209567142Y-52835714D01*
%TO.C,C4*%
X177833333Y-87357142D02*
X177785714Y-87404761D01*
X177642857Y-87452380D01*
X177547619Y-87452380D01*
X177404761Y-87404761D01*
X177309523Y-87309523D01*
X177261904Y-87214285D01*
X177214285Y-87023809D01*
X177214285Y-86880952D01*
X177261904Y-86690476D01*
X177309523Y-86595238D01*
X177404761Y-86500000D01*
X177547619Y-86452380D01*
X177642857Y-86452380D01*
X177785714Y-86500000D01*
X177833333Y-86547619D01*
X178690476Y-86785714D02*
X178690476Y-87452380D01*
X178452380Y-86404761D02*
X178214285Y-87119047D01*
X178833333Y-87119047D01*
%TO.C,C3*%
X177833333Y-69357142D02*
X177785714Y-69404761D01*
X177642857Y-69452380D01*
X177547619Y-69452380D01*
X177404761Y-69404761D01*
X177309523Y-69309523D01*
X177261904Y-69214285D01*
X177214285Y-69023809D01*
X177214285Y-68880952D01*
X177261904Y-68690476D01*
X177309523Y-68595238D01*
X177404761Y-68500000D01*
X177547619Y-68452380D01*
X177642857Y-68452380D01*
X177785714Y-68500000D01*
X177833333Y-68547619D01*
X178166666Y-68452380D02*
X178785714Y-68452380D01*
X178452380Y-68833333D01*
X178595238Y-68833333D01*
X178690476Y-68880952D01*
X178738095Y-68928571D01*
X178785714Y-69023809D01*
X178785714Y-69261904D01*
X178738095Y-69357142D01*
X178690476Y-69404761D01*
X178595238Y-69452380D01*
X178309523Y-69452380D01*
X178214285Y-69404761D01*
X178166666Y-69357142D01*
%TO.C,SW7*%
X217404761Y-94333333D02*
X217452380Y-94190476D01*
X217452380Y-93952380D01*
X217404761Y-93857142D01*
X217357142Y-93809523D01*
X217261904Y-93761904D01*
X217166666Y-93761904D01*
X217071428Y-93809523D01*
X217023809Y-93857142D01*
X216976190Y-93952380D01*
X216928571Y-94142857D01*
X216880952Y-94238095D01*
X216833333Y-94285714D01*
X216738095Y-94333333D01*
X216642857Y-94333333D01*
X216547619Y-94285714D01*
X216500000Y-94238095D01*
X216452380Y-94142857D01*
X216452380Y-93904761D01*
X216500000Y-93761904D01*
X216452380Y-93428571D02*
X217452380Y-93190476D01*
X216738095Y-93000000D01*
X217452380Y-92809523D01*
X216452380Y-92571428D01*
X216452380Y-92285714D02*
X216452380Y-91619047D01*
X217452380Y-92047619D01*
%TO.C,SW6*%
X217404761Y-76333333D02*
X217452380Y-76190476D01*
X217452380Y-75952380D01*
X217404761Y-75857142D01*
X217357142Y-75809523D01*
X217261904Y-75761904D01*
X217166666Y-75761904D01*
X217071428Y-75809523D01*
X217023809Y-75857142D01*
X216976190Y-75952380D01*
X216928571Y-76142857D01*
X216880952Y-76238095D01*
X216833333Y-76285714D01*
X216738095Y-76333333D01*
X216642857Y-76333333D01*
X216547619Y-76285714D01*
X216500000Y-76238095D01*
X216452380Y-76142857D01*
X216452380Y-75904761D01*
X216500000Y-75761904D01*
X216452380Y-75428571D02*
X217452380Y-75190476D01*
X216738095Y-75000000D01*
X217452380Y-74809523D01*
X216452380Y-74571428D01*
X216452380Y-73761904D02*
X216452380Y-73952380D01*
X216500000Y-74047619D01*
X216547619Y-74095238D01*
X216690476Y-74190476D01*
X216880952Y-74238095D01*
X217261904Y-74238095D01*
X217357142Y-74190476D01*
X217404761Y-74142857D01*
X217452380Y-74047619D01*
X217452380Y-73857142D01*
X217404761Y-73761904D01*
X217357142Y-73714285D01*
X217261904Y-73666666D01*
X217023809Y-73666666D01*
X216928571Y-73714285D01*
X216880952Y-73761904D01*
X216833333Y-73857142D01*
X216833333Y-74047619D01*
X216880952Y-74142857D01*
X216928571Y-74190476D01*
X217023809Y-74238095D01*
%TO.C,SW5*%
X217404761Y-58333333D02*
X217452380Y-58190476D01*
X217452380Y-57952380D01*
X217404761Y-57857142D01*
X217357142Y-57809523D01*
X217261904Y-57761904D01*
X217166666Y-57761904D01*
X217071428Y-57809523D01*
X217023809Y-57857142D01*
X216976190Y-57952380D01*
X216928571Y-58142857D01*
X216880952Y-58238095D01*
X216833333Y-58285714D01*
X216738095Y-58333333D01*
X216642857Y-58333333D01*
X216547619Y-58285714D01*
X216500000Y-58238095D01*
X216452380Y-58142857D01*
X216452380Y-57904761D01*
X216500000Y-57761904D01*
X216452380Y-57428571D02*
X217452380Y-57190476D01*
X216738095Y-57000000D01*
X217452380Y-56809523D01*
X216452380Y-56571428D01*
X216452380Y-55714285D02*
X216452380Y-56190476D01*
X216928571Y-56238095D01*
X216880952Y-56190476D01*
X216833333Y-56095238D01*
X216833333Y-55857142D01*
X216880952Y-55761904D01*
X216928571Y-55714285D01*
X217023809Y-55666666D01*
X217261904Y-55666666D01*
X217357142Y-55714285D01*
X217404761Y-55761904D01*
X217452380Y-55857142D01*
X217452380Y-56095238D01*
X217404761Y-56190476D01*
X217357142Y-56238095D01*
%TO.C,SW4*%
X173404761Y-94333333D02*
X173452380Y-94190476D01*
X173452380Y-93952380D01*
X173404761Y-93857142D01*
X173357142Y-93809523D01*
X173261904Y-93761904D01*
X173166666Y-93761904D01*
X173071428Y-93809523D01*
X173023809Y-93857142D01*
X172976190Y-93952380D01*
X172928571Y-94142857D01*
X172880952Y-94238095D01*
X172833333Y-94285714D01*
X172738095Y-94333333D01*
X172642857Y-94333333D01*
X172547619Y-94285714D01*
X172500000Y-94238095D01*
X172452380Y-94142857D01*
X172452380Y-93904761D01*
X172500000Y-93761904D01*
X172452380Y-93428571D02*
X173452380Y-93190476D01*
X172738095Y-93000000D01*
X173452380Y-92809523D01*
X172452380Y-92571428D01*
X172785714Y-91761904D02*
X173452380Y-91761904D01*
X172404761Y-92000000D02*
X173119047Y-92238095D01*
X173119047Y-91619047D01*
%TO.C,SW3*%
X173404761Y-76333333D02*
X173452380Y-76190476D01*
X173452380Y-75952380D01*
X173404761Y-75857142D01*
X173357142Y-75809523D01*
X173261904Y-75761904D01*
X173166666Y-75761904D01*
X173071428Y-75809523D01*
X173023809Y-75857142D01*
X172976190Y-75952380D01*
X172928571Y-76142857D01*
X172880952Y-76238095D01*
X172833333Y-76285714D01*
X172738095Y-76333333D01*
X172642857Y-76333333D01*
X172547619Y-76285714D01*
X172500000Y-76238095D01*
X172452380Y-76142857D01*
X172452380Y-75904761D01*
X172500000Y-75761904D01*
X172452380Y-75428571D02*
X173452380Y-75190476D01*
X172738095Y-75000000D01*
X173452380Y-74809523D01*
X172452380Y-74571428D01*
X172452380Y-74285714D02*
X172452380Y-73666666D01*
X172833333Y-74000000D01*
X172833333Y-73857142D01*
X172880952Y-73761904D01*
X172928571Y-73714285D01*
X173023809Y-73666666D01*
X173261904Y-73666666D01*
X173357142Y-73714285D01*
X173404761Y-73761904D01*
X173452380Y-73857142D01*
X173452380Y-74142857D01*
X173404761Y-74238095D01*
X173357142Y-74285714D01*
%TO.C,SW2*%
X173404761Y-58333333D02*
X173452380Y-58190476D01*
X173452380Y-57952380D01*
X173404761Y-57857142D01*
X173357142Y-57809523D01*
X173261904Y-57761904D01*
X173166666Y-57761904D01*
X173071428Y-57809523D01*
X173023809Y-57857142D01*
X172976190Y-57952380D01*
X172928571Y-58142857D01*
X172880952Y-58238095D01*
X172833333Y-58285714D01*
X172738095Y-58333333D01*
X172642857Y-58333333D01*
X172547619Y-58285714D01*
X172500000Y-58238095D01*
X172452380Y-58142857D01*
X172452380Y-57904761D01*
X172500000Y-57761904D01*
X172452380Y-57428571D02*
X173452380Y-57190476D01*
X172738095Y-57000000D01*
X173452380Y-56809523D01*
X172452380Y-56571428D01*
X172547619Y-56238095D02*
X172500000Y-56190476D01*
X172452380Y-56095238D01*
X172452380Y-55857142D01*
X172500000Y-55761904D01*
X172547619Y-55714285D01*
X172642857Y-55666666D01*
X172738095Y-55666666D01*
X172880952Y-55714285D01*
X173452380Y-56285714D01*
X173452380Y-55666666D01*
%TO.C,R4*%
X186833333Y-78621152D02*
X186500000Y-78144962D01*
X186261904Y-78621152D02*
X186261904Y-77621152D01*
X186642857Y-77621152D01*
X186738095Y-77668772D01*
X186785714Y-77716391D01*
X186833333Y-77811629D01*
X186833333Y-77954486D01*
X186785714Y-78049724D01*
X186738095Y-78097343D01*
X186642857Y-78144962D01*
X186261904Y-78144962D01*
X187690476Y-77954486D02*
X187690476Y-78621152D01*
X187452380Y-77573533D02*
X187214285Y-78287819D01*
X187833333Y-78287819D01*
%TO.C,R3*%
X182702380Y-77666666D02*
X182226190Y-78000000D01*
X182702380Y-78238095D02*
X181702380Y-78238095D01*
X181702380Y-77857142D01*
X181750000Y-77761904D01*
X181797619Y-77714285D01*
X181892857Y-77666666D01*
X182035714Y-77666666D01*
X182130952Y-77714285D01*
X182178571Y-77761904D01*
X182226190Y-77857142D01*
X182226190Y-78238095D01*
X181702380Y-77333333D02*
X181702380Y-76714285D01*
X182083333Y-77047619D01*
X182083333Y-76904761D01*
X182130952Y-76809523D01*
X182178571Y-76761904D01*
X182273809Y-76714285D01*
X182511904Y-76714285D01*
X182607142Y-76761904D01*
X182654761Y-76809523D01*
X182702380Y-76904761D01*
X182702380Y-77190476D01*
X182654761Y-77285714D01*
X182607142Y-77333333D01*
%TO.C,R2*%
X202333333Y-51952380D02*
X202000000Y-51476190D01*
X201761904Y-51952380D02*
X201761904Y-50952380D01*
X202142857Y-50952380D01*
X202238095Y-51000000D01*
X202285714Y-51047619D01*
X202333333Y-51142857D01*
X202333333Y-51285714D01*
X202285714Y-51380952D01*
X202238095Y-51428571D01*
X202142857Y-51476190D01*
X201761904Y-51476190D01*
X202714285Y-51047619D02*
X202761904Y-51000000D01*
X202857142Y-50952380D01*
X203095238Y-50952380D01*
X203190476Y-51000000D01*
X203238095Y-51047619D01*
X203285714Y-51142857D01*
X203285714Y-51238095D01*
X203238095Y-51380952D01*
X202666666Y-51952380D01*
X203285714Y-51952380D01*
%TO.C,R1*%
X202333333Y-53952380D02*
X202000000Y-53476190D01*
X201761904Y-53952380D02*
X201761904Y-52952380D01*
X202142857Y-52952380D01*
X202238095Y-53000000D01*
X202285714Y-53047619D01*
X202333333Y-53142857D01*
X202333333Y-53285714D01*
X202285714Y-53380952D01*
X202238095Y-53428571D01*
X202142857Y-53476190D01*
X201761904Y-53476190D01*
X203285714Y-53952380D02*
X202714285Y-53952380D01*
X203000000Y-53952380D02*
X203000000Y-52952380D01*
X202904761Y-53095238D01*
X202809523Y-53190476D01*
X202714285Y-53238095D01*
%TO.C,D8*%
X209452380Y-93738095D02*
X208452380Y-93738095D01*
X208452380Y-93500000D01*
X208500000Y-93357142D01*
X208595238Y-93261904D01*
X208690476Y-93214285D01*
X208880952Y-93166666D01*
X209023809Y-93166666D01*
X209214285Y-93214285D01*
X209309523Y-93261904D01*
X209404761Y-93357142D01*
X209452380Y-93500000D01*
X209452380Y-93738095D01*
X208880952Y-92595238D02*
X208833333Y-92690476D01*
X208785714Y-92738095D01*
X208690476Y-92785714D01*
X208642857Y-92785714D01*
X208547619Y-92738095D01*
X208500000Y-92690476D01*
X208452380Y-92595238D01*
X208452380Y-92404761D01*
X208500000Y-92309523D01*
X208547619Y-92261904D01*
X208642857Y-92214285D01*
X208690476Y-92214285D01*
X208785714Y-92261904D01*
X208833333Y-92309523D01*
X208880952Y-92404761D01*
X208880952Y-92595238D01*
X208928571Y-92690476D01*
X208976190Y-92738095D01*
X209071428Y-92785714D01*
X209261904Y-92785714D01*
X209357142Y-92738095D01*
X209404761Y-92690476D01*
X209452380Y-92595238D01*
X209452380Y-92404761D01*
X209404761Y-92309523D01*
X209357142Y-92261904D01*
X209261904Y-92214285D01*
X209071428Y-92214285D01*
X208976190Y-92261904D01*
X208928571Y-92309523D01*
X208880952Y-92404761D01*
X211577380Y-96214285D02*
X211577380Y-96785714D01*
X211577380Y-96500000D02*
X210577380Y-96500000D01*
X210720238Y-96595238D01*
X210815476Y-96690476D01*
X210863095Y-96785714D01*
%TO.C,D5*%
X181452380Y-93738095D02*
X180452380Y-93738095D01*
X180452380Y-93500000D01*
X180500000Y-93357142D01*
X180595238Y-93261904D01*
X180690476Y-93214285D01*
X180880952Y-93166666D01*
X181023809Y-93166666D01*
X181214285Y-93214285D01*
X181309523Y-93261904D01*
X181404761Y-93357142D01*
X181452380Y-93500000D01*
X181452380Y-93738095D01*
X180452380Y-92261904D02*
X180452380Y-92738095D01*
X180928571Y-92785714D01*
X180880952Y-92738095D01*
X180833333Y-92642857D01*
X180833333Y-92404761D01*
X180880952Y-92309523D01*
X180928571Y-92261904D01*
X181023809Y-92214285D01*
X181261904Y-92214285D01*
X181357142Y-92261904D01*
X181404761Y-92309523D01*
X181452380Y-92404761D01*
X181452380Y-92642857D01*
X181404761Y-92738095D01*
X181357142Y-92785714D01*
X177577380Y-96214285D02*
X177577380Y-96785714D01*
X177577380Y-96500000D02*
X176577380Y-96500000D01*
X176720238Y-96595238D01*
X176815476Y-96690476D01*
X176863095Y-96785714D01*
%TO.C,D7*%
X209452380Y-75738095D02*
X208452380Y-75738095D01*
X208452380Y-75500000D01*
X208500000Y-75357142D01*
X208595238Y-75261904D01*
X208690476Y-75214285D01*
X208880952Y-75166666D01*
X209023809Y-75166666D01*
X209214285Y-75214285D01*
X209309523Y-75261904D01*
X209404761Y-75357142D01*
X209452380Y-75500000D01*
X209452380Y-75738095D01*
X208452380Y-74833333D02*
X208452380Y-74166666D01*
X209452380Y-74595238D01*
X211577380Y-78214285D02*
X211577380Y-78785714D01*
X211577380Y-78500000D02*
X210577380Y-78500000D01*
X210720238Y-78595238D01*
X210815476Y-78690476D01*
X210863095Y-78785714D01*
%TO.C,D4*%
X181452380Y-75738095D02*
X180452380Y-75738095D01*
X180452380Y-75500000D01*
X180500000Y-75357142D01*
X180595238Y-75261904D01*
X180690476Y-75214285D01*
X180880952Y-75166666D01*
X181023809Y-75166666D01*
X181214285Y-75214285D01*
X181309523Y-75261904D01*
X181404761Y-75357142D01*
X181452380Y-75500000D01*
X181452380Y-75738095D01*
X180785714Y-74309523D02*
X181452380Y-74309523D01*
X180404761Y-74547619D02*
X181119047Y-74785714D01*
X181119047Y-74166666D01*
X177577380Y-78214285D02*
X177577380Y-78785714D01*
X177577380Y-78500000D02*
X176577380Y-78500000D01*
X176720238Y-78595238D01*
X176815476Y-78690476D01*
X176863095Y-78785714D01*
%TO.C,D6*%
X209452380Y-57738095D02*
X208452380Y-57738095D01*
X208452380Y-57500000D01*
X208500000Y-57357142D01*
X208595238Y-57261904D01*
X208690476Y-57214285D01*
X208880952Y-57166666D01*
X209023809Y-57166666D01*
X209214285Y-57214285D01*
X209309523Y-57261904D01*
X209404761Y-57357142D01*
X209452380Y-57500000D01*
X209452380Y-57738095D01*
X208452380Y-56309523D02*
X208452380Y-56500000D01*
X208500000Y-56595238D01*
X208547619Y-56642857D01*
X208690476Y-56738095D01*
X208880952Y-56785714D01*
X209261904Y-56785714D01*
X209357142Y-56738095D01*
X209404761Y-56690476D01*
X209452380Y-56595238D01*
X209452380Y-56404761D01*
X209404761Y-56309523D01*
X209357142Y-56261904D01*
X209261904Y-56214285D01*
X209023809Y-56214285D01*
X208928571Y-56261904D01*
X208880952Y-56309523D01*
X208833333Y-56404761D01*
X208833333Y-56595238D01*
X208880952Y-56690476D01*
X208928571Y-56738095D01*
X209023809Y-56785714D01*
X211577380Y-60214285D02*
X211577380Y-60785714D01*
X211577380Y-60500000D02*
X210577380Y-60500000D01*
X210720238Y-60595238D01*
X210815476Y-60690476D01*
X210863095Y-60785714D01*
%TO.C,D3*%
X181452380Y-57738095D02*
X180452380Y-57738095D01*
X180452380Y-57500000D01*
X180500000Y-57357142D01*
X180595238Y-57261904D01*
X180690476Y-57214285D01*
X180880952Y-57166666D01*
X181023809Y-57166666D01*
X181214285Y-57214285D01*
X181309523Y-57261904D01*
X181404761Y-57357142D01*
X181452380Y-57500000D01*
X181452380Y-57738095D01*
X180452380Y-56833333D02*
X180452380Y-56214285D01*
X180833333Y-56547619D01*
X180833333Y-56404761D01*
X180880952Y-56309523D01*
X180928571Y-56261904D01*
X181023809Y-56214285D01*
X181261904Y-56214285D01*
X181357142Y-56261904D01*
X181404761Y-56309523D01*
X181452380Y-56404761D01*
X181452380Y-56690476D01*
X181404761Y-56785714D01*
X181357142Y-56833333D01*
X177577380Y-60214285D02*
X177577380Y-60785714D01*
X177577380Y-60500000D02*
X176577380Y-60500000D01*
X176720238Y-60595238D01*
X176815476Y-60690476D01*
X176863095Y-60785714D01*
%TO.C,C2*%
X194057142Y-56366666D02*
X194104761Y-56414285D01*
X194152380Y-56557142D01*
X194152380Y-56652380D01*
X194104761Y-56795238D01*
X194009523Y-56890476D01*
X193914285Y-56938095D01*
X193723809Y-56985714D01*
X193580952Y-56985714D01*
X193390476Y-56938095D01*
X193295238Y-56890476D01*
X193200000Y-56795238D01*
X193152380Y-56652380D01*
X193152380Y-56557142D01*
X193200000Y-56414285D01*
X193247619Y-56366666D01*
X193247619Y-55985714D02*
X193200000Y-55938095D01*
X193152380Y-55842857D01*
X193152380Y-55604761D01*
X193200000Y-55509523D01*
X193247619Y-55461904D01*
X193342857Y-55414285D01*
X193438095Y-55414285D01*
X193580952Y-55461904D01*
X194152380Y-56033333D01*
X194152380Y-55414285D01*
%TO.C,C1*%
X182677142Y-81879166D02*
X182724761Y-81926785D01*
X182772380Y-82069642D01*
X182772380Y-82164880D01*
X182724761Y-82307738D01*
X182629523Y-82402976D01*
X182534285Y-82450595D01*
X182343809Y-82498214D01*
X182200952Y-82498214D01*
X182010476Y-82450595D01*
X181915238Y-82402976D01*
X181820000Y-82307738D01*
X181772380Y-82164880D01*
X181772380Y-82069642D01*
X181820000Y-81926785D01*
X181867619Y-81879166D01*
X182772380Y-80926785D02*
X182772380Y-81498214D01*
X182772380Y-81212500D02*
X181772380Y-81212500D01*
X181915238Y-81307738D01*
X182010476Y-81402976D01*
X182058095Y-81498214D01*
%TD*%
M02*
