%TF.GenerationSoftware,KiCad,Pcbnew,(5.1.9)-1*%
%TF.CreationDate,2021-04-07T03:10:53+02:00*%
%TF.ProjectId,HB-RC-6-PBU-LED,48422d52-432d-4362-9d50-42552d4c4544,rev?*%
%TF.SameCoordinates,Original*%
%TF.FileFunction,Copper,L1,Top*%
%TF.FilePolarity,Positive*%
%FSLAX46Y46*%
G04 Gerber Fmt 4.6, Leading zero omitted, Abs format (unit mm)*
G04 Created by KiCad (PCBNEW (5.1.9)-1) date 2021-04-07 03:10:53*
%MOMM*%
%LPD*%
G01*
G04 APERTURE LIST*
%TA.AperFunction,SMDPad,CuDef*%
%ADD10R,1.500000X0.550000*%
%TD*%
%TA.AperFunction,SMDPad,CuDef*%
%ADD11R,0.550000X1.500000*%
%TD*%
%TA.AperFunction,SMDPad,CuDef*%
%ADD12R,2.180000X1.600000*%
%TD*%
%TA.AperFunction,ComponentPad*%
%ADD13O,1.270000X1.270000*%
%TD*%
%TA.AperFunction,ComponentPad*%
%ADD14C,1.270000*%
%TD*%
%TA.AperFunction,WasherPad*%
%ADD15C,3.300000*%
%TD*%
%TA.AperFunction,SMDPad,CuDef*%
%ADD16R,1.200000X2.000000*%
%TD*%
%TA.AperFunction,ComponentPad*%
%ADD17O,1.700000X1.700000*%
%TD*%
%TA.AperFunction,ComponentPad*%
%ADD18R,1.700000X1.700000*%
%TD*%
%TA.AperFunction,SMDPad,CuDef*%
%ADD19R,1.060000X0.650000*%
%TD*%
%TA.AperFunction,SMDPad,CuDef*%
%ADD20R,1.600000X2.180000*%
%TD*%
%TA.AperFunction,SMDPad,CuDef*%
%ADD21R,0.850000X1.600000*%
%TD*%
%TA.AperFunction,ViaPad*%
%ADD22C,0.600000*%
%TD*%
%TA.AperFunction,Conductor*%
%ADD23C,0.250000*%
%TD*%
%TA.AperFunction,Conductor*%
%ADD24C,0.254000*%
%TD*%
%TA.AperFunction,Conductor*%
%ADD25C,0.100000*%
%TD*%
G04 APERTURE END LIST*
D10*
%TO.P,U1,44*%
%TO.N,/CC_CSN*%
X189300000Y-72010000D03*
%TO.P,U1,43*%
%TO.N,Net-(U1-Pad43)*%
X189300000Y-71210000D03*
%TO.P,U1,42*%
%TO.N,Net-(U1-Pad42)*%
X189300000Y-70410000D03*
%TO.P,U1,41*%
%TO.N,Net-(SW1-Pad2)*%
X189300000Y-69610000D03*
%TO.P,U1,40*%
%TO.N,Net-(U1-Pad40)*%
X189300000Y-68810000D03*
%TO.P,U1,39*%
%TO.N,GND*%
X189300000Y-68010000D03*
%TO.P,U1,38*%
%TO.N,+3V3*%
X189300000Y-67210000D03*
%TO.P,U1,37*%
%TO.N,/BTN3*%
X189300000Y-66410000D03*
%TO.P,U1,36*%
%TO.N,/BTN2*%
X189300000Y-65610000D03*
%TO.P,U1,35*%
%TO.N,/BTN1*%
X189300000Y-64810000D03*
%TO.P,U1,34*%
%TO.N,/BTN4*%
X189300000Y-64010000D03*
D11*
%TO.P,U1,33*%
%TO.N,/BTN5*%
X191000000Y-62310000D03*
%TO.P,U1,32*%
%TO.N,/BTN6*%
X191800000Y-62310000D03*
%TO.P,U1,31*%
%TO.N,Net-(U1-Pad31)*%
X192600000Y-62310000D03*
%TO.P,U1,30*%
%TO.N,Net-(U1-Pad30)*%
X193400000Y-62310000D03*
%TO.P,U1,29*%
%TO.N,Net-(C7-Pad1)*%
X194200000Y-62310000D03*
%TO.P,U1,28*%
%TO.N,GND*%
X195000000Y-62310000D03*
%TO.P,U1,27*%
%TO.N,+3V3*%
X195800000Y-62310000D03*
%TO.P,U1,26*%
%TO.N,Net-(U1-Pad26)*%
X196600000Y-62310000D03*
%TO.P,U1,25*%
%TO.N,Net-(U1-Pad25)*%
X197400000Y-62310000D03*
%TO.P,U1,24*%
%TO.N,Net-(U1-Pad24)*%
X198200000Y-62310000D03*
%TO.P,U1,23*%
%TO.N,Net-(U1-Pad23)*%
X199000000Y-62310000D03*
D10*
%TO.P,U1,22*%
%TO.N,Net-(R1-Pad1)*%
X200700000Y-64010000D03*
%TO.P,U1,21*%
%TO.N,Net-(R2-Pad1)*%
X200700000Y-64810000D03*
%TO.P,U1,20*%
%TO.N,Net-(U1-Pad20)*%
X200700000Y-65610000D03*
%TO.P,U1,19*%
%TO.N,Net-(U1-Pad19)*%
X200700000Y-66410000D03*
%TO.P,U1,18*%
%TO.N,GND*%
X200700000Y-67210000D03*
%TO.P,U1,17*%
%TO.N,+3V3*%
X200700000Y-68010000D03*
%TO.P,U1,16*%
%TO.N,Net-(U1-Pad16)*%
X200700000Y-68810000D03*
%TO.P,U1,15*%
%TO.N,Net-(U1-Pad15)*%
X200700000Y-69610000D03*
%TO.P,U1,14*%
%TO.N,/WS2812B_LED_3V3_Lvl*%
X200700000Y-70410000D03*
%TO.P,U1,13*%
%TO.N,Net-(U1-Pad13)*%
X200700000Y-71210000D03*
%TO.P,U1,12*%
%TO.N,Net-(U1-Pad12)*%
X200700000Y-72010000D03*
D11*
%TO.P,U1,11*%
%TO.N,/GDO0*%
X199000000Y-73710000D03*
%TO.P,U1,10*%
%TO.N,/RX*%
X198200000Y-73710000D03*
%TO.P,U1,9*%
%TO.N,/TX*%
X197400000Y-73710000D03*
%TO.P,U1,8*%
%TO.N,Net-(U1-Pad8)*%
X196600000Y-73710000D03*
%TO.P,U1,7*%
%TO.N,Net-(U1-Pad7)*%
X195800000Y-73710000D03*
%TO.P,U1,6*%
%TO.N,GND*%
X195000000Y-73710000D03*
%TO.P,U1,5*%
%TO.N,+3V3*%
X194200000Y-73710000D03*
%TO.P,U1,4*%
%TO.N,/RESET*%
X193400000Y-73710000D03*
%TO.P,U1,3*%
%TO.N,/SCK*%
X192600000Y-73710000D03*
%TO.P,U1,2*%
%TO.N,/MISO*%
X191800000Y-73710000D03*
%TO.P,U1,1*%
%TO.N,/MOSI*%
X191000000Y-73710000D03*
%TD*%
D12*
%TO.P,SW1,2*%
%TO.N,Net-(SW1-Pad2)*%
X190410000Y-77250000D03*
%TO.P,SW1,1*%
%TO.N,GND*%
X199590000Y-77250000D03*
%TD*%
%TO.P,D2,2*%
%TO.N,Net-(D2-Pad2)*%
%TA.AperFunction,SMDPad,CuDef*%
G36*
G01*
X195475000Y-51950001D02*
X195475000Y-51049999D01*
G75*
G02*
X195724999Y-50800000I249999J0D01*
G01*
X196375001Y-50800000D01*
G75*
G02*
X196625000Y-51049999I0J-249999D01*
G01*
X196625000Y-51950001D01*
G75*
G02*
X196375001Y-52200000I-249999J0D01*
G01*
X195724999Y-52200000D01*
G75*
G02*
X195475000Y-51950001I0J249999D01*
G01*
G37*
%TD.AperFunction*%
%TO.P,D2,1*%
%TO.N,GND*%
%TA.AperFunction,SMDPad,CuDef*%
G36*
G01*
X193425000Y-51950001D02*
X193425000Y-51049999D01*
G75*
G02*
X193674999Y-50800000I249999J0D01*
G01*
X194325001Y-50800000D01*
G75*
G02*
X194575000Y-51049999I0J-249999D01*
G01*
X194575000Y-51950001D01*
G75*
G02*
X194325001Y-52200000I-249999J0D01*
G01*
X193674999Y-52200000D01*
G75*
G02*
X193425000Y-51950001I0J249999D01*
G01*
G37*
%TD.AperFunction*%
%TD*%
%TO.P,D1,2*%
%TO.N,Net-(D1-Pad2)*%
%TA.AperFunction,SMDPad,CuDef*%
G36*
G01*
X195475000Y-53950001D02*
X195475000Y-53049999D01*
G75*
G02*
X195724999Y-52800000I249999J0D01*
G01*
X196375001Y-52800000D01*
G75*
G02*
X196625000Y-53049999I0J-249999D01*
G01*
X196625000Y-53950001D01*
G75*
G02*
X196375001Y-54200000I-249999J0D01*
G01*
X195724999Y-54200000D01*
G75*
G02*
X195475000Y-53950001I0J249999D01*
G01*
G37*
%TD.AperFunction*%
%TO.P,D1,1*%
%TO.N,GND*%
%TA.AperFunction,SMDPad,CuDef*%
G36*
G01*
X193425000Y-53950001D02*
X193425000Y-53049999D01*
G75*
G02*
X193674999Y-52800000I249999J0D01*
G01*
X194325001Y-52800000D01*
G75*
G02*
X194575000Y-53049999I0J-249999D01*
G01*
X194575000Y-53950001D01*
G75*
G02*
X194325001Y-54200000I-249999J0D01*
G01*
X193674999Y-54200000D01*
G75*
G02*
X193425000Y-53950001I0J249999D01*
G01*
G37*
%TD.AperFunction*%
%TD*%
D13*
%TO.P,IC1,1*%
%TO.N,+3V3*%
X202000000Y-82000000D03*
%TO.P,IC1,2*%
%TO.N,GND*%
X200000000Y-82000000D03*
D14*
%TO.P,IC1,3*%
%TO.N,/MOSI*%
X198000000Y-82000000D03*
%TO.P,IC1,4*%
%TO.N,/SCK*%
X196000000Y-82000000D03*
%TO.P,IC1,5*%
%TO.N,/MISO*%
X194000000Y-82000000D03*
%TO.P,IC1,6*%
%TO.N,Net-(IC1-Pad6)*%
X192000000Y-82000000D03*
%TO.P,IC1,7*%
%TO.N,/GDO0*%
X190000000Y-82000000D03*
%TO.P,IC1,8*%
%TO.N,/CC_CSN*%
X188000000Y-82000000D03*
D15*
%TO.P,IC1,*%
%TO.N,*%
X193984000Y-99526000D03*
D16*
%TO.P,IC1,1*%
%TO.N,+3V3*%
X202000000Y-81000000D03*
%TO.P,IC1,2*%
%TO.N,GND*%
X200000000Y-81000000D03*
%TO.P,IC1,3*%
%TO.N,/MOSI*%
X198000000Y-81000000D03*
%TO.P,IC1,4*%
%TO.N,/SCK*%
X196000000Y-81000000D03*
%TO.P,IC1,5*%
%TO.N,/MISO*%
X194000000Y-81000000D03*
%TO.P,IC1,6*%
%TO.N,Net-(IC1-Pad6)*%
X192000000Y-81000000D03*
%TO.P,IC1,7*%
%TO.N,/GDO0*%
X190000000Y-81000000D03*
%TO.P,IC1,8*%
%TO.N,/CC_CSN*%
X188000000Y-81000000D03*
%TD*%
D17*
%TO.P,J2,6*%
%TO.N,/RESET*%
X206000000Y-85480000D03*
%TO.P,J2,5*%
%TO.N,/MISO*%
X206000000Y-88020000D03*
%TO.P,J2,4*%
%TO.N,/SCK*%
X206000000Y-90560000D03*
%TO.P,J2,3*%
%TO.N,/MOSI*%
X206000000Y-93100000D03*
%TO.P,J2,2*%
%TO.N,GND*%
X206000000Y-95640000D03*
D18*
%TO.P,J2,1*%
%TO.N,+3V3*%
X206000000Y-98180000D03*
%TD*%
D17*
%TO.P,J3,6*%
%TO.N,GND*%
X184000000Y-98200000D03*
%TO.P,J3,5*%
X184000000Y-95660000D03*
D18*
%TO.P,J3,4*%
%TO.N,+3V3*%
X184000000Y-93120000D03*
D17*
%TO.P,J3,3*%
%TO.N,/RX*%
X184000000Y-90580000D03*
%TO.P,J3,2*%
%TO.N,/TX*%
X184000000Y-88040000D03*
%TO.P,J3,1*%
%TO.N,/DTR*%
X184000000Y-85500000D03*
%TD*%
%TO.P,C13,2*%
%TO.N,+5V*%
%TA.AperFunction,SMDPad,CuDef*%
G36*
G01*
X177550000Y-52275000D02*
X177550000Y-53225000D01*
G75*
G02*
X177300000Y-53475000I-250000J0D01*
G01*
X176625000Y-53475000D01*
G75*
G02*
X176375000Y-53225000I0J250000D01*
G01*
X176375000Y-52275000D01*
G75*
G02*
X176625000Y-52025000I250000J0D01*
G01*
X177300000Y-52025000D01*
G75*
G02*
X177550000Y-52275000I0J-250000D01*
G01*
G37*
%TD.AperFunction*%
%TO.P,C13,1*%
%TO.N,GND*%
%TA.AperFunction,SMDPad,CuDef*%
G36*
G01*
X179625000Y-52275000D02*
X179625000Y-53225000D01*
G75*
G02*
X179375000Y-53475000I-250000J0D01*
G01*
X178700000Y-53475000D01*
G75*
G02*
X178450000Y-53225000I0J250000D01*
G01*
X178450000Y-52275000D01*
G75*
G02*
X178700000Y-52025000I250000J0D01*
G01*
X179375000Y-52025000D01*
G75*
G02*
X179625000Y-52275000I0J-250000D01*
G01*
G37*
%TD.AperFunction*%
%TD*%
%TO.P,C12,2*%
%TO.N,+5V*%
%TA.AperFunction,SMDPad,CuDef*%
G36*
G01*
X211550000Y-88275000D02*
X211550000Y-89225000D01*
G75*
G02*
X211300000Y-89475000I-250000J0D01*
G01*
X210625000Y-89475000D01*
G75*
G02*
X210375000Y-89225000I0J250000D01*
G01*
X210375000Y-88275000D01*
G75*
G02*
X210625000Y-88025000I250000J0D01*
G01*
X211300000Y-88025000D01*
G75*
G02*
X211550000Y-88275000I0J-250000D01*
G01*
G37*
%TD.AperFunction*%
%TO.P,C12,1*%
%TO.N,GND*%
%TA.AperFunction,SMDPad,CuDef*%
G36*
G01*
X213625000Y-88275000D02*
X213625000Y-89225000D01*
G75*
G02*
X213375000Y-89475000I-250000J0D01*
G01*
X212700000Y-89475000D01*
G75*
G02*
X212450000Y-89225000I0J250000D01*
G01*
X212450000Y-88275000D01*
G75*
G02*
X212700000Y-88025000I250000J0D01*
G01*
X213375000Y-88025000D01*
G75*
G02*
X213625000Y-88275000I0J-250000D01*
G01*
G37*
%TD.AperFunction*%
%TD*%
%TO.P,C11,2*%
%TO.N,+5V*%
%TA.AperFunction,SMDPad,CuDef*%
G36*
G01*
X211550000Y-70275000D02*
X211550000Y-71225000D01*
G75*
G02*
X211300000Y-71475000I-250000J0D01*
G01*
X210625000Y-71475000D01*
G75*
G02*
X210375000Y-71225000I0J250000D01*
G01*
X210375000Y-70275000D01*
G75*
G02*
X210625000Y-70025000I250000J0D01*
G01*
X211300000Y-70025000D01*
G75*
G02*
X211550000Y-70275000I0J-250000D01*
G01*
G37*
%TD.AperFunction*%
%TO.P,C11,1*%
%TO.N,GND*%
%TA.AperFunction,SMDPad,CuDef*%
G36*
G01*
X213625000Y-70275000D02*
X213625000Y-71225000D01*
G75*
G02*
X213375000Y-71475000I-250000J0D01*
G01*
X212700000Y-71475000D01*
G75*
G02*
X212450000Y-71225000I0J250000D01*
G01*
X212450000Y-70275000D01*
G75*
G02*
X212700000Y-70025000I250000J0D01*
G01*
X213375000Y-70025000D01*
G75*
G02*
X213625000Y-70275000I0J-250000D01*
G01*
G37*
%TD.AperFunction*%
%TD*%
%TO.P,C10,2*%
%TO.N,+5V*%
%TA.AperFunction,SMDPad,CuDef*%
G36*
G01*
X211650000Y-52255000D02*
X211650000Y-53205000D01*
G75*
G02*
X211400000Y-53455000I-250000J0D01*
G01*
X210725000Y-53455000D01*
G75*
G02*
X210475000Y-53205000I0J250000D01*
G01*
X210475000Y-52255000D01*
G75*
G02*
X210725000Y-52005000I250000J0D01*
G01*
X211400000Y-52005000D01*
G75*
G02*
X211650000Y-52255000I0J-250000D01*
G01*
G37*
%TD.AperFunction*%
%TO.P,C10,1*%
%TO.N,GND*%
%TA.AperFunction,SMDPad,CuDef*%
G36*
G01*
X213725000Y-52255000D02*
X213725000Y-53205000D01*
G75*
G02*
X213475000Y-53455000I-250000J0D01*
G01*
X212800000Y-53455000D01*
G75*
G02*
X212550000Y-53205000I0J250000D01*
G01*
X212550000Y-52255000D01*
G75*
G02*
X212800000Y-52005000I250000J0D01*
G01*
X213475000Y-52005000D01*
G75*
G02*
X213725000Y-52255000I0J-250000D01*
G01*
G37*
%TD.AperFunction*%
%TD*%
%TO.P,C9,2*%
%TO.N,+5V*%
%TA.AperFunction,SMDPad,CuDef*%
G36*
G01*
X177550000Y-88275000D02*
X177550000Y-89225000D01*
G75*
G02*
X177300000Y-89475000I-250000J0D01*
G01*
X176625000Y-89475000D01*
G75*
G02*
X176375000Y-89225000I0J250000D01*
G01*
X176375000Y-88275000D01*
G75*
G02*
X176625000Y-88025000I250000J0D01*
G01*
X177300000Y-88025000D01*
G75*
G02*
X177550000Y-88275000I0J-250000D01*
G01*
G37*
%TD.AperFunction*%
%TO.P,C9,1*%
%TO.N,GND*%
%TA.AperFunction,SMDPad,CuDef*%
G36*
G01*
X179625000Y-88275000D02*
X179625000Y-89225000D01*
G75*
G02*
X179375000Y-89475000I-250000J0D01*
G01*
X178700000Y-89475000D01*
G75*
G02*
X178450000Y-89225000I0J250000D01*
G01*
X178450000Y-88275000D01*
G75*
G02*
X178700000Y-88025000I250000J0D01*
G01*
X179375000Y-88025000D01*
G75*
G02*
X179625000Y-88275000I0J-250000D01*
G01*
G37*
%TD.AperFunction*%
%TD*%
%TO.P,C8,2*%
%TO.N,+5V*%
%TA.AperFunction,SMDPad,CuDef*%
G36*
G01*
X177550000Y-70275000D02*
X177550000Y-71225000D01*
G75*
G02*
X177300000Y-71475000I-250000J0D01*
G01*
X176625000Y-71475000D01*
G75*
G02*
X176375000Y-71225000I0J250000D01*
G01*
X176375000Y-70275000D01*
G75*
G02*
X176625000Y-70025000I250000J0D01*
G01*
X177300000Y-70025000D01*
G75*
G02*
X177550000Y-70275000I0J-250000D01*
G01*
G37*
%TD.AperFunction*%
%TO.P,C8,1*%
%TO.N,GND*%
%TA.AperFunction,SMDPad,CuDef*%
G36*
G01*
X179625000Y-70275000D02*
X179625000Y-71225000D01*
G75*
G02*
X179375000Y-71475000I-250000J0D01*
G01*
X178700000Y-71475000D01*
G75*
G02*
X178450000Y-71225000I0J250000D01*
G01*
X178450000Y-70275000D01*
G75*
G02*
X178700000Y-70025000I250000J0D01*
G01*
X179375000Y-70025000D01*
G75*
G02*
X179625000Y-70275000I0J-250000D01*
G01*
G37*
%TD.AperFunction*%
%TD*%
D19*
%TO.P,U3,5*%
%TO.N,GND*%
X184850000Y-56750000D03*
%TO.P,U3,6*%
%TO.N,+3V3*%
X184850000Y-55800000D03*
%TO.P,U3,4*%
%TO.N,/WS2812B_LED_3V3_Lvl*%
X184850000Y-57700000D03*
%TO.P,U3,3*%
%TO.N,/WS2812B_LED_5V_Lvl*%
X182650000Y-57700000D03*
%TO.P,U3,2*%
%TO.N,GND*%
X182650000Y-56750000D03*
%TO.P,U3,1*%
%TO.N,+5V*%
X182650000Y-55800000D03*
%TD*%
D20*
%TO.P,SW7,2*%
%TO.N,/BTN6*%
X217000000Y-88410000D03*
%TO.P,SW7,1*%
%TO.N,GND*%
X217000000Y-97590000D03*
%TD*%
%TO.P,SW6,2*%
%TO.N,/BTN5*%
X217000000Y-70410000D03*
%TO.P,SW6,1*%
%TO.N,GND*%
X217000000Y-79590000D03*
%TD*%
%TO.P,SW5,2*%
%TO.N,/BTN4*%
X217000000Y-61590000D03*
%TO.P,SW5,1*%
%TO.N,GND*%
X217000000Y-52410000D03*
%TD*%
%TO.P,SW4,2*%
%TO.N,/BTN3*%
X173000000Y-88410000D03*
%TO.P,SW4,1*%
%TO.N,GND*%
X173000000Y-97590000D03*
%TD*%
%TO.P,SW3,2*%
%TO.N,/BTN2*%
X173000000Y-70410000D03*
%TO.P,SW3,1*%
%TO.N,GND*%
X173000000Y-79590000D03*
%TD*%
%TO.P,SW2,2*%
%TO.N,/BTN1*%
X173000000Y-61590000D03*
%TO.P,SW2,1*%
%TO.N,GND*%
X173000000Y-52410000D03*
%TD*%
%TO.P,R4,2*%
%TO.N,/CC_CSN*%
%TA.AperFunction,SMDPad,CuDef*%
G36*
G01*
X187400000Y-76950001D02*
X187400000Y-76049999D01*
G75*
G02*
X187649999Y-75800000I249999J0D01*
G01*
X188350001Y-75800000D01*
G75*
G02*
X188600000Y-76049999I0J-249999D01*
G01*
X188600000Y-76950001D01*
G75*
G02*
X188350001Y-77200000I-249999J0D01*
G01*
X187649999Y-77200000D01*
G75*
G02*
X187400000Y-76950001I0J249999D01*
G01*
G37*
%TD.AperFunction*%
%TO.P,R4,1*%
%TO.N,+3V3*%
%TA.AperFunction,SMDPad,CuDef*%
G36*
G01*
X185400000Y-76950001D02*
X185400000Y-76049999D01*
G75*
G02*
X185649999Y-75800000I249999J0D01*
G01*
X186350001Y-75800000D01*
G75*
G02*
X186600000Y-76049999I0J-249999D01*
G01*
X186600000Y-76950001D01*
G75*
G02*
X186350001Y-77200000I-249999J0D01*
G01*
X185649999Y-77200000D01*
G75*
G02*
X185400000Y-76950001I0J249999D01*
G01*
G37*
%TD.AperFunction*%
%TD*%
%TO.P,R3,2*%
%TO.N,/RESET*%
%TA.AperFunction,SMDPad,CuDef*%
G36*
G01*
X183549999Y-77900000D02*
X184450001Y-77900000D01*
G75*
G02*
X184700000Y-78149999I0J-249999D01*
G01*
X184700000Y-78850001D01*
G75*
G02*
X184450001Y-79100000I-249999J0D01*
G01*
X183549999Y-79100000D01*
G75*
G02*
X183300000Y-78850001I0J249999D01*
G01*
X183300000Y-78149999D01*
G75*
G02*
X183549999Y-77900000I249999J0D01*
G01*
G37*
%TD.AperFunction*%
%TO.P,R3,1*%
%TO.N,+3V3*%
%TA.AperFunction,SMDPad,CuDef*%
G36*
G01*
X183549999Y-75900000D02*
X184450001Y-75900000D01*
G75*
G02*
X184700000Y-76149999I0J-249999D01*
G01*
X184700000Y-76850001D01*
G75*
G02*
X184450001Y-77100000I-249999J0D01*
G01*
X183549999Y-77100000D01*
G75*
G02*
X183300000Y-76850001I0J249999D01*
G01*
X183300000Y-76149999D01*
G75*
G02*
X183549999Y-75900000I249999J0D01*
G01*
G37*
%TD.AperFunction*%
%TD*%
%TO.P,R2,2*%
%TO.N,Net-(D2-Pad2)*%
%TA.AperFunction,SMDPad,CuDef*%
G36*
G01*
X199100000Y-51049999D02*
X199100000Y-51950001D01*
G75*
G02*
X198850001Y-52200000I-249999J0D01*
G01*
X198149999Y-52200000D01*
G75*
G02*
X197900000Y-51950001I0J249999D01*
G01*
X197900000Y-51049999D01*
G75*
G02*
X198149999Y-50800000I249999J0D01*
G01*
X198850001Y-50800000D01*
G75*
G02*
X199100000Y-51049999I0J-249999D01*
G01*
G37*
%TD.AperFunction*%
%TO.P,R2,1*%
%TO.N,Net-(R2-Pad1)*%
%TA.AperFunction,SMDPad,CuDef*%
G36*
G01*
X201100000Y-51049999D02*
X201100000Y-51950001D01*
G75*
G02*
X200850001Y-52200000I-249999J0D01*
G01*
X200149999Y-52200000D01*
G75*
G02*
X199900000Y-51950001I0J249999D01*
G01*
X199900000Y-51049999D01*
G75*
G02*
X200149999Y-50800000I249999J0D01*
G01*
X200850001Y-50800000D01*
G75*
G02*
X201100000Y-51049999I0J-249999D01*
G01*
G37*
%TD.AperFunction*%
%TD*%
%TO.P,R1,2*%
%TO.N,Net-(D1-Pad2)*%
%TA.AperFunction,SMDPad,CuDef*%
G36*
G01*
X199100000Y-53049999D02*
X199100000Y-53950001D01*
G75*
G02*
X198850001Y-54200000I-249999J0D01*
G01*
X198149999Y-54200000D01*
G75*
G02*
X197900000Y-53950001I0J249999D01*
G01*
X197900000Y-53049999D01*
G75*
G02*
X198149999Y-52800000I249999J0D01*
G01*
X198850001Y-52800000D01*
G75*
G02*
X199100000Y-53049999I0J-249999D01*
G01*
G37*
%TD.AperFunction*%
%TO.P,R1,1*%
%TO.N,Net-(R1-Pad1)*%
%TA.AperFunction,SMDPad,CuDef*%
G36*
G01*
X201100000Y-53049999D02*
X201100000Y-53950001D01*
G75*
G02*
X200850001Y-54200000I-249999J0D01*
G01*
X200149999Y-54200000D01*
G75*
G02*
X199900000Y-53950001I0J249999D01*
G01*
X199900000Y-53049999D01*
G75*
G02*
X200149999Y-52800000I249999J0D01*
G01*
X200850001Y-52800000D01*
G75*
G02*
X201100000Y-53049999I0J-249999D01*
G01*
G37*
%TD.AperFunction*%
%TD*%
D21*
%TO.P,D8,1*%
%TO.N,Net-(D8-Pad1)*%
X211125000Y-94750000D03*
%TO.P,D8,2*%
%TO.N,GND*%
X212875000Y-94750000D03*
%TO.P,D8,4*%
%TO.N,+5V*%
X211125000Y-91250000D03*
%TO.P,D8,3*%
%TO.N,Net-(D7-Pad1)*%
X212875000Y-91250000D03*
%TD*%
%TO.P,D5,1*%
%TO.N,Net-(D5-Pad1)*%
X177125000Y-94750000D03*
%TO.P,D5,2*%
%TO.N,GND*%
X178875000Y-94750000D03*
%TO.P,D5,4*%
%TO.N,+5V*%
X177125000Y-91250000D03*
%TO.P,D5,3*%
%TO.N,Net-(D4-Pad1)*%
X178875000Y-91250000D03*
%TD*%
%TO.P,D7,1*%
%TO.N,Net-(D7-Pad1)*%
X211125000Y-76750000D03*
%TO.P,D7,2*%
%TO.N,GND*%
X212875000Y-76750000D03*
%TO.P,D7,4*%
%TO.N,+5V*%
X211125000Y-73250000D03*
%TO.P,D7,3*%
%TO.N,Net-(D6-Pad1)*%
X212875000Y-73250000D03*
%TD*%
%TO.P,D4,1*%
%TO.N,Net-(D4-Pad1)*%
X177125000Y-76750000D03*
%TO.P,D4,2*%
%TO.N,GND*%
X178875000Y-76750000D03*
%TO.P,D4,4*%
%TO.N,+5V*%
X177125000Y-73250000D03*
%TO.P,D4,3*%
%TO.N,Net-(D3-Pad1)*%
X178875000Y-73250000D03*
%TD*%
%TO.P,D6,1*%
%TO.N,Net-(D6-Pad1)*%
X211125000Y-58750000D03*
%TO.P,D6,2*%
%TO.N,GND*%
X212875000Y-58750000D03*
%TO.P,D6,4*%
%TO.N,+5V*%
X211125000Y-55250000D03*
%TO.P,D6,3*%
%TO.N,Net-(D5-Pad1)*%
X212875000Y-55250000D03*
%TD*%
%TO.P,D3,1*%
%TO.N,Net-(D3-Pad1)*%
X177125000Y-58750000D03*
%TO.P,D3,2*%
%TO.N,GND*%
X178875000Y-58750000D03*
%TO.P,D3,4*%
%TO.N,+5V*%
X177125000Y-55250000D03*
%TO.P,D3,3*%
%TO.N,/WS2812B_LED_5V_Lvl*%
X178875000Y-55250000D03*
%TD*%
%TO.P,C7,2*%
%TO.N,GND*%
%TA.AperFunction,SMDPad,CuDef*%
G36*
G01*
X194185000Y-58592500D02*
X193235000Y-58592500D01*
G75*
G02*
X192985000Y-58342500I0J250000D01*
G01*
X192985000Y-57667500D01*
G75*
G02*
X193235000Y-57417500I250000J0D01*
G01*
X194185000Y-57417500D01*
G75*
G02*
X194435000Y-57667500I0J-250000D01*
G01*
X194435000Y-58342500D01*
G75*
G02*
X194185000Y-58592500I-250000J0D01*
G01*
G37*
%TD.AperFunction*%
%TO.P,C7,1*%
%TO.N,Net-(C7-Pad1)*%
%TA.AperFunction,SMDPad,CuDef*%
G36*
G01*
X194185000Y-60667500D02*
X193235000Y-60667500D01*
G75*
G02*
X192985000Y-60417500I0J250000D01*
G01*
X192985000Y-59742500D01*
G75*
G02*
X193235000Y-59492500I250000J0D01*
G01*
X194185000Y-59492500D01*
G75*
G02*
X194435000Y-59742500I0J-250000D01*
G01*
X194435000Y-60417500D01*
G75*
G02*
X194185000Y-60667500I-250000J0D01*
G01*
G37*
%TD.AperFunction*%
%TD*%
%TO.P,C5,2*%
%TO.N,GND*%
%TA.AperFunction,SMDPad,CuDef*%
G36*
G01*
X204412500Y-68975000D02*
X204412500Y-68025000D01*
G75*
G02*
X204662500Y-67775000I250000J0D01*
G01*
X205337500Y-67775000D01*
G75*
G02*
X205587500Y-68025000I0J-250000D01*
G01*
X205587500Y-68975000D01*
G75*
G02*
X205337500Y-69225000I-250000J0D01*
G01*
X204662500Y-69225000D01*
G75*
G02*
X204412500Y-68975000I0J250000D01*
G01*
G37*
%TD.AperFunction*%
%TO.P,C5,1*%
%TO.N,+3V3*%
%TA.AperFunction,SMDPad,CuDef*%
G36*
G01*
X202337500Y-68975000D02*
X202337500Y-68025000D01*
G75*
G02*
X202587500Y-67775000I250000J0D01*
G01*
X203262500Y-67775000D01*
G75*
G02*
X203512500Y-68025000I0J-250000D01*
G01*
X203512500Y-68975000D01*
G75*
G02*
X203262500Y-69225000I-250000J0D01*
G01*
X202587500Y-69225000D01*
G75*
G02*
X202337500Y-68975000I0J250000D01*
G01*
G37*
%TD.AperFunction*%
%TD*%
%TO.P,C4,2*%
%TO.N,GND*%
%TA.AperFunction,SMDPad,CuDef*%
G36*
G01*
X196215000Y-58590000D02*
X195265000Y-58590000D01*
G75*
G02*
X195015000Y-58340000I0J250000D01*
G01*
X195015000Y-57665000D01*
G75*
G02*
X195265000Y-57415000I250000J0D01*
G01*
X196215000Y-57415000D01*
G75*
G02*
X196465000Y-57665000I0J-250000D01*
G01*
X196465000Y-58340000D01*
G75*
G02*
X196215000Y-58590000I-250000J0D01*
G01*
G37*
%TD.AperFunction*%
%TO.P,C4,1*%
%TO.N,+3V3*%
%TA.AperFunction,SMDPad,CuDef*%
G36*
G01*
X196215000Y-60665000D02*
X195265000Y-60665000D01*
G75*
G02*
X195015000Y-60415000I0J250000D01*
G01*
X195015000Y-59740000D01*
G75*
G02*
X195265000Y-59490000I250000J0D01*
G01*
X196215000Y-59490000D01*
G75*
G02*
X196465000Y-59740000I0J-250000D01*
G01*
X196465000Y-60415000D01*
G75*
G02*
X196215000Y-60665000I-250000J0D01*
G01*
G37*
%TD.AperFunction*%
%TD*%
%TO.P,C2,2*%
%TO.N,/RESET*%
%TA.AperFunction,SMDPad,CuDef*%
G36*
G01*
X184475000Y-81262500D02*
X183525000Y-81262500D01*
G75*
G02*
X183275000Y-81012500I0J250000D01*
G01*
X183275000Y-80337500D01*
G75*
G02*
X183525000Y-80087500I250000J0D01*
G01*
X184475000Y-80087500D01*
G75*
G02*
X184725000Y-80337500I0J-250000D01*
G01*
X184725000Y-81012500D01*
G75*
G02*
X184475000Y-81262500I-250000J0D01*
G01*
G37*
%TD.AperFunction*%
%TO.P,C2,1*%
%TO.N,/DTR*%
%TA.AperFunction,SMDPad,CuDef*%
G36*
G01*
X184475000Y-83337500D02*
X183525000Y-83337500D01*
G75*
G02*
X183275000Y-83087500I0J250000D01*
G01*
X183275000Y-82412500D01*
G75*
G02*
X183525000Y-82162500I250000J0D01*
G01*
X184475000Y-82162500D01*
G75*
G02*
X184725000Y-82412500I0J-250000D01*
G01*
X184725000Y-83087500D01*
G75*
G02*
X184475000Y-83337500I-250000J0D01*
G01*
G37*
%TD.AperFunction*%
%TD*%
D22*
%TO.N,GND*%
X194750000Y-63750000D03*
X179000000Y-78500000D03*
X190750000Y-68000000D03*
X195000000Y-72250000D03*
X199750000Y-79000000D03*
X203750000Y-67250000D03*
X194750000Y-56250000D03*
X181000000Y-54500000D03*
%TO.N,+3V3*%
X195000000Y-69500000D03*
X194250000Y-72000000D03*
%TO.N,/RESET*%
X193250000Y-72000000D03*
X187000000Y-73750000D03*
%TO.N,/RX*%
X198250000Y-72000000D03*
%TO.N,/TX*%
X197250000Y-72000000D03*
%TO.N,/WS2812B_LED_3V3_Lvl*%
X184750000Y-64000000D03*
X192250000Y-68500000D03*
%TO.N,/BTN1*%
X173000000Y-63750000D03*
X179250000Y-63750000D03*
%TO.N,/BTN2*%
X173000000Y-68000000D03*
X179250000Y-68000000D03*
%TO.N,/BTN3*%
X173000000Y-86000000D03*
X180250000Y-79750000D03*
%TO.N,/BTN4*%
X217000000Y-63750000D03*
X209000000Y-63750000D03*
X202500000Y-64000000D03*
X191000000Y-64750000D03*
%TO.N,/BTN5*%
X217000000Y-68250000D03*
X202750000Y-65750000D03*
X192000000Y-65750000D03*
X209500000Y-68000000D03*
%TO.N,/BTN6*%
X217000000Y-86250000D03*
X208750000Y-78250000D03*
X193250000Y-66500000D03*
X202250000Y-73250000D03*
%TD*%
D23*
%TO.N,GND*%
X203710000Y-67210000D02*
X200700000Y-67210000D01*
X205000000Y-68500000D02*
X203710000Y-67210000D01*
X179250000Y-52750000D02*
X181000000Y-54500000D01*
X179037500Y-52750000D02*
X179250000Y-52750000D01*
X181000000Y-55880000D02*
X181000000Y-54500000D01*
X181870000Y-56750000D02*
X181000000Y-55880000D01*
X182650000Y-56750000D02*
X181870000Y-56750000D01*
X178124999Y-53662501D02*
X179037500Y-52750000D01*
X178124999Y-56949999D02*
X178124999Y-53662501D01*
X178875000Y-57700000D02*
X178124999Y-56949999D01*
X178875000Y-58750000D02*
X178875000Y-57700000D01*
X184850000Y-56750000D02*
X182650000Y-56750000D01*
X178875000Y-78375000D02*
X179000000Y-78500000D01*
X178875000Y-76750000D02*
X178875000Y-78375000D01*
X195000000Y-63500000D02*
X194750000Y-63750000D01*
X195000000Y-62310000D02*
X195000000Y-63500000D01*
X190740000Y-68010000D02*
X190750000Y-68000000D01*
X189300000Y-68010000D02*
X190740000Y-68010000D01*
X195000000Y-73710000D02*
X195000000Y-72250000D01*
X199590000Y-78840000D02*
X199750000Y-79000000D01*
X199590000Y-77250000D02*
X199590000Y-78840000D01*
X200000000Y-79250000D02*
X199750000Y-79000000D01*
X200000000Y-81000000D02*
X200000000Y-79250000D01*
X212124999Y-57999999D02*
X212875000Y-58750000D01*
X212124999Y-53742501D02*
X212124999Y-57999999D01*
X213137500Y-52730000D02*
X212124999Y-53742501D01*
X216680000Y-52730000D02*
X217000000Y-52410000D01*
X213137500Y-52730000D02*
X216680000Y-52730000D01*
X212875000Y-70587500D02*
X213037500Y-70750000D01*
X212875000Y-58750000D02*
X212875000Y-70587500D01*
X213625001Y-75999999D02*
X212875000Y-76750000D01*
X213625001Y-71337501D02*
X213625001Y-75999999D01*
X213037500Y-70750000D02*
X213625001Y-71337501D01*
X212875000Y-88587500D02*
X213037500Y-88750000D01*
X212875000Y-76750000D02*
X212875000Y-88587500D01*
X213625001Y-93999999D02*
X212875000Y-94750000D01*
X213625001Y-89337501D02*
X213625001Y-93999999D01*
X213037500Y-88750000D02*
X213625001Y-89337501D01*
%TO.N,+3V3*%
X195800000Y-60137500D02*
X195740000Y-60077500D01*
X202435000Y-68010000D02*
X202925000Y-68500000D01*
X200700000Y-68010000D02*
X202435000Y-68010000D01*
X195740000Y-62250000D02*
X195800000Y-62310000D01*
X195740000Y-60077500D02*
X195740000Y-62250000D01*
X194829990Y-59167490D02*
X195740000Y-60077500D01*
X192996820Y-59167490D02*
X194829990Y-59167490D01*
X189629330Y-55800000D02*
X192996820Y-59167490D01*
X184850000Y-55800000D02*
X189629330Y-55800000D01*
X194200000Y-73710000D02*
X194200000Y-74710000D01*
X184000000Y-71510000D02*
X184000000Y-76500000D01*
X188300000Y-67210000D02*
X184000000Y-71510000D01*
X189300000Y-67210000D02*
X188300000Y-67210000D01*
X182824999Y-91944999D02*
X184000000Y-93120000D01*
X182824999Y-77675001D02*
X182824999Y-91944999D01*
X184000000Y-76500000D02*
X182824999Y-77675001D01*
X199820002Y-75005000D02*
X194495000Y-75005000D01*
X201924999Y-77109997D02*
X199820002Y-75005000D01*
X194200000Y-74710000D02*
X194495000Y-75005000D01*
X184000000Y-76500000D02*
X186000000Y-76500000D01*
X195800000Y-64110000D02*
X195800000Y-62310000D01*
X199700000Y-68010000D02*
X198470000Y-66780000D01*
X200700000Y-68010000D02*
X199700000Y-68010000D01*
X201924999Y-80924999D02*
X202000000Y-81000000D01*
X201924999Y-77109997D02*
X201924999Y-80924999D01*
X198470000Y-66780000D02*
X195800000Y-64110000D01*
X194200000Y-72050000D02*
X194250000Y-72000000D01*
X194200000Y-73710000D02*
X194200000Y-72050000D01*
X196490000Y-68010000D02*
X200700000Y-68010000D01*
X195000000Y-69500000D02*
X196490000Y-68010000D01*
%TO.N,/RESET*%
X193400000Y-72150000D02*
X193250000Y-72000000D01*
X193400000Y-73710000D02*
X193400000Y-72150000D01*
X184000000Y-78500000D02*
X184000000Y-80675000D01*
X206000000Y-78824998D02*
X206000000Y-85480000D01*
X198550001Y-71374999D02*
X206000000Y-78824998D01*
X193875001Y-71374999D02*
X198550001Y-71374999D01*
X193250000Y-72000000D02*
X193875001Y-71374999D01*
X185613190Y-78500000D02*
X184000000Y-78500000D01*
X187000000Y-77113190D02*
X185613190Y-78500000D01*
X187000000Y-73750000D02*
X187000000Y-77113190D01*
%TO.N,/DTR*%
X184000000Y-82750000D02*
X184000000Y-85500000D01*
%TO.N,+5V*%
X176962500Y-55087500D02*
X177125000Y-55250000D01*
X176962500Y-52750000D02*
X176962500Y-55087500D01*
X178012510Y-51699990D02*
X176962500Y-52750000D01*
X179613180Y-51699990D02*
X178012510Y-51699990D01*
X182650000Y-54736810D02*
X179613180Y-51699990D01*
X182650000Y-55800000D02*
X182650000Y-54736810D01*
X211062500Y-55187500D02*
X211125000Y-55250000D01*
X211062500Y-52730000D02*
X211062500Y-55187500D01*
X210962500Y-73087500D02*
X211125000Y-73250000D01*
X210962500Y-70750000D02*
X210962500Y-73087500D01*
X210962500Y-91087500D02*
X211125000Y-91250000D01*
X210962500Y-88750000D02*
X210962500Y-91087500D01*
X176962500Y-91087500D02*
X177125000Y-91250000D01*
X176962500Y-88750000D02*
X176962500Y-91087500D01*
X176962500Y-73087500D02*
X177125000Y-73250000D01*
X176962500Y-70750000D02*
X176962500Y-73087500D01*
X176374999Y-70162499D02*
X176962500Y-70750000D01*
X176374999Y-56000001D02*
X176374999Y-70162499D01*
X177125000Y-55250000D02*
X176374999Y-56000001D01*
X176374999Y-88162499D02*
X176962500Y-88750000D01*
X176374999Y-74000001D02*
X176374999Y-88162499D01*
X177125000Y-73250000D02*
X176374999Y-74000001D01*
X210374999Y-70162499D02*
X210962500Y-70750000D01*
X210374999Y-56000001D02*
X210374999Y-70162499D01*
X211125000Y-55250000D02*
X210374999Y-56000001D01*
X210374999Y-88162499D02*
X210962500Y-88750000D01*
X210374999Y-74000001D02*
X210374999Y-88162499D01*
X211125000Y-73250000D02*
X210374999Y-74000001D01*
X208807490Y-50474990D02*
X211062500Y-52730000D01*
X187975010Y-50474990D02*
X208807490Y-50474990D01*
X182650000Y-55800000D02*
X187975010Y-50474990D01*
%TO.N,Net-(C7-Pad1)*%
X194200000Y-60570000D02*
X194200000Y-62310000D01*
X193710000Y-60080000D02*
X194200000Y-60570000D01*
%TO.N,Net-(D1-Pad2)*%
X198500000Y-53500000D02*
X196050000Y-53500000D01*
%TO.N,/MOSI*%
X193039999Y-82460801D02*
X193879188Y-83299990D01*
X193039999Y-77404997D02*
X193039999Y-82460801D01*
X191000000Y-75364998D02*
X193039999Y-77404997D01*
X191000000Y-73710000D02*
X191000000Y-75364998D01*
X196700010Y-83299990D02*
X198000000Y-82000000D01*
X193879188Y-83299990D02*
X196700010Y-83299990D01*
%TO.N,/SCK*%
X196000000Y-78110000D02*
X196000000Y-81000000D01*
X192600000Y-74710000D02*
X196000000Y-78110000D01*
X192600000Y-73710000D02*
X192600000Y-74710000D01*
%TO.N,/MISO*%
X194000000Y-77728588D02*
X194000000Y-81000000D01*
X191800000Y-75528588D02*
X194000000Y-77728588D01*
X191800000Y-73710000D02*
X191800000Y-75528588D01*
%TO.N,/RX*%
X198200000Y-72050000D02*
X198250000Y-72000000D01*
X198200000Y-73710000D02*
X198200000Y-72050000D01*
%TO.N,/TX*%
X197400000Y-72150000D02*
X197250000Y-72000000D01*
X197400000Y-73710000D02*
X197400000Y-72150000D01*
%TO.N,Net-(R1-Pad1)*%
X200500000Y-63810000D02*
X200700000Y-64010000D01*
X200500000Y-53500000D02*
X200500000Y-63810000D01*
%TO.N,Net-(R2-Pad1)*%
X201510002Y-64810000D02*
X200700000Y-64810000D01*
X201775001Y-64545001D02*
X201510002Y-64810000D01*
X201775001Y-52775001D02*
X201775001Y-64545001D01*
X200500000Y-51500000D02*
X201775001Y-52775001D01*
%TO.N,Net-(SW1-Pad2)*%
X190300000Y-69610000D02*
X189300000Y-69610000D01*
X190399999Y-69709999D02*
X190300000Y-69610000D01*
X190399999Y-77239999D02*
X190399999Y-69709999D01*
X190410000Y-77250000D02*
X190399999Y-77239999D01*
%TO.N,Net-(D3-Pad1)*%
X178124990Y-72499990D02*
X178875000Y-73250000D01*
X178124990Y-59749990D02*
X178124990Y-72499990D01*
X177125000Y-58750000D02*
X178124990Y-59749990D01*
%TO.N,Net-(D4-Pad1)*%
X178124990Y-90499990D02*
X178875000Y-91250000D01*
X178124990Y-77749990D02*
X178124990Y-90499990D01*
X177125000Y-76750000D02*
X178124990Y-77749990D01*
%TO.N,Net-(D5-Pad1)*%
X214750000Y-57125000D02*
X213950010Y-56325010D01*
X214750000Y-95250000D02*
X214750000Y-57125000D01*
X178160001Y-96835001D02*
X213164999Y-96835001D01*
X213950010Y-56325010D02*
X212875000Y-55250000D01*
X213164999Y-96835001D02*
X214750000Y-95250000D01*
X177125000Y-95800000D02*
X178160001Y-96835001D01*
X177125000Y-94750000D02*
X177125000Y-95800000D01*
%TO.N,Net-(D7-Pad1)*%
X212124990Y-77749990D02*
X211125000Y-76750000D01*
X212124990Y-90499990D02*
X212124990Y-77749990D01*
X212875000Y-91250000D02*
X212124990Y-90499990D01*
%TO.N,/WS2812B_LED_5V_Lvl*%
X179420000Y-55250000D02*
X178875000Y-55250000D01*
X181870000Y-57700000D02*
X179420000Y-55250000D01*
X182650000Y-57700000D02*
X181870000Y-57700000D01*
%TO.N,/GDO0*%
X201670802Y-83750000D02*
X191750000Y-83750000D01*
X191750000Y-83750000D02*
X190000000Y-82000000D01*
X203250000Y-82170802D02*
X201670802Y-83750000D01*
X203250000Y-76750000D02*
X203250000Y-82170802D01*
X200210000Y-73710000D02*
X203250000Y-76750000D01*
X199000000Y-73710000D02*
X200210000Y-73710000D01*
%TO.N,/CC_CSN*%
X188000000Y-81000000D02*
X188000000Y-76500000D01*
X188000000Y-73310000D02*
X189300000Y-72010000D01*
X188000000Y-76500000D02*
X188000000Y-73310000D01*
%TO.N,/WS2812B_LED_3V3_Lvl*%
X194160000Y-70410000D02*
X192250000Y-68500000D01*
X200700000Y-70410000D02*
X194160000Y-70410000D01*
X184850000Y-63900000D02*
X184750000Y-64000000D01*
X184850000Y-57700000D02*
X184850000Y-63900000D01*
%TO.N,/BTN1*%
X173000000Y-63750000D02*
X173000000Y-61590000D01*
X180310000Y-64810000D02*
X189300000Y-64810000D01*
X179250000Y-63750000D02*
X180310000Y-64810000D01*
%TO.N,/BTN2*%
X173000000Y-68000000D02*
X173000000Y-70410000D01*
X181640000Y-65610000D02*
X179250000Y-68000000D01*
X189300000Y-65610000D02*
X181640000Y-65610000D01*
%TO.N,/BTN3*%
X173000000Y-86000000D02*
X173000000Y-88410000D01*
X188300000Y-66410000D02*
X189300000Y-66410000D01*
X182000000Y-72710000D02*
X188300000Y-66410000D01*
X182000000Y-78000000D02*
X182000000Y-72710000D01*
X180250000Y-79750000D02*
X182000000Y-78000000D01*
%TO.N,/BTN4*%
X217000000Y-61590000D02*
X217000000Y-63750000D01*
X190260000Y-64010000D02*
X191000000Y-64750000D01*
X189300000Y-64010000D02*
X190260000Y-64010000D01*
X208750000Y-64000000D02*
X209000000Y-63750000D01*
X202500000Y-64000000D02*
X208750000Y-64000000D01*
%TO.N,/BTN5*%
X217000000Y-70410000D02*
X217000000Y-68250000D01*
X192000000Y-64824998D02*
X192000000Y-65750000D01*
X191000000Y-63824998D02*
X192000000Y-64824998D01*
X191000000Y-62310000D02*
X191000000Y-63824998D01*
X207250000Y-65750000D02*
X209500000Y-68000000D01*
X202750000Y-65750000D02*
X207250000Y-65750000D01*
%TO.N,/BTN6*%
X217000000Y-88410000D02*
X217000000Y-86250000D01*
X193250000Y-64760000D02*
X193250000Y-66500000D01*
X191800000Y-63310000D02*
X193250000Y-64760000D01*
X191800000Y-62310000D02*
X191800000Y-63310000D01*
X203750000Y-73250000D02*
X208750000Y-78250000D01*
X202250000Y-73250000D02*
X203750000Y-73250000D01*
%TO.N,Net-(D6-Pad1)*%
X212124990Y-59749990D02*
X211125000Y-58750000D01*
X212124990Y-72499990D02*
X212124990Y-59749990D01*
X212875000Y-73250000D02*
X212124990Y-72499990D01*
%TO.N,Net-(D2-Pad2)*%
X198500000Y-51500000D02*
X196050000Y-51500000D01*
%TD*%
D24*
%TO.N,GND*%
X183183624Y-54191575D02*
X183161003Y-54173011D01*
X180176984Y-51188993D01*
X180153181Y-51159989D01*
X180037456Y-51065016D01*
X179905427Y-50994444D01*
X179762166Y-50950987D01*
X179650513Y-50939990D01*
X179650502Y-50939990D01*
X179613180Y-50936314D01*
X179575858Y-50939990D01*
X178049832Y-50939990D01*
X178012509Y-50936314D01*
X177975186Y-50939990D01*
X177975177Y-50939990D01*
X177863524Y-50950987D01*
X177720263Y-50994444D01*
X177588234Y-51065016D01*
X177588232Y-51065017D01*
X177588233Y-51065017D01*
X177501506Y-51136191D01*
X177501502Y-51136195D01*
X177472509Y-51159989D01*
X177448715Y-51188982D01*
X177250769Y-51386928D01*
X176625000Y-51386928D01*
X176451746Y-51403992D01*
X176285150Y-51454528D01*
X176131614Y-51536595D01*
X175997038Y-51647038D01*
X175886595Y-51781614D01*
X175804528Y-51935150D01*
X175753992Y-52101746D01*
X175736928Y-52275000D01*
X175736928Y-53225000D01*
X175753992Y-53398254D01*
X175804528Y-53564850D01*
X175886595Y-53718386D01*
X175997038Y-53852962D01*
X176131614Y-53963405D01*
X176202501Y-54001295D01*
X176202501Y-54055249D01*
X176169463Y-54095506D01*
X176110498Y-54205820D01*
X176074188Y-54325518D01*
X176061928Y-54450000D01*
X176061928Y-55238271D01*
X175864001Y-55436198D01*
X175834998Y-55460000D01*
X175795808Y-55507754D01*
X175740025Y-55575725D01*
X175687349Y-55674275D01*
X175669453Y-55707755D01*
X175625996Y-55851016D01*
X175614999Y-55962669D01*
X175614999Y-55962679D01*
X175611323Y-56000001D01*
X175614999Y-56037323D01*
X175615000Y-70125167D01*
X175611323Y-70162499D01*
X175615000Y-70199832D01*
X175625997Y-70311485D01*
X175633490Y-70336185D01*
X175669453Y-70454745D01*
X175736928Y-70580981D01*
X175736928Y-71225000D01*
X175753992Y-71398254D01*
X175804528Y-71564850D01*
X175886595Y-71718386D01*
X175997038Y-71852962D01*
X176131614Y-71963405D01*
X176202501Y-72001295D01*
X176202501Y-72055249D01*
X176169463Y-72095506D01*
X176110498Y-72205820D01*
X176074188Y-72325518D01*
X176061928Y-72450000D01*
X176061928Y-73238271D01*
X175864001Y-73436198D01*
X175834998Y-73460000D01*
X175792507Y-73511776D01*
X175740025Y-73575725D01*
X175688208Y-73672667D01*
X175669453Y-73707755D01*
X175625996Y-73851016D01*
X175614999Y-73962669D01*
X175614999Y-73962679D01*
X175611323Y-74000001D01*
X175614999Y-74037323D01*
X175615000Y-88125167D01*
X175611323Y-88162499D01*
X175615000Y-88199832D01*
X175622404Y-88275000D01*
X175625997Y-88311484D01*
X175669453Y-88454745D01*
X175736928Y-88580981D01*
X175736928Y-89225000D01*
X175753992Y-89398254D01*
X175804528Y-89564850D01*
X175886595Y-89718386D01*
X175997038Y-89852962D01*
X176131614Y-89963405D01*
X176202501Y-90001295D01*
X176202501Y-90055249D01*
X176169463Y-90095506D01*
X176110498Y-90205820D01*
X176074188Y-90325518D01*
X176061928Y-90450000D01*
X176061928Y-92050000D01*
X176074188Y-92174482D01*
X176110498Y-92294180D01*
X176169463Y-92404494D01*
X176248815Y-92501185D01*
X176345506Y-92580537D01*
X176455820Y-92639502D01*
X176575518Y-92675812D01*
X176700000Y-92688072D01*
X177550000Y-92688072D01*
X177674482Y-92675812D01*
X177794180Y-92639502D01*
X177904494Y-92580537D01*
X178000000Y-92502158D01*
X178095506Y-92580537D01*
X178205820Y-92639502D01*
X178325518Y-92675812D01*
X178450000Y-92688072D01*
X179300000Y-92688072D01*
X179424482Y-92675812D01*
X179544180Y-92639502D01*
X179654494Y-92580537D01*
X179751185Y-92501185D01*
X179830537Y-92404494D01*
X179889502Y-92294180D01*
X179925812Y-92174482D01*
X179938072Y-92050000D01*
X179938072Y-90450000D01*
X179925812Y-90325518D01*
X179889502Y-90205820D01*
X179830537Y-90095506D01*
X179817867Y-90080068D01*
X179869180Y-90064502D01*
X179979494Y-90005537D01*
X180076185Y-89926185D01*
X180155537Y-89829494D01*
X180214502Y-89719180D01*
X180250812Y-89599482D01*
X180263072Y-89475000D01*
X180260000Y-89035750D01*
X180101250Y-88877000D01*
X179164500Y-88877000D01*
X179164500Y-88897000D01*
X178910500Y-88897000D01*
X178910500Y-88877000D01*
X178890500Y-88877000D01*
X178890500Y-88623000D01*
X178910500Y-88623000D01*
X178910500Y-87548750D01*
X179164500Y-87548750D01*
X179164500Y-88623000D01*
X180101250Y-88623000D01*
X180260000Y-88464250D01*
X180263072Y-88025000D01*
X180250812Y-87900518D01*
X180214502Y-87780820D01*
X180155537Y-87670506D01*
X180076185Y-87573815D01*
X179979494Y-87494463D01*
X179869180Y-87435498D01*
X179749482Y-87399188D01*
X179625000Y-87386928D01*
X179323250Y-87390000D01*
X179164500Y-87548750D01*
X178910500Y-87548750D01*
X178884990Y-87523240D01*
X178884990Y-78185000D01*
X179002002Y-78185000D01*
X179002002Y-78026252D01*
X179160750Y-78185000D01*
X179300000Y-78188072D01*
X179424482Y-78175812D01*
X179544180Y-78139502D01*
X179654494Y-78080537D01*
X179751185Y-78001185D01*
X179830537Y-77904494D01*
X179889502Y-77794180D01*
X179925812Y-77674482D01*
X179938072Y-77550000D01*
X179935000Y-77035750D01*
X179776250Y-76877000D01*
X179002000Y-76877000D01*
X179002000Y-76897000D01*
X178748000Y-76897000D01*
X178748000Y-76877000D01*
X178728000Y-76877000D01*
X178728000Y-76623000D01*
X178748000Y-76623000D01*
X178748000Y-75473750D01*
X179002000Y-75473750D01*
X179002000Y-76623000D01*
X179776250Y-76623000D01*
X179935000Y-76464250D01*
X179938072Y-75950000D01*
X179925812Y-75825518D01*
X179889502Y-75705820D01*
X179830537Y-75595506D01*
X179751185Y-75498815D01*
X179654494Y-75419463D01*
X179544180Y-75360498D01*
X179424482Y-75324188D01*
X179300000Y-75311928D01*
X179160750Y-75315000D01*
X179002000Y-75473750D01*
X178748000Y-75473750D01*
X178589250Y-75315000D01*
X178450000Y-75311928D01*
X178325518Y-75324188D01*
X178205820Y-75360498D01*
X178095506Y-75419463D01*
X178000000Y-75497842D01*
X177904494Y-75419463D01*
X177794180Y-75360498D01*
X177674482Y-75324188D01*
X177550000Y-75311928D01*
X177134999Y-75311928D01*
X177134999Y-74688072D01*
X177550000Y-74688072D01*
X177674482Y-74675812D01*
X177794180Y-74639502D01*
X177904494Y-74580537D01*
X178000000Y-74502158D01*
X178095506Y-74580537D01*
X178205820Y-74639502D01*
X178325518Y-74675812D01*
X178450000Y-74688072D01*
X179300000Y-74688072D01*
X179424482Y-74675812D01*
X179544180Y-74639502D01*
X179654494Y-74580537D01*
X179751185Y-74501185D01*
X179830537Y-74404494D01*
X179889502Y-74294180D01*
X179925812Y-74174482D01*
X179938072Y-74050000D01*
X179938072Y-72450000D01*
X179925812Y-72325518D01*
X179889502Y-72205820D01*
X179830537Y-72095506D01*
X179817867Y-72080068D01*
X179869180Y-72064502D01*
X179979494Y-72005537D01*
X180076185Y-71926185D01*
X180155537Y-71829494D01*
X180214502Y-71719180D01*
X180250812Y-71599482D01*
X180263072Y-71475000D01*
X180260000Y-71035750D01*
X180101250Y-70877000D01*
X179164500Y-70877000D01*
X179164500Y-70897000D01*
X178910500Y-70897000D01*
X178910500Y-70877000D01*
X178890500Y-70877000D01*
X178890500Y-70623000D01*
X178910500Y-70623000D01*
X178910500Y-69548750D01*
X179164500Y-69548750D01*
X179164500Y-70623000D01*
X180101250Y-70623000D01*
X180260000Y-70464250D01*
X180263072Y-70025000D01*
X180250812Y-69900518D01*
X180214502Y-69780820D01*
X180155537Y-69670506D01*
X180076185Y-69573815D01*
X179979494Y-69494463D01*
X179869180Y-69435498D01*
X179749482Y-69399188D01*
X179625000Y-69386928D01*
X179323250Y-69390000D01*
X179164500Y-69548750D01*
X178910500Y-69548750D01*
X178884990Y-69523240D01*
X178884990Y-68860844D01*
X178977271Y-68899068D01*
X179157911Y-68935000D01*
X179342089Y-68935000D01*
X179522729Y-68899068D01*
X179692889Y-68828586D01*
X179846028Y-68726262D01*
X179976262Y-68596028D01*
X180078586Y-68442889D01*
X180149068Y-68272729D01*
X180173153Y-68151649D01*
X181954803Y-66370000D01*
X187265197Y-66370000D01*
X181488998Y-72146201D01*
X181460000Y-72169999D01*
X181436202Y-72198997D01*
X181436201Y-72198998D01*
X181365026Y-72285724D01*
X181294454Y-72417754D01*
X181272539Y-72490000D01*
X181250998Y-72561014D01*
X181242334Y-72648976D01*
X181236324Y-72710000D01*
X181240001Y-72747332D01*
X181240000Y-77685198D01*
X180098351Y-78826847D01*
X179977271Y-78850932D01*
X179807111Y-78921414D01*
X179653972Y-79023738D01*
X179523738Y-79153972D01*
X179421414Y-79307111D01*
X179350932Y-79477271D01*
X179315000Y-79657911D01*
X179315000Y-79842089D01*
X179350932Y-80022729D01*
X179421414Y-80192889D01*
X179523738Y-80346028D01*
X179653972Y-80476262D01*
X179807111Y-80578586D01*
X179977271Y-80649068D01*
X180157911Y-80685000D01*
X180342089Y-80685000D01*
X180522729Y-80649068D01*
X180692889Y-80578586D01*
X180846028Y-80476262D01*
X180976262Y-80346028D01*
X181078586Y-80192889D01*
X181149068Y-80022729D01*
X181173153Y-79901649D01*
X182064999Y-79009803D01*
X182065000Y-91907667D01*
X182061323Y-91944999D01*
X182075997Y-92093984D01*
X182119453Y-92237245D01*
X182190025Y-92369275D01*
X182218929Y-92404494D01*
X182284999Y-92485000D01*
X182313997Y-92508798D01*
X182511928Y-92706729D01*
X182511928Y-93970000D01*
X182524188Y-94094482D01*
X182560498Y-94214180D01*
X182619463Y-94324494D01*
X182698815Y-94421185D01*
X182795506Y-94500537D01*
X182905820Y-94559502D01*
X182986466Y-94583966D01*
X182902412Y-94659731D01*
X182728359Y-94893080D01*
X182603175Y-95155901D01*
X182558524Y-95303110D01*
X182679845Y-95533000D01*
X183873000Y-95533000D01*
X183873000Y-95513000D01*
X184127000Y-95513000D01*
X184127000Y-95533000D01*
X185320155Y-95533000D01*
X185441476Y-95303110D01*
X185396825Y-95155901D01*
X185271641Y-94893080D01*
X185097588Y-94659731D01*
X185013534Y-94583966D01*
X185094180Y-94559502D01*
X185204494Y-94500537D01*
X185301185Y-94421185D01*
X185380537Y-94324494D01*
X185439502Y-94214180D01*
X185475812Y-94094482D01*
X185488072Y-93970000D01*
X185488072Y-92270000D01*
X185475812Y-92145518D01*
X185439502Y-92025820D01*
X185380537Y-91915506D01*
X185301185Y-91818815D01*
X185204494Y-91739463D01*
X185094180Y-91680498D01*
X185021620Y-91658487D01*
X185153475Y-91526632D01*
X185315990Y-91283411D01*
X185427932Y-91013158D01*
X185485000Y-90726260D01*
X185485000Y-90433740D01*
X185427932Y-90146842D01*
X185315990Y-89876589D01*
X185153475Y-89633368D01*
X184946632Y-89426525D01*
X184772240Y-89310000D01*
X184946632Y-89193475D01*
X185153475Y-88986632D01*
X185315990Y-88743411D01*
X185427932Y-88473158D01*
X185485000Y-88186260D01*
X185485000Y-87893740D01*
X185427932Y-87606842D01*
X185315990Y-87336589D01*
X185153475Y-87093368D01*
X184946632Y-86886525D01*
X184772240Y-86770000D01*
X184946632Y-86653475D01*
X185153475Y-86446632D01*
X185315990Y-86203411D01*
X185427932Y-85933158D01*
X185485000Y-85646260D01*
X185485000Y-85353740D01*
X185427932Y-85066842D01*
X185315990Y-84796589D01*
X185153475Y-84553368D01*
X184946632Y-84346525D01*
X184760000Y-84221822D01*
X184760000Y-83924610D01*
X184814850Y-83907972D01*
X184968386Y-83825905D01*
X185102962Y-83715462D01*
X185213405Y-83580886D01*
X185295472Y-83427350D01*
X185346008Y-83260754D01*
X185363072Y-83087500D01*
X185363072Y-82412500D01*
X185346008Y-82239246D01*
X185295472Y-82072650D01*
X185213405Y-81919114D01*
X185102962Y-81784538D01*
X185015183Y-81712500D01*
X185102962Y-81640462D01*
X185213405Y-81505886D01*
X185295472Y-81352350D01*
X185346008Y-81185754D01*
X185363072Y-81012500D01*
X185363072Y-80337500D01*
X185346008Y-80164246D01*
X185295472Y-79997650D01*
X185213405Y-79844114D01*
X185102962Y-79709538D01*
X184968386Y-79599095D01*
X184945359Y-79586787D01*
X185077962Y-79477962D01*
X185188405Y-79343387D01*
X185232976Y-79260000D01*
X185575868Y-79260000D01*
X185613190Y-79263676D01*
X185650512Y-79260000D01*
X185650523Y-79260000D01*
X185762176Y-79249003D01*
X185905437Y-79205546D01*
X186037466Y-79134974D01*
X186153191Y-79040001D01*
X186176994Y-79010997D01*
X187240001Y-77947991D01*
X187240000Y-79384962D01*
X187155820Y-79410498D01*
X187045506Y-79469463D01*
X186948815Y-79548815D01*
X186869463Y-79645506D01*
X186810498Y-79755820D01*
X186774188Y-79875518D01*
X186761928Y-80000000D01*
X186761928Y-81714402D01*
X186730000Y-81874916D01*
X186730000Y-82125084D01*
X186778805Y-82370445D01*
X186874541Y-82601571D01*
X187013527Y-82809578D01*
X187190422Y-82986473D01*
X187398429Y-83125459D01*
X187629555Y-83221195D01*
X187874916Y-83270000D01*
X188125084Y-83270000D01*
X188370445Y-83221195D01*
X188601571Y-83125459D01*
X188809578Y-82986473D01*
X188986473Y-82809578D01*
X189000000Y-82789333D01*
X189013527Y-82809578D01*
X189190422Y-82986473D01*
X189398429Y-83125459D01*
X189629555Y-83221195D01*
X189874916Y-83270000D01*
X190125084Y-83270000D01*
X190183566Y-83258367D01*
X191186201Y-84261003D01*
X191209999Y-84290001D01*
X191325724Y-84384974D01*
X191457753Y-84455546D01*
X191601014Y-84499003D01*
X191712667Y-84510000D01*
X191712675Y-84510000D01*
X191750000Y-84513676D01*
X191787325Y-84510000D01*
X201633480Y-84510000D01*
X201670802Y-84513676D01*
X201708124Y-84510000D01*
X201708135Y-84510000D01*
X201819788Y-84499003D01*
X201963049Y-84455546D01*
X202095078Y-84384974D01*
X202210803Y-84290001D01*
X202234606Y-84260997D01*
X203761003Y-82734601D01*
X203790001Y-82710803D01*
X203884974Y-82595078D01*
X203955546Y-82463049D01*
X203999003Y-82319788D01*
X204010000Y-82208135D01*
X204010000Y-82208126D01*
X204013676Y-82170803D01*
X204010000Y-82133480D01*
X204010000Y-77909800D01*
X205240000Y-79139800D01*
X205240001Y-84201821D01*
X205053368Y-84326525D01*
X204846525Y-84533368D01*
X204684010Y-84776589D01*
X204572068Y-85046842D01*
X204515000Y-85333740D01*
X204515000Y-85626260D01*
X204572068Y-85913158D01*
X204684010Y-86183411D01*
X204846525Y-86426632D01*
X205053368Y-86633475D01*
X205227760Y-86750000D01*
X205053368Y-86866525D01*
X204846525Y-87073368D01*
X204684010Y-87316589D01*
X204572068Y-87586842D01*
X204515000Y-87873740D01*
X204515000Y-88166260D01*
X204572068Y-88453158D01*
X204684010Y-88723411D01*
X204846525Y-88966632D01*
X205053368Y-89173475D01*
X205227760Y-89290000D01*
X205053368Y-89406525D01*
X204846525Y-89613368D01*
X204684010Y-89856589D01*
X204572068Y-90126842D01*
X204515000Y-90413740D01*
X204515000Y-90706260D01*
X204572068Y-90993158D01*
X204684010Y-91263411D01*
X204846525Y-91506632D01*
X205053368Y-91713475D01*
X205227760Y-91830000D01*
X205053368Y-91946525D01*
X204846525Y-92153368D01*
X204684010Y-92396589D01*
X204572068Y-92666842D01*
X204515000Y-92953740D01*
X204515000Y-93246260D01*
X204572068Y-93533158D01*
X204684010Y-93803411D01*
X204846525Y-94046632D01*
X205053368Y-94253475D01*
X205235534Y-94375195D01*
X205118645Y-94444822D01*
X204902412Y-94639731D01*
X204728359Y-94873080D01*
X204603175Y-95135901D01*
X204558524Y-95283110D01*
X204679845Y-95513000D01*
X205873000Y-95513000D01*
X205873000Y-95493000D01*
X206127000Y-95493000D01*
X206127000Y-95513000D01*
X207320155Y-95513000D01*
X207441476Y-95283110D01*
X207396825Y-95135901D01*
X207271641Y-94873080D01*
X207097588Y-94639731D01*
X206881355Y-94444822D01*
X206764466Y-94375195D01*
X206946632Y-94253475D01*
X207153475Y-94046632D01*
X207315990Y-93803411D01*
X207427932Y-93533158D01*
X207485000Y-93246260D01*
X207485000Y-92953740D01*
X207427932Y-92666842D01*
X207315990Y-92396589D01*
X207153475Y-92153368D01*
X206946632Y-91946525D01*
X206772240Y-91830000D01*
X206946632Y-91713475D01*
X207153475Y-91506632D01*
X207315990Y-91263411D01*
X207427932Y-90993158D01*
X207485000Y-90706260D01*
X207485000Y-90413740D01*
X207427932Y-90126842D01*
X207315990Y-89856589D01*
X207153475Y-89613368D01*
X206946632Y-89406525D01*
X206772240Y-89290000D01*
X206946632Y-89173475D01*
X207153475Y-88966632D01*
X207315990Y-88723411D01*
X207427932Y-88453158D01*
X207485000Y-88166260D01*
X207485000Y-87873740D01*
X207427932Y-87586842D01*
X207315990Y-87316589D01*
X207153475Y-87073368D01*
X206946632Y-86866525D01*
X206772240Y-86750000D01*
X206946632Y-86633475D01*
X207153475Y-86426632D01*
X207315990Y-86183411D01*
X207427932Y-85913158D01*
X207485000Y-85626260D01*
X207485000Y-85333740D01*
X207427932Y-85046842D01*
X207315990Y-84776589D01*
X207153475Y-84533368D01*
X206946632Y-84326525D01*
X206760000Y-84201822D01*
X206760000Y-78862331D01*
X206763677Y-78824998D01*
X206749003Y-78676012D01*
X206705546Y-78532751D01*
X206634974Y-78400722D01*
X206563799Y-78313995D01*
X206540001Y-78284997D01*
X206511004Y-78261200D01*
X202419421Y-74169618D01*
X202522729Y-74149068D01*
X202692889Y-74078586D01*
X202795535Y-74010000D01*
X203435199Y-74010000D01*
X207826847Y-78401649D01*
X207850932Y-78522729D01*
X207921414Y-78692889D01*
X208023738Y-78846028D01*
X208153972Y-78976262D01*
X208307111Y-79078586D01*
X208477271Y-79149068D01*
X208657911Y-79185000D01*
X208842089Y-79185000D01*
X209022729Y-79149068D01*
X209192889Y-79078586D01*
X209346028Y-78976262D01*
X209476262Y-78846028D01*
X209578586Y-78692889D01*
X209614999Y-78604979D01*
X209615000Y-88125167D01*
X209611323Y-88162499D01*
X209615000Y-88199832D01*
X209622404Y-88275000D01*
X209625997Y-88311484D01*
X209669453Y-88454745D01*
X209736928Y-88580981D01*
X209736928Y-89225000D01*
X209753992Y-89398254D01*
X209804528Y-89564850D01*
X209886595Y-89718386D01*
X209997038Y-89852962D01*
X210131614Y-89963405D01*
X210202501Y-90001295D01*
X210202501Y-90055249D01*
X210169463Y-90095506D01*
X210110498Y-90205820D01*
X210074188Y-90325518D01*
X210061928Y-90450000D01*
X210061928Y-92050000D01*
X210074188Y-92174482D01*
X210110498Y-92294180D01*
X210169463Y-92404494D01*
X210248815Y-92501185D01*
X210345506Y-92580537D01*
X210455820Y-92639502D01*
X210575518Y-92675812D01*
X210700000Y-92688072D01*
X211550000Y-92688072D01*
X211674482Y-92675812D01*
X211794180Y-92639502D01*
X211904494Y-92580537D01*
X212000000Y-92502158D01*
X212095506Y-92580537D01*
X212205820Y-92639502D01*
X212325518Y-92675812D01*
X212450000Y-92688072D01*
X213300000Y-92688072D01*
X213424482Y-92675812D01*
X213544180Y-92639502D01*
X213654494Y-92580537D01*
X213751185Y-92501185D01*
X213830537Y-92404494D01*
X213889502Y-92294180D01*
X213925812Y-92174482D01*
X213938072Y-92050000D01*
X213938072Y-90450000D01*
X213925812Y-90325518D01*
X213889502Y-90205820D01*
X213830537Y-90095506D01*
X213817867Y-90080068D01*
X213869180Y-90064502D01*
X213979494Y-90005537D01*
X213990000Y-89996915D01*
X213990000Y-94935198D01*
X213912224Y-95012974D01*
X213776250Y-94877000D01*
X213002000Y-94877000D01*
X213002000Y-94897000D01*
X212748000Y-94897000D01*
X212748000Y-94877000D01*
X212728000Y-94877000D01*
X212728000Y-94623000D01*
X212748000Y-94623000D01*
X212748000Y-93473750D01*
X213002000Y-93473750D01*
X213002000Y-94623000D01*
X213776250Y-94623000D01*
X213935000Y-94464250D01*
X213938072Y-93950000D01*
X213925812Y-93825518D01*
X213889502Y-93705820D01*
X213830537Y-93595506D01*
X213751185Y-93498815D01*
X213654494Y-93419463D01*
X213544180Y-93360498D01*
X213424482Y-93324188D01*
X213300000Y-93311928D01*
X213160750Y-93315000D01*
X213002000Y-93473750D01*
X212748000Y-93473750D01*
X212589250Y-93315000D01*
X212450000Y-93311928D01*
X212325518Y-93324188D01*
X212205820Y-93360498D01*
X212095506Y-93419463D01*
X212000000Y-93497842D01*
X211904494Y-93419463D01*
X211794180Y-93360498D01*
X211674482Y-93324188D01*
X211550000Y-93311928D01*
X210700000Y-93311928D01*
X210575518Y-93324188D01*
X210455820Y-93360498D01*
X210345506Y-93419463D01*
X210248815Y-93498815D01*
X210169463Y-93595506D01*
X210110498Y-93705820D01*
X210074188Y-93825518D01*
X210061928Y-93950000D01*
X210061928Y-95550000D01*
X210074188Y-95674482D01*
X210110498Y-95794180D01*
X210169463Y-95904494D01*
X210248815Y-96001185D01*
X210338760Y-96075001D01*
X207417784Y-96075001D01*
X207441476Y-95996890D01*
X207320155Y-95767000D01*
X206127000Y-95767000D01*
X206127000Y-95787000D01*
X205873000Y-95787000D01*
X205873000Y-95767000D01*
X204679845Y-95767000D01*
X204558524Y-95996890D01*
X204582216Y-96075001D01*
X185423850Y-96075001D01*
X185441476Y-96016890D01*
X185320155Y-95787000D01*
X184127000Y-95787000D01*
X184127000Y-95807000D01*
X183873000Y-95807000D01*
X183873000Y-95787000D01*
X182679845Y-95787000D01*
X182558524Y-96016890D01*
X182576150Y-96075001D01*
X179661240Y-96075001D01*
X179751185Y-96001185D01*
X179830537Y-95904494D01*
X179889502Y-95794180D01*
X179925812Y-95674482D01*
X179938072Y-95550000D01*
X179935000Y-95035750D01*
X179776250Y-94877000D01*
X179002000Y-94877000D01*
X179002000Y-94897000D01*
X178748000Y-94897000D01*
X178748000Y-94877000D01*
X178728000Y-94877000D01*
X178728000Y-94623000D01*
X178748000Y-94623000D01*
X178748000Y-93473750D01*
X179002000Y-93473750D01*
X179002000Y-94623000D01*
X179776250Y-94623000D01*
X179935000Y-94464250D01*
X179938072Y-93950000D01*
X179925812Y-93825518D01*
X179889502Y-93705820D01*
X179830537Y-93595506D01*
X179751185Y-93498815D01*
X179654494Y-93419463D01*
X179544180Y-93360498D01*
X179424482Y-93324188D01*
X179300000Y-93311928D01*
X179160750Y-93315000D01*
X179002000Y-93473750D01*
X178748000Y-93473750D01*
X178589250Y-93315000D01*
X178450000Y-93311928D01*
X178325518Y-93324188D01*
X178205820Y-93360498D01*
X178095506Y-93419463D01*
X178000000Y-93497842D01*
X177904494Y-93419463D01*
X177794180Y-93360498D01*
X177674482Y-93324188D01*
X177550000Y-93311928D01*
X176700000Y-93311928D01*
X176575518Y-93324188D01*
X176455820Y-93360498D01*
X176345506Y-93419463D01*
X176248815Y-93498815D01*
X176169463Y-93595506D01*
X176110498Y-93705820D01*
X176074188Y-93825518D01*
X176061928Y-93950000D01*
X176061928Y-95550000D01*
X176074188Y-95674482D01*
X176110498Y-95794180D01*
X176169463Y-95904494D01*
X176248815Y-96001185D01*
X176345506Y-96080537D01*
X176440270Y-96131190D01*
X176490026Y-96224276D01*
X176561201Y-96311002D01*
X176585000Y-96340001D01*
X176613998Y-96363799D01*
X177596206Y-97346009D01*
X177620000Y-97375002D01*
X177648993Y-97398796D01*
X177648997Y-97398800D01*
X177690768Y-97433080D01*
X177735725Y-97469975D01*
X177867754Y-97540547D01*
X178011015Y-97584004D01*
X178122668Y-97595001D01*
X178122677Y-97595001D01*
X178160000Y-97598677D01*
X178197323Y-97595001D01*
X182651235Y-97595001D01*
X182603175Y-97695901D01*
X182558524Y-97843110D01*
X182679845Y-98073000D01*
X183873000Y-98073000D01*
X183873000Y-98053000D01*
X184127000Y-98053000D01*
X184127000Y-98073000D01*
X185320155Y-98073000D01*
X185441476Y-97843110D01*
X185396825Y-97695901D01*
X185348765Y-97595001D01*
X192761053Y-97595001D01*
X192527397Y-97751125D01*
X192209125Y-98069397D01*
X191959059Y-98443647D01*
X191786811Y-98859490D01*
X191699000Y-99300947D01*
X191699000Y-99340000D01*
X184942570Y-99340000D01*
X185097588Y-99200269D01*
X185271641Y-98966920D01*
X185396825Y-98704099D01*
X185441476Y-98556890D01*
X185320155Y-98327000D01*
X184127000Y-98327000D01*
X184127000Y-98347000D01*
X183873000Y-98347000D01*
X183873000Y-98327000D01*
X182679845Y-98327000D01*
X182558524Y-98556890D01*
X182603175Y-98704099D01*
X182728359Y-98966920D01*
X182902412Y-99200269D01*
X183057430Y-99340000D01*
X170660000Y-99340000D01*
X170660000Y-98680000D01*
X171561928Y-98680000D01*
X171574188Y-98804482D01*
X171610498Y-98924180D01*
X171669463Y-99034494D01*
X171748815Y-99131185D01*
X171845506Y-99210537D01*
X171955820Y-99269502D01*
X172075518Y-99305812D01*
X172200000Y-99318072D01*
X172714250Y-99315000D01*
X172873000Y-99156250D01*
X172873000Y-97717000D01*
X173127000Y-97717000D01*
X173127000Y-99156250D01*
X173285750Y-99315000D01*
X173800000Y-99318072D01*
X173924482Y-99305812D01*
X174044180Y-99269502D01*
X174154494Y-99210537D01*
X174251185Y-99131185D01*
X174330537Y-99034494D01*
X174389502Y-98924180D01*
X174425812Y-98804482D01*
X174438072Y-98680000D01*
X174435000Y-97875750D01*
X174276250Y-97717000D01*
X173127000Y-97717000D01*
X172873000Y-97717000D01*
X171723750Y-97717000D01*
X171565000Y-97875750D01*
X171561928Y-98680000D01*
X170660000Y-98680000D01*
X170660000Y-96500000D01*
X171561928Y-96500000D01*
X171565000Y-97304250D01*
X171723750Y-97463000D01*
X172873000Y-97463000D01*
X172873000Y-96023750D01*
X173127000Y-96023750D01*
X173127000Y-97463000D01*
X174276250Y-97463000D01*
X174435000Y-97304250D01*
X174438072Y-96500000D01*
X174425812Y-96375518D01*
X174389502Y-96255820D01*
X174330537Y-96145506D01*
X174251185Y-96048815D01*
X174154494Y-95969463D01*
X174044180Y-95910498D01*
X173924482Y-95874188D01*
X173800000Y-95861928D01*
X173285750Y-95865000D01*
X173127000Y-96023750D01*
X172873000Y-96023750D01*
X172714250Y-95865000D01*
X172200000Y-95861928D01*
X172075518Y-95874188D01*
X171955820Y-95910498D01*
X171845506Y-95969463D01*
X171748815Y-96048815D01*
X171669463Y-96145506D01*
X171610498Y-96255820D01*
X171574188Y-96375518D01*
X171561928Y-96500000D01*
X170660000Y-96500000D01*
X170660000Y-87320000D01*
X171561928Y-87320000D01*
X171561928Y-89500000D01*
X171574188Y-89624482D01*
X171610498Y-89744180D01*
X171669463Y-89854494D01*
X171748815Y-89951185D01*
X171845506Y-90030537D01*
X171955820Y-90089502D01*
X172075518Y-90125812D01*
X172200000Y-90138072D01*
X173800000Y-90138072D01*
X173924482Y-90125812D01*
X174044180Y-90089502D01*
X174154494Y-90030537D01*
X174251185Y-89951185D01*
X174330537Y-89854494D01*
X174389502Y-89744180D01*
X174425812Y-89624482D01*
X174438072Y-89500000D01*
X174438072Y-87320000D01*
X174425812Y-87195518D01*
X174389502Y-87075820D01*
X174330537Y-86965506D01*
X174251185Y-86868815D01*
X174154494Y-86789463D01*
X174044180Y-86730498D01*
X173924482Y-86694188D01*
X173800000Y-86681928D01*
X173760000Y-86681928D01*
X173760000Y-86545535D01*
X173828586Y-86442889D01*
X173899068Y-86272729D01*
X173935000Y-86092089D01*
X173935000Y-85907911D01*
X173899068Y-85727271D01*
X173828586Y-85557111D01*
X173726262Y-85403972D01*
X173596028Y-85273738D01*
X173442889Y-85171414D01*
X173272729Y-85100932D01*
X173092089Y-85065000D01*
X172907911Y-85065000D01*
X172727271Y-85100932D01*
X172557111Y-85171414D01*
X172403972Y-85273738D01*
X172273738Y-85403972D01*
X172171414Y-85557111D01*
X172100932Y-85727271D01*
X172065000Y-85907911D01*
X172065000Y-86092089D01*
X172100932Y-86272729D01*
X172171414Y-86442889D01*
X172240000Y-86545536D01*
X172240000Y-86681928D01*
X172200000Y-86681928D01*
X172075518Y-86694188D01*
X171955820Y-86730498D01*
X171845506Y-86789463D01*
X171748815Y-86868815D01*
X171669463Y-86965506D01*
X171610498Y-87075820D01*
X171574188Y-87195518D01*
X171561928Y-87320000D01*
X170660000Y-87320000D01*
X170660000Y-80680000D01*
X171561928Y-80680000D01*
X171574188Y-80804482D01*
X171610498Y-80924180D01*
X171669463Y-81034494D01*
X171748815Y-81131185D01*
X171845506Y-81210537D01*
X171955820Y-81269502D01*
X172075518Y-81305812D01*
X172200000Y-81318072D01*
X172714250Y-81315000D01*
X172873000Y-81156250D01*
X172873000Y-79717000D01*
X173127000Y-79717000D01*
X173127000Y-81156250D01*
X173285750Y-81315000D01*
X173800000Y-81318072D01*
X173924482Y-81305812D01*
X174044180Y-81269502D01*
X174154494Y-81210537D01*
X174251185Y-81131185D01*
X174330537Y-81034494D01*
X174389502Y-80924180D01*
X174425812Y-80804482D01*
X174438072Y-80680000D01*
X174435000Y-79875750D01*
X174276250Y-79717000D01*
X173127000Y-79717000D01*
X172873000Y-79717000D01*
X171723750Y-79717000D01*
X171565000Y-79875750D01*
X171561928Y-80680000D01*
X170660000Y-80680000D01*
X170660000Y-78500000D01*
X171561928Y-78500000D01*
X171565000Y-79304250D01*
X171723750Y-79463000D01*
X172873000Y-79463000D01*
X172873000Y-78023750D01*
X173127000Y-78023750D01*
X173127000Y-79463000D01*
X174276250Y-79463000D01*
X174435000Y-79304250D01*
X174438072Y-78500000D01*
X174425812Y-78375518D01*
X174389502Y-78255820D01*
X174330537Y-78145506D01*
X174251185Y-78048815D01*
X174154494Y-77969463D01*
X174044180Y-77910498D01*
X173924482Y-77874188D01*
X173800000Y-77861928D01*
X173285750Y-77865000D01*
X173127000Y-78023750D01*
X172873000Y-78023750D01*
X172714250Y-77865000D01*
X172200000Y-77861928D01*
X172075518Y-77874188D01*
X171955820Y-77910498D01*
X171845506Y-77969463D01*
X171748815Y-78048815D01*
X171669463Y-78145506D01*
X171610498Y-78255820D01*
X171574188Y-78375518D01*
X171561928Y-78500000D01*
X170660000Y-78500000D01*
X170660000Y-69320000D01*
X171561928Y-69320000D01*
X171561928Y-71500000D01*
X171574188Y-71624482D01*
X171610498Y-71744180D01*
X171669463Y-71854494D01*
X171748815Y-71951185D01*
X171845506Y-72030537D01*
X171955820Y-72089502D01*
X172075518Y-72125812D01*
X172200000Y-72138072D01*
X173800000Y-72138072D01*
X173924482Y-72125812D01*
X174044180Y-72089502D01*
X174154494Y-72030537D01*
X174251185Y-71951185D01*
X174330537Y-71854494D01*
X174389502Y-71744180D01*
X174425812Y-71624482D01*
X174438072Y-71500000D01*
X174438072Y-69320000D01*
X174425812Y-69195518D01*
X174389502Y-69075820D01*
X174330537Y-68965506D01*
X174251185Y-68868815D01*
X174154494Y-68789463D01*
X174044180Y-68730498D01*
X173924482Y-68694188D01*
X173800000Y-68681928D01*
X173760000Y-68681928D01*
X173760000Y-68545535D01*
X173828586Y-68442889D01*
X173899068Y-68272729D01*
X173935000Y-68092089D01*
X173935000Y-67907911D01*
X173899068Y-67727271D01*
X173828586Y-67557111D01*
X173726262Y-67403972D01*
X173596028Y-67273738D01*
X173442889Y-67171414D01*
X173272729Y-67100932D01*
X173092089Y-67065000D01*
X172907911Y-67065000D01*
X172727271Y-67100932D01*
X172557111Y-67171414D01*
X172403972Y-67273738D01*
X172273738Y-67403972D01*
X172171414Y-67557111D01*
X172100932Y-67727271D01*
X172065000Y-67907911D01*
X172065000Y-68092089D01*
X172100932Y-68272729D01*
X172171414Y-68442889D01*
X172240000Y-68545536D01*
X172240000Y-68681928D01*
X172200000Y-68681928D01*
X172075518Y-68694188D01*
X171955820Y-68730498D01*
X171845506Y-68789463D01*
X171748815Y-68868815D01*
X171669463Y-68965506D01*
X171610498Y-69075820D01*
X171574188Y-69195518D01*
X171561928Y-69320000D01*
X170660000Y-69320000D01*
X170660000Y-60500000D01*
X171561928Y-60500000D01*
X171561928Y-62680000D01*
X171574188Y-62804482D01*
X171610498Y-62924180D01*
X171669463Y-63034494D01*
X171748815Y-63131185D01*
X171845506Y-63210537D01*
X171955820Y-63269502D01*
X172075518Y-63305812D01*
X172168172Y-63314937D01*
X172100932Y-63477271D01*
X172065000Y-63657911D01*
X172065000Y-63842089D01*
X172100932Y-64022729D01*
X172171414Y-64192889D01*
X172273738Y-64346028D01*
X172403972Y-64476262D01*
X172557111Y-64578586D01*
X172727271Y-64649068D01*
X172907911Y-64685000D01*
X173092089Y-64685000D01*
X173272729Y-64649068D01*
X173442889Y-64578586D01*
X173596028Y-64476262D01*
X173726262Y-64346028D01*
X173828586Y-64192889D01*
X173899068Y-64022729D01*
X173935000Y-63842089D01*
X173935000Y-63657911D01*
X173899068Y-63477271D01*
X173831828Y-63314937D01*
X173924482Y-63305812D01*
X174044180Y-63269502D01*
X174154494Y-63210537D01*
X174251185Y-63131185D01*
X174330537Y-63034494D01*
X174389502Y-62924180D01*
X174425812Y-62804482D01*
X174438072Y-62680000D01*
X174438072Y-60500000D01*
X174425812Y-60375518D01*
X174389502Y-60255820D01*
X174330537Y-60145506D01*
X174251185Y-60048815D01*
X174154494Y-59969463D01*
X174044180Y-59910498D01*
X173924482Y-59874188D01*
X173800000Y-59861928D01*
X172200000Y-59861928D01*
X172075518Y-59874188D01*
X171955820Y-59910498D01*
X171845506Y-59969463D01*
X171748815Y-60048815D01*
X171669463Y-60145506D01*
X171610498Y-60255820D01*
X171574188Y-60375518D01*
X171561928Y-60500000D01*
X170660000Y-60500000D01*
X170660000Y-53500000D01*
X171561928Y-53500000D01*
X171574188Y-53624482D01*
X171610498Y-53744180D01*
X171669463Y-53854494D01*
X171748815Y-53951185D01*
X171845506Y-54030537D01*
X171955820Y-54089502D01*
X172075518Y-54125812D01*
X172200000Y-54138072D01*
X172714250Y-54135000D01*
X172873000Y-53976250D01*
X172873000Y-52537000D01*
X173127000Y-52537000D01*
X173127000Y-53976250D01*
X173285750Y-54135000D01*
X173800000Y-54138072D01*
X173924482Y-54125812D01*
X174044180Y-54089502D01*
X174154494Y-54030537D01*
X174251185Y-53951185D01*
X174330537Y-53854494D01*
X174389502Y-53744180D01*
X174425812Y-53624482D01*
X174438072Y-53500000D01*
X174435000Y-52695750D01*
X174276250Y-52537000D01*
X173127000Y-52537000D01*
X172873000Y-52537000D01*
X171723750Y-52537000D01*
X171565000Y-52695750D01*
X171561928Y-53500000D01*
X170660000Y-53500000D01*
X170660000Y-51320000D01*
X171561928Y-51320000D01*
X171565000Y-52124250D01*
X171723750Y-52283000D01*
X172873000Y-52283000D01*
X172873000Y-50843750D01*
X173127000Y-50843750D01*
X173127000Y-52283000D01*
X174276250Y-52283000D01*
X174435000Y-52124250D01*
X174438072Y-51320000D01*
X174425812Y-51195518D01*
X174389502Y-51075820D01*
X174330537Y-50965506D01*
X174251185Y-50868815D01*
X174154494Y-50789463D01*
X174044180Y-50730498D01*
X173924482Y-50694188D01*
X173800000Y-50681928D01*
X173285750Y-50685000D01*
X173127000Y-50843750D01*
X172873000Y-50843750D01*
X172714250Y-50685000D01*
X172200000Y-50681928D01*
X172075518Y-50694188D01*
X171955820Y-50730498D01*
X171845506Y-50789463D01*
X171748815Y-50868815D01*
X171669463Y-50965506D01*
X171610498Y-51075820D01*
X171574188Y-51195518D01*
X171561928Y-51320000D01*
X170660000Y-51320000D01*
X170660000Y-50660000D01*
X186715198Y-50660000D01*
X183183624Y-54191575D01*
%TA.AperFunction,Conductor*%
D25*
G36*
X183183624Y-54191575D02*
G01*
X183161003Y-54173011D01*
X180176984Y-51188993D01*
X180153181Y-51159989D01*
X180037456Y-51065016D01*
X179905427Y-50994444D01*
X179762166Y-50950987D01*
X179650513Y-50939990D01*
X179650502Y-50939990D01*
X179613180Y-50936314D01*
X179575858Y-50939990D01*
X178049832Y-50939990D01*
X178012509Y-50936314D01*
X177975186Y-50939990D01*
X177975177Y-50939990D01*
X177863524Y-50950987D01*
X177720263Y-50994444D01*
X177588234Y-51065016D01*
X177588232Y-51065017D01*
X177588233Y-51065017D01*
X177501506Y-51136191D01*
X177501502Y-51136195D01*
X177472509Y-51159989D01*
X177448715Y-51188982D01*
X177250769Y-51386928D01*
X176625000Y-51386928D01*
X176451746Y-51403992D01*
X176285150Y-51454528D01*
X176131614Y-51536595D01*
X175997038Y-51647038D01*
X175886595Y-51781614D01*
X175804528Y-51935150D01*
X175753992Y-52101746D01*
X175736928Y-52275000D01*
X175736928Y-53225000D01*
X175753992Y-53398254D01*
X175804528Y-53564850D01*
X175886595Y-53718386D01*
X175997038Y-53852962D01*
X176131614Y-53963405D01*
X176202501Y-54001295D01*
X176202501Y-54055249D01*
X176169463Y-54095506D01*
X176110498Y-54205820D01*
X176074188Y-54325518D01*
X176061928Y-54450000D01*
X176061928Y-55238271D01*
X175864001Y-55436198D01*
X175834998Y-55460000D01*
X175795808Y-55507754D01*
X175740025Y-55575725D01*
X175687349Y-55674275D01*
X175669453Y-55707755D01*
X175625996Y-55851016D01*
X175614999Y-55962669D01*
X175614999Y-55962679D01*
X175611323Y-56000001D01*
X175614999Y-56037323D01*
X175615000Y-70125167D01*
X175611323Y-70162499D01*
X175615000Y-70199832D01*
X175625997Y-70311485D01*
X175633490Y-70336185D01*
X175669453Y-70454745D01*
X175736928Y-70580981D01*
X175736928Y-71225000D01*
X175753992Y-71398254D01*
X175804528Y-71564850D01*
X175886595Y-71718386D01*
X175997038Y-71852962D01*
X176131614Y-71963405D01*
X176202501Y-72001295D01*
X176202501Y-72055249D01*
X176169463Y-72095506D01*
X176110498Y-72205820D01*
X176074188Y-72325518D01*
X176061928Y-72450000D01*
X176061928Y-73238271D01*
X175864001Y-73436198D01*
X175834998Y-73460000D01*
X175792507Y-73511776D01*
X175740025Y-73575725D01*
X175688208Y-73672667D01*
X175669453Y-73707755D01*
X175625996Y-73851016D01*
X175614999Y-73962669D01*
X175614999Y-73962679D01*
X175611323Y-74000001D01*
X175614999Y-74037323D01*
X175615000Y-88125167D01*
X175611323Y-88162499D01*
X175615000Y-88199832D01*
X175622404Y-88275000D01*
X175625997Y-88311484D01*
X175669453Y-88454745D01*
X175736928Y-88580981D01*
X175736928Y-89225000D01*
X175753992Y-89398254D01*
X175804528Y-89564850D01*
X175886595Y-89718386D01*
X175997038Y-89852962D01*
X176131614Y-89963405D01*
X176202501Y-90001295D01*
X176202501Y-90055249D01*
X176169463Y-90095506D01*
X176110498Y-90205820D01*
X176074188Y-90325518D01*
X176061928Y-90450000D01*
X176061928Y-92050000D01*
X176074188Y-92174482D01*
X176110498Y-92294180D01*
X176169463Y-92404494D01*
X176248815Y-92501185D01*
X176345506Y-92580537D01*
X176455820Y-92639502D01*
X176575518Y-92675812D01*
X176700000Y-92688072D01*
X177550000Y-92688072D01*
X177674482Y-92675812D01*
X177794180Y-92639502D01*
X177904494Y-92580537D01*
X178000000Y-92502158D01*
X178095506Y-92580537D01*
X178205820Y-92639502D01*
X178325518Y-92675812D01*
X178450000Y-92688072D01*
X179300000Y-92688072D01*
X179424482Y-92675812D01*
X179544180Y-92639502D01*
X179654494Y-92580537D01*
X179751185Y-92501185D01*
X179830537Y-92404494D01*
X179889502Y-92294180D01*
X179925812Y-92174482D01*
X179938072Y-92050000D01*
X179938072Y-90450000D01*
X179925812Y-90325518D01*
X179889502Y-90205820D01*
X179830537Y-90095506D01*
X179817867Y-90080068D01*
X179869180Y-90064502D01*
X179979494Y-90005537D01*
X180076185Y-89926185D01*
X180155537Y-89829494D01*
X180214502Y-89719180D01*
X180250812Y-89599482D01*
X180263072Y-89475000D01*
X180260000Y-89035750D01*
X180101250Y-88877000D01*
X179164500Y-88877000D01*
X179164500Y-88897000D01*
X178910500Y-88897000D01*
X178910500Y-88877000D01*
X178890500Y-88877000D01*
X178890500Y-88623000D01*
X178910500Y-88623000D01*
X178910500Y-87548750D01*
X179164500Y-87548750D01*
X179164500Y-88623000D01*
X180101250Y-88623000D01*
X180260000Y-88464250D01*
X180263072Y-88025000D01*
X180250812Y-87900518D01*
X180214502Y-87780820D01*
X180155537Y-87670506D01*
X180076185Y-87573815D01*
X179979494Y-87494463D01*
X179869180Y-87435498D01*
X179749482Y-87399188D01*
X179625000Y-87386928D01*
X179323250Y-87390000D01*
X179164500Y-87548750D01*
X178910500Y-87548750D01*
X178884990Y-87523240D01*
X178884990Y-78185000D01*
X179002002Y-78185000D01*
X179002002Y-78026252D01*
X179160750Y-78185000D01*
X179300000Y-78188072D01*
X179424482Y-78175812D01*
X179544180Y-78139502D01*
X179654494Y-78080537D01*
X179751185Y-78001185D01*
X179830537Y-77904494D01*
X179889502Y-77794180D01*
X179925812Y-77674482D01*
X179938072Y-77550000D01*
X179935000Y-77035750D01*
X179776250Y-76877000D01*
X179002000Y-76877000D01*
X179002000Y-76897000D01*
X178748000Y-76897000D01*
X178748000Y-76877000D01*
X178728000Y-76877000D01*
X178728000Y-76623000D01*
X178748000Y-76623000D01*
X178748000Y-75473750D01*
X179002000Y-75473750D01*
X179002000Y-76623000D01*
X179776250Y-76623000D01*
X179935000Y-76464250D01*
X179938072Y-75950000D01*
X179925812Y-75825518D01*
X179889502Y-75705820D01*
X179830537Y-75595506D01*
X179751185Y-75498815D01*
X179654494Y-75419463D01*
X179544180Y-75360498D01*
X179424482Y-75324188D01*
X179300000Y-75311928D01*
X179160750Y-75315000D01*
X179002000Y-75473750D01*
X178748000Y-75473750D01*
X178589250Y-75315000D01*
X178450000Y-75311928D01*
X178325518Y-75324188D01*
X178205820Y-75360498D01*
X178095506Y-75419463D01*
X178000000Y-75497842D01*
X177904494Y-75419463D01*
X177794180Y-75360498D01*
X177674482Y-75324188D01*
X177550000Y-75311928D01*
X177134999Y-75311928D01*
X177134999Y-74688072D01*
X177550000Y-74688072D01*
X177674482Y-74675812D01*
X177794180Y-74639502D01*
X177904494Y-74580537D01*
X178000000Y-74502158D01*
X178095506Y-74580537D01*
X178205820Y-74639502D01*
X178325518Y-74675812D01*
X178450000Y-74688072D01*
X179300000Y-74688072D01*
X179424482Y-74675812D01*
X179544180Y-74639502D01*
X179654494Y-74580537D01*
X179751185Y-74501185D01*
X179830537Y-74404494D01*
X179889502Y-74294180D01*
X179925812Y-74174482D01*
X179938072Y-74050000D01*
X179938072Y-72450000D01*
X179925812Y-72325518D01*
X179889502Y-72205820D01*
X179830537Y-72095506D01*
X179817867Y-72080068D01*
X179869180Y-72064502D01*
X179979494Y-72005537D01*
X180076185Y-71926185D01*
X180155537Y-71829494D01*
X180214502Y-71719180D01*
X180250812Y-71599482D01*
X180263072Y-71475000D01*
X180260000Y-71035750D01*
X180101250Y-70877000D01*
X179164500Y-70877000D01*
X179164500Y-70897000D01*
X178910500Y-70897000D01*
X178910500Y-70877000D01*
X178890500Y-70877000D01*
X178890500Y-70623000D01*
X178910500Y-70623000D01*
X178910500Y-69548750D01*
X179164500Y-69548750D01*
X179164500Y-70623000D01*
X180101250Y-70623000D01*
X180260000Y-70464250D01*
X180263072Y-70025000D01*
X180250812Y-69900518D01*
X180214502Y-69780820D01*
X180155537Y-69670506D01*
X180076185Y-69573815D01*
X179979494Y-69494463D01*
X179869180Y-69435498D01*
X179749482Y-69399188D01*
X179625000Y-69386928D01*
X179323250Y-69390000D01*
X179164500Y-69548750D01*
X178910500Y-69548750D01*
X178884990Y-69523240D01*
X178884990Y-68860844D01*
X178977271Y-68899068D01*
X179157911Y-68935000D01*
X179342089Y-68935000D01*
X179522729Y-68899068D01*
X179692889Y-68828586D01*
X179846028Y-68726262D01*
X179976262Y-68596028D01*
X180078586Y-68442889D01*
X180149068Y-68272729D01*
X180173153Y-68151649D01*
X181954803Y-66370000D01*
X187265197Y-66370000D01*
X181488998Y-72146201D01*
X181460000Y-72169999D01*
X181436202Y-72198997D01*
X181436201Y-72198998D01*
X181365026Y-72285724D01*
X181294454Y-72417754D01*
X181272539Y-72490000D01*
X181250998Y-72561014D01*
X181242334Y-72648976D01*
X181236324Y-72710000D01*
X181240001Y-72747332D01*
X181240000Y-77685198D01*
X180098351Y-78826847D01*
X179977271Y-78850932D01*
X179807111Y-78921414D01*
X179653972Y-79023738D01*
X179523738Y-79153972D01*
X179421414Y-79307111D01*
X179350932Y-79477271D01*
X179315000Y-79657911D01*
X179315000Y-79842089D01*
X179350932Y-80022729D01*
X179421414Y-80192889D01*
X179523738Y-80346028D01*
X179653972Y-80476262D01*
X179807111Y-80578586D01*
X179977271Y-80649068D01*
X180157911Y-80685000D01*
X180342089Y-80685000D01*
X180522729Y-80649068D01*
X180692889Y-80578586D01*
X180846028Y-80476262D01*
X180976262Y-80346028D01*
X181078586Y-80192889D01*
X181149068Y-80022729D01*
X181173153Y-79901649D01*
X182064999Y-79009803D01*
X182065000Y-91907667D01*
X182061323Y-91944999D01*
X182075997Y-92093984D01*
X182119453Y-92237245D01*
X182190025Y-92369275D01*
X182218929Y-92404494D01*
X182284999Y-92485000D01*
X182313997Y-92508798D01*
X182511928Y-92706729D01*
X182511928Y-93970000D01*
X182524188Y-94094482D01*
X182560498Y-94214180D01*
X182619463Y-94324494D01*
X182698815Y-94421185D01*
X182795506Y-94500537D01*
X182905820Y-94559502D01*
X182986466Y-94583966D01*
X182902412Y-94659731D01*
X182728359Y-94893080D01*
X182603175Y-95155901D01*
X182558524Y-95303110D01*
X182679845Y-95533000D01*
X183873000Y-95533000D01*
X183873000Y-95513000D01*
X184127000Y-95513000D01*
X184127000Y-95533000D01*
X185320155Y-95533000D01*
X185441476Y-95303110D01*
X185396825Y-95155901D01*
X185271641Y-94893080D01*
X185097588Y-94659731D01*
X185013534Y-94583966D01*
X185094180Y-94559502D01*
X185204494Y-94500537D01*
X185301185Y-94421185D01*
X185380537Y-94324494D01*
X185439502Y-94214180D01*
X185475812Y-94094482D01*
X185488072Y-93970000D01*
X185488072Y-92270000D01*
X185475812Y-92145518D01*
X185439502Y-92025820D01*
X185380537Y-91915506D01*
X185301185Y-91818815D01*
X185204494Y-91739463D01*
X185094180Y-91680498D01*
X185021620Y-91658487D01*
X185153475Y-91526632D01*
X185315990Y-91283411D01*
X185427932Y-91013158D01*
X185485000Y-90726260D01*
X185485000Y-90433740D01*
X185427932Y-90146842D01*
X185315990Y-89876589D01*
X185153475Y-89633368D01*
X184946632Y-89426525D01*
X184772240Y-89310000D01*
X184946632Y-89193475D01*
X185153475Y-88986632D01*
X185315990Y-88743411D01*
X185427932Y-88473158D01*
X185485000Y-88186260D01*
X185485000Y-87893740D01*
X185427932Y-87606842D01*
X185315990Y-87336589D01*
X185153475Y-87093368D01*
X184946632Y-86886525D01*
X184772240Y-86770000D01*
X184946632Y-86653475D01*
X185153475Y-86446632D01*
X185315990Y-86203411D01*
X185427932Y-85933158D01*
X185485000Y-85646260D01*
X185485000Y-85353740D01*
X185427932Y-85066842D01*
X185315990Y-84796589D01*
X185153475Y-84553368D01*
X184946632Y-84346525D01*
X184760000Y-84221822D01*
X184760000Y-83924610D01*
X184814850Y-83907972D01*
X184968386Y-83825905D01*
X185102962Y-83715462D01*
X185213405Y-83580886D01*
X185295472Y-83427350D01*
X185346008Y-83260754D01*
X185363072Y-83087500D01*
X185363072Y-82412500D01*
X185346008Y-82239246D01*
X185295472Y-82072650D01*
X185213405Y-81919114D01*
X185102962Y-81784538D01*
X185015183Y-81712500D01*
X185102962Y-81640462D01*
X185213405Y-81505886D01*
X185295472Y-81352350D01*
X185346008Y-81185754D01*
X185363072Y-81012500D01*
X185363072Y-80337500D01*
X185346008Y-80164246D01*
X185295472Y-79997650D01*
X185213405Y-79844114D01*
X185102962Y-79709538D01*
X184968386Y-79599095D01*
X184945359Y-79586787D01*
X185077962Y-79477962D01*
X185188405Y-79343387D01*
X185232976Y-79260000D01*
X185575868Y-79260000D01*
X185613190Y-79263676D01*
X185650512Y-79260000D01*
X185650523Y-79260000D01*
X185762176Y-79249003D01*
X185905437Y-79205546D01*
X186037466Y-79134974D01*
X186153191Y-79040001D01*
X186176994Y-79010997D01*
X187240001Y-77947991D01*
X187240000Y-79384962D01*
X187155820Y-79410498D01*
X187045506Y-79469463D01*
X186948815Y-79548815D01*
X186869463Y-79645506D01*
X186810498Y-79755820D01*
X186774188Y-79875518D01*
X186761928Y-80000000D01*
X186761928Y-81714402D01*
X186730000Y-81874916D01*
X186730000Y-82125084D01*
X186778805Y-82370445D01*
X186874541Y-82601571D01*
X187013527Y-82809578D01*
X187190422Y-82986473D01*
X187398429Y-83125459D01*
X187629555Y-83221195D01*
X187874916Y-83270000D01*
X188125084Y-83270000D01*
X188370445Y-83221195D01*
X188601571Y-83125459D01*
X188809578Y-82986473D01*
X188986473Y-82809578D01*
X189000000Y-82789333D01*
X189013527Y-82809578D01*
X189190422Y-82986473D01*
X189398429Y-83125459D01*
X189629555Y-83221195D01*
X189874916Y-83270000D01*
X190125084Y-83270000D01*
X190183566Y-83258367D01*
X191186201Y-84261003D01*
X191209999Y-84290001D01*
X191325724Y-84384974D01*
X191457753Y-84455546D01*
X191601014Y-84499003D01*
X191712667Y-84510000D01*
X191712675Y-84510000D01*
X191750000Y-84513676D01*
X191787325Y-84510000D01*
X201633480Y-84510000D01*
X201670802Y-84513676D01*
X201708124Y-84510000D01*
X201708135Y-84510000D01*
X201819788Y-84499003D01*
X201963049Y-84455546D01*
X202095078Y-84384974D01*
X202210803Y-84290001D01*
X202234606Y-84260997D01*
X203761003Y-82734601D01*
X203790001Y-82710803D01*
X203884974Y-82595078D01*
X203955546Y-82463049D01*
X203999003Y-82319788D01*
X204010000Y-82208135D01*
X204010000Y-82208126D01*
X204013676Y-82170803D01*
X204010000Y-82133480D01*
X204010000Y-77909800D01*
X205240000Y-79139800D01*
X205240001Y-84201821D01*
X205053368Y-84326525D01*
X204846525Y-84533368D01*
X204684010Y-84776589D01*
X204572068Y-85046842D01*
X204515000Y-85333740D01*
X204515000Y-85626260D01*
X204572068Y-85913158D01*
X204684010Y-86183411D01*
X204846525Y-86426632D01*
X205053368Y-86633475D01*
X205227760Y-86750000D01*
X205053368Y-86866525D01*
X204846525Y-87073368D01*
X204684010Y-87316589D01*
X204572068Y-87586842D01*
X204515000Y-87873740D01*
X204515000Y-88166260D01*
X204572068Y-88453158D01*
X204684010Y-88723411D01*
X204846525Y-88966632D01*
X205053368Y-89173475D01*
X205227760Y-89290000D01*
X205053368Y-89406525D01*
X204846525Y-89613368D01*
X204684010Y-89856589D01*
X204572068Y-90126842D01*
X204515000Y-90413740D01*
X204515000Y-90706260D01*
X204572068Y-90993158D01*
X204684010Y-91263411D01*
X204846525Y-91506632D01*
X205053368Y-91713475D01*
X205227760Y-91830000D01*
X205053368Y-91946525D01*
X204846525Y-92153368D01*
X204684010Y-92396589D01*
X204572068Y-92666842D01*
X204515000Y-92953740D01*
X204515000Y-93246260D01*
X204572068Y-93533158D01*
X204684010Y-93803411D01*
X204846525Y-94046632D01*
X205053368Y-94253475D01*
X205235534Y-94375195D01*
X205118645Y-94444822D01*
X204902412Y-94639731D01*
X204728359Y-94873080D01*
X204603175Y-95135901D01*
X204558524Y-95283110D01*
X204679845Y-95513000D01*
X205873000Y-95513000D01*
X205873000Y-95493000D01*
X206127000Y-95493000D01*
X206127000Y-95513000D01*
X207320155Y-95513000D01*
X207441476Y-95283110D01*
X207396825Y-95135901D01*
X207271641Y-94873080D01*
X207097588Y-94639731D01*
X206881355Y-94444822D01*
X206764466Y-94375195D01*
X206946632Y-94253475D01*
X207153475Y-94046632D01*
X207315990Y-93803411D01*
X207427932Y-93533158D01*
X207485000Y-93246260D01*
X207485000Y-92953740D01*
X207427932Y-92666842D01*
X207315990Y-92396589D01*
X207153475Y-92153368D01*
X206946632Y-91946525D01*
X206772240Y-91830000D01*
X206946632Y-91713475D01*
X207153475Y-91506632D01*
X207315990Y-91263411D01*
X207427932Y-90993158D01*
X207485000Y-90706260D01*
X207485000Y-90413740D01*
X207427932Y-90126842D01*
X207315990Y-89856589D01*
X207153475Y-89613368D01*
X206946632Y-89406525D01*
X206772240Y-89290000D01*
X206946632Y-89173475D01*
X207153475Y-88966632D01*
X207315990Y-88723411D01*
X207427932Y-88453158D01*
X207485000Y-88166260D01*
X207485000Y-87873740D01*
X207427932Y-87586842D01*
X207315990Y-87316589D01*
X207153475Y-87073368D01*
X206946632Y-86866525D01*
X206772240Y-86750000D01*
X206946632Y-86633475D01*
X207153475Y-86426632D01*
X207315990Y-86183411D01*
X207427932Y-85913158D01*
X207485000Y-85626260D01*
X207485000Y-85333740D01*
X207427932Y-85046842D01*
X207315990Y-84776589D01*
X207153475Y-84533368D01*
X206946632Y-84326525D01*
X206760000Y-84201822D01*
X206760000Y-78862331D01*
X206763677Y-78824998D01*
X206749003Y-78676012D01*
X206705546Y-78532751D01*
X206634974Y-78400722D01*
X206563799Y-78313995D01*
X206540001Y-78284997D01*
X206511004Y-78261200D01*
X202419421Y-74169618D01*
X202522729Y-74149068D01*
X202692889Y-74078586D01*
X202795535Y-74010000D01*
X203435199Y-74010000D01*
X207826847Y-78401649D01*
X207850932Y-78522729D01*
X207921414Y-78692889D01*
X208023738Y-78846028D01*
X208153972Y-78976262D01*
X208307111Y-79078586D01*
X208477271Y-79149068D01*
X208657911Y-79185000D01*
X208842089Y-79185000D01*
X209022729Y-79149068D01*
X209192889Y-79078586D01*
X209346028Y-78976262D01*
X209476262Y-78846028D01*
X209578586Y-78692889D01*
X209614999Y-78604979D01*
X209615000Y-88125167D01*
X209611323Y-88162499D01*
X209615000Y-88199832D01*
X209622404Y-88275000D01*
X209625997Y-88311484D01*
X209669453Y-88454745D01*
X209736928Y-88580981D01*
X209736928Y-89225000D01*
X209753992Y-89398254D01*
X209804528Y-89564850D01*
X209886595Y-89718386D01*
X209997038Y-89852962D01*
X210131614Y-89963405D01*
X210202501Y-90001295D01*
X210202501Y-90055249D01*
X210169463Y-90095506D01*
X210110498Y-90205820D01*
X210074188Y-90325518D01*
X210061928Y-90450000D01*
X210061928Y-92050000D01*
X210074188Y-92174482D01*
X210110498Y-92294180D01*
X210169463Y-92404494D01*
X210248815Y-92501185D01*
X210345506Y-92580537D01*
X210455820Y-92639502D01*
X210575518Y-92675812D01*
X210700000Y-92688072D01*
X211550000Y-92688072D01*
X211674482Y-92675812D01*
X211794180Y-92639502D01*
X211904494Y-92580537D01*
X212000000Y-92502158D01*
X212095506Y-92580537D01*
X212205820Y-92639502D01*
X212325518Y-92675812D01*
X212450000Y-92688072D01*
X213300000Y-92688072D01*
X213424482Y-92675812D01*
X213544180Y-92639502D01*
X213654494Y-92580537D01*
X213751185Y-92501185D01*
X213830537Y-92404494D01*
X213889502Y-92294180D01*
X213925812Y-92174482D01*
X213938072Y-92050000D01*
X213938072Y-90450000D01*
X213925812Y-90325518D01*
X213889502Y-90205820D01*
X213830537Y-90095506D01*
X213817867Y-90080068D01*
X213869180Y-90064502D01*
X213979494Y-90005537D01*
X213990000Y-89996915D01*
X213990000Y-94935198D01*
X213912224Y-95012974D01*
X213776250Y-94877000D01*
X213002000Y-94877000D01*
X213002000Y-94897000D01*
X212748000Y-94897000D01*
X212748000Y-94877000D01*
X212728000Y-94877000D01*
X212728000Y-94623000D01*
X212748000Y-94623000D01*
X212748000Y-93473750D01*
X213002000Y-93473750D01*
X213002000Y-94623000D01*
X213776250Y-94623000D01*
X213935000Y-94464250D01*
X213938072Y-93950000D01*
X213925812Y-93825518D01*
X213889502Y-93705820D01*
X213830537Y-93595506D01*
X213751185Y-93498815D01*
X213654494Y-93419463D01*
X213544180Y-93360498D01*
X213424482Y-93324188D01*
X213300000Y-93311928D01*
X213160750Y-93315000D01*
X213002000Y-93473750D01*
X212748000Y-93473750D01*
X212589250Y-93315000D01*
X212450000Y-93311928D01*
X212325518Y-93324188D01*
X212205820Y-93360498D01*
X212095506Y-93419463D01*
X212000000Y-93497842D01*
X211904494Y-93419463D01*
X211794180Y-93360498D01*
X211674482Y-93324188D01*
X211550000Y-93311928D01*
X210700000Y-93311928D01*
X210575518Y-93324188D01*
X210455820Y-93360498D01*
X210345506Y-93419463D01*
X210248815Y-93498815D01*
X210169463Y-93595506D01*
X210110498Y-93705820D01*
X210074188Y-93825518D01*
X210061928Y-93950000D01*
X210061928Y-95550000D01*
X210074188Y-95674482D01*
X210110498Y-95794180D01*
X210169463Y-95904494D01*
X210248815Y-96001185D01*
X210338760Y-96075001D01*
X207417784Y-96075001D01*
X207441476Y-95996890D01*
X207320155Y-95767000D01*
X206127000Y-95767000D01*
X206127000Y-95787000D01*
X205873000Y-95787000D01*
X205873000Y-95767000D01*
X204679845Y-95767000D01*
X204558524Y-95996890D01*
X204582216Y-96075001D01*
X185423850Y-96075001D01*
X185441476Y-96016890D01*
X185320155Y-95787000D01*
X184127000Y-95787000D01*
X184127000Y-95807000D01*
X183873000Y-95807000D01*
X183873000Y-95787000D01*
X182679845Y-95787000D01*
X182558524Y-96016890D01*
X182576150Y-96075001D01*
X179661240Y-96075001D01*
X179751185Y-96001185D01*
X179830537Y-95904494D01*
X179889502Y-95794180D01*
X179925812Y-95674482D01*
X179938072Y-95550000D01*
X179935000Y-95035750D01*
X179776250Y-94877000D01*
X179002000Y-94877000D01*
X179002000Y-94897000D01*
X178748000Y-94897000D01*
X178748000Y-94877000D01*
X178728000Y-94877000D01*
X178728000Y-94623000D01*
X178748000Y-94623000D01*
X178748000Y-93473750D01*
X179002000Y-93473750D01*
X179002000Y-94623000D01*
X179776250Y-94623000D01*
X179935000Y-94464250D01*
X179938072Y-93950000D01*
X179925812Y-93825518D01*
X179889502Y-93705820D01*
X179830537Y-93595506D01*
X179751185Y-93498815D01*
X179654494Y-93419463D01*
X179544180Y-93360498D01*
X179424482Y-93324188D01*
X179300000Y-93311928D01*
X179160750Y-93315000D01*
X179002000Y-93473750D01*
X178748000Y-93473750D01*
X178589250Y-93315000D01*
X178450000Y-93311928D01*
X178325518Y-93324188D01*
X178205820Y-93360498D01*
X178095506Y-93419463D01*
X178000000Y-93497842D01*
X177904494Y-93419463D01*
X177794180Y-93360498D01*
X177674482Y-93324188D01*
X177550000Y-93311928D01*
X176700000Y-93311928D01*
X176575518Y-93324188D01*
X176455820Y-93360498D01*
X176345506Y-93419463D01*
X176248815Y-93498815D01*
X176169463Y-93595506D01*
X176110498Y-93705820D01*
X176074188Y-93825518D01*
X176061928Y-93950000D01*
X176061928Y-95550000D01*
X176074188Y-95674482D01*
X176110498Y-95794180D01*
X176169463Y-95904494D01*
X176248815Y-96001185D01*
X176345506Y-96080537D01*
X176440270Y-96131190D01*
X176490026Y-96224276D01*
X176561201Y-96311002D01*
X176585000Y-96340001D01*
X176613998Y-96363799D01*
X177596206Y-97346009D01*
X177620000Y-97375002D01*
X177648993Y-97398796D01*
X177648997Y-97398800D01*
X177690768Y-97433080D01*
X177735725Y-97469975D01*
X177867754Y-97540547D01*
X178011015Y-97584004D01*
X178122668Y-97595001D01*
X178122677Y-97595001D01*
X178160000Y-97598677D01*
X178197323Y-97595001D01*
X182651235Y-97595001D01*
X182603175Y-97695901D01*
X182558524Y-97843110D01*
X182679845Y-98073000D01*
X183873000Y-98073000D01*
X183873000Y-98053000D01*
X184127000Y-98053000D01*
X184127000Y-98073000D01*
X185320155Y-98073000D01*
X185441476Y-97843110D01*
X185396825Y-97695901D01*
X185348765Y-97595001D01*
X192761053Y-97595001D01*
X192527397Y-97751125D01*
X192209125Y-98069397D01*
X191959059Y-98443647D01*
X191786811Y-98859490D01*
X191699000Y-99300947D01*
X191699000Y-99340000D01*
X184942570Y-99340000D01*
X185097588Y-99200269D01*
X185271641Y-98966920D01*
X185396825Y-98704099D01*
X185441476Y-98556890D01*
X185320155Y-98327000D01*
X184127000Y-98327000D01*
X184127000Y-98347000D01*
X183873000Y-98347000D01*
X183873000Y-98327000D01*
X182679845Y-98327000D01*
X182558524Y-98556890D01*
X182603175Y-98704099D01*
X182728359Y-98966920D01*
X182902412Y-99200269D01*
X183057430Y-99340000D01*
X170660000Y-99340000D01*
X170660000Y-98680000D01*
X171561928Y-98680000D01*
X171574188Y-98804482D01*
X171610498Y-98924180D01*
X171669463Y-99034494D01*
X171748815Y-99131185D01*
X171845506Y-99210537D01*
X171955820Y-99269502D01*
X172075518Y-99305812D01*
X172200000Y-99318072D01*
X172714250Y-99315000D01*
X172873000Y-99156250D01*
X172873000Y-97717000D01*
X173127000Y-97717000D01*
X173127000Y-99156250D01*
X173285750Y-99315000D01*
X173800000Y-99318072D01*
X173924482Y-99305812D01*
X174044180Y-99269502D01*
X174154494Y-99210537D01*
X174251185Y-99131185D01*
X174330537Y-99034494D01*
X174389502Y-98924180D01*
X174425812Y-98804482D01*
X174438072Y-98680000D01*
X174435000Y-97875750D01*
X174276250Y-97717000D01*
X173127000Y-97717000D01*
X172873000Y-97717000D01*
X171723750Y-97717000D01*
X171565000Y-97875750D01*
X171561928Y-98680000D01*
X170660000Y-98680000D01*
X170660000Y-96500000D01*
X171561928Y-96500000D01*
X171565000Y-97304250D01*
X171723750Y-97463000D01*
X172873000Y-97463000D01*
X172873000Y-96023750D01*
X173127000Y-96023750D01*
X173127000Y-97463000D01*
X174276250Y-97463000D01*
X174435000Y-97304250D01*
X174438072Y-96500000D01*
X174425812Y-96375518D01*
X174389502Y-96255820D01*
X174330537Y-96145506D01*
X174251185Y-96048815D01*
X174154494Y-95969463D01*
X174044180Y-95910498D01*
X173924482Y-95874188D01*
X173800000Y-95861928D01*
X173285750Y-95865000D01*
X173127000Y-96023750D01*
X172873000Y-96023750D01*
X172714250Y-95865000D01*
X172200000Y-95861928D01*
X172075518Y-95874188D01*
X171955820Y-95910498D01*
X171845506Y-95969463D01*
X171748815Y-96048815D01*
X171669463Y-96145506D01*
X171610498Y-96255820D01*
X171574188Y-96375518D01*
X171561928Y-96500000D01*
X170660000Y-96500000D01*
X170660000Y-87320000D01*
X171561928Y-87320000D01*
X171561928Y-89500000D01*
X171574188Y-89624482D01*
X171610498Y-89744180D01*
X171669463Y-89854494D01*
X171748815Y-89951185D01*
X171845506Y-90030537D01*
X171955820Y-90089502D01*
X172075518Y-90125812D01*
X172200000Y-90138072D01*
X173800000Y-90138072D01*
X173924482Y-90125812D01*
X174044180Y-90089502D01*
X174154494Y-90030537D01*
X174251185Y-89951185D01*
X174330537Y-89854494D01*
X174389502Y-89744180D01*
X174425812Y-89624482D01*
X174438072Y-89500000D01*
X174438072Y-87320000D01*
X174425812Y-87195518D01*
X174389502Y-87075820D01*
X174330537Y-86965506D01*
X174251185Y-86868815D01*
X174154494Y-86789463D01*
X174044180Y-86730498D01*
X173924482Y-86694188D01*
X173800000Y-86681928D01*
X173760000Y-86681928D01*
X173760000Y-86545535D01*
X173828586Y-86442889D01*
X173899068Y-86272729D01*
X173935000Y-86092089D01*
X173935000Y-85907911D01*
X173899068Y-85727271D01*
X173828586Y-85557111D01*
X173726262Y-85403972D01*
X173596028Y-85273738D01*
X173442889Y-85171414D01*
X173272729Y-85100932D01*
X173092089Y-85065000D01*
X172907911Y-85065000D01*
X172727271Y-85100932D01*
X172557111Y-85171414D01*
X172403972Y-85273738D01*
X172273738Y-85403972D01*
X172171414Y-85557111D01*
X172100932Y-85727271D01*
X172065000Y-85907911D01*
X172065000Y-86092089D01*
X172100932Y-86272729D01*
X172171414Y-86442889D01*
X172240000Y-86545536D01*
X172240000Y-86681928D01*
X172200000Y-86681928D01*
X172075518Y-86694188D01*
X171955820Y-86730498D01*
X171845506Y-86789463D01*
X171748815Y-86868815D01*
X171669463Y-86965506D01*
X171610498Y-87075820D01*
X171574188Y-87195518D01*
X171561928Y-87320000D01*
X170660000Y-87320000D01*
X170660000Y-80680000D01*
X171561928Y-80680000D01*
X171574188Y-80804482D01*
X171610498Y-80924180D01*
X171669463Y-81034494D01*
X171748815Y-81131185D01*
X171845506Y-81210537D01*
X171955820Y-81269502D01*
X172075518Y-81305812D01*
X172200000Y-81318072D01*
X172714250Y-81315000D01*
X172873000Y-81156250D01*
X172873000Y-79717000D01*
X173127000Y-79717000D01*
X173127000Y-81156250D01*
X173285750Y-81315000D01*
X173800000Y-81318072D01*
X173924482Y-81305812D01*
X174044180Y-81269502D01*
X174154494Y-81210537D01*
X174251185Y-81131185D01*
X174330537Y-81034494D01*
X174389502Y-80924180D01*
X174425812Y-80804482D01*
X174438072Y-80680000D01*
X174435000Y-79875750D01*
X174276250Y-79717000D01*
X173127000Y-79717000D01*
X172873000Y-79717000D01*
X171723750Y-79717000D01*
X171565000Y-79875750D01*
X171561928Y-80680000D01*
X170660000Y-80680000D01*
X170660000Y-78500000D01*
X171561928Y-78500000D01*
X171565000Y-79304250D01*
X171723750Y-79463000D01*
X172873000Y-79463000D01*
X172873000Y-78023750D01*
X173127000Y-78023750D01*
X173127000Y-79463000D01*
X174276250Y-79463000D01*
X174435000Y-79304250D01*
X174438072Y-78500000D01*
X174425812Y-78375518D01*
X174389502Y-78255820D01*
X174330537Y-78145506D01*
X174251185Y-78048815D01*
X174154494Y-77969463D01*
X174044180Y-77910498D01*
X173924482Y-77874188D01*
X173800000Y-77861928D01*
X173285750Y-77865000D01*
X173127000Y-78023750D01*
X172873000Y-78023750D01*
X172714250Y-77865000D01*
X172200000Y-77861928D01*
X172075518Y-77874188D01*
X171955820Y-77910498D01*
X171845506Y-77969463D01*
X171748815Y-78048815D01*
X171669463Y-78145506D01*
X171610498Y-78255820D01*
X171574188Y-78375518D01*
X171561928Y-78500000D01*
X170660000Y-78500000D01*
X170660000Y-69320000D01*
X171561928Y-69320000D01*
X171561928Y-71500000D01*
X171574188Y-71624482D01*
X171610498Y-71744180D01*
X171669463Y-71854494D01*
X171748815Y-71951185D01*
X171845506Y-72030537D01*
X171955820Y-72089502D01*
X172075518Y-72125812D01*
X172200000Y-72138072D01*
X173800000Y-72138072D01*
X173924482Y-72125812D01*
X174044180Y-72089502D01*
X174154494Y-72030537D01*
X174251185Y-71951185D01*
X174330537Y-71854494D01*
X174389502Y-71744180D01*
X174425812Y-71624482D01*
X174438072Y-71500000D01*
X174438072Y-69320000D01*
X174425812Y-69195518D01*
X174389502Y-69075820D01*
X174330537Y-68965506D01*
X174251185Y-68868815D01*
X174154494Y-68789463D01*
X174044180Y-68730498D01*
X173924482Y-68694188D01*
X173800000Y-68681928D01*
X173760000Y-68681928D01*
X173760000Y-68545535D01*
X173828586Y-68442889D01*
X173899068Y-68272729D01*
X173935000Y-68092089D01*
X173935000Y-67907911D01*
X173899068Y-67727271D01*
X173828586Y-67557111D01*
X173726262Y-67403972D01*
X173596028Y-67273738D01*
X173442889Y-67171414D01*
X173272729Y-67100932D01*
X173092089Y-67065000D01*
X172907911Y-67065000D01*
X172727271Y-67100932D01*
X172557111Y-67171414D01*
X172403972Y-67273738D01*
X172273738Y-67403972D01*
X172171414Y-67557111D01*
X172100932Y-67727271D01*
X172065000Y-67907911D01*
X172065000Y-68092089D01*
X172100932Y-68272729D01*
X172171414Y-68442889D01*
X172240000Y-68545536D01*
X172240000Y-68681928D01*
X172200000Y-68681928D01*
X172075518Y-68694188D01*
X171955820Y-68730498D01*
X171845506Y-68789463D01*
X171748815Y-68868815D01*
X171669463Y-68965506D01*
X171610498Y-69075820D01*
X171574188Y-69195518D01*
X171561928Y-69320000D01*
X170660000Y-69320000D01*
X170660000Y-60500000D01*
X171561928Y-60500000D01*
X171561928Y-62680000D01*
X171574188Y-62804482D01*
X171610498Y-62924180D01*
X171669463Y-63034494D01*
X171748815Y-63131185D01*
X171845506Y-63210537D01*
X171955820Y-63269502D01*
X172075518Y-63305812D01*
X172168172Y-63314937D01*
X172100932Y-63477271D01*
X172065000Y-63657911D01*
X172065000Y-63842089D01*
X172100932Y-64022729D01*
X172171414Y-64192889D01*
X172273738Y-64346028D01*
X172403972Y-64476262D01*
X172557111Y-64578586D01*
X172727271Y-64649068D01*
X172907911Y-64685000D01*
X173092089Y-64685000D01*
X173272729Y-64649068D01*
X173442889Y-64578586D01*
X173596028Y-64476262D01*
X173726262Y-64346028D01*
X173828586Y-64192889D01*
X173899068Y-64022729D01*
X173935000Y-63842089D01*
X173935000Y-63657911D01*
X173899068Y-63477271D01*
X173831828Y-63314937D01*
X173924482Y-63305812D01*
X174044180Y-63269502D01*
X174154494Y-63210537D01*
X174251185Y-63131185D01*
X174330537Y-63034494D01*
X174389502Y-62924180D01*
X174425812Y-62804482D01*
X174438072Y-62680000D01*
X174438072Y-60500000D01*
X174425812Y-60375518D01*
X174389502Y-60255820D01*
X174330537Y-60145506D01*
X174251185Y-60048815D01*
X174154494Y-59969463D01*
X174044180Y-59910498D01*
X173924482Y-59874188D01*
X173800000Y-59861928D01*
X172200000Y-59861928D01*
X172075518Y-59874188D01*
X171955820Y-59910498D01*
X171845506Y-59969463D01*
X171748815Y-60048815D01*
X171669463Y-60145506D01*
X171610498Y-60255820D01*
X171574188Y-60375518D01*
X171561928Y-60500000D01*
X170660000Y-60500000D01*
X170660000Y-53500000D01*
X171561928Y-53500000D01*
X171574188Y-53624482D01*
X171610498Y-53744180D01*
X171669463Y-53854494D01*
X171748815Y-53951185D01*
X171845506Y-54030537D01*
X171955820Y-54089502D01*
X172075518Y-54125812D01*
X172200000Y-54138072D01*
X172714250Y-54135000D01*
X172873000Y-53976250D01*
X172873000Y-52537000D01*
X173127000Y-52537000D01*
X173127000Y-53976250D01*
X173285750Y-54135000D01*
X173800000Y-54138072D01*
X173924482Y-54125812D01*
X174044180Y-54089502D01*
X174154494Y-54030537D01*
X174251185Y-53951185D01*
X174330537Y-53854494D01*
X174389502Y-53744180D01*
X174425812Y-53624482D01*
X174438072Y-53500000D01*
X174435000Y-52695750D01*
X174276250Y-52537000D01*
X173127000Y-52537000D01*
X172873000Y-52537000D01*
X171723750Y-52537000D01*
X171565000Y-52695750D01*
X171561928Y-53500000D01*
X170660000Y-53500000D01*
X170660000Y-51320000D01*
X171561928Y-51320000D01*
X171565000Y-52124250D01*
X171723750Y-52283000D01*
X172873000Y-52283000D01*
X172873000Y-50843750D01*
X173127000Y-50843750D01*
X173127000Y-52283000D01*
X174276250Y-52283000D01*
X174435000Y-52124250D01*
X174438072Y-51320000D01*
X174425812Y-51195518D01*
X174389502Y-51075820D01*
X174330537Y-50965506D01*
X174251185Y-50868815D01*
X174154494Y-50789463D01*
X174044180Y-50730498D01*
X173924482Y-50694188D01*
X173800000Y-50681928D01*
X173285750Y-50685000D01*
X173127000Y-50843750D01*
X172873000Y-50843750D01*
X172714250Y-50685000D01*
X172200000Y-50681928D01*
X172075518Y-50694188D01*
X171955820Y-50730498D01*
X171845506Y-50789463D01*
X171748815Y-50868815D01*
X171669463Y-50965506D01*
X171610498Y-51075820D01*
X171574188Y-51195518D01*
X171561928Y-51320000D01*
X170660000Y-51320000D01*
X170660000Y-50660000D01*
X186715198Y-50660000D01*
X183183624Y-54191575D01*
G37*
%TD.AperFunction*%
D24*
X219340001Y-99340000D02*
X207404320Y-99340000D01*
X207439502Y-99274180D01*
X207475812Y-99154482D01*
X207488072Y-99030000D01*
X207488072Y-98680000D01*
X215561928Y-98680000D01*
X215574188Y-98804482D01*
X215610498Y-98924180D01*
X215669463Y-99034494D01*
X215748815Y-99131185D01*
X215845506Y-99210537D01*
X215955820Y-99269502D01*
X216075518Y-99305812D01*
X216200000Y-99318072D01*
X216714250Y-99315000D01*
X216873000Y-99156250D01*
X216873000Y-97717000D01*
X217127000Y-97717000D01*
X217127000Y-99156250D01*
X217285750Y-99315000D01*
X217800000Y-99318072D01*
X217924482Y-99305812D01*
X218044180Y-99269502D01*
X218154494Y-99210537D01*
X218251185Y-99131185D01*
X218330537Y-99034494D01*
X218389502Y-98924180D01*
X218425812Y-98804482D01*
X218438072Y-98680000D01*
X218435000Y-97875750D01*
X218276250Y-97717000D01*
X217127000Y-97717000D01*
X216873000Y-97717000D01*
X215723750Y-97717000D01*
X215565000Y-97875750D01*
X215561928Y-98680000D01*
X207488072Y-98680000D01*
X207488072Y-97595001D01*
X213127677Y-97595001D01*
X213164999Y-97598677D01*
X213202321Y-97595001D01*
X213202332Y-97595001D01*
X213313985Y-97584004D01*
X213457246Y-97540547D01*
X213589275Y-97469975D01*
X213705000Y-97375002D01*
X213728803Y-97345998D01*
X214574801Y-96500000D01*
X215561928Y-96500000D01*
X215565000Y-97304250D01*
X215723750Y-97463000D01*
X216873000Y-97463000D01*
X216873000Y-96023750D01*
X217127000Y-96023750D01*
X217127000Y-97463000D01*
X218276250Y-97463000D01*
X218435000Y-97304250D01*
X218438072Y-96500000D01*
X218425812Y-96375518D01*
X218389502Y-96255820D01*
X218330537Y-96145506D01*
X218251185Y-96048815D01*
X218154494Y-95969463D01*
X218044180Y-95910498D01*
X217924482Y-95874188D01*
X217800000Y-95861928D01*
X217285750Y-95865000D01*
X217127000Y-96023750D01*
X216873000Y-96023750D01*
X216714250Y-95865000D01*
X216200000Y-95861928D01*
X216075518Y-95874188D01*
X215955820Y-95910498D01*
X215845506Y-95969463D01*
X215748815Y-96048815D01*
X215669463Y-96145506D01*
X215610498Y-96255820D01*
X215574188Y-96375518D01*
X215561928Y-96500000D01*
X214574801Y-96500000D01*
X215261004Y-95813798D01*
X215290001Y-95790001D01*
X215316332Y-95757917D01*
X215384974Y-95674277D01*
X215455546Y-95542247D01*
X215466009Y-95507754D01*
X215499003Y-95398986D01*
X215510000Y-95287333D01*
X215510000Y-95287323D01*
X215513676Y-95250000D01*
X215510000Y-95212677D01*
X215510000Y-87320000D01*
X215561928Y-87320000D01*
X215561928Y-89500000D01*
X215574188Y-89624482D01*
X215610498Y-89744180D01*
X215669463Y-89854494D01*
X215748815Y-89951185D01*
X215845506Y-90030537D01*
X215955820Y-90089502D01*
X216075518Y-90125812D01*
X216200000Y-90138072D01*
X217800000Y-90138072D01*
X217924482Y-90125812D01*
X218044180Y-90089502D01*
X218154494Y-90030537D01*
X218251185Y-89951185D01*
X218330537Y-89854494D01*
X218389502Y-89744180D01*
X218425812Y-89624482D01*
X218438072Y-89500000D01*
X218438072Y-87320000D01*
X218425812Y-87195518D01*
X218389502Y-87075820D01*
X218330537Y-86965506D01*
X218251185Y-86868815D01*
X218154494Y-86789463D01*
X218044180Y-86730498D01*
X217924482Y-86694188D01*
X217831828Y-86685063D01*
X217899068Y-86522729D01*
X217935000Y-86342089D01*
X217935000Y-86157911D01*
X217899068Y-85977271D01*
X217828586Y-85807111D01*
X217726262Y-85653972D01*
X217596028Y-85523738D01*
X217442889Y-85421414D01*
X217272729Y-85350932D01*
X217092089Y-85315000D01*
X216907911Y-85315000D01*
X216727271Y-85350932D01*
X216557111Y-85421414D01*
X216403972Y-85523738D01*
X216273738Y-85653972D01*
X216171414Y-85807111D01*
X216100932Y-85977271D01*
X216065000Y-86157911D01*
X216065000Y-86342089D01*
X216100932Y-86522729D01*
X216168172Y-86685063D01*
X216075518Y-86694188D01*
X215955820Y-86730498D01*
X215845506Y-86789463D01*
X215748815Y-86868815D01*
X215669463Y-86965506D01*
X215610498Y-87075820D01*
X215574188Y-87195518D01*
X215561928Y-87320000D01*
X215510000Y-87320000D01*
X215510000Y-80680000D01*
X215561928Y-80680000D01*
X215574188Y-80804482D01*
X215610498Y-80924180D01*
X215669463Y-81034494D01*
X215748815Y-81131185D01*
X215845506Y-81210537D01*
X215955820Y-81269502D01*
X216075518Y-81305812D01*
X216200000Y-81318072D01*
X216714250Y-81315000D01*
X216873000Y-81156250D01*
X216873000Y-79717000D01*
X217127000Y-79717000D01*
X217127000Y-81156250D01*
X217285750Y-81315000D01*
X217800000Y-81318072D01*
X217924482Y-81305812D01*
X218044180Y-81269502D01*
X218154494Y-81210537D01*
X218251185Y-81131185D01*
X218330537Y-81034494D01*
X218389502Y-80924180D01*
X218425812Y-80804482D01*
X218438072Y-80680000D01*
X218435000Y-79875750D01*
X218276250Y-79717000D01*
X217127000Y-79717000D01*
X216873000Y-79717000D01*
X215723750Y-79717000D01*
X215565000Y-79875750D01*
X215561928Y-80680000D01*
X215510000Y-80680000D01*
X215510000Y-78500000D01*
X215561928Y-78500000D01*
X215565000Y-79304250D01*
X215723750Y-79463000D01*
X216873000Y-79463000D01*
X216873000Y-78023750D01*
X217127000Y-78023750D01*
X217127000Y-79463000D01*
X218276250Y-79463000D01*
X218435000Y-79304250D01*
X218438072Y-78500000D01*
X218425812Y-78375518D01*
X218389502Y-78255820D01*
X218330537Y-78145506D01*
X218251185Y-78048815D01*
X218154494Y-77969463D01*
X218044180Y-77910498D01*
X217924482Y-77874188D01*
X217800000Y-77861928D01*
X217285750Y-77865000D01*
X217127000Y-78023750D01*
X216873000Y-78023750D01*
X216714250Y-77865000D01*
X216200000Y-77861928D01*
X216075518Y-77874188D01*
X215955820Y-77910498D01*
X215845506Y-77969463D01*
X215748815Y-78048815D01*
X215669463Y-78145506D01*
X215610498Y-78255820D01*
X215574188Y-78375518D01*
X215561928Y-78500000D01*
X215510000Y-78500000D01*
X215510000Y-69320000D01*
X215561928Y-69320000D01*
X215561928Y-71500000D01*
X215574188Y-71624482D01*
X215610498Y-71744180D01*
X215669463Y-71854494D01*
X215748815Y-71951185D01*
X215845506Y-72030537D01*
X215955820Y-72089502D01*
X216075518Y-72125812D01*
X216200000Y-72138072D01*
X217800000Y-72138072D01*
X217924482Y-72125812D01*
X218044180Y-72089502D01*
X218154494Y-72030537D01*
X218251185Y-71951185D01*
X218330537Y-71854494D01*
X218389502Y-71744180D01*
X218425812Y-71624482D01*
X218438072Y-71500000D01*
X218438072Y-69320000D01*
X218425812Y-69195518D01*
X218389502Y-69075820D01*
X218330537Y-68965506D01*
X218251185Y-68868815D01*
X218154494Y-68789463D01*
X218044180Y-68730498D01*
X217924482Y-68694188D01*
X217831828Y-68685063D01*
X217899068Y-68522729D01*
X217935000Y-68342089D01*
X217935000Y-68157911D01*
X217899068Y-67977271D01*
X217828586Y-67807111D01*
X217726262Y-67653972D01*
X217596028Y-67523738D01*
X217442889Y-67421414D01*
X217272729Y-67350932D01*
X217092089Y-67315000D01*
X216907911Y-67315000D01*
X216727271Y-67350932D01*
X216557111Y-67421414D01*
X216403972Y-67523738D01*
X216273738Y-67653972D01*
X216171414Y-67807111D01*
X216100932Y-67977271D01*
X216065000Y-68157911D01*
X216065000Y-68342089D01*
X216100932Y-68522729D01*
X216168172Y-68685063D01*
X216075518Y-68694188D01*
X215955820Y-68730498D01*
X215845506Y-68789463D01*
X215748815Y-68868815D01*
X215669463Y-68965506D01*
X215610498Y-69075820D01*
X215574188Y-69195518D01*
X215561928Y-69320000D01*
X215510000Y-69320000D01*
X215510000Y-60500000D01*
X215561928Y-60500000D01*
X215561928Y-62680000D01*
X215574188Y-62804482D01*
X215610498Y-62924180D01*
X215669463Y-63034494D01*
X215748815Y-63131185D01*
X215845506Y-63210537D01*
X215955820Y-63269502D01*
X216075518Y-63305812D01*
X216168172Y-63314937D01*
X216100932Y-63477271D01*
X216065000Y-63657911D01*
X216065000Y-63842089D01*
X216100932Y-64022729D01*
X216171414Y-64192889D01*
X216273738Y-64346028D01*
X216403972Y-64476262D01*
X216557111Y-64578586D01*
X216727271Y-64649068D01*
X216907911Y-64685000D01*
X217092089Y-64685000D01*
X217272729Y-64649068D01*
X217442889Y-64578586D01*
X217596028Y-64476262D01*
X217726262Y-64346028D01*
X217828586Y-64192889D01*
X217899068Y-64022729D01*
X217935000Y-63842089D01*
X217935000Y-63657911D01*
X217899068Y-63477271D01*
X217831828Y-63314937D01*
X217924482Y-63305812D01*
X218044180Y-63269502D01*
X218154494Y-63210537D01*
X218251185Y-63131185D01*
X218330537Y-63034494D01*
X218389502Y-62924180D01*
X218425812Y-62804482D01*
X218438072Y-62680000D01*
X218438072Y-60500000D01*
X218425812Y-60375518D01*
X218389502Y-60255820D01*
X218330537Y-60145506D01*
X218251185Y-60048815D01*
X218154494Y-59969463D01*
X218044180Y-59910498D01*
X217924482Y-59874188D01*
X217800000Y-59861928D01*
X216200000Y-59861928D01*
X216075518Y-59874188D01*
X215955820Y-59910498D01*
X215845506Y-59969463D01*
X215748815Y-60048815D01*
X215669463Y-60145506D01*
X215610498Y-60255820D01*
X215574188Y-60375518D01*
X215561928Y-60500000D01*
X215510000Y-60500000D01*
X215510000Y-57162325D01*
X215513676Y-57125000D01*
X215510000Y-57087675D01*
X215510000Y-57087667D01*
X215499003Y-56976014D01*
X215455546Y-56832753D01*
X215384974Y-56700724D01*
X215290001Y-56584999D01*
X215261002Y-56561201D01*
X214513813Y-55814012D01*
X214513809Y-55814007D01*
X213938072Y-55238271D01*
X213938072Y-54450000D01*
X213925812Y-54325518D01*
X213889502Y-54205820D01*
X213830537Y-54095506D01*
X213820797Y-54083637D01*
X213849482Y-54080812D01*
X213969180Y-54044502D01*
X214079494Y-53985537D01*
X214176185Y-53906185D01*
X214255537Y-53809494D01*
X214314502Y-53699180D01*
X214350812Y-53579482D01*
X214358640Y-53500000D01*
X215561928Y-53500000D01*
X215574188Y-53624482D01*
X215610498Y-53744180D01*
X215669463Y-53854494D01*
X215748815Y-53951185D01*
X215845506Y-54030537D01*
X215955820Y-54089502D01*
X216075518Y-54125812D01*
X216200000Y-54138072D01*
X216714250Y-54135000D01*
X216873000Y-53976250D01*
X216873000Y-52537000D01*
X217127000Y-52537000D01*
X217127000Y-53976250D01*
X217285750Y-54135000D01*
X217800000Y-54138072D01*
X217924482Y-54125812D01*
X218044180Y-54089502D01*
X218154494Y-54030537D01*
X218251185Y-53951185D01*
X218330537Y-53854494D01*
X218389502Y-53744180D01*
X218425812Y-53624482D01*
X218438072Y-53500000D01*
X218435000Y-52695750D01*
X218276250Y-52537000D01*
X217127000Y-52537000D01*
X216873000Y-52537000D01*
X215723750Y-52537000D01*
X215565000Y-52695750D01*
X215561928Y-53500000D01*
X214358640Y-53500000D01*
X214363072Y-53455000D01*
X214360000Y-53015750D01*
X214201250Y-52857000D01*
X213264500Y-52857000D01*
X213264500Y-52877000D01*
X213010500Y-52877000D01*
X213010500Y-52857000D01*
X212990500Y-52857000D01*
X212990500Y-52603000D01*
X213010500Y-52603000D01*
X213010500Y-51528750D01*
X213264500Y-51528750D01*
X213264500Y-52603000D01*
X214201250Y-52603000D01*
X214360000Y-52444250D01*
X214363072Y-52005000D01*
X214350812Y-51880518D01*
X214314502Y-51760820D01*
X214255537Y-51650506D01*
X214176185Y-51553815D01*
X214079494Y-51474463D01*
X213969180Y-51415498D01*
X213849482Y-51379188D01*
X213725000Y-51366928D01*
X213423250Y-51370000D01*
X213264500Y-51528750D01*
X213010500Y-51528750D01*
X212851750Y-51370000D01*
X212550000Y-51366928D01*
X212425518Y-51379188D01*
X212305820Y-51415498D01*
X212195506Y-51474463D01*
X212098815Y-51553815D01*
X212033342Y-51633594D01*
X212027962Y-51627038D01*
X211893386Y-51516595D01*
X211739850Y-51434528D01*
X211573254Y-51383992D01*
X211400000Y-51366928D01*
X210774230Y-51366928D01*
X210727302Y-51320000D01*
X215561928Y-51320000D01*
X215565000Y-52124250D01*
X215723750Y-52283000D01*
X216873000Y-52283000D01*
X216873000Y-50843750D01*
X217127000Y-50843750D01*
X217127000Y-52283000D01*
X218276250Y-52283000D01*
X218435000Y-52124250D01*
X218438072Y-51320000D01*
X218425812Y-51195518D01*
X218389502Y-51075820D01*
X218330537Y-50965506D01*
X218251185Y-50868815D01*
X218154494Y-50789463D01*
X218044180Y-50730498D01*
X217924482Y-50694188D01*
X217800000Y-50681928D01*
X217285750Y-50685000D01*
X217127000Y-50843750D01*
X216873000Y-50843750D01*
X216714250Y-50685000D01*
X216200000Y-50681928D01*
X216075518Y-50694188D01*
X215955820Y-50730498D01*
X215845506Y-50789463D01*
X215748815Y-50868815D01*
X215669463Y-50965506D01*
X215610498Y-51075820D01*
X215574188Y-51195518D01*
X215561928Y-51320000D01*
X210727302Y-51320000D01*
X210067301Y-50660000D01*
X219340000Y-50660000D01*
X219340001Y-99340000D01*
%TA.AperFunction,Conductor*%
D25*
G36*
X219340001Y-99340000D02*
G01*
X207404320Y-99340000D01*
X207439502Y-99274180D01*
X207475812Y-99154482D01*
X207488072Y-99030000D01*
X207488072Y-98680000D01*
X215561928Y-98680000D01*
X215574188Y-98804482D01*
X215610498Y-98924180D01*
X215669463Y-99034494D01*
X215748815Y-99131185D01*
X215845506Y-99210537D01*
X215955820Y-99269502D01*
X216075518Y-99305812D01*
X216200000Y-99318072D01*
X216714250Y-99315000D01*
X216873000Y-99156250D01*
X216873000Y-97717000D01*
X217127000Y-97717000D01*
X217127000Y-99156250D01*
X217285750Y-99315000D01*
X217800000Y-99318072D01*
X217924482Y-99305812D01*
X218044180Y-99269502D01*
X218154494Y-99210537D01*
X218251185Y-99131185D01*
X218330537Y-99034494D01*
X218389502Y-98924180D01*
X218425812Y-98804482D01*
X218438072Y-98680000D01*
X218435000Y-97875750D01*
X218276250Y-97717000D01*
X217127000Y-97717000D01*
X216873000Y-97717000D01*
X215723750Y-97717000D01*
X215565000Y-97875750D01*
X215561928Y-98680000D01*
X207488072Y-98680000D01*
X207488072Y-97595001D01*
X213127677Y-97595001D01*
X213164999Y-97598677D01*
X213202321Y-97595001D01*
X213202332Y-97595001D01*
X213313985Y-97584004D01*
X213457246Y-97540547D01*
X213589275Y-97469975D01*
X213705000Y-97375002D01*
X213728803Y-97345998D01*
X214574801Y-96500000D01*
X215561928Y-96500000D01*
X215565000Y-97304250D01*
X215723750Y-97463000D01*
X216873000Y-97463000D01*
X216873000Y-96023750D01*
X217127000Y-96023750D01*
X217127000Y-97463000D01*
X218276250Y-97463000D01*
X218435000Y-97304250D01*
X218438072Y-96500000D01*
X218425812Y-96375518D01*
X218389502Y-96255820D01*
X218330537Y-96145506D01*
X218251185Y-96048815D01*
X218154494Y-95969463D01*
X218044180Y-95910498D01*
X217924482Y-95874188D01*
X217800000Y-95861928D01*
X217285750Y-95865000D01*
X217127000Y-96023750D01*
X216873000Y-96023750D01*
X216714250Y-95865000D01*
X216200000Y-95861928D01*
X216075518Y-95874188D01*
X215955820Y-95910498D01*
X215845506Y-95969463D01*
X215748815Y-96048815D01*
X215669463Y-96145506D01*
X215610498Y-96255820D01*
X215574188Y-96375518D01*
X215561928Y-96500000D01*
X214574801Y-96500000D01*
X215261004Y-95813798D01*
X215290001Y-95790001D01*
X215316332Y-95757917D01*
X215384974Y-95674277D01*
X215455546Y-95542247D01*
X215466009Y-95507754D01*
X215499003Y-95398986D01*
X215510000Y-95287333D01*
X215510000Y-95287323D01*
X215513676Y-95250000D01*
X215510000Y-95212677D01*
X215510000Y-87320000D01*
X215561928Y-87320000D01*
X215561928Y-89500000D01*
X215574188Y-89624482D01*
X215610498Y-89744180D01*
X215669463Y-89854494D01*
X215748815Y-89951185D01*
X215845506Y-90030537D01*
X215955820Y-90089502D01*
X216075518Y-90125812D01*
X216200000Y-90138072D01*
X217800000Y-90138072D01*
X217924482Y-90125812D01*
X218044180Y-90089502D01*
X218154494Y-90030537D01*
X218251185Y-89951185D01*
X218330537Y-89854494D01*
X218389502Y-89744180D01*
X218425812Y-89624482D01*
X218438072Y-89500000D01*
X218438072Y-87320000D01*
X218425812Y-87195518D01*
X218389502Y-87075820D01*
X218330537Y-86965506D01*
X218251185Y-86868815D01*
X218154494Y-86789463D01*
X218044180Y-86730498D01*
X217924482Y-86694188D01*
X217831828Y-86685063D01*
X217899068Y-86522729D01*
X217935000Y-86342089D01*
X217935000Y-86157911D01*
X217899068Y-85977271D01*
X217828586Y-85807111D01*
X217726262Y-85653972D01*
X217596028Y-85523738D01*
X217442889Y-85421414D01*
X217272729Y-85350932D01*
X217092089Y-85315000D01*
X216907911Y-85315000D01*
X216727271Y-85350932D01*
X216557111Y-85421414D01*
X216403972Y-85523738D01*
X216273738Y-85653972D01*
X216171414Y-85807111D01*
X216100932Y-85977271D01*
X216065000Y-86157911D01*
X216065000Y-86342089D01*
X216100932Y-86522729D01*
X216168172Y-86685063D01*
X216075518Y-86694188D01*
X215955820Y-86730498D01*
X215845506Y-86789463D01*
X215748815Y-86868815D01*
X215669463Y-86965506D01*
X215610498Y-87075820D01*
X215574188Y-87195518D01*
X215561928Y-87320000D01*
X215510000Y-87320000D01*
X215510000Y-80680000D01*
X215561928Y-80680000D01*
X215574188Y-80804482D01*
X215610498Y-80924180D01*
X215669463Y-81034494D01*
X215748815Y-81131185D01*
X215845506Y-81210537D01*
X215955820Y-81269502D01*
X216075518Y-81305812D01*
X216200000Y-81318072D01*
X216714250Y-81315000D01*
X216873000Y-81156250D01*
X216873000Y-79717000D01*
X217127000Y-79717000D01*
X217127000Y-81156250D01*
X217285750Y-81315000D01*
X217800000Y-81318072D01*
X217924482Y-81305812D01*
X218044180Y-81269502D01*
X218154494Y-81210537D01*
X218251185Y-81131185D01*
X218330537Y-81034494D01*
X218389502Y-80924180D01*
X218425812Y-80804482D01*
X218438072Y-80680000D01*
X218435000Y-79875750D01*
X218276250Y-79717000D01*
X217127000Y-79717000D01*
X216873000Y-79717000D01*
X215723750Y-79717000D01*
X215565000Y-79875750D01*
X215561928Y-80680000D01*
X215510000Y-80680000D01*
X215510000Y-78500000D01*
X215561928Y-78500000D01*
X215565000Y-79304250D01*
X215723750Y-79463000D01*
X216873000Y-79463000D01*
X216873000Y-78023750D01*
X217127000Y-78023750D01*
X217127000Y-79463000D01*
X218276250Y-79463000D01*
X218435000Y-79304250D01*
X218438072Y-78500000D01*
X218425812Y-78375518D01*
X218389502Y-78255820D01*
X218330537Y-78145506D01*
X218251185Y-78048815D01*
X218154494Y-77969463D01*
X218044180Y-77910498D01*
X217924482Y-77874188D01*
X217800000Y-77861928D01*
X217285750Y-77865000D01*
X217127000Y-78023750D01*
X216873000Y-78023750D01*
X216714250Y-77865000D01*
X216200000Y-77861928D01*
X216075518Y-77874188D01*
X215955820Y-77910498D01*
X215845506Y-77969463D01*
X215748815Y-78048815D01*
X215669463Y-78145506D01*
X215610498Y-78255820D01*
X215574188Y-78375518D01*
X215561928Y-78500000D01*
X215510000Y-78500000D01*
X215510000Y-69320000D01*
X215561928Y-69320000D01*
X215561928Y-71500000D01*
X215574188Y-71624482D01*
X215610498Y-71744180D01*
X215669463Y-71854494D01*
X215748815Y-71951185D01*
X215845506Y-72030537D01*
X215955820Y-72089502D01*
X216075518Y-72125812D01*
X216200000Y-72138072D01*
X217800000Y-72138072D01*
X217924482Y-72125812D01*
X218044180Y-72089502D01*
X218154494Y-72030537D01*
X218251185Y-71951185D01*
X218330537Y-71854494D01*
X218389502Y-71744180D01*
X218425812Y-71624482D01*
X218438072Y-71500000D01*
X218438072Y-69320000D01*
X218425812Y-69195518D01*
X218389502Y-69075820D01*
X218330537Y-68965506D01*
X218251185Y-68868815D01*
X218154494Y-68789463D01*
X218044180Y-68730498D01*
X217924482Y-68694188D01*
X217831828Y-68685063D01*
X217899068Y-68522729D01*
X217935000Y-68342089D01*
X217935000Y-68157911D01*
X217899068Y-67977271D01*
X217828586Y-67807111D01*
X217726262Y-67653972D01*
X217596028Y-67523738D01*
X217442889Y-67421414D01*
X217272729Y-67350932D01*
X217092089Y-67315000D01*
X216907911Y-67315000D01*
X216727271Y-67350932D01*
X216557111Y-67421414D01*
X216403972Y-67523738D01*
X216273738Y-67653972D01*
X216171414Y-67807111D01*
X216100932Y-67977271D01*
X216065000Y-68157911D01*
X216065000Y-68342089D01*
X216100932Y-68522729D01*
X216168172Y-68685063D01*
X216075518Y-68694188D01*
X215955820Y-68730498D01*
X215845506Y-68789463D01*
X215748815Y-68868815D01*
X215669463Y-68965506D01*
X215610498Y-69075820D01*
X215574188Y-69195518D01*
X215561928Y-69320000D01*
X215510000Y-69320000D01*
X215510000Y-60500000D01*
X215561928Y-60500000D01*
X215561928Y-62680000D01*
X215574188Y-62804482D01*
X215610498Y-62924180D01*
X215669463Y-63034494D01*
X215748815Y-63131185D01*
X215845506Y-63210537D01*
X215955820Y-63269502D01*
X216075518Y-63305812D01*
X216168172Y-63314937D01*
X216100932Y-63477271D01*
X216065000Y-63657911D01*
X216065000Y-63842089D01*
X216100932Y-64022729D01*
X216171414Y-64192889D01*
X216273738Y-64346028D01*
X216403972Y-64476262D01*
X216557111Y-64578586D01*
X216727271Y-64649068D01*
X216907911Y-64685000D01*
X217092089Y-64685000D01*
X217272729Y-64649068D01*
X217442889Y-64578586D01*
X217596028Y-64476262D01*
X217726262Y-64346028D01*
X217828586Y-64192889D01*
X217899068Y-64022729D01*
X217935000Y-63842089D01*
X217935000Y-63657911D01*
X217899068Y-63477271D01*
X217831828Y-63314937D01*
X217924482Y-63305812D01*
X218044180Y-63269502D01*
X218154494Y-63210537D01*
X218251185Y-63131185D01*
X218330537Y-63034494D01*
X218389502Y-62924180D01*
X218425812Y-62804482D01*
X218438072Y-62680000D01*
X218438072Y-60500000D01*
X218425812Y-60375518D01*
X218389502Y-60255820D01*
X218330537Y-60145506D01*
X218251185Y-60048815D01*
X218154494Y-59969463D01*
X218044180Y-59910498D01*
X217924482Y-59874188D01*
X217800000Y-59861928D01*
X216200000Y-59861928D01*
X216075518Y-59874188D01*
X215955820Y-59910498D01*
X215845506Y-59969463D01*
X215748815Y-60048815D01*
X215669463Y-60145506D01*
X215610498Y-60255820D01*
X215574188Y-60375518D01*
X215561928Y-60500000D01*
X215510000Y-60500000D01*
X215510000Y-57162325D01*
X215513676Y-57125000D01*
X215510000Y-57087675D01*
X215510000Y-57087667D01*
X215499003Y-56976014D01*
X215455546Y-56832753D01*
X215384974Y-56700724D01*
X215290001Y-56584999D01*
X215261002Y-56561201D01*
X214513813Y-55814012D01*
X214513809Y-55814007D01*
X213938072Y-55238271D01*
X213938072Y-54450000D01*
X213925812Y-54325518D01*
X213889502Y-54205820D01*
X213830537Y-54095506D01*
X213820797Y-54083637D01*
X213849482Y-54080812D01*
X213969180Y-54044502D01*
X214079494Y-53985537D01*
X214176185Y-53906185D01*
X214255537Y-53809494D01*
X214314502Y-53699180D01*
X214350812Y-53579482D01*
X214358640Y-53500000D01*
X215561928Y-53500000D01*
X215574188Y-53624482D01*
X215610498Y-53744180D01*
X215669463Y-53854494D01*
X215748815Y-53951185D01*
X215845506Y-54030537D01*
X215955820Y-54089502D01*
X216075518Y-54125812D01*
X216200000Y-54138072D01*
X216714250Y-54135000D01*
X216873000Y-53976250D01*
X216873000Y-52537000D01*
X217127000Y-52537000D01*
X217127000Y-53976250D01*
X217285750Y-54135000D01*
X217800000Y-54138072D01*
X217924482Y-54125812D01*
X218044180Y-54089502D01*
X218154494Y-54030537D01*
X218251185Y-53951185D01*
X218330537Y-53854494D01*
X218389502Y-53744180D01*
X218425812Y-53624482D01*
X218438072Y-53500000D01*
X218435000Y-52695750D01*
X218276250Y-52537000D01*
X217127000Y-52537000D01*
X216873000Y-52537000D01*
X215723750Y-52537000D01*
X215565000Y-52695750D01*
X215561928Y-53500000D01*
X214358640Y-53500000D01*
X214363072Y-53455000D01*
X214360000Y-53015750D01*
X214201250Y-52857000D01*
X213264500Y-52857000D01*
X213264500Y-52877000D01*
X213010500Y-52877000D01*
X213010500Y-52857000D01*
X212990500Y-52857000D01*
X212990500Y-52603000D01*
X213010500Y-52603000D01*
X213010500Y-51528750D01*
X213264500Y-51528750D01*
X213264500Y-52603000D01*
X214201250Y-52603000D01*
X214360000Y-52444250D01*
X214363072Y-52005000D01*
X214350812Y-51880518D01*
X214314502Y-51760820D01*
X214255537Y-51650506D01*
X214176185Y-51553815D01*
X214079494Y-51474463D01*
X213969180Y-51415498D01*
X213849482Y-51379188D01*
X213725000Y-51366928D01*
X213423250Y-51370000D01*
X213264500Y-51528750D01*
X213010500Y-51528750D01*
X212851750Y-51370000D01*
X212550000Y-51366928D01*
X212425518Y-51379188D01*
X212305820Y-51415498D01*
X212195506Y-51474463D01*
X212098815Y-51553815D01*
X212033342Y-51633594D01*
X212027962Y-51627038D01*
X211893386Y-51516595D01*
X211739850Y-51434528D01*
X211573254Y-51383992D01*
X211400000Y-51366928D01*
X210774230Y-51366928D01*
X210727302Y-51320000D01*
X215561928Y-51320000D01*
X215565000Y-52124250D01*
X215723750Y-52283000D01*
X216873000Y-52283000D01*
X216873000Y-50843750D01*
X217127000Y-50843750D01*
X217127000Y-52283000D01*
X218276250Y-52283000D01*
X218435000Y-52124250D01*
X218438072Y-51320000D01*
X218425812Y-51195518D01*
X218389502Y-51075820D01*
X218330537Y-50965506D01*
X218251185Y-50868815D01*
X218154494Y-50789463D01*
X218044180Y-50730498D01*
X217924482Y-50694188D01*
X217800000Y-50681928D01*
X217285750Y-50685000D01*
X217127000Y-50843750D01*
X216873000Y-50843750D01*
X216714250Y-50685000D01*
X216200000Y-50681928D01*
X216075518Y-50694188D01*
X215955820Y-50730498D01*
X215845506Y-50789463D01*
X215748815Y-50868815D01*
X215669463Y-50965506D01*
X215610498Y-51075820D01*
X215574188Y-51195518D01*
X215561928Y-51320000D01*
X210727302Y-51320000D01*
X210067301Y-50660000D01*
X219340000Y-50660000D01*
X219340001Y-99340000D01*
G37*
%TD.AperFunction*%
D24*
X213990000Y-87503085D02*
X213979494Y-87494463D01*
X213869180Y-87435498D01*
X213749482Y-87399188D01*
X213625000Y-87386928D01*
X213323250Y-87390000D01*
X213164500Y-87548750D01*
X213164500Y-88623000D01*
X213184500Y-88623000D01*
X213184500Y-88877000D01*
X213164500Y-88877000D01*
X213164500Y-88897000D01*
X212910500Y-88897000D01*
X212910500Y-88877000D01*
X212890500Y-88877000D01*
X212890500Y-88623000D01*
X212910500Y-88623000D01*
X212910500Y-87548750D01*
X212884990Y-87523240D01*
X212884990Y-78185000D01*
X213002002Y-78185000D01*
X213002002Y-78026252D01*
X213160750Y-78185000D01*
X213300000Y-78188072D01*
X213424482Y-78175812D01*
X213544180Y-78139502D01*
X213654494Y-78080537D01*
X213751185Y-78001185D01*
X213830537Y-77904494D01*
X213889502Y-77794180D01*
X213925812Y-77674482D01*
X213938072Y-77550000D01*
X213935000Y-77035750D01*
X213776250Y-76877000D01*
X213002000Y-76877000D01*
X213002000Y-76897000D01*
X212748000Y-76897000D01*
X212748000Y-76877000D01*
X212728000Y-76877000D01*
X212728000Y-76623000D01*
X212748000Y-76623000D01*
X212748000Y-75473750D01*
X213002000Y-75473750D01*
X213002000Y-76623000D01*
X213776250Y-76623000D01*
X213935000Y-76464250D01*
X213938072Y-75950000D01*
X213925812Y-75825518D01*
X213889502Y-75705820D01*
X213830537Y-75595506D01*
X213751185Y-75498815D01*
X213654494Y-75419463D01*
X213544180Y-75360498D01*
X213424482Y-75324188D01*
X213300000Y-75311928D01*
X213160750Y-75315000D01*
X213002000Y-75473750D01*
X212748000Y-75473750D01*
X212589250Y-75315000D01*
X212450000Y-75311928D01*
X212325518Y-75324188D01*
X212205820Y-75360498D01*
X212095506Y-75419463D01*
X212000000Y-75497842D01*
X211904494Y-75419463D01*
X211794180Y-75360498D01*
X211674482Y-75324188D01*
X211550000Y-75311928D01*
X211134999Y-75311928D01*
X211134999Y-74688072D01*
X211550000Y-74688072D01*
X211674482Y-74675812D01*
X211794180Y-74639502D01*
X211904494Y-74580537D01*
X212000000Y-74502158D01*
X212095506Y-74580537D01*
X212205820Y-74639502D01*
X212325518Y-74675812D01*
X212450000Y-74688072D01*
X213300000Y-74688072D01*
X213424482Y-74675812D01*
X213544180Y-74639502D01*
X213654494Y-74580537D01*
X213751185Y-74501185D01*
X213830537Y-74404494D01*
X213889502Y-74294180D01*
X213925812Y-74174482D01*
X213938072Y-74050000D01*
X213938072Y-72450000D01*
X213925812Y-72325518D01*
X213889502Y-72205820D01*
X213830537Y-72095506D01*
X213817867Y-72080068D01*
X213869180Y-72064502D01*
X213979494Y-72005537D01*
X213990001Y-71996914D01*
X213990000Y-87503085D01*
%TA.AperFunction,Conductor*%
D25*
G36*
X213990000Y-87503085D02*
G01*
X213979494Y-87494463D01*
X213869180Y-87435498D01*
X213749482Y-87399188D01*
X213625000Y-87386928D01*
X213323250Y-87390000D01*
X213164500Y-87548750D01*
X213164500Y-88623000D01*
X213184500Y-88623000D01*
X213184500Y-88877000D01*
X213164500Y-88877000D01*
X213164500Y-88897000D01*
X212910500Y-88897000D01*
X212910500Y-88877000D01*
X212890500Y-88877000D01*
X212890500Y-88623000D01*
X212910500Y-88623000D01*
X212910500Y-87548750D01*
X212884990Y-87523240D01*
X212884990Y-78185000D01*
X213002002Y-78185000D01*
X213002002Y-78026252D01*
X213160750Y-78185000D01*
X213300000Y-78188072D01*
X213424482Y-78175812D01*
X213544180Y-78139502D01*
X213654494Y-78080537D01*
X213751185Y-78001185D01*
X213830537Y-77904494D01*
X213889502Y-77794180D01*
X213925812Y-77674482D01*
X213938072Y-77550000D01*
X213935000Y-77035750D01*
X213776250Y-76877000D01*
X213002000Y-76877000D01*
X213002000Y-76897000D01*
X212748000Y-76897000D01*
X212748000Y-76877000D01*
X212728000Y-76877000D01*
X212728000Y-76623000D01*
X212748000Y-76623000D01*
X212748000Y-75473750D01*
X213002000Y-75473750D01*
X213002000Y-76623000D01*
X213776250Y-76623000D01*
X213935000Y-76464250D01*
X213938072Y-75950000D01*
X213925812Y-75825518D01*
X213889502Y-75705820D01*
X213830537Y-75595506D01*
X213751185Y-75498815D01*
X213654494Y-75419463D01*
X213544180Y-75360498D01*
X213424482Y-75324188D01*
X213300000Y-75311928D01*
X213160750Y-75315000D01*
X213002000Y-75473750D01*
X212748000Y-75473750D01*
X212589250Y-75315000D01*
X212450000Y-75311928D01*
X212325518Y-75324188D01*
X212205820Y-75360498D01*
X212095506Y-75419463D01*
X212000000Y-75497842D01*
X211904494Y-75419463D01*
X211794180Y-75360498D01*
X211674482Y-75324188D01*
X211550000Y-75311928D01*
X211134999Y-75311928D01*
X211134999Y-74688072D01*
X211550000Y-74688072D01*
X211674482Y-74675812D01*
X211794180Y-74639502D01*
X211904494Y-74580537D01*
X212000000Y-74502158D01*
X212095506Y-74580537D01*
X212205820Y-74639502D01*
X212325518Y-74675812D01*
X212450000Y-74688072D01*
X213300000Y-74688072D01*
X213424482Y-74675812D01*
X213544180Y-74639502D01*
X213654494Y-74580537D01*
X213751185Y-74501185D01*
X213830537Y-74404494D01*
X213889502Y-74294180D01*
X213925812Y-74174482D01*
X213938072Y-74050000D01*
X213938072Y-72450000D01*
X213925812Y-72325518D01*
X213889502Y-72205820D01*
X213830537Y-72095506D01*
X213817867Y-72080068D01*
X213869180Y-72064502D01*
X213979494Y-72005537D01*
X213990001Y-71996914D01*
X213990000Y-87503085D01*
G37*
%TD.AperFunction*%
D24*
X199555201Y-75815000D02*
X199462998Y-75815000D01*
X199462998Y-75973748D01*
X199304250Y-75815000D01*
X198500000Y-75811928D01*
X198375518Y-75824188D01*
X198255820Y-75860498D01*
X198145506Y-75919463D01*
X198048815Y-75998815D01*
X197969463Y-76095506D01*
X197910498Y-76205820D01*
X197874188Y-76325518D01*
X197861928Y-76450000D01*
X197865000Y-76964250D01*
X198023750Y-77123000D01*
X199463000Y-77123000D01*
X199463000Y-77103000D01*
X199717000Y-77103000D01*
X199717000Y-77123000D01*
X199737000Y-77123000D01*
X199737000Y-77377000D01*
X199717000Y-77377000D01*
X199717000Y-78526250D01*
X199875750Y-78685000D01*
X200680000Y-78688072D01*
X200804482Y-78675812D01*
X200924180Y-78639502D01*
X201034494Y-78580537D01*
X201131185Y-78501185D01*
X201164999Y-78459982D01*
X201165000Y-79407713D01*
X201155820Y-79410498D01*
X201045506Y-79469463D01*
X201000000Y-79506809D01*
X200954494Y-79469463D01*
X200844180Y-79410498D01*
X200724482Y-79374188D01*
X200600000Y-79361928D01*
X200285750Y-79365000D01*
X200127000Y-79523750D01*
X200127000Y-80873000D01*
X200147000Y-80873000D01*
X200147000Y-80882533D01*
X200127000Y-80895110D01*
X200127000Y-82147000D01*
X199873000Y-82147000D01*
X199873000Y-80895110D01*
X199853000Y-80882533D01*
X199853000Y-80873000D01*
X199873000Y-80873000D01*
X199873000Y-79523750D01*
X199714250Y-79365000D01*
X199400000Y-79361928D01*
X199275518Y-79374188D01*
X199155820Y-79410498D01*
X199045506Y-79469463D01*
X199000000Y-79506809D01*
X198954494Y-79469463D01*
X198844180Y-79410498D01*
X198724482Y-79374188D01*
X198600000Y-79361928D01*
X197400000Y-79361928D01*
X197275518Y-79374188D01*
X197155820Y-79410498D01*
X197045506Y-79469463D01*
X197000000Y-79506809D01*
X196954494Y-79469463D01*
X196844180Y-79410498D01*
X196760000Y-79384962D01*
X196760000Y-78147322D01*
X196763676Y-78109999D01*
X196760000Y-78072676D01*
X196760000Y-78072667D01*
X196757768Y-78050000D01*
X197861928Y-78050000D01*
X197874188Y-78174482D01*
X197910498Y-78294180D01*
X197969463Y-78404494D01*
X198048815Y-78501185D01*
X198145506Y-78580537D01*
X198255820Y-78639502D01*
X198375518Y-78675812D01*
X198500000Y-78688072D01*
X199304250Y-78685000D01*
X199463000Y-78526250D01*
X199463000Y-77377000D01*
X198023750Y-77377000D01*
X197865000Y-77535750D01*
X197861928Y-78050000D01*
X196757768Y-78050000D01*
X196749003Y-77961014D01*
X196705546Y-77817753D01*
X196685366Y-77780000D01*
X196634974Y-77685723D01*
X196563799Y-77598997D01*
X196540001Y-77569999D01*
X196511004Y-77546202D01*
X194729801Y-75765000D01*
X199505201Y-75765000D01*
X199555201Y-75815000D01*
%TA.AperFunction,Conductor*%
D25*
G36*
X199555201Y-75815000D02*
G01*
X199462998Y-75815000D01*
X199462998Y-75973748D01*
X199304250Y-75815000D01*
X198500000Y-75811928D01*
X198375518Y-75824188D01*
X198255820Y-75860498D01*
X198145506Y-75919463D01*
X198048815Y-75998815D01*
X197969463Y-76095506D01*
X197910498Y-76205820D01*
X197874188Y-76325518D01*
X197861928Y-76450000D01*
X197865000Y-76964250D01*
X198023750Y-77123000D01*
X199463000Y-77123000D01*
X199463000Y-77103000D01*
X199717000Y-77103000D01*
X199717000Y-77123000D01*
X199737000Y-77123000D01*
X199737000Y-77377000D01*
X199717000Y-77377000D01*
X199717000Y-78526250D01*
X199875750Y-78685000D01*
X200680000Y-78688072D01*
X200804482Y-78675812D01*
X200924180Y-78639502D01*
X201034494Y-78580537D01*
X201131185Y-78501185D01*
X201164999Y-78459982D01*
X201165000Y-79407713D01*
X201155820Y-79410498D01*
X201045506Y-79469463D01*
X201000000Y-79506809D01*
X200954494Y-79469463D01*
X200844180Y-79410498D01*
X200724482Y-79374188D01*
X200600000Y-79361928D01*
X200285750Y-79365000D01*
X200127000Y-79523750D01*
X200127000Y-80873000D01*
X200147000Y-80873000D01*
X200147000Y-80882533D01*
X200127000Y-80895110D01*
X200127000Y-82147000D01*
X199873000Y-82147000D01*
X199873000Y-80895110D01*
X199853000Y-80882533D01*
X199853000Y-80873000D01*
X199873000Y-80873000D01*
X199873000Y-79523750D01*
X199714250Y-79365000D01*
X199400000Y-79361928D01*
X199275518Y-79374188D01*
X199155820Y-79410498D01*
X199045506Y-79469463D01*
X199000000Y-79506809D01*
X198954494Y-79469463D01*
X198844180Y-79410498D01*
X198724482Y-79374188D01*
X198600000Y-79361928D01*
X197400000Y-79361928D01*
X197275518Y-79374188D01*
X197155820Y-79410498D01*
X197045506Y-79469463D01*
X197000000Y-79506809D01*
X196954494Y-79469463D01*
X196844180Y-79410498D01*
X196760000Y-79384962D01*
X196760000Y-78147322D01*
X196763676Y-78109999D01*
X196760000Y-78072676D01*
X196760000Y-78072667D01*
X196757768Y-78050000D01*
X197861928Y-78050000D01*
X197874188Y-78174482D01*
X197910498Y-78294180D01*
X197969463Y-78404494D01*
X198048815Y-78501185D01*
X198145506Y-78580537D01*
X198255820Y-78639502D01*
X198375518Y-78675812D01*
X198500000Y-78688072D01*
X199304250Y-78685000D01*
X199463000Y-78526250D01*
X199463000Y-77377000D01*
X198023750Y-77377000D01*
X197865000Y-77535750D01*
X197861928Y-78050000D01*
X196757768Y-78050000D01*
X196749003Y-77961014D01*
X196705546Y-77817753D01*
X196685366Y-77780000D01*
X196634974Y-77685723D01*
X196563799Y-77598997D01*
X196540001Y-77569999D01*
X196511004Y-77546202D01*
X194729801Y-75765000D01*
X199505201Y-75765000D01*
X199555201Y-75815000D01*
G37*
%TD.AperFunction*%
D24*
X202153972Y-66476262D02*
X202307111Y-66578586D01*
X202477271Y-66649068D01*
X202657911Y-66685000D01*
X202842089Y-66685000D01*
X203022729Y-66649068D01*
X203192889Y-66578586D01*
X203295535Y-66510000D01*
X206935199Y-66510000D01*
X208576847Y-68151649D01*
X208600932Y-68272729D01*
X208671414Y-68442889D01*
X208773738Y-68596028D01*
X208903972Y-68726262D01*
X209057111Y-68828586D01*
X209227271Y-68899068D01*
X209407911Y-68935000D01*
X209592089Y-68935000D01*
X209615000Y-68930443D01*
X209615000Y-70125167D01*
X209611323Y-70162499D01*
X209615000Y-70199832D01*
X209625997Y-70311485D01*
X209633490Y-70336185D01*
X209669453Y-70454745D01*
X209736928Y-70580981D01*
X209736928Y-71225000D01*
X209753992Y-71398254D01*
X209804528Y-71564850D01*
X209886595Y-71718386D01*
X209997038Y-71852962D01*
X210131614Y-71963405D01*
X210202501Y-72001295D01*
X210202501Y-72055249D01*
X210169463Y-72095506D01*
X210110498Y-72205820D01*
X210074188Y-72325518D01*
X210061928Y-72450000D01*
X210061928Y-73238271D01*
X209864001Y-73436198D01*
X209834998Y-73460000D01*
X209792507Y-73511776D01*
X209740025Y-73575725D01*
X209688208Y-73672667D01*
X209669453Y-73707755D01*
X209625996Y-73851016D01*
X209614999Y-73962669D01*
X209614999Y-73962679D01*
X209611323Y-74000001D01*
X209614999Y-74037323D01*
X209614999Y-77895021D01*
X209578586Y-77807111D01*
X209476262Y-77653972D01*
X209346028Y-77523738D01*
X209192889Y-77421414D01*
X209022729Y-77350932D01*
X208901649Y-77326847D01*
X204313804Y-72739003D01*
X204290001Y-72709999D01*
X204174276Y-72615026D01*
X204042247Y-72544454D01*
X203898986Y-72500997D01*
X203787333Y-72490000D01*
X203787322Y-72490000D01*
X203750000Y-72486324D01*
X203712678Y-72490000D01*
X202795535Y-72490000D01*
X202692889Y-72421414D01*
X202522729Y-72350932D01*
X202342089Y-72315000D01*
X202157911Y-72315000D01*
X202083663Y-72329769D01*
X202088072Y-72285000D01*
X202088072Y-71735000D01*
X202075812Y-71610518D01*
X202075655Y-71609999D01*
X202075812Y-71609482D01*
X202088072Y-71485000D01*
X202088072Y-70935000D01*
X202075812Y-70810518D01*
X202075655Y-70810000D01*
X202075812Y-70809482D01*
X202088072Y-70685000D01*
X202088072Y-70135000D01*
X202075812Y-70010518D01*
X202075655Y-70010000D01*
X202075812Y-70009482D01*
X202088072Y-69885000D01*
X202088072Y-69708446D01*
X202094114Y-69713405D01*
X202247650Y-69795472D01*
X202414246Y-69846008D01*
X202587500Y-69863072D01*
X203262500Y-69863072D01*
X203435754Y-69846008D01*
X203602350Y-69795472D01*
X203755886Y-69713405D01*
X203890462Y-69602962D01*
X203895842Y-69596406D01*
X203961315Y-69676185D01*
X204058006Y-69755537D01*
X204168320Y-69814502D01*
X204288018Y-69850812D01*
X204412500Y-69863072D01*
X204714250Y-69860000D01*
X204873000Y-69701250D01*
X204873000Y-68627000D01*
X205127000Y-68627000D01*
X205127000Y-69701250D01*
X205285750Y-69860000D01*
X205587500Y-69863072D01*
X205711982Y-69850812D01*
X205831680Y-69814502D01*
X205941994Y-69755537D01*
X206038685Y-69676185D01*
X206118037Y-69579494D01*
X206177002Y-69469180D01*
X206213312Y-69349482D01*
X206225572Y-69225000D01*
X206222500Y-68785750D01*
X206063750Y-68627000D01*
X205127000Y-68627000D01*
X204873000Y-68627000D01*
X204853000Y-68627000D01*
X204853000Y-68373000D01*
X204873000Y-68373000D01*
X204873000Y-67298750D01*
X205127000Y-67298750D01*
X205127000Y-68373000D01*
X206063750Y-68373000D01*
X206222500Y-68214250D01*
X206225572Y-67775000D01*
X206213312Y-67650518D01*
X206177002Y-67530820D01*
X206118037Y-67420506D01*
X206038685Y-67323815D01*
X205941994Y-67244463D01*
X205831680Y-67185498D01*
X205711982Y-67149188D01*
X205587500Y-67136928D01*
X205285750Y-67140000D01*
X205127000Y-67298750D01*
X204873000Y-67298750D01*
X204714250Y-67140000D01*
X204412500Y-67136928D01*
X204288018Y-67149188D01*
X204168320Y-67185498D01*
X204058006Y-67244463D01*
X203961315Y-67323815D01*
X203895842Y-67403594D01*
X203890462Y-67397038D01*
X203755886Y-67286595D01*
X203602350Y-67204528D01*
X203435754Y-67153992D01*
X203262500Y-67136928D01*
X202587500Y-67136928D01*
X202414246Y-67153992D01*
X202247650Y-67204528D01*
X202162578Y-67250000D01*
X201859981Y-67250000D01*
X201811241Y-67210000D01*
X201901185Y-67136185D01*
X201980537Y-67039494D01*
X201992917Y-67016333D01*
X202085000Y-66924250D01*
X202075454Y-66810663D01*
X202075812Y-66809482D01*
X202088072Y-66685000D01*
X202088072Y-66410362D01*
X202153972Y-66476262D01*
%TA.AperFunction,Conductor*%
D25*
G36*
X202153972Y-66476262D02*
G01*
X202307111Y-66578586D01*
X202477271Y-66649068D01*
X202657911Y-66685000D01*
X202842089Y-66685000D01*
X203022729Y-66649068D01*
X203192889Y-66578586D01*
X203295535Y-66510000D01*
X206935199Y-66510000D01*
X208576847Y-68151649D01*
X208600932Y-68272729D01*
X208671414Y-68442889D01*
X208773738Y-68596028D01*
X208903972Y-68726262D01*
X209057111Y-68828586D01*
X209227271Y-68899068D01*
X209407911Y-68935000D01*
X209592089Y-68935000D01*
X209615000Y-68930443D01*
X209615000Y-70125167D01*
X209611323Y-70162499D01*
X209615000Y-70199832D01*
X209625997Y-70311485D01*
X209633490Y-70336185D01*
X209669453Y-70454745D01*
X209736928Y-70580981D01*
X209736928Y-71225000D01*
X209753992Y-71398254D01*
X209804528Y-71564850D01*
X209886595Y-71718386D01*
X209997038Y-71852962D01*
X210131614Y-71963405D01*
X210202501Y-72001295D01*
X210202501Y-72055249D01*
X210169463Y-72095506D01*
X210110498Y-72205820D01*
X210074188Y-72325518D01*
X210061928Y-72450000D01*
X210061928Y-73238271D01*
X209864001Y-73436198D01*
X209834998Y-73460000D01*
X209792507Y-73511776D01*
X209740025Y-73575725D01*
X209688208Y-73672667D01*
X209669453Y-73707755D01*
X209625996Y-73851016D01*
X209614999Y-73962669D01*
X209614999Y-73962679D01*
X209611323Y-74000001D01*
X209614999Y-74037323D01*
X209614999Y-77895021D01*
X209578586Y-77807111D01*
X209476262Y-77653972D01*
X209346028Y-77523738D01*
X209192889Y-77421414D01*
X209022729Y-77350932D01*
X208901649Y-77326847D01*
X204313804Y-72739003D01*
X204290001Y-72709999D01*
X204174276Y-72615026D01*
X204042247Y-72544454D01*
X203898986Y-72500997D01*
X203787333Y-72490000D01*
X203787322Y-72490000D01*
X203750000Y-72486324D01*
X203712678Y-72490000D01*
X202795535Y-72490000D01*
X202692889Y-72421414D01*
X202522729Y-72350932D01*
X202342089Y-72315000D01*
X202157911Y-72315000D01*
X202083663Y-72329769D01*
X202088072Y-72285000D01*
X202088072Y-71735000D01*
X202075812Y-71610518D01*
X202075655Y-71609999D01*
X202075812Y-71609482D01*
X202088072Y-71485000D01*
X202088072Y-70935000D01*
X202075812Y-70810518D01*
X202075655Y-70810000D01*
X202075812Y-70809482D01*
X202088072Y-70685000D01*
X202088072Y-70135000D01*
X202075812Y-70010518D01*
X202075655Y-70010000D01*
X202075812Y-70009482D01*
X202088072Y-69885000D01*
X202088072Y-69708446D01*
X202094114Y-69713405D01*
X202247650Y-69795472D01*
X202414246Y-69846008D01*
X202587500Y-69863072D01*
X203262500Y-69863072D01*
X203435754Y-69846008D01*
X203602350Y-69795472D01*
X203755886Y-69713405D01*
X203890462Y-69602962D01*
X203895842Y-69596406D01*
X203961315Y-69676185D01*
X204058006Y-69755537D01*
X204168320Y-69814502D01*
X204288018Y-69850812D01*
X204412500Y-69863072D01*
X204714250Y-69860000D01*
X204873000Y-69701250D01*
X204873000Y-68627000D01*
X205127000Y-68627000D01*
X205127000Y-69701250D01*
X205285750Y-69860000D01*
X205587500Y-69863072D01*
X205711982Y-69850812D01*
X205831680Y-69814502D01*
X205941994Y-69755537D01*
X206038685Y-69676185D01*
X206118037Y-69579494D01*
X206177002Y-69469180D01*
X206213312Y-69349482D01*
X206225572Y-69225000D01*
X206222500Y-68785750D01*
X206063750Y-68627000D01*
X205127000Y-68627000D01*
X204873000Y-68627000D01*
X204853000Y-68627000D01*
X204853000Y-68373000D01*
X204873000Y-68373000D01*
X204873000Y-67298750D01*
X205127000Y-67298750D01*
X205127000Y-68373000D01*
X206063750Y-68373000D01*
X206222500Y-68214250D01*
X206225572Y-67775000D01*
X206213312Y-67650518D01*
X206177002Y-67530820D01*
X206118037Y-67420506D01*
X206038685Y-67323815D01*
X205941994Y-67244463D01*
X205831680Y-67185498D01*
X205711982Y-67149188D01*
X205587500Y-67136928D01*
X205285750Y-67140000D01*
X205127000Y-67298750D01*
X204873000Y-67298750D01*
X204714250Y-67140000D01*
X204412500Y-67136928D01*
X204288018Y-67149188D01*
X204168320Y-67185498D01*
X204058006Y-67244463D01*
X203961315Y-67323815D01*
X203895842Y-67403594D01*
X203890462Y-67397038D01*
X203755886Y-67286595D01*
X203602350Y-67204528D01*
X203435754Y-67153992D01*
X203262500Y-67136928D01*
X202587500Y-67136928D01*
X202414246Y-67153992D01*
X202247650Y-67204528D01*
X202162578Y-67250000D01*
X201859981Y-67250000D01*
X201811241Y-67210000D01*
X201901185Y-67136185D01*
X201980537Y-67039494D01*
X201992917Y-67016333D01*
X202085000Y-66924250D01*
X202075454Y-66810663D01*
X202075812Y-66809482D01*
X202088072Y-66685000D01*
X202088072Y-66410362D01*
X202153972Y-66476262D01*
G37*
%TD.AperFunction*%
D24*
X195040000Y-63469982D02*
X195040000Y-64072677D01*
X195036324Y-64110000D01*
X195040000Y-64147322D01*
X195040000Y-64147332D01*
X195050997Y-64258985D01*
X195089215Y-64384974D01*
X195094454Y-64402246D01*
X195165026Y-64534276D01*
X195189255Y-64563799D01*
X195259999Y-64650001D01*
X195289003Y-64673804D01*
X197865198Y-67250000D01*
X196527322Y-67250000D01*
X196489999Y-67246324D01*
X196452676Y-67250000D01*
X196452667Y-67250000D01*
X196341014Y-67260997D01*
X196197753Y-67304454D01*
X196065724Y-67375026D01*
X195949999Y-67469999D01*
X195926201Y-67498997D01*
X194848351Y-68576847D01*
X194727271Y-68600932D01*
X194557111Y-68671414D01*
X194403972Y-68773738D01*
X194273738Y-68903972D01*
X194171414Y-69057111D01*
X194100932Y-69227271D01*
X194092826Y-69268024D01*
X193173153Y-68348352D01*
X193149068Y-68227271D01*
X193078586Y-68057111D01*
X192976262Y-67903972D01*
X192846028Y-67773738D01*
X192692889Y-67671414D01*
X192522729Y-67600932D01*
X192342089Y-67565000D01*
X192157911Y-67565000D01*
X191977271Y-67600932D01*
X191807111Y-67671414D01*
X191653972Y-67773738D01*
X191523738Y-67903972D01*
X191421414Y-68057111D01*
X191350932Y-68227271D01*
X191315000Y-68407911D01*
X191315000Y-68592089D01*
X191350932Y-68772729D01*
X191421414Y-68942889D01*
X191523738Y-69096028D01*
X191653972Y-69226262D01*
X191807111Y-69328586D01*
X191977271Y-69399068D01*
X192098352Y-69423153D01*
X193431225Y-70756027D01*
X193380724Y-70797473D01*
X193335000Y-70834998D01*
X193311201Y-70863997D01*
X193098351Y-71076847D01*
X192977271Y-71100932D01*
X192807111Y-71171414D01*
X192653972Y-71273738D01*
X192523738Y-71403972D01*
X192421414Y-71557111D01*
X192350932Y-71727271D01*
X192315000Y-71907911D01*
X192315000Y-72092089D01*
X192350932Y-72272729D01*
X192371311Y-72321928D01*
X192325000Y-72321928D01*
X192200518Y-72334188D01*
X192200000Y-72334345D01*
X192199482Y-72334188D01*
X192075000Y-72321928D01*
X191525000Y-72321928D01*
X191400518Y-72334188D01*
X191400000Y-72334345D01*
X191399482Y-72334188D01*
X191275000Y-72321928D01*
X191159999Y-72321928D01*
X191159999Y-69747322D01*
X191163675Y-69709999D01*
X191159999Y-69672677D01*
X191159999Y-69672666D01*
X191149002Y-69561013D01*
X191105545Y-69417752D01*
X191034973Y-69285723D01*
X190940000Y-69169998D01*
X190910996Y-69146195D01*
X190863804Y-69099003D01*
X190840001Y-69069999D01*
X190724276Y-68975026D01*
X190688072Y-68955674D01*
X190688072Y-68535000D01*
X190675812Y-68410518D01*
X190675454Y-68409337D01*
X190685000Y-68295750D01*
X190592917Y-68203667D01*
X190580537Y-68180506D01*
X190501185Y-68083815D01*
X190411241Y-68010000D01*
X190501185Y-67936185D01*
X190580537Y-67839494D01*
X190592917Y-67816333D01*
X190685000Y-67724250D01*
X190675454Y-67610663D01*
X190675812Y-67609482D01*
X190688072Y-67485000D01*
X190688072Y-66935000D01*
X190675812Y-66810518D01*
X190675655Y-66810000D01*
X190675812Y-66809482D01*
X190688072Y-66685000D01*
X190688072Y-66135000D01*
X190675812Y-66010518D01*
X190675655Y-66010000D01*
X190675812Y-66009482D01*
X190688072Y-65885000D01*
X190688072Y-65632831D01*
X190727271Y-65649068D01*
X190907911Y-65685000D01*
X191065000Y-65685000D01*
X191065000Y-65842089D01*
X191100932Y-66022729D01*
X191171414Y-66192889D01*
X191273738Y-66346028D01*
X191403972Y-66476262D01*
X191557111Y-66578586D01*
X191727271Y-66649068D01*
X191907911Y-66685000D01*
X192092089Y-66685000D01*
X192272729Y-66649068D01*
X192322254Y-66628554D01*
X192350932Y-66772729D01*
X192421414Y-66942889D01*
X192523738Y-67096028D01*
X192653972Y-67226262D01*
X192807111Y-67328586D01*
X192977271Y-67399068D01*
X193157911Y-67435000D01*
X193342089Y-67435000D01*
X193522729Y-67399068D01*
X193692889Y-67328586D01*
X193846028Y-67226262D01*
X193976262Y-67096028D01*
X194078586Y-66942889D01*
X194149068Y-66772729D01*
X194185000Y-66592089D01*
X194185000Y-66407911D01*
X194149068Y-66227271D01*
X194078586Y-66057111D01*
X194010000Y-65954465D01*
X194010000Y-64797325D01*
X194013676Y-64760000D01*
X194010000Y-64722675D01*
X194010000Y-64722667D01*
X193999003Y-64611014D01*
X193955546Y-64467753D01*
X193884974Y-64335724D01*
X193790001Y-64219999D01*
X193761004Y-64196202D01*
X193262874Y-63698072D01*
X193675000Y-63698072D01*
X193799482Y-63685812D01*
X193800000Y-63685655D01*
X193800518Y-63685812D01*
X193925000Y-63698072D01*
X194475000Y-63698072D01*
X194599482Y-63685812D01*
X194600663Y-63685454D01*
X194714250Y-63695000D01*
X194806333Y-63602917D01*
X194829494Y-63590537D01*
X194926185Y-63511185D01*
X195000000Y-63421241D01*
X195040000Y-63469982D01*
%TA.AperFunction,Conductor*%
D25*
G36*
X195040000Y-63469982D02*
G01*
X195040000Y-64072677D01*
X195036324Y-64110000D01*
X195040000Y-64147322D01*
X195040000Y-64147332D01*
X195050997Y-64258985D01*
X195089215Y-64384974D01*
X195094454Y-64402246D01*
X195165026Y-64534276D01*
X195189255Y-64563799D01*
X195259999Y-64650001D01*
X195289003Y-64673804D01*
X197865198Y-67250000D01*
X196527322Y-67250000D01*
X196489999Y-67246324D01*
X196452676Y-67250000D01*
X196452667Y-67250000D01*
X196341014Y-67260997D01*
X196197753Y-67304454D01*
X196065724Y-67375026D01*
X195949999Y-67469999D01*
X195926201Y-67498997D01*
X194848351Y-68576847D01*
X194727271Y-68600932D01*
X194557111Y-68671414D01*
X194403972Y-68773738D01*
X194273738Y-68903972D01*
X194171414Y-69057111D01*
X194100932Y-69227271D01*
X194092826Y-69268024D01*
X193173153Y-68348352D01*
X193149068Y-68227271D01*
X193078586Y-68057111D01*
X192976262Y-67903972D01*
X192846028Y-67773738D01*
X192692889Y-67671414D01*
X192522729Y-67600932D01*
X192342089Y-67565000D01*
X192157911Y-67565000D01*
X191977271Y-67600932D01*
X191807111Y-67671414D01*
X191653972Y-67773738D01*
X191523738Y-67903972D01*
X191421414Y-68057111D01*
X191350932Y-68227271D01*
X191315000Y-68407911D01*
X191315000Y-68592089D01*
X191350932Y-68772729D01*
X191421414Y-68942889D01*
X191523738Y-69096028D01*
X191653972Y-69226262D01*
X191807111Y-69328586D01*
X191977271Y-69399068D01*
X192098352Y-69423153D01*
X193431225Y-70756027D01*
X193380724Y-70797473D01*
X193335000Y-70834998D01*
X193311201Y-70863997D01*
X193098351Y-71076847D01*
X192977271Y-71100932D01*
X192807111Y-71171414D01*
X192653972Y-71273738D01*
X192523738Y-71403972D01*
X192421414Y-71557111D01*
X192350932Y-71727271D01*
X192315000Y-71907911D01*
X192315000Y-72092089D01*
X192350932Y-72272729D01*
X192371311Y-72321928D01*
X192325000Y-72321928D01*
X192200518Y-72334188D01*
X192200000Y-72334345D01*
X192199482Y-72334188D01*
X192075000Y-72321928D01*
X191525000Y-72321928D01*
X191400518Y-72334188D01*
X191400000Y-72334345D01*
X191399482Y-72334188D01*
X191275000Y-72321928D01*
X191159999Y-72321928D01*
X191159999Y-69747322D01*
X191163675Y-69709999D01*
X191159999Y-69672677D01*
X191159999Y-69672666D01*
X191149002Y-69561013D01*
X191105545Y-69417752D01*
X191034973Y-69285723D01*
X190940000Y-69169998D01*
X190910996Y-69146195D01*
X190863804Y-69099003D01*
X190840001Y-69069999D01*
X190724276Y-68975026D01*
X190688072Y-68955674D01*
X190688072Y-68535000D01*
X190675812Y-68410518D01*
X190675454Y-68409337D01*
X190685000Y-68295750D01*
X190592917Y-68203667D01*
X190580537Y-68180506D01*
X190501185Y-68083815D01*
X190411241Y-68010000D01*
X190501185Y-67936185D01*
X190580537Y-67839494D01*
X190592917Y-67816333D01*
X190685000Y-67724250D01*
X190675454Y-67610663D01*
X190675812Y-67609482D01*
X190688072Y-67485000D01*
X190688072Y-66935000D01*
X190675812Y-66810518D01*
X190675655Y-66810000D01*
X190675812Y-66809482D01*
X190688072Y-66685000D01*
X190688072Y-66135000D01*
X190675812Y-66010518D01*
X190675655Y-66010000D01*
X190675812Y-66009482D01*
X190688072Y-65885000D01*
X190688072Y-65632831D01*
X190727271Y-65649068D01*
X190907911Y-65685000D01*
X191065000Y-65685000D01*
X191065000Y-65842089D01*
X191100932Y-66022729D01*
X191171414Y-66192889D01*
X191273738Y-66346028D01*
X191403972Y-66476262D01*
X191557111Y-66578586D01*
X191727271Y-66649068D01*
X191907911Y-66685000D01*
X192092089Y-66685000D01*
X192272729Y-66649068D01*
X192322254Y-66628554D01*
X192350932Y-66772729D01*
X192421414Y-66942889D01*
X192523738Y-67096028D01*
X192653972Y-67226262D01*
X192807111Y-67328586D01*
X192977271Y-67399068D01*
X193157911Y-67435000D01*
X193342089Y-67435000D01*
X193522729Y-67399068D01*
X193692889Y-67328586D01*
X193846028Y-67226262D01*
X193976262Y-67096028D01*
X194078586Y-66942889D01*
X194149068Y-66772729D01*
X194185000Y-66592089D01*
X194185000Y-66407911D01*
X194149068Y-66227271D01*
X194078586Y-66057111D01*
X194010000Y-65954465D01*
X194010000Y-64797325D01*
X194013676Y-64760000D01*
X194010000Y-64722675D01*
X194010000Y-64722667D01*
X193999003Y-64611014D01*
X193955546Y-64467753D01*
X193884974Y-64335724D01*
X193790001Y-64219999D01*
X193761004Y-64196202D01*
X193262874Y-63698072D01*
X193675000Y-63698072D01*
X193799482Y-63685812D01*
X193800000Y-63685655D01*
X193800518Y-63685812D01*
X193925000Y-63698072D01*
X194475000Y-63698072D01*
X194599482Y-63685812D01*
X194600663Y-63685454D01*
X194714250Y-63695000D01*
X194806333Y-63602917D01*
X194829494Y-63590537D01*
X194926185Y-63511185D01*
X195000000Y-63421241D01*
X195040000Y-63469982D01*
G37*
%TD.AperFunction*%
D24*
X212095506Y-56580537D02*
X212205820Y-56639502D01*
X212325518Y-56675812D01*
X212450000Y-56688072D01*
X213238270Y-56688072D01*
X213439007Y-56888809D01*
X213439012Y-56888813D01*
X213990001Y-57439803D01*
X213990001Y-69503086D01*
X213979494Y-69494463D01*
X213869180Y-69435498D01*
X213749482Y-69399188D01*
X213625000Y-69386928D01*
X213323250Y-69390000D01*
X213164500Y-69548750D01*
X213164500Y-70623000D01*
X213184500Y-70623000D01*
X213184500Y-70877000D01*
X213164500Y-70877000D01*
X213164500Y-70897000D01*
X212910500Y-70897000D01*
X212910500Y-70877000D01*
X212890500Y-70877000D01*
X212890500Y-70623000D01*
X212910500Y-70623000D01*
X212910500Y-69548750D01*
X212884990Y-69523240D01*
X212884990Y-60185000D01*
X213002002Y-60185000D01*
X213002002Y-60026252D01*
X213160750Y-60185000D01*
X213300000Y-60188072D01*
X213424482Y-60175812D01*
X213544180Y-60139502D01*
X213654494Y-60080537D01*
X213751185Y-60001185D01*
X213830537Y-59904494D01*
X213889502Y-59794180D01*
X213925812Y-59674482D01*
X213938072Y-59550000D01*
X213935000Y-59035750D01*
X213776250Y-58877000D01*
X213002000Y-58877000D01*
X213002000Y-58897000D01*
X212748000Y-58897000D01*
X212748000Y-58877000D01*
X212728000Y-58877000D01*
X212728000Y-58623000D01*
X212748000Y-58623000D01*
X212748000Y-57473750D01*
X213002000Y-57473750D01*
X213002000Y-58623000D01*
X213776250Y-58623000D01*
X213935000Y-58464250D01*
X213938072Y-57950000D01*
X213925812Y-57825518D01*
X213889502Y-57705820D01*
X213830537Y-57595506D01*
X213751185Y-57498815D01*
X213654494Y-57419463D01*
X213544180Y-57360498D01*
X213424482Y-57324188D01*
X213300000Y-57311928D01*
X213160750Y-57315000D01*
X213002000Y-57473750D01*
X212748000Y-57473750D01*
X212589250Y-57315000D01*
X212450000Y-57311928D01*
X212325518Y-57324188D01*
X212205820Y-57360498D01*
X212095506Y-57419463D01*
X212000000Y-57497842D01*
X211904494Y-57419463D01*
X211794180Y-57360498D01*
X211674482Y-57324188D01*
X211550000Y-57311928D01*
X211134999Y-57311928D01*
X211134999Y-56688072D01*
X211550000Y-56688072D01*
X211674482Y-56675812D01*
X211794180Y-56639502D01*
X211904494Y-56580537D01*
X212000000Y-56502158D01*
X212095506Y-56580537D01*
%TA.AperFunction,Conductor*%
D25*
G36*
X212095506Y-56580537D02*
G01*
X212205820Y-56639502D01*
X212325518Y-56675812D01*
X212450000Y-56688072D01*
X213238270Y-56688072D01*
X213439007Y-56888809D01*
X213439012Y-56888813D01*
X213990001Y-57439803D01*
X213990001Y-69503086D01*
X213979494Y-69494463D01*
X213869180Y-69435498D01*
X213749482Y-69399188D01*
X213625000Y-69386928D01*
X213323250Y-69390000D01*
X213164500Y-69548750D01*
X213164500Y-70623000D01*
X213184500Y-70623000D01*
X213184500Y-70877000D01*
X213164500Y-70877000D01*
X213164500Y-70897000D01*
X212910500Y-70897000D01*
X212910500Y-70877000D01*
X212890500Y-70877000D01*
X212890500Y-70623000D01*
X212910500Y-70623000D01*
X212910500Y-69548750D01*
X212884990Y-69523240D01*
X212884990Y-60185000D01*
X213002002Y-60185000D01*
X213002002Y-60026252D01*
X213160750Y-60185000D01*
X213300000Y-60188072D01*
X213424482Y-60175812D01*
X213544180Y-60139502D01*
X213654494Y-60080537D01*
X213751185Y-60001185D01*
X213830537Y-59904494D01*
X213889502Y-59794180D01*
X213925812Y-59674482D01*
X213938072Y-59550000D01*
X213935000Y-59035750D01*
X213776250Y-58877000D01*
X213002000Y-58877000D01*
X213002000Y-58897000D01*
X212748000Y-58897000D01*
X212748000Y-58877000D01*
X212728000Y-58877000D01*
X212728000Y-58623000D01*
X212748000Y-58623000D01*
X212748000Y-57473750D01*
X213002000Y-57473750D01*
X213002000Y-58623000D01*
X213776250Y-58623000D01*
X213935000Y-58464250D01*
X213938072Y-57950000D01*
X213925812Y-57825518D01*
X213889502Y-57705820D01*
X213830537Y-57595506D01*
X213751185Y-57498815D01*
X213654494Y-57419463D01*
X213544180Y-57360498D01*
X213424482Y-57324188D01*
X213300000Y-57311928D01*
X213160750Y-57315000D01*
X213002000Y-57473750D01*
X212748000Y-57473750D01*
X212589250Y-57315000D01*
X212450000Y-57311928D01*
X212325518Y-57324188D01*
X212205820Y-57360498D01*
X212095506Y-57419463D01*
X212000000Y-57497842D01*
X211904494Y-57419463D01*
X211794180Y-57360498D01*
X211674482Y-57324188D01*
X211550000Y-57311928D01*
X211134999Y-57311928D01*
X211134999Y-56688072D01*
X211550000Y-56688072D01*
X211674482Y-56675812D01*
X211794180Y-56639502D01*
X211904494Y-56580537D01*
X212000000Y-56502158D01*
X212095506Y-56580537D01*
G37*
%TD.AperFunction*%
D24*
X178095506Y-56580537D02*
X178205820Y-56639502D01*
X178325518Y-56675812D01*
X178450000Y-56688072D01*
X179300000Y-56688072D01*
X179424482Y-56675812D01*
X179544180Y-56639502D01*
X179654494Y-56580537D01*
X179666161Y-56570962D01*
X181306201Y-58211003D01*
X181329999Y-58240001D01*
X181445724Y-58334974D01*
X181577753Y-58405546D01*
X181621811Y-58418911D01*
X181668815Y-58476185D01*
X181765506Y-58555537D01*
X181875820Y-58614502D01*
X181995518Y-58650812D01*
X182120000Y-58663072D01*
X183180000Y-58663072D01*
X183304482Y-58650812D01*
X183424180Y-58614502D01*
X183534494Y-58555537D01*
X183631185Y-58476185D01*
X183710537Y-58379494D01*
X183750000Y-58305665D01*
X183789463Y-58379494D01*
X183868815Y-58476185D01*
X183965506Y-58555537D01*
X184075820Y-58614502D01*
X184090000Y-58618804D01*
X184090001Y-63337709D01*
X184023738Y-63403972D01*
X183921414Y-63557111D01*
X183850932Y-63727271D01*
X183815000Y-63907911D01*
X183815000Y-64050000D01*
X180624803Y-64050000D01*
X180173153Y-63598351D01*
X180149068Y-63477271D01*
X180078586Y-63307111D01*
X179976262Y-63153972D01*
X179846028Y-63023738D01*
X179692889Y-62921414D01*
X179522729Y-62850932D01*
X179342089Y-62815000D01*
X179157911Y-62815000D01*
X178977271Y-62850932D01*
X178884990Y-62889156D01*
X178884990Y-60185000D01*
X179002002Y-60185000D01*
X179002002Y-60026252D01*
X179160750Y-60185000D01*
X179300000Y-60188072D01*
X179424482Y-60175812D01*
X179544180Y-60139502D01*
X179654494Y-60080537D01*
X179751185Y-60001185D01*
X179830537Y-59904494D01*
X179889502Y-59794180D01*
X179925812Y-59674482D01*
X179938072Y-59550000D01*
X179935000Y-59035750D01*
X179776250Y-58877000D01*
X179002000Y-58877000D01*
X179002000Y-58897000D01*
X178748000Y-58897000D01*
X178748000Y-58877000D01*
X178728000Y-58877000D01*
X178728000Y-58623000D01*
X178748000Y-58623000D01*
X178748000Y-57473750D01*
X179002000Y-57473750D01*
X179002000Y-58623000D01*
X179776250Y-58623000D01*
X179935000Y-58464250D01*
X179938072Y-57950000D01*
X179925812Y-57825518D01*
X179889502Y-57705820D01*
X179830537Y-57595506D01*
X179751185Y-57498815D01*
X179654494Y-57419463D01*
X179544180Y-57360498D01*
X179424482Y-57324188D01*
X179300000Y-57311928D01*
X179160750Y-57315000D01*
X179002000Y-57473750D01*
X178748000Y-57473750D01*
X178589250Y-57315000D01*
X178450000Y-57311928D01*
X178325518Y-57324188D01*
X178205820Y-57360498D01*
X178095506Y-57419463D01*
X178000000Y-57497842D01*
X177904494Y-57419463D01*
X177794180Y-57360498D01*
X177674482Y-57324188D01*
X177550000Y-57311928D01*
X177134999Y-57311928D01*
X177134999Y-56688072D01*
X177550000Y-56688072D01*
X177674482Y-56675812D01*
X177794180Y-56639502D01*
X177904494Y-56580537D01*
X178000000Y-56502158D01*
X178095506Y-56580537D01*
%TA.AperFunction,Conductor*%
D25*
G36*
X178095506Y-56580537D02*
G01*
X178205820Y-56639502D01*
X178325518Y-56675812D01*
X178450000Y-56688072D01*
X179300000Y-56688072D01*
X179424482Y-56675812D01*
X179544180Y-56639502D01*
X179654494Y-56580537D01*
X179666161Y-56570962D01*
X181306201Y-58211003D01*
X181329999Y-58240001D01*
X181445724Y-58334974D01*
X181577753Y-58405546D01*
X181621811Y-58418911D01*
X181668815Y-58476185D01*
X181765506Y-58555537D01*
X181875820Y-58614502D01*
X181995518Y-58650812D01*
X182120000Y-58663072D01*
X183180000Y-58663072D01*
X183304482Y-58650812D01*
X183424180Y-58614502D01*
X183534494Y-58555537D01*
X183631185Y-58476185D01*
X183710537Y-58379494D01*
X183750000Y-58305665D01*
X183789463Y-58379494D01*
X183868815Y-58476185D01*
X183965506Y-58555537D01*
X184075820Y-58614502D01*
X184090000Y-58618804D01*
X184090001Y-63337709D01*
X184023738Y-63403972D01*
X183921414Y-63557111D01*
X183850932Y-63727271D01*
X183815000Y-63907911D01*
X183815000Y-64050000D01*
X180624803Y-64050000D01*
X180173153Y-63598351D01*
X180149068Y-63477271D01*
X180078586Y-63307111D01*
X179976262Y-63153972D01*
X179846028Y-63023738D01*
X179692889Y-62921414D01*
X179522729Y-62850932D01*
X179342089Y-62815000D01*
X179157911Y-62815000D01*
X178977271Y-62850932D01*
X178884990Y-62889156D01*
X178884990Y-60185000D01*
X179002002Y-60185000D01*
X179002002Y-60026252D01*
X179160750Y-60185000D01*
X179300000Y-60188072D01*
X179424482Y-60175812D01*
X179544180Y-60139502D01*
X179654494Y-60080537D01*
X179751185Y-60001185D01*
X179830537Y-59904494D01*
X179889502Y-59794180D01*
X179925812Y-59674482D01*
X179938072Y-59550000D01*
X179935000Y-59035750D01*
X179776250Y-58877000D01*
X179002000Y-58877000D01*
X179002000Y-58897000D01*
X178748000Y-58897000D01*
X178748000Y-58877000D01*
X178728000Y-58877000D01*
X178728000Y-58623000D01*
X178748000Y-58623000D01*
X178748000Y-57473750D01*
X179002000Y-57473750D01*
X179002000Y-58623000D01*
X179776250Y-58623000D01*
X179935000Y-58464250D01*
X179938072Y-57950000D01*
X179925812Y-57825518D01*
X179889502Y-57705820D01*
X179830537Y-57595506D01*
X179751185Y-57498815D01*
X179654494Y-57419463D01*
X179544180Y-57360498D01*
X179424482Y-57324188D01*
X179300000Y-57311928D01*
X179160750Y-57315000D01*
X179002000Y-57473750D01*
X178748000Y-57473750D01*
X178589250Y-57315000D01*
X178450000Y-57311928D01*
X178325518Y-57324188D01*
X178205820Y-57360498D01*
X178095506Y-57419463D01*
X178000000Y-57497842D01*
X177904494Y-57419463D01*
X177794180Y-57360498D01*
X177674482Y-57324188D01*
X177550000Y-57311928D01*
X177134999Y-57311928D01*
X177134999Y-56688072D01*
X177550000Y-56688072D01*
X177674482Y-56675812D01*
X177794180Y-56639502D01*
X177904494Y-56580537D01*
X178000000Y-56502158D01*
X178095506Y-56580537D01*
G37*
%TD.AperFunction*%
D24*
X192948750Y-51373000D02*
X193873000Y-51373000D01*
X193873000Y-51353000D01*
X194127000Y-51353000D01*
X194127000Y-51373000D01*
X194147000Y-51373000D01*
X194147000Y-51627000D01*
X194127000Y-51627000D01*
X194127000Y-53373000D01*
X194147000Y-53373000D01*
X194147000Y-53627000D01*
X194127000Y-53627000D01*
X194127000Y-54676250D01*
X194285750Y-54835000D01*
X194575000Y-54838072D01*
X194699482Y-54825812D01*
X194819180Y-54789502D01*
X194929494Y-54730537D01*
X195026185Y-54651185D01*
X195091658Y-54571406D01*
X195097038Y-54577962D01*
X195231613Y-54688405D01*
X195385149Y-54770472D01*
X195551745Y-54821008D01*
X195724999Y-54838072D01*
X196375001Y-54838072D01*
X196548255Y-54821008D01*
X196714851Y-54770472D01*
X196868387Y-54688405D01*
X197002962Y-54577962D01*
X197113405Y-54443387D01*
X197195472Y-54289851D01*
X197204527Y-54260000D01*
X197320473Y-54260000D01*
X197329528Y-54289851D01*
X197411595Y-54443387D01*
X197522038Y-54577962D01*
X197656613Y-54688405D01*
X197810149Y-54770472D01*
X197976745Y-54821008D01*
X198149999Y-54838072D01*
X198850001Y-54838072D01*
X199023255Y-54821008D01*
X199189851Y-54770472D01*
X199343387Y-54688405D01*
X199477962Y-54577962D01*
X199500000Y-54551109D01*
X199522038Y-54577962D01*
X199656613Y-54688405D01*
X199740000Y-54732977D01*
X199740001Y-61125650D01*
X199726185Y-61108815D01*
X199629494Y-61029463D01*
X199519180Y-60970498D01*
X199399482Y-60934188D01*
X199275000Y-60921928D01*
X198725000Y-60921928D01*
X198600518Y-60934188D01*
X198600000Y-60934345D01*
X198599482Y-60934188D01*
X198475000Y-60921928D01*
X197925000Y-60921928D01*
X197800518Y-60934188D01*
X197800000Y-60934345D01*
X197799482Y-60934188D01*
X197675000Y-60921928D01*
X197125000Y-60921928D01*
X197000518Y-60934188D01*
X197000000Y-60934345D01*
X196999482Y-60934188D01*
X196937259Y-60928060D01*
X196953405Y-60908386D01*
X197035472Y-60754850D01*
X197086008Y-60588254D01*
X197103072Y-60415000D01*
X197103072Y-59740000D01*
X197086008Y-59566746D01*
X197035472Y-59400150D01*
X196953405Y-59246614D01*
X196842962Y-59112038D01*
X196836406Y-59106658D01*
X196916185Y-59041185D01*
X196995537Y-58944494D01*
X197054502Y-58834180D01*
X197090812Y-58714482D01*
X197103072Y-58590000D01*
X197100000Y-58288250D01*
X196941250Y-58129500D01*
X195867000Y-58129500D01*
X195867000Y-58149500D01*
X195613000Y-58149500D01*
X195613000Y-58129500D01*
X194538750Y-58129500D01*
X194536250Y-58132000D01*
X193837000Y-58132000D01*
X193837000Y-58152000D01*
X193583000Y-58152000D01*
X193583000Y-58132000D01*
X193563000Y-58132000D01*
X193563000Y-57878000D01*
X193583000Y-57878000D01*
X193583000Y-56941250D01*
X193837000Y-56941250D01*
X193837000Y-57878000D01*
X194911250Y-57878000D01*
X194913750Y-57875500D01*
X195613000Y-57875500D01*
X195613000Y-56938750D01*
X195867000Y-56938750D01*
X195867000Y-57875500D01*
X196941250Y-57875500D01*
X197100000Y-57716750D01*
X197103072Y-57415000D01*
X197090812Y-57290518D01*
X197054502Y-57170820D01*
X196995537Y-57060506D01*
X196916185Y-56963815D01*
X196819494Y-56884463D01*
X196709180Y-56825498D01*
X196589482Y-56789188D01*
X196465000Y-56776928D01*
X196025750Y-56780000D01*
X195867000Y-56938750D01*
X195613000Y-56938750D01*
X195454250Y-56780000D01*
X195015000Y-56776928D01*
X194890518Y-56789188D01*
X194770820Y-56825498D01*
X194722661Y-56851240D01*
X194679180Y-56827998D01*
X194559482Y-56791688D01*
X194435000Y-56779428D01*
X193995750Y-56782500D01*
X193837000Y-56941250D01*
X193583000Y-56941250D01*
X193424250Y-56782500D01*
X192985000Y-56779428D01*
X192860518Y-56791688D01*
X192740820Y-56827998D01*
X192630506Y-56886963D01*
X192533815Y-56966315D01*
X192454463Y-57063006D01*
X192395498Y-57173320D01*
X192359188Y-57293018D01*
X192346928Y-57417500D01*
X192347188Y-57443057D01*
X190193134Y-55289003D01*
X190169331Y-55259999D01*
X190053606Y-55165026D01*
X189921577Y-55094454D01*
X189778316Y-55050997D01*
X189666663Y-55040000D01*
X189666652Y-55040000D01*
X189629330Y-55036324D01*
X189592008Y-55040000D01*
X185844468Y-55040000D01*
X185831185Y-55023815D01*
X185734494Y-54944463D01*
X185624180Y-54885498D01*
X185504482Y-54849188D01*
X185380000Y-54836928D01*
X184687873Y-54836928D01*
X185324801Y-54200000D01*
X192786928Y-54200000D01*
X192799188Y-54324482D01*
X192835498Y-54444180D01*
X192894463Y-54554494D01*
X192973815Y-54651185D01*
X193070506Y-54730537D01*
X193180820Y-54789502D01*
X193300518Y-54825812D01*
X193425000Y-54838072D01*
X193714250Y-54835000D01*
X193873000Y-54676250D01*
X193873000Y-53627000D01*
X192948750Y-53627000D01*
X192790000Y-53785750D01*
X192786928Y-54200000D01*
X185324801Y-54200000D01*
X187324801Y-52200000D01*
X192786928Y-52200000D01*
X192799188Y-52324482D01*
X192835498Y-52444180D01*
X192865335Y-52500000D01*
X192835498Y-52555820D01*
X192799188Y-52675518D01*
X192786928Y-52800000D01*
X192790000Y-53214250D01*
X192948750Y-53373000D01*
X193873000Y-53373000D01*
X193873000Y-51627000D01*
X192948750Y-51627000D01*
X192790000Y-51785750D01*
X192786928Y-52200000D01*
X187324801Y-52200000D01*
X188289812Y-51234990D01*
X192810740Y-51234990D01*
X192948750Y-51373000D01*
%TA.AperFunction,Conductor*%
D25*
G36*
X192948750Y-51373000D02*
G01*
X193873000Y-51373000D01*
X193873000Y-51353000D01*
X194127000Y-51353000D01*
X194127000Y-51373000D01*
X194147000Y-51373000D01*
X194147000Y-51627000D01*
X194127000Y-51627000D01*
X194127000Y-53373000D01*
X194147000Y-53373000D01*
X194147000Y-53627000D01*
X194127000Y-53627000D01*
X194127000Y-54676250D01*
X194285750Y-54835000D01*
X194575000Y-54838072D01*
X194699482Y-54825812D01*
X194819180Y-54789502D01*
X194929494Y-54730537D01*
X195026185Y-54651185D01*
X195091658Y-54571406D01*
X195097038Y-54577962D01*
X195231613Y-54688405D01*
X195385149Y-54770472D01*
X195551745Y-54821008D01*
X195724999Y-54838072D01*
X196375001Y-54838072D01*
X196548255Y-54821008D01*
X196714851Y-54770472D01*
X196868387Y-54688405D01*
X197002962Y-54577962D01*
X197113405Y-54443387D01*
X197195472Y-54289851D01*
X197204527Y-54260000D01*
X197320473Y-54260000D01*
X197329528Y-54289851D01*
X197411595Y-54443387D01*
X197522038Y-54577962D01*
X197656613Y-54688405D01*
X197810149Y-54770472D01*
X197976745Y-54821008D01*
X198149999Y-54838072D01*
X198850001Y-54838072D01*
X199023255Y-54821008D01*
X199189851Y-54770472D01*
X199343387Y-54688405D01*
X199477962Y-54577962D01*
X199500000Y-54551109D01*
X199522038Y-54577962D01*
X199656613Y-54688405D01*
X199740000Y-54732977D01*
X199740001Y-61125650D01*
X199726185Y-61108815D01*
X199629494Y-61029463D01*
X199519180Y-60970498D01*
X199399482Y-60934188D01*
X199275000Y-60921928D01*
X198725000Y-60921928D01*
X198600518Y-60934188D01*
X198600000Y-60934345D01*
X198599482Y-60934188D01*
X198475000Y-60921928D01*
X197925000Y-60921928D01*
X197800518Y-60934188D01*
X197800000Y-60934345D01*
X197799482Y-60934188D01*
X197675000Y-60921928D01*
X197125000Y-60921928D01*
X197000518Y-60934188D01*
X197000000Y-60934345D01*
X196999482Y-60934188D01*
X196937259Y-60928060D01*
X196953405Y-60908386D01*
X197035472Y-60754850D01*
X197086008Y-60588254D01*
X197103072Y-60415000D01*
X197103072Y-59740000D01*
X197086008Y-59566746D01*
X197035472Y-59400150D01*
X196953405Y-59246614D01*
X196842962Y-59112038D01*
X196836406Y-59106658D01*
X196916185Y-59041185D01*
X196995537Y-58944494D01*
X197054502Y-58834180D01*
X197090812Y-58714482D01*
X197103072Y-58590000D01*
X197100000Y-58288250D01*
X196941250Y-58129500D01*
X195867000Y-58129500D01*
X195867000Y-58149500D01*
X195613000Y-58149500D01*
X195613000Y-58129500D01*
X194538750Y-58129500D01*
X194536250Y-58132000D01*
X193837000Y-58132000D01*
X193837000Y-58152000D01*
X193583000Y-58152000D01*
X193583000Y-58132000D01*
X193563000Y-58132000D01*
X193563000Y-57878000D01*
X193583000Y-57878000D01*
X193583000Y-56941250D01*
X193837000Y-56941250D01*
X193837000Y-57878000D01*
X194911250Y-57878000D01*
X194913750Y-57875500D01*
X195613000Y-57875500D01*
X195613000Y-56938750D01*
X195867000Y-56938750D01*
X195867000Y-57875500D01*
X196941250Y-57875500D01*
X197100000Y-57716750D01*
X197103072Y-57415000D01*
X197090812Y-57290518D01*
X197054502Y-57170820D01*
X196995537Y-57060506D01*
X196916185Y-56963815D01*
X196819494Y-56884463D01*
X196709180Y-56825498D01*
X196589482Y-56789188D01*
X196465000Y-56776928D01*
X196025750Y-56780000D01*
X195867000Y-56938750D01*
X195613000Y-56938750D01*
X195454250Y-56780000D01*
X195015000Y-56776928D01*
X194890518Y-56789188D01*
X194770820Y-56825498D01*
X194722661Y-56851240D01*
X194679180Y-56827998D01*
X194559482Y-56791688D01*
X194435000Y-56779428D01*
X193995750Y-56782500D01*
X193837000Y-56941250D01*
X193583000Y-56941250D01*
X193424250Y-56782500D01*
X192985000Y-56779428D01*
X192860518Y-56791688D01*
X192740820Y-56827998D01*
X192630506Y-56886963D01*
X192533815Y-56966315D01*
X192454463Y-57063006D01*
X192395498Y-57173320D01*
X192359188Y-57293018D01*
X192346928Y-57417500D01*
X192347188Y-57443057D01*
X190193134Y-55289003D01*
X190169331Y-55259999D01*
X190053606Y-55165026D01*
X189921577Y-55094454D01*
X189778316Y-55050997D01*
X189666663Y-55040000D01*
X189666652Y-55040000D01*
X189629330Y-55036324D01*
X189592008Y-55040000D01*
X185844468Y-55040000D01*
X185831185Y-55023815D01*
X185734494Y-54944463D01*
X185624180Y-54885498D01*
X185504482Y-54849188D01*
X185380000Y-54836928D01*
X184687873Y-54836928D01*
X185324801Y-54200000D01*
X192786928Y-54200000D01*
X192799188Y-54324482D01*
X192835498Y-54444180D01*
X192894463Y-54554494D01*
X192973815Y-54651185D01*
X193070506Y-54730537D01*
X193180820Y-54789502D01*
X193300518Y-54825812D01*
X193425000Y-54838072D01*
X193714250Y-54835000D01*
X193873000Y-54676250D01*
X193873000Y-53627000D01*
X192948750Y-53627000D01*
X192790000Y-53785750D01*
X192786928Y-54200000D01*
X185324801Y-54200000D01*
X187324801Y-52200000D01*
X192786928Y-52200000D01*
X192799188Y-52324482D01*
X192835498Y-52444180D01*
X192865335Y-52500000D01*
X192835498Y-52555820D01*
X192799188Y-52675518D01*
X192786928Y-52800000D01*
X192790000Y-53214250D01*
X192948750Y-53373000D01*
X193873000Y-53373000D01*
X193873000Y-51627000D01*
X192948750Y-51627000D01*
X192790000Y-51785750D01*
X192786928Y-52200000D01*
X187324801Y-52200000D01*
X188289812Y-51234990D01*
X192810740Y-51234990D01*
X192948750Y-51373000D01*
G37*
%TD.AperFunction*%
D24*
X181776809Y-54938421D02*
X181765506Y-54944463D01*
X181668815Y-55023815D01*
X181589463Y-55120506D01*
X181530498Y-55230820D01*
X181494188Y-55350518D01*
X181481928Y-55475000D01*
X181481928Y-56125000D01*
X181494178Y-56249376D01*
X179983804Y-54739003D01*
X179960001Y-54709999D01*
X179938072Y-54692002D01*
X179938072Y-54450000D01*
X179925812Y-54325518D01*
X179889502Y-54205820D01*
X179830537Y-54095506D01*
X179817867Y-54080068D01*
X179869180Y-54064502D01*
X179979494Y-54005537D01*
X180076185Y-53926185D01*
X180155537Y-53829494D01*
X180214502Y-53719180D01*
X180250812Y-53599482D01*
X180263072Y-53475000D01*
X180262718Y-53424329D01*
X181776809Y-54938421D01*
%TA.AperFunction,Conductor*%
D25*
G36*
X181776809Y-54938421D02*
G01*
X181765506Y-54944463D01*
X181668815Y-55023815D01*
X181589463Y-55120506D01*
X181530498Y-55230820D01*
X181494188Y-55350518D01*
X181481928Y-55475000D01*
X181481928Y-56125000D01*
X181494178Y-56249376D01*
X179983804Y-54739003D01*
X179960001Y-54709999D01*
X179938072Y-54692002D01*
X179938072Y-54450000D01*
X179925812Y-54325518D01*
X179889502Y-54205820D01*
X179830537Y-54095506D01*
X179817867Y-54080068D01*
X179869180Y-54064502D01*
X179979494Y-54005537D01*
X180076185Y-53926185D01*
X180155537Y-53829494D01*
X180214502Y-53719180D01*
X180250812Y-53599482D01*
X180263072Y-53475000D01*
X180262718Y-53424329D01*
X181776809Y-54938421D01*
G37*
%TD.AperFunction*%
D24*
X212098815Y-53906185D02*
X212107308Y-53913155D01*
X212095506Y-53919463D01*
X212000000Y-53997842D01*
X211913527Y-53926876D01*
X212027962Y-53832962D01*
X212033342Y-53826406D01*
X212098815Y-53906185D01*
%TA.AperFunction,Conductor*%
D25*
G36*
X212098815Y-53906185D02*
G01*
X212107308Y-53913155D01*
X212095506Y-53919463D01*
X212000000Y-53997842D01*
X211913527Y-53926876D01*
X212027962Y-53832962D01*
X212033342Y-53826406D01*
X212098815Y-53906185D01*
G37*
%TD.AperFunction*%
D24*
X179164500Y-52623000D02*
X179184500Y-52623000D01*
X179184500Y-52877000D01*
X179164500Y-52877000D01*
X179164500Y-52897000D01*
X178910500Y-52897000D01*
X178910500Y-52877000D01*
X178890500Y-52877000D01*
X178890500Y-52623000D01*
X178910500Y-52623000D01*
X178910500Y-52603000D01*
X179164500Y-52603000D01*
X179164500Y-52623000D01*
%TA.AperFunction,Conductor*%
D25*
G36*
X179164500Y-52623000D02*
G01*
X179184500Y-52623000D01*
X179184500Y-52877000D01*
X179164500Y-52877000D01*
X179164500Y-52897000D01*
X178910500Y-52897000D01*
X178910500Y-52877000D01*
X178890500Y-52877000D01*
X178890500Y-52623000D01*
X178910500Y-52623000D01*
X178910500Y-52603000D01*
X179164500Y-52603000D01*
X179164500Y-52623000D01*
G37*
%TD.AperFunction*%
%TD*%
M02*
