%TF.GenerationSoftware,KiCad,Pcbnew,(5.1.9)-1*%
%TF.CreationDate,2021-04-07T03:10:53+02:00*%
%TF.ProjectId,HB-RC-6-PBU-LED,48422d52-432d-4362-9d50-42552d4c4544,rev?*%
%TF.SameCoordinates,Original*%
%TF.FileFunction,Soldermask,Top*%
%TF.FilePolarity,Negative*%
%FSLAX46Y46*%
G04 Gerber Fmt 4.6, Leading zero omitted, Abs format (unit mm)*
G04 Created by KiCad (PCBNEW (5.1.9)-1) date 2021-04-07 03:10:53*
%MOMM*%
%LPD*%
G01*
G04 APERTURE LIST*
%ADD10R,1.500000X0.550000*%
%ADD11R,0.550000X1.500000*%
%ADD12R,2.180000X1.600000*%
%ADD13O,1.270000X1.270000*%
%ADD14C,1.270000*%
%ADD15C,3.300000*%
%ADD16R,1.200000X2.000000*%
%ADD17O,1.700000X1.700000*%
%ADD18R,1.700000X1.700000*%
%ADD19R,1.060000X0.650000*%
%ADD20R,1.600000X2.180000*%
%ADD21R,0.850000X1.600000*%
G04 APERTURE END LIST*
D10*
%TO.C,U1*%
X189300000Y-72010000D03*
X189300000Y-71210000D03*
X189300000Y-70410000D03*
X189300000Y-69610000D03*
X189300000Y-68810000D03*
X189300000Y-68010000D03*
X189300000Y-67210000D03*
X189300000Y-66410000D03*
X189300000Y-65610000D03*
X189300000Y-64810000D03*
X189300000Y-64010000D03*
D11*
X191000000Y-62310000D03*
X191800000Y-62310000D03*
X192600000Y-62310000D03*
X193400000Y-62310000D03*
X194200000Y-62310000D03*
X195000000Y-62310000D03*
X195800000Y-62310000D03*
X196600000Y-62310000D03*
X197400000Y-62310000D03*
X198200000Y-62310000D03*
X199000000Y-62310000D03*
D10*
X200700000Y-64010000D03*
X200700000Y-64810000D03*
X200700000Y-65610000D03*
X200700000Y-66410000D03*
X200700000Y-67210000D03*
X200700000Y-68010000D03*
X200700000Y-68810000D03*
X200700000Y-69610000D03*
X200700000Y-70410000D03*
X200700000Y-71210000D03*
X200700000Y-72010000D03*
D11*
X199000000Y-73710000D03*
X198200000Y-73710000D03*
X197400000Y-73710000D03*
X196600000Y-73710000D03*
X195800000Y-73710000D03*
X195000000Y-73710000D03*
X194200000Y-73710000D03*
X193400000Y-73710000D03*
X192600000Y-73710000D03*
X191800000Y-73710000D03*
X191000000Y-73710000D03*
%TD*%
D12*
%TO.C,SW1*%
X190410000Y-77250000D03*
X199590000Y-77250000D03*
%TD*%
%TO.C,D2*%
G36*
G01*
X195475000Y-51950001D02*
X195475000Y-51049999D01*
G75*
G02*
X195724999Y-50800000I249999J0D01*
G01*
X196375001Y-50800000D01*
G75*
G02*
X196625000Y-51049999I0J-249999D01*
G01*
X196625000Y-51950001D01*
G75*
G02*
X196375001Y-52200000I-249999J0D01*
G01*
X195724999Y-52200000D01*
G75*
G02*
X195475000Y-51950001I0J249999D01*
G01*
G37*
G36*
G01*
X193425000Y-51950001D02*
X193425000Y-51049999D01*
G75*
G02*
X193674999Y-50800000I249999J0D01*
G01*
X194325001Y-50800000D01*
G75*
G02*
X194575000Y-51049999I0J-249999D01*
G01*
X194575000Y-51950001D01*
G75*
G02*
X194325001Y-52200000I-249999J0D01*
G01*
X193674999Y-52200000D01*
G75*
G02*
X193425000Y-51950001I0J249999D01*
G01*
G37*
%TD*%
%TO.C,D1*%
G36*
G01*
X195475000Y-53950001D02*
X195475000Y-53049999D01*
G75*
G02*
X195724999Y-52800000I249999J0D01*
G01*
X196375001Y-52800000D01*
G75*
G02*
X196625000Y-53049999I0J-249999D01*
G01*
X196625000Y-53950001D01*
G75*
G02*
X196375001Y-54200000I-249999J0D01*
G01*
X195724999Y-54200000D01*
G75*
G02*
X195475000Y-53950001I0J249999D01*
G01*
G37*
G36*
G01*
X193425000Y-53950001D02*
X193425000Y-53049999D01*
G75*
G02*
X193674999Y-52800000I249999J0D01*
G01*
X194325001Y-52800000D01*
G75*
G02*
X194575000Y-53049999I0J-249999D01*
G01*
X194575000Y-53950001D01*
G75*
G02*
X194325001Y-54200000I-249999J0D01*
G01*
X193674999Y-54200000D01*
G75*
G02*
X193425000Y-53950001I0J249999D01*
G01*
G37*
%TD*%
D13*
%TO.C,IC1*%
X202000000Y-82000000D03*
X200000000Y-82000000D03*
D14*
X198000000Y-82000000D03*
X196000000Y-82000000D03*
X194000000Y-82000000D03*
X192000000Y-82000000D03*
X190000000Y-82000000D03*
X188000000Y-82000000D03*
D15*
X193984000Y-99526000D03*
D16*
X202000000Y-81000000D03*
X200000000Y-81000000D03*
X198000000Y-81000000D03*
X196000000Y-81000000D03*
X194000000Y-81000000D03*
X192000000Y-81000000D03*
X190000000Y-81000000D03*
X188000000Y-81000000D03*
%TD*%
D17*
%TO.C,J2*%
X206000000Y-85480000D03*
X206000000Y-88020000D03*
X206000000Y-90560000D03*
X206000000Y-93100000D03*
X206000000Y-95640000D03*
D18*
X206000000Y-98180000D03*
%TD*%
D17*
%TO.C,J3*%
X184000000Y-98200000D03*
X184000000Y-95660000D03*
D18*
X184000000Y-93120000D03*
D17*
X184000000Y-90580000D03*
X184000000Y-88040000D03*
X184000000Y-85500000D03*
%TD*%
%TO.C,C13*%
G36*
G01*
X177550000Y-52275000D02*
X177550000Y-53225000D01*
G75*
G02*
X177300000Y-53475000I-250000J0D01*
G01*
X176625000Y-53475000D01*
G75*
G02*
X176375000Y-53225000I0J250000D01*
G01*
X176375000Y-52275000D01*
G75*
G02*
X176625000Y-52025000I250000J0D01*
G01*
X177300000Y-52025000D01*
G75*
G02*
X177550000Y-52275000I0J-250000D01*
G01*
G37*
G36*
G01*
X179625000Y-52275000D02*
X179625000Y-53225000D01*
G75*
G02*
X179375000Y-53475000I-250000J0D01*
G01*
X178700000Y-53475000D01*
G75*
G02*
X178450000Y-53225000I0J250000D01*
G01*
X178450000Y-52275000D01*
G75*
G02*
X178700000Y-52025000I250000J0D01*
G01*
X179375000Y-52025000D01*
G75*
G02*
X179625000Y-52275000I0J-250000D01*
G01*
G37*
%TD*%
%TO.C,C12*%
G36*
G01*
X211550000Y-88275000D02*
X211550000Y-89225000D01*
G75*
G02*
X211300000Y-89475000I-250000J0D01*
G01*
X210625000Y-89475000D01*
G75*
G02*
X210375000Y-89225000I0J250000D01*
G01*
X210375000Y-88275000D01*
G75*
G02*
X210625000Y-88025000I250000J0D01*
G01*
X211300000Y-88025000D01*
G75*
G02*
X211550000Y-88275000I0J-250000D01*
G01*
G37*
G36*
G01*
X213625000Y-88275000D02*
X213625000Y-89225000D01*
G75*
G02*
X213375000Y-89475000I-250000J0D01*
G01*
X212700000Y-89475000D01*
G75*
G02*
X212450000Y-89225000I0J250000D01*
G01*
X212450000Y-88275000D01*
G75*
G02*
X212700000Y-88025000I250000J0D01*
G01*
X213375000Y-88025000D01*
G75*
G02*
X213625000Y-88275000I0J-250000D01*
G01*
G37*
%TD*%
%TO.C,C11*%
G36*
G01*
X211550000Y-70275000D02*
X211550000Y-71225000D01*
G75*
G02*
X211300000Y-71475000I-250000J0D01*
G01*
X210625000Y-71475000D01*
G75*
G02*
X210375000Y-71225000I0J250000D01*
G01*
X210375000Y-70275000D01*
G75*
G02*
X210625000Y-70025000I250000J0D01*
G01*
X211300000Y-70025000D01*
G75*
G02*
X211550000Y-70275000I0J-250000D01*
G01*
G37*
G36*
G01*
X213625000Y-70275000D02*
X213625000Y-71225000D01*
G75*
G02*
X213375000Y-71475000I-250000J0D01*
G01*
X212700000Y-71475000D01*
G75*
G02*
X212450000Y-71225000I0J250000D01*
G01*
X212450000Y-70275000D01*
G75*
G02*
X212700000Y-70025000I250000J0D01*
G01*
X213375000Y-70025000D01*
G75*
G02*
X213625000Y-70275000I0J-250000D01*
G01*
G37*
%TD*%
%TO.C,C10*%
G36*
G01*
X211650000Y-52255000D02*
X211650000Y-53205000D01*
G75*
G02*
X211400000Y-53455000I-250000J0D01*
G01*
X210725000Y-53455000D01*
G75*
G02*
X210475000Y-53205000I0J250000D01*
G01*
X210475000Y-52255000D01*
G75*
G02*
X210725000Y-52005000I250000J0D01*
G01*
X211400000Y-52005000D01*
G75*
G02*
X211650000Y-52255000I0J-250000D01*
G01*
G37*
G36*
G01*
X213725000Y-52255000D02*
X213725000Y-53205000D01*
G75*
G02*
X213475000Y-53455000I-250000J0D01*
G01*
X212800000Y-53455000D01*
G75*
G02*
X212550000Y-53205000I0J250000D01*
G01*
X212550000Y-52255000D01*
G75*
G02*
X212800000Y-52005000I250000J0D01*
G01*
X213475000Y-52005000D01*
G75*
G02*
X213725000Y-52255000I0J-250000D01*
G01*
G37*
%TD*%
%TO.C,C9*%
G36*
G01*
X177550000Y-88275000D02*
X177550000Y-89225000D01*
G75*
G02*
X177300000Y-89475000I-250000J0D01*
G01*
X176625000Y-89475000D01*
G75*
G02*
X176375000Y-89225000I0J250000D01*
G01*
X176375000Y-88275000D01*
G75*
G02*
X176625000Y-88025000I250000J0D01*
G01*
X177300000Y-88025000D01*
G75*
G02*
X177550000Y-88275000I0J-250000D01*
G01*
G37*
G36*
G01*
X179625000Y-88275000D02*
X179625000Y-89225000D01*
G75*
G02*
X179375000Y-89475000I-250000J0D01*
G01*
X178700000Y-89475000D01*
G75*
G02*
X178450000Y-89225000I0J250000D01*
G01*
X178450000Y-88275000D01*
G75*
G02*
X178700000Y-88025000I250000J0D01*
G01*
X179375000Y-88025000D01*
G75*
G02*
X179625000Y-88275000I0J-250000D01*
G01*
G37*
%TD*%
%TO.C,C8*%
G36*
G01*
X177550000Y-70275000D02*
X177550000Y-71225000D01*
G75*
G02*
X177300000Y-71475000I-250000J0D01*
G01*
X176625000Y-71475000D01*
G75*
G02*
X176375000Y-71225000I0J250000D01*
G01*
X176375000Y-70275000D01*
G75*
G02*
X176625000Y-70025000I250000J0D01*
G01*
X177300000Y-70025000D01*
G75*
G02*
X177550000Y-70275000I0J-250000D01*
G01*
G37*
G36*
G01*
X179625000Y-70275000D02*
X179625000Y-71225000D01*
G75*
G02*
X179375000Y-71475000I-250000J0D01*
G01*
X178700000Y-71475000D01*
G75*
G02*
X178450000Y-71225000I0J250000D01*
G01*
X178450000Y-70275000D01*
G75*
G02*
X178700000Y-70025000I250000J0D01*
G01*
X179375000Y-70025000D01*
G75*
G02*
X179625000Y-70275000I0J-250000D01*
G01*
G37*
%TD*%
D19*
%TO.C,U3*%
X184850000Y-56750000D03*
X184850000Y-55800000D03*
X184850000Y-57700000D03*
X182650000Y-57700000D03*
X182650000Y-56750000D03*
X182650000Y-55800000D03*
%TD*%
D20*
%TO.C,SW7*%
X217000000Y-88410000D03*
X217000000Y-97590000D03*
%TD*%
%TO.C,SW6*%
X217000000Y-70410000D03*
X217000000Y-79590000D03*
%TD*%
%TO.C,SW5*%
X217000000Y-61590000D03*
X217000000Y-52410000D03*
%TD*%
%TO.C,SW4*%
X173000000Y-88410000D03*
X173000000Y-97590000D03*
%TD*%
%TO.C,SW3*%
X173000000Y-70410000D03*
X173000000Y-79590000D03*
%TD*%
%TO.C,SW2*%
X173000000Y-61590000D03*
X173000000Y-52410000D03*
%TD*%
%TO.C,R4*%
G36*
G01*
X187400000Y-76950001D02*
X187400000Y-76049999D01*
G75*
G02*
X187649999Y-75800000I249999J0D01*
G01*
X188350001Y-75800000D01*
G75*
G02*
X188600000Y-76049999I0J-249999D01*
G01*
X188600000Y-76950001D01*
G75*
G02*
X188350001Y-77200000I-249999J0D01*
G01*
X187649999Y-77200000D01*
G75*
G02*
X187400000Y-76950001I0J249999D01*
G01*
G37*
G36*
G01*
X185400000Y-76950001D02*
X185400000Y-76049999D01*
G75*
G02*
X185649999Y-75800000I249999J0D01*
G01*
X186350001Y-75800000D01*
G75*
G02*
X186600000Y-76049999I0J-249999D01*
G01*
X186600000Y-76950001D01*
G75*
G02*
X186350001Y-77200000I-249999J0D01*
G01*
X185649999Y-77200000D01*
G75*
G02*
X185400000Y-76950001I0J249999D01*
G01*
G37*
%TD*%
%TO.C,R3*%
G36*
G01*
X183549999Y-77900000D02*
X184450001Y-77900000D01*
G75*
G02*
X184700000Y-78149999I0J-249999D01*
G01*
X184700000Y-78850001D01*
G75*
G02*
X184450001Y-79100000I-249999J0D01*
G01*
X183549999Y-79100000D01*
G75*
G02*
X183300000Y-78850001I0J249999D01*
G01*
X183300000Y-78149999D01*
G75*
G02*
X183549999Y-77900000I249999J0D01*
G01*
G37*
G36*
G01*
X183549999Y-75900000D02*
X184450001Y-75900000D01*
G75*
G02*
X184700000Y-76149999I0J-249999D01*
G01*
X184700000Y-76850001D01*
G75*
G02*
X184450001Y-77100000I-249999J0D01*
G01*
X183549999Y-77100000D01*
G75*
G02*
X183300000Y-76850001I0J249999D01*
G01*
X183300000Y-76149999D01*
G75*
G02*
X183549999Y-75900000I249999J0D01*
G01*
G37*
%TD*%
%TO.C,R2*%
G36*
G01*
X199100000Y-51049999D02*
X199100000Y-51950001D01*
G75*
G02*
X198850001Y-52200000I-249999J0D01*
G01*
X198149999Y-52200000D01*
G75*
G02*
X197900000Y-51950001I0J249999D01*
G01*
X197900000Y-51049999D01*
G75*
G02*
X198149999Y-50800000I249999J0D01*
G01*
X198850001Y-50800000D01*
G75*
G02*
X199100000Y-51049999I0J-249999D01*
G01*
G37*
G36*
G01*
X201100000Y-51049999D02*
X201100000Y-51950001D01*
G75*
G02*
X200850001Y-52200000I-249999J0D01*
G01*
X200149999Y-52200000D01*
G75*
G02*
X199900000Y-51950001I0J249999D01*
G01*
X199900000Y-51049999D01*
G75*
G02*
X200149999Y-50800000I249999J0D01*
G01*
X200850001Y-50800000D01*
G75*
G02*
X201100000Y-51049999I0J-249999D01*
G01*
G37*
%TD*%
%TO.C,R1*%
G36*
G01*
X199100000Y-53049999D02*
X199100000Y-53950001D01*
G75*
G02*
X198850001Y-54200000I-249999J0D01*
G01*
X198149999Y-54200000D01*
G75*
G02*
X197900000Y-53950001I0J249999D01*
G01*
X197900000Y-53049999D01*
G75*
G02*
X198149999Y-52800000I249999J0D01*
G01*
X198850001Y-52800000D01*
G75*
G02*
X199100000Y-53049999I0J-249999D01*
G01*
G37*
G36*
G01*
X201100000Y-53049999D02*
X201100000Y-53950001D01*
G75*
G02*
X200850001Y-54200000I-249999J0D01*
G01*
X200149999Y-54200000D01*
G75*
G02*
X199900000Y-53950001I0J249999D01*
G01*
X199900000Y-53049999D01*
G75*
G02*
X200149999Y-52800000I249999J0D01*
G01*
X200850001Y-52800000D01*
G75*
G02*
X201100000Y-53049999I0J-249999D01*
G01*
G37*
%TD*%
D21*
%TO.C,D8*%
X211125000Y-94750000D03*
X212875000Y-94750000D03*
X211125000Y-91250000D03*
X212875000Y-91250000D03*
%TD*%
%TO.C,D5*%
X177125000Y-94750000D03*
X178875000Y-94750000D03*
X177125000Y-91250000D03*
X178875000Y-91250000D03*
%TD*%
%TO.C,D7*%
X211125000Y-76750000D03*
X212875000Y-76750000D03*
X211125000Y-73250000D03*
X212875000Y-73250000D03*
%TD*%
%TO.C,D4*%
X177125000Y-76750000D03*
X178875000Y-76750000D03*
X177125000Y-73250000D03*
X178875000Y-73250000D03*
%TD*%
%TO.C,D6*%
X211125000Y-58750000D03*
X212875000Y-58750000D03*
X211125000Y-55250000D03*
X212875000Y-55250000D03*
%TD*%
%TO.C,D3*%
X177125000Y-58750000D03*
X178875000Y-58750000D03*
X177125000Y-55250000D03*
X178875000Y-55250000D03*
%TD*%
%TO.C,C7*%
G36*
G01*
X194185000Y-58592500D02*
X193235000Y-58592500D01*
G75*
G02*
X192985000Y-58342500I0J250000D01*
G01*
X192985000Y-57667500D01*
G75*
G02*
X193235000Y-57417500I250000J0D01*
G01*
X194185000Y-57417500D01*
G75*
G02*
X194435000Y-57667500I0J-250000D01*
G01*
X194435000Y-58342500D01*
G75*
G02*
X194185000Y-58592500I-250000J0D01*
G01*
G37*
G36*
G01*
X194185000Y-60667500D02*
X193235000Y-60667500D01*
G75*
G02*
X192985000Y-60417500I0J250000D01*
G01*
X192985000Y-59742500D01*
G75*
G02*
X193235000Y-59492500I250000J0D01*
G01*
X194185000Y-59492500D01*
G75*
G02*
X194435000Y-59742500I0J-250000D01*
G01*
X194435000Y-60417500D01*
G75*
G02*
X194185000Y-60667500I-250000J0D01*
G01*
G37*
%TD*%
%TO.C,C5*%
G36*
G01*
X204412500Y-68975000D02*
X204412500Y-68025000D01*
G75*
G02*
X204662500Y-67775000I250000J0D01*
G01*
X205337500Y-67775000D01*
G75*
G02*
X205587500Y-68025000I0J-250000D01*
G01*
X205587500Y-68975000D01*
G75*
G02*
X205337500Y-69225000I-250000J0D01*
G01*
X204662500Y-69225000D01*
G75*
G02*
X204412500Y-68975000I0J250000D01*
G01*
G37*
G36*
G01*
X202337500Y-68975000D02*
X202337500Y-68025000D01*
G75*
G02*
X202587500Y-67775000I250000J0D01*
G01*
X203262500Y-67775000D01*
G75*
G02*
X203512500Y-68025000I0J-250000D01*
G01*
X203512500Y-68975000D01*
G75*
G02*
X203262500Y-69225000I-250000J0D01*
G01*
X202587500Y-69225000D01*
G75*
G02*
X202337500Y-68975000I0J250000D01*
G01*
G37*
%TD*%
%TO.C,C4*%
G36*
G01*
X196215000Y-58590000D02*
X195265000Y-58590000D01*
G75*
G02*
X195015000Y-58340000I0J250000D01*
G01*
X195015000Y-57665000D01*
G75*
G02*
X195265000Y-57415000I250000J0D01*
G01*
X196215000Y-57415000D01*
G75*
G02*
X196465000Y-57665000I0J-250000D01*
G01*
X196465000Y-58340000D01*
G75*
G02*
X196215000Y-58590000I-250000J0D01*
G01*
G37*
G36*
G01*
X196215000Y-60665000D02*
X195265000Y-60665000D01*
G75*
G02*
X195015000Y-60415000I0J250000D01*
G01*
X195015000Y-59740000D01*
G75*
G02*
X195265000Y-59490000I250000J0D01*
G01*
X196215000Y-59490000D01*
G75*
G02*
X196465000Y-59740000I0J-250000D01*
G01*
X196465000Y-60415000D01*
G75*
G02*
X196215000Y-60665000I-250000J0D01*
G01*
G37*
%TD*%
%TO.C,C2*%
G36*
G01*
X184475000Y-81262500D02*
X183525000Y-81262500D01*
G75*
G02*
X183275000Y-81012500I0J250000D01*
G01*
X183275000Y-80337500D01*
G75*
G02*
X183525000Y-80087500I250000J0D01*
G01*
X184475000Y-80087500D01*
G75*
G02*
X184725000Y-80337500I0J-250000D01*
G01*
X184725000Y-81012500D01*
G75*
G02*
X184475000Y-81262500I-250000J0D01*
G01*
G37*
G36*
G01*
X184475000Y-83337500D02*
X183525000Y-83337500D01*
G75*
G02*
X183275000Y-83087500I0J250000D01*
G01*
X183275000Y-82412500D01*
G75*
G02*
X183525000Y-82162500I250000J0D01*
G01*
X184475000Y-82162500D01*
G75*
G02*
X184725000Y-82412500I0J-250000D01*
G01*
X184725000Y-83087500D01*
G75*
G02*
X184475000Y-83337500I-250000J0D01*
G01*
G37*
%TD*%
M02*
